<?xml version="1.0" standalone="no"?>
<!DOCTYPE svg PUBLIC "-//W3C//DTD SVG 1.1//EN" "http://www.w3.org/Graphics/SVG/1.1/DTD/svg11.dtd" >
<svg>
<metadata>
Created by FontForge 20090914 at Sun Apr  8 10:27:22 2012
 By www-data
Copyright (c) 2011 Typesenses (typesenses@live.com.ar), with Reserved Font Name "Rouge Script"
</metadata>
<defs>
<font id="RougeScript-Regular" horiz-adv-x="462" >
  <font-face 
    font-family="Rouge Script"
    font-weight="400"
    font-stretch="normal"
    units-per-em="1250"
    panose-1="2 0 0 0 0 0 0 0 0 0"
    ascent="1000"
    descent="-250"
    x-height="424"
    cap-height="819"
    bbox="-419.005 -419.002 1409 1050"
    underline-thickness="62"
    underline-position="-63"
    unicode-range="U+0020-U+2122"
  />
<missing-glyph horiz-adv-x="339" 
 />
    <glyph glyph-name=".notdef" horiz-adv-x="339" 
 />
    <glyph glyph-name="space" unicode=" " horiz-adv-x="300" 
 />
    <glyph glyph-name="exclam" unicode="!" horiz-adv-x="299" 
d="M158 153c-14.667 0 -21.999 14.667 -21.999 44c0 6.66699 1.5 20 4.5 40l37.5 261.5l41 286.5c2 14 8.83301 21 20.5 21s21 -7.16699 28 -21.5s10.5 -27.333 10.5 -39s-1 -22.167 -3 -31.5l-100 -541c-2.66699 -13.333 -8.33398 -20 -17.001 -20zM140.001 72
c15.333 0 22.999 -10.332 22.999 -30.999s-10 -37.334 -30 -50.001c-10 -6.66699 -18.667 -10 -26 -10c-10.667 0 -17.334 4.33301 -20.001 13c6 0 10.333 6.5 13 19.5s6.83398 26 12.501 39s14.834 19.5 27.501 19.5z" />
    <glyph glyph-name="quotedbl" unicode="&#x22;" horiz-adv-x="339" 
d="M157 615c-6.66699 0 -10.001 7.16699 -10.001 21.5s0.666992 27.5 2 39.5c3.33301 32 9 62 17 90c4.66699 19.333 15 29 31 29c8 0 13.833 -2.83301 17.5 -8.5s4.83398 -12.834 3.50098 -21.501c-7.33301 -31.333 -17.333 -64.166 -30 -98.499s-23 -51.5 -31 -51.5z
M275.999 615c-6.66699 0 -10 7.16797 -10 21.501s0.666992 27.5 2 39.5c3.33301 32 9 62 17 90c4.66699 19.333 15 29 31 29c14.667 0 22 -7.66699 22 -23c0 -2.66699 -2 -12.334 -6 -29.001s-12.333 -42.167 -25 -76.5s-23 -51.5 -31 -51.5z" />
    <glyph glyph-name="numbersign" unicode="#" horiz-adv-x="669" 
d="M198 206l-40.9961 -224c-2.66699 -14 -8.33398 -21 -17.001 -21s-13 7.33301 -13 22s9.66699 89 29 223h-145c-7.33301 0 -11 2.66699 -11 8c0 10.667 10.667 18 32 22c5.33301 0.666992 13 1 23 1s45 -0.666992 105 -2l18 132h-144c-8 0 -11.667 3 -11 9
c1.33301 14.667 18 22 50 22c14 0 50.333 -0.666992 109 -2c12 84.667 21 145.667 27 183c2 14 8.66699 21 20 21s19.666 -8.66699 24.999 -26c2.66699 -8.66699 4 -18.667 4 -30s-1 -23.333 -3 -36l-21 -113c30 -0.666992 74.667 -2.33398 134 -5.00098l28 189
c2.66699 14 9.5 21 20.5 21s19.167 -8.66699 24.5 -26c2.66699 -8.66699 4 -18.667 4 -30s-1 -23.333 -3 -36l-22 -119c36 -1.33301 84 -2 144 -2c6.66699 0 10 -1.66699 10 -5c0 -9.33301 -14 -14.333 -42 -15h-116c-2.66699 -15.333 -7.16699 -38.666 -13.5 -69.999
s-10.833 -54.333 -13.5 -69c77.333 -1.33301 128 -2 152 -2c7.33301 0 10.666 -2 9.99902 -6c-2.66699 -9.33301 -16.667 -14 -42 -14h-124l-41 -224c-2.66699 -14 -8.33398 -21 -17.001 -21s-13 7.33301 -13 22s9.66699 89 29 223h-145zM229.004 367
c-14 -75.333 -22.333 -119.667 -25 -133l142 -5l19 138h-136z" />
    <glyph glyph-name="dollar" unicode="$" horiz-adv-x="469" 
d="M259 700c1.33301 0 2.66699 -0.665039 4 -1.99805c10 -4 15 -15.333 15 -34c0 -5.33301 -0.333008 -11 -1 -17l-8 -48c30.667 -2.66699 55 -12.167 73 -28.5s27 -36.5 27 -60.5c0 -8 -5.16699 -13.667 -15.5 -17s-20.5 -3.33301 -30.5 0s-15 9 -15 17
c0 36.667 -14.333 58 -43 64l-36 -223c14.667 -14.667 25.667 -25.334 33 -32.001s15.166 -14.334 23.499 -23.001s14.333 -15.5 18 -20.5l15.5 -20.5c6.66699 -8.66699 11.334 -16.5 14.001 -23.5l9 -23.5c6.66699 -14.667 10 -33 10 -55c0 -50 -17 -92.833 -51 -128.5
s-78.333 -55.834 -133 -60.501l-10 -68c-1.33301 -6.66699 -3 -10 -5 -10c-9.33301 0 -14 9 -14 27c0 5.33301 0.333008 11 1 17l4 33c-52 0.666992 -91.5 13.5 -118.5 38.5s-40.5 56.167 -40.5 93.5c0 10.667 5 18.334 15 23.001s20 4.5 30 -0.5s15 -13.833 15 -26.5
c0 -32 7.5 -57.167 22.5 -75.5s41.833 -27.833 80.5 -28.5l44 306c-20.667 20 -36.5 36 -47.5 48s-21.833 29 -32.5 51s-16 45 -16 69c0 37.333 12.5 69 37.5 95s59.5 40.333 103.5 43l14 90c1.33301 7.33301 4 11 8 11zM290.001 133.002
c0 45.333 -24.668 91.333 -74.001 138c-6 -40.667 -14.667 -95.5 -26 -164.5s-17.666 -108.5 -18.999 -118.5c37.333 4.66699 66.5 21 87.5 49s31.5 60 31.5 96zM176 546.002c-14.667 -17.333 -21.998 -40.834 -21.998 -70.501s17 -62.834 51 -99.501
c3.33301 20.667 8.16602 53.834 14.499 99.501s11.166 78.834 14.499 99.501c-24 -2 -43.333 -11.667 -58 -29z" />
    <glyph glyph-name="percent" unicode="%" horiz-adv-x="745" 
d="M158 -102c-6.66699 0 -10.001 5 -10.001 15s6.33301 28.333 19 55l85.5 184.5l140.5 307l85 186.5c8 14 16.333 21 25 21s14.667 -3.66699 18 -11c6.66699 -16.667 0.333984 -43.667 -18.999 -81c-2 -4.66699 -51.333 -103.167 -148 -295.5s-157 -314.5 -181 -366.5
c-4.66699 -10 -9.66699 -15 -15 -15zM249.999 477c0 66.667 -16.665 100 -49.998 100c-20.667 0 -39 -8.66699 -55 -26c-8.66699 -8.66699 -17.667 -12 -27 -10c-3.33301 0.666992 -4 2.66699 -2 6c24 35.333 55.667 53 95 53c43.333 0 70 -26.333 80 -79
c2.66699 -14 4 -28.667 4 -44c0 -40 -9.66699 -82.333 -29 -127c-26 -60.667 -59.667 -97 -101 -109c-8 -2.66699 -16.333 -4 -25 -4c-28.667 0 -51.334 9 -68.001 27c-18 20.667 -27 45 -27 73s3 54.667 9 80s17.667 49 35 71s36.666 36 57.999 42
c3.33301 0.666992 6 -0.5 8 -3.5s2.83301 -6.33301 2.5 -10s-1.5 -5.83398 -3.5 -6.50098c-20.667 -7.33301 -37 -31.666 -49 -72.999c-8.66699 -28 -13 -55.667 -13 -83c0 -63.333 16 -95 48 -95s59 26.333 81 79c19.333 46.667 29 93 29 139zM579.001 199
c0 66.667 -16.6641 100 -49.9971 100c-20.667 0 -39 -8.66699 -55 -26c-8.66699 -8.66699 -17.667 -12 -27 -10c-3.33301 0.666992 -4 2.66699 -2 6c24 35.333 55.667 53 95 53c43.333 0 70 -26.333 80 -79c2.66699 -14 4 -28.667 4 -44c0 -40 -9.66699 -82.333 -29 -127
c-26 -60.667 -59.667 -97 -101 -109c-8 -2.66699 -16.333 -4 -25 -4c-28.667 0 -51.334 9 -68.001 27c-18 20.667 -27 45 -27 73s3 54.667 9 80s17.667 49 35 71s36.666 36 57.999 42c3.33301 0.666992 6 -0.5 8 -3.5s2.83301 -6.33301 2.5 -10s-1.5 -5.83398 -3.5 -6.50098
c-20.667 -7.33301 -37.334 -31.666 -50.001 -72.999c-8 -28 -12 -55.667 -12 -83c0 -63.333 16 -95 48 -95s59 26.333 81 79c19.333 46.667 29 93 29 139z" />
    <glyph glyph-name="ampersand" unicode="&#x26;" horiz-adv-x="773" 
d="M673 450c0 52.667 -17.002 80.667 -51.002 84c4 11.333 12 17 24 17c30.667 0 51 -18 61 -54c3.33301 -13.333 5 -26.666 5 -39.999c0 -32 -9.33301 -65 -28 -99c-36.667 -66.667 -95.667 -107.667 -177 -123c-20 -4 -40.167 -6 -60.5 -6s-34.166 0.666992 -41.499 2
c-6 -67.333 -30.333 -126 -73 -176c60.667 -64 123 -96 187 -96c38.667 0 67.667 7.66699 87 23s29 32.666 29 51.999c0 2.66699 1.5 4.66699 4.5 6s5.83301 1.33301 8.5 0s4 -4 4 -8c0 -22 -11.5 -43.667 -34.5 -65s-56.167 -32 -99.5 -32c-69.333 0 -139 31.667 -209 95
c-50.667 -44.667 -111 -67 -181 -67c-54 0 -94.667 12.5 -122 37.5s-41 58.333 -41 100s14.167 80 42.5 115s67.166 70.167 116.499 105.5c-13.333 42.667 -20 80 -20 112s4 60.333 12 85s24 44.5 48 59.5s53 22.5 87 22.5s59 -7.83301 75 -23.5s24 -36.5 24 -62.5
c0 -18 -3 -32.333 -9 -43s-10.833 -19 -14.5 -25s-9.66699 -13 -18 -21l-19.5 -18.5c-4.66699 -4.33301 -12.667 -10.833 -24 -19.5l-24 -18l-27.5 -19c-13.667 -9.33301 -22.5 -15.666 -26.5 -18.999c26 -101.333 69.333 -187.666 130 -258.999
c38 45.333 60.333 100 67 164c-46 13.333 -69 37 -69 71c0 14 6.66699 24.667 20 32c6.66699 4 15.834 6 27.501 6s21.834 -8.33301 30.501 -25s13 -38.334 13 -65.001c10.667 -2 23 -3 37 -3c90.667 0 156.667 32.667 198 98c21.333 33.333 32 66.666 32 99.999z
M130.998 -13c63.333 0 117 19.667 161 59c-69.333 68.667 -122 150.667 -158 246c-76.667 -62 -115 -129 -115 -201c0 -30.667 8.83301 -55.667 26.5 -75s46.167 -29 85.5 -29zM266.998 576c-63.333 0 -95 -45.333 -95 -136c0 -24.667 2.66699 -51.334 8 -80.001
c46 32 80.667 59.833 104 83.5s35 49.834 35 78.501c0 36 -17.333 54 -52 54zM357.998 322c-12 0 -18 -7 -18 -21c0 -15.333 15 -29 45 -41c-1.33301 41.333 -10.333 62 -27 62z" />
    <glyph glyph-name="quotesingle" unicode="'" horiz-adv-x="343" 
d="M275 680c7.33301 25.333 11.001 50.668 11.001 76.001s9.33301 38 28 38s28 -11.667 28 -35c0 -5.33301 -0.333008 -11 -1 -17c-5.33301 -36.667 -19.333 -67.334 -42 -92.001c-12.667 -13.333 -23.334 -20.333 -32.001 -21c-13.333 0 -20.333 3.33301 -21 10l-1 3
c12.667 0 22.667 12.667 30 38z" />
    <glyph glyph-name="parenleft" unicode="(" horiz-adv-x="305" 
d="M292 815c6.66699 0 10.001 -3.16602 10.001 -9.49902s-2.33301 -9.5 -7 -9.5c-40 -6 -78.833 -50.5 -116.5 -133.5s-65.5 -170.5 -83.5 -262.5s-27 -176.667 -27 -254c0 -120.667 19.667 -193.334 59 -218.001c4.66699 -3.33301 6.16699 -7 4.5 -11s-3.5 -6 -5.5 -6
s-4.33301 0.666992 -7 2c-42.667 23.333 -72.334 69 -89.001 137c-11.333 43.333 -17 84.333 -17 123c0 107.333 18.667 223 56 347c24 79.333 56.333 147 97 203s82.667 86.667 126 92z" />
    <glyph glyph-name="parenright" unicode=")" horiz-adv-x="390" 
d="M-4 -93c-6.66699 0 -10 3.16602 -10 9.49902s2.33301 9.5 7 9.5c40 6 78.833 50.5 116.5 133.5s65.5 170.5 83.5 262.5s27 176.667 27 254c0 120.667 -19.667 193.334 -59 218.001c-4.66699 3.33301 -6.16699 7 -4.5 11s3.5 6 5.5 6s4.33301 -0.666992 7 -2
c42.667 -23.333 72.667 -69 90 -137c10.667 -43.333 16 -84.333 16 -123c0 -107.333 -18.667 -223 -56 -347c-24 -79.333 -56.333 -147 -97 -203s-82.667 -86.667 -126 -92z" />
    <glyph glyph-name="asterisk" unicode="*" horiz-adv-x="655" 
d="M281 770c0 8 2.66602 14.668 7.99902 20.001s11.833 8 19.5 8s14.334 -2.66699 20.001 -8s8.5 -12 8.5 -20c0 -54 -4.66699 -97.333 -14 -130c25.333 18 64.333 36.667 117 56c7.33301 2.66699 14.666 2 21.999 -2c10.667 -5.33301 16 -13.666 16 -24.999
c0 -12.667 -6.33301 -21.334 -19 -26.001c-52.667 -19.333 -95 -30 -127 -32c24.667 -16.667 56 -47.667 94 -93c4.66699 -6.66699 7 -13.334 7 -20.001s-3.66699 -13 -11 -19c-14.667 -11.333 -28 -10.333 -40 3c-36.667 44.667 -61 82.667 -73 114
c-9.33301 -28.667 -32.333 -67.334 -69 -116.001c-5.33301 -8 -12 -12 -20 -12s-14.667 2.16699 -20 6.5s-8.66602 10.333 -9.99902 18s0.333984 14.5 5.00098 20.5c35.333 46.667 65.666 79.334 90.999 98.001c-29.333 0 -73 9 -131 27
c-13.333 4.66699 -20 13.334 -20 26.001c0 11.333 4.33301 19.333 13 24s16.667 6 24 4c58 -20.667 99 -39.334 123 -56.001c-9.33301 28 -14 72.667 -14 134z" />
    <glyph glyph-name="plus" unicode="+" horiz-adv-x="673" 
d="M273 45c-1.33301 -6.66699 -2.99805 -10.001 -4.99805 -10.001s-4.66699 1.33301 -8 4s-5 9.83398 -5 21.501s7.33301 86.167 22 223.5c-46.667 -0.666992 -110.334 -1 -191.001 -1c-7.33301 0 -11 2.66699 -11 8c0 10.667 10.667 18 32 22
c5.33301 0.666992 14.666 1 27.999 1s61.333 -1.33301 144 -4c8.66699 84.667 16 150 22 196c0.666992 7.33301 3 11 7 11c1.33301 0 3 -0.666992 5 -2c10 -4 15 -17 15 -39s-7 -77.667 -21 -167c85.333 -2.66699 150 -4 194 -4c6.66699 0 10 -1.66699 10 -5
c0 -9.33301 -14 -14.333 -42 -15c-71.333 0 -126.333 -0.333008 -165 -1c-14.667 -100 -25 -179.667 -31 -239z" />
    <glyph glyph-name="comma" unicode="," horiz-adv-x="215" 
d="M59 -42c7.33301 25.333 11.001 50.668 11.001 76.001s9.33301 38 28 38s28 -11.667 28 -35c0 -5.33301 -0.333008 -11 -1 -17c-5.33301 -36.667 -19.333 -67.334 -42 -92.001c-12.667 -13.333 -23.334 -20.333 -32.001 -21c-13.333 0 -20.333 3.33301 -21 10l-1 3
c12.667 0 22.667 12.667 30 38z" />
    <glyph glyph-name="hyphen" unicode="-" horiz-adv-x="610" 
d="M423 285l-317 -2c-7.33301 0 -11 2.66699 -11 8c0 10.667 10.667 18 32 22c5.33301 0.666992 11.333 1 18 1l310 -9c6.66699 0 10 -1.66699 10 -5c0 -9.33301 -14 -14.333 -42 -15z" />
    <glyph glyph-name="period" unicode="." horiz-adv-x="209" 
d="M100 72c15.333 0 22.999 -10.332 22.999 -30.999s-10 -37.334 -30 -50.001c-10 -6.66699 -18.667 -10 -26 -10c-10.667 0 -17.334 4.33301 -20.001 13c6 0 10.333 6.5 13 19.5s6.83398 26 12.501 39s14.834 19.5 27.501 19.5z" />
    <glyph glyph-name="slash" unicode="/" horiz-adv-x="508" 
d="M30 -102c-6.66699 0 -10 5 -10 15s6.33301 28.333 19 55l85.5 184.5l140.5 307l85 186.5c8 14 17 21 27 21c12 0 18 -8.33301 18 -25c0 -18 -7 -40.333 -21 -67c-2 -4.66699 -51.333 -103.167 -148 -295.5s-157 -314.5 -181 -366.5c-4.66699 -10 -9.66699 -15 -15 -15z
" />
    <glyph glyph-name="zero" unicode="0" horiz-adv-x="503" 
d="M357 395c0 118.667 -30.667 178.003 -92 178.003c-41.333 0 -75.666 -16.333 -102.999 -49c-12 -14 -23.667 -21 -35 -21c-6.66699 0 -8.33398 3 -5.00098 9c40.667 58.667 93.834 88 159.501 88s108.834 -36.333 129.501 -109c8 -28.667 12 -63.334 12 -104.001
s-9 -89.667 -27 -147c-29.333 -95.333 -73 -165 -131 -209c-32.667 -25.333 -66.5 -38 -101.5 -38s-64.667 8.5 -89 25.5s-41.5 39.167 -51.5 66.5c-12.667 35.333 -19 69.833 -19 103.5s4 66.167 12 97.5s19 62.166 33 92.499s32.333 56.833 55 79.5s47 37.667 73 45
c4 1.33301 7.16699 0.333008 9.5 -3s3.16602 -7.33301 2.49902 -12s-2.33398 -7.33398 -5.00098 -8.00098c-21.333 -6 -41 -26 -59 -60c-35.333 -64 -53 -148.333 -53 -253c0 -42 7.66699 -77.833 23 -107.5s37.333 -44.5 66 -44.5c56.667 0 104.667 46.333 144 139
c34.667 80.667 52 161 52 241z" />
    <glyph glyph-name="one" unicode="1" horiz-adv-x="385" 
d="M191 -20c-39.333 0 -58.998 41.3359 -58.998 124.003c0 42 6.83301 94.167 20.5 156.5s34.5 126.166 62.5 191.499c-56.667 -32 -101.834 -66.333 -135.501 -103s-50.5 -81.334 -50.5 -134.001c0 -12 2.33301 -19.667 7 -23s7.66699 -5 9 -5c-1.33301 -8 -7 -12 -17 -12
s-19.667 5 -29 15s-14 26.833 -14 50.5s7 48.5 21 74.5s34.667 49.667 62 71c44.667 35.333 98.667 68.333 162 99c43.333 92.667 85 139 125 139c20.667 0 31 -10.667 31 -32c0 -18.667 -9.16699 -35.834 -27.5 -51.501s-46.5 -34.167 -84.5 -55.5
c-33.333 -90.667 -57 -193 -71 -307c-4.66699 -41.333 -7 -75.333 -7 -102c0 -48 8 -73.333 24 -76c-6.66699 -13.333 -16.334 -20 -29.001 -20zM355.002 600.003c-22 0 -45 -28.667 -69 -86c54 28.667 81 53 81 73c0 8.66699 -4 13 -12 13z" />
    <glyph glyph-name="two" unicode="2" horiz-adv-x="489" 
d="M344 197c24 0 36.002 -19.3311 36.002 -57.998s-11.333 -74 -34 -106c-30 -43.333 -71 -65 -123 -65c-24 0 -45.333 5 -64 15s-33 21 -43 33c-26 31.333 -47.833 47 -65.5 47s-31.167 -6.5 -40.5 -19.5s-14 -24.5 -14 -34.5c0 -8 -6.5 -12.167 -19.5 -12.5
s-19.5 3.83398 -19.5 12.501c0 22 31.667 58.333 95 109c64 51.333 122.667 106 176 164c27.333 28.667 50 61 68 97s27 71 27 105c0 60.667 -29 91 -87 91c-50 0 -88.667 -27 -116 -81c-15.333 -32 -23 -63 -23 -93c0 -12 1.33301 -24 4 -36c7.33301 -34.667 24 -52 50 -52
c0 -9.33301 -7.33301 -14 -22 -14c-41.333 0 -68 20.333 -80 61c-4 13.333 -6 26.666 -6 39.999c0 30 9 61.333 27 94c39.333 70.667 99.666 106 180.999 106c45.333 0 79.666 -10.833 102.999 -32.5s35 -49.5 35 -83.5s-7.5 -66.167 -22.5 -96.5s-36.5 -59.833 -64.5 -88.5
s-54.667 -53.834 -80 -75.501s-55.666 -46 -90.999 -73s-60.333 -47.167 -75 -60.5c4.66699 0.666992 8.66699 1 12 1c16 0 40.167 -8.66699 72.5 -26s63.166 -26 92.499 -26c49.333 0 85 20.333 107 61c9.33301 17.333 14 31.666 14 42.999c0 27.333 -8.33301 41 -25 41
c1.33301 8.66699 6.33301 13 15 13z" />
    <glyph glyph-name="three" unicode="3" horiz-adv-x="498" 
d="M392 480c0 -49.333 -20.9961 -93.3311 -62.9961 -131.998c22 -16 38.333 -36.5 49 -61.5s16 -51.667 16 -80s-6.33301 -57.333 -19 -87s-29.5 -56 -50.5 -79s-48.5 -41.833 -82.5 -56.5s-71.333 -22 -112 -22c-70 0 -117.333 23 -142 69c-12 22 -18 44.5 -18 67.5
s7 46.167 21 69.5c26.667 46 67 69 121 69c8 0 14.5 -2.16699 19.5 -6.5s8.16699 -10.5 9.5 -18.5c-8.66699 2.66699 -18.334 4 -29.001 4c-36.667 0 -64.334 -19 -83.001 -57c-10 -20 -15 -39.5 -15 -58.5s4.33301 -37.833 13 -56.5c17.333 -38 51.666 -57 102.999 -57
c42 0 79 13 111 39c57.333 47.333 86 112.666 86 195.999c0 43.333 -9.66699 77.666 -29 102.999c-34 -20.667 -71 -31 -111 -31s-60 11 -60 33c0 16 9.66699 29 29 39s41.333 15 66 15s47 -4 67 -12c28 35.333 42 72.666 42 111.999c0 22 -5.33301 41.667 -16 59
c-15.333 24 -40.333 36 -75 36c-42.667 0 -73 -19.667 -91 -59c-7.33301 -16 -11 -30.167 -11 -42.5s2.66699 -23.166 8 -32.499c6 -10 13.667 -15.333 23 -16c0 -9.33301 -7.33301 -14 -22 -14c-26 0 -42.667 13.667 -50 41c-1.33301 8 -2 15.667 -2 23
c0 24 9 47.333 27 70c29.333 36 71.166 54 125.499 54s93.5 -14.667 117.5 -44c18 -22.667 27 -48 27 -76zM151.004 331.002c0 -10.667 13.5 -16 40.5 -16s53.5 11.333 79.5 34c-15.333 9.33301 -36 14 -62 14s-44 -7.66699 -54 -23c-2.66699 -3.33301 -4 -6.33301 -4 -9z
" />
    <glyph glyph-name="four" unicode="4" horiz-adv-x="514" 
d="M145 620c38.667 0 58 -36.002 58 -108.002c0 -42 -8.66699 -92 -26 -150s-42 -109 -74 -153c2.66699 -0.666992 22.167 -6.66699 58.5 -18s65.5 -18.666 87.5 -21.999c12 78 34.333 152.333 67 223s63.334 106 92.001 106c4.66699 0 8.33398 -1 11.001 -3s4 -4 4 -6v-3
c-20.667 0 -42.167 -34.5 -64.5 -103.5s-38.5 -142.167 -48.5 -219.5h10c35.333 0 58.666 12.667 69.999 38c3.33301 6.66699 5 13.334 5 20.001s-2.16699 11.667 -6.5 15s-8.5 5 -12.5 5c2.66699 9.33301 9.66699 14 21 14c17.333 0 26 -11.5 26 -34.5
s-9.5 -42.167 -28.5 -57.5s-43.5 -23 -73.5 -23h-14c-2.66699 -28 -4 -51.667 -4 -71c0 -46 7.66699 -69 23 -69c-6.66699 -13.333 -16.334 -20 -29.001 -20c-37.333 0 -56 35 -56 105c0 18.667 1.66699 39.334 5 62.001c-24.667 4.66699 -56.834 13.167 -96.501 25.5
s-59.834 18.5 -60.501 18.5c-29.333 -34 -58.666 -51 -87.999 -51s-46 9 -50 27c-0.666992 2.66699 -1 5.33398 -1 8.00098c0 13.333 7.83301 24.166 23.5 32.499s31 12.5 46 12.5s31.833 -1.33301 50.5 -4c22 37.333 39.167 85.666 51.5 144.999s18.5 114 18.5 164
s-8 75 -24 75c6.66699 13.333 16.334 20 29.001 20zM-26 174.998c0 -9.33301 9.5 -14 28.5 -14s37.5 12.667 55.5 38c-10 2 -19.667 3 -29 3c-30.667 0 -48.667 -7 -54 -21c-0.666992 -2 -1 -4 -1 -6z" />
    <glyph glyph-name="five" unicode="5" horiz-adv-x="498" 
d="M384 672c16 0 23.9961 -15.8281 23.9961 -47.4951s-11.833 -60.167 -35.5 -85.5s-55.167 -38 -94.5 -38c-22.667 0 -43.667 3.33301 -63 10c-26 9.33301 -43.667 19.666 -53 30.999c-2 -11.333 -4.83301 -33 -8.5 -65s-7.16699 -56.333 -10.5 -73
c16.667 3.33301 32.667 5 48 5c89.333 0 149.666 -31.667 180.999 -95c13.333 -26.667 20 -55 20 -85s-6.33301 -61.667 -19 -95c-25.333 -65.333 -67.666 -113.333 -126.999 -144c-35.333 -18.667 -73.666 -28 -114.999 -28c-69.333 0 -116.666 23 -141.999 69
c-13.333 24 -20 47.5 -20 70.5s5.33301 45.167 16 66.5c23.333 46 59 69 107 69c6.66699 0 10.167 -3.5 10.5 -10.5s-3.16699 -10.5 -10.5 -10.5c-32 0 -55.667 -18.333 -71 -55c-8 -18.667 -12 -37.334 -12 -56.001s4.66699 -37.334 14 -56.001
c19.333 -41.333 55 -62 107 -62c60.667 0 110 30 148 90c28.667 45.333 43 93.666 43 144.999c0 79.333 -28 130.666 -84 153.999c-18 8 -35.667 12 -53 12s-32 -1.66699 -44 -5c-13.333 -68.667 -35.666 -103 -66.999 -103c-22 0 -33 10.333 -33 31
c0 22.667 13.333 44 40 64c12.667 9.33301 26.334 16.666 41.001 21.999c2 12.667 4.5 30.667 7.5 54l7.5 56.5c2 14.333 5 29.5 9 45.5c6.66699 31.333 17.667 47 33 47h1c7.33301 0 15.666 -4 24.999 -12c28 -25.333 61.167 -38 99.5 -38s64.5 16.667 78.5 50
c4 10.667 6 20.334 6 29.001s-2.16699 15.667 -6.5 21s-9.16602 8 -14.499 8c-0.666992 0 -0.666992 1.33301 0 4c2 6.66699 7.66699 10 17 10zM61.9961 311.005c0 -6.66699 3.66699 -10.333 11 -11c19.333 0 34.333 25.333 45 76c-27.333 -12.667 -45 -30 -53 -52
c-2 -4.66699 -3 -9 -3 -13z" />
    <glyph glyph-name="six" unicode="6" horiz-adv-x="480" 
d="M68 158c0 -110 31.668 -165.006 95.001 -165.006c47.333 0 87.333 30.667 120 92c26 49.333 39 99.333 39 150c0 67.333 -19.667 104.333 -59 111c-3.33301 0.666992 -7 1 -11 1c-35.333 0 -65 -19.167 -89 -57.5s-36.667 -79.5 -38 -123.5
c0 -9.33301 -3.5 -12.666 -10.5 -9.99902s-10.167 8.33398 -9.5 17.001c2 50 18 96 48 138s69 63 117 63c54.667 0 89.667 -27 105 -81c4.66699 -17.333 7 -35.333 7 -54c0 -38 -10 -78.667 -30 -122c-29.333 -66 -70.666 -110.333 -123.999 -133
c-20.667 -8.66699 -42.334 -13 -65.001 -13c-80 0 -131 37.667 -153 113c-7.33301 26 -11 53.667 -11 83c0 50.667 11.333 106.334 34 167.001c34.667 94.667 83.667 166.667 147 216c44 33.333 88.667 50 134 50c25.333 0 44.333 -6.66699 57 -20s19 -28.666 19 -45.999
s-6.33301 -27.666 -19 -30.999c-12 -2 -18.333 1.66699 -19 11v6c0 14.667 -4.33301 27.334 -13 38.001s-22.334 16 -41.001 16c-62 0 -115.833 -46.667 -161.5 -140s-68.5 -185.333 -68.5 -276z" />
    <glyph glyph-name="seven" unicode="7" horiz-adv-x="368" 
d="M56 568c0 -14.667 7 -26.332 21 -34.999s32 -13 54 -13c38.667 0 88.334 13.333 149.001 40s98 40 112 40c4 0 6 -4 6 -12s-2 -12 -6 -12c-40.667 0 -87.834 -48 -141.501 -144s-94.5 -192 -122.5 -288c-16.667 -56 -25 -94 -25 -114s4 -30 12 -30
c-6.66699 -13.333 -16.334 -20 -29.001 -20c-31.333 0 -47 20.667 -47 62c0 17.333 2.66699 38.333 8 63c20 86 62.667 181.667 128 287c36 58.667 72 106.334 108 143.001c-80 -37.333 -144 -56 -192 -56s-77.333 16.667 -88 50c-2.66699 8.66699 -4 19.167 -4 31.5
s5.83301 25.666 17.5 39.999s26.834 21.5 45.501 21.5c5.33301 0 10 -1.33301 14 -4s7 -6.33398 9 -11.001c-12.667 0 -21.667 -8 -27 -24c-1.33301 -5.33301 -2 -10.333 -2 -15z" />
    <glyph glyph-name="eight" unicode="8" horiz-adv-x="459" 
d="M255 600c34.667 0 62.333 -8.5 83 -25.5s31 -41 31 -72s-11 -59.167 -33 -84.5s-53.667 -51.666 -95 -78.999c56.667 -52.667 91 -96.334 103 -131.001c5.33301 -16.667 8 -35 8 -55c0 -53.333 -19.167 -98.333 -57.5 -135s-85.666 -55 -141.999 -55
s-98.333 12.5 -126 37.5s-41.5 56.5 -41.5 94.5c0 50.667 19 95 57 133c20 20 38 36 54 48s38 27.333 66 46c-44 45.333 -66 89.833 -66 133.5s14.167 78.667 42.5 105s67.166 39.5 116.499 39.5zM289.999 133c0 18.667 -2.16699 33 -6.5 43s-7.5 17.833 -9.5 23.5
s-6 12.334 -12 20.001s-10.333 13.334 -13 17.001s-8 9.5 -16 17.5l-16 16c-2.66699 2.66699 -8.5 8.16699 -17.5 16.5s-14.5 13.5 -16.5 15.5c-47.333 -30.667 -84 -61.834 -110 -93.501s-39 -70.834 -39 -117.501c0 -30.667 9.33301 -55.667 28 -75s49 -29 91 -29
s75.333 14.333 100 43s37 63 37 103zM299.499 558c-13.667 12 -33.168 18 -58.501 18s-46.166 -8.83301 -62.499 -26.5s-24.5 -40.5 -24.5 -68.5c0 -36.667 21.667 -76.667 65 -120c32.667 24.667 57.667 48.5 75 71.5s26 46.667 26 71s-6.83301 42.5 -20.5 54.5z" />
    <glyph glyph-name="nine" unicode="9" horiz-adv-x="499" 
d="M91 -3c68.667 0 127.996 44.3359 177.996 133.003s75 185.667 75 291c0 71.333 -15.667 119 -47 143c-12 9.33301 -26 14 -42 14c-49.333 0 -91 -31.333 -125 -94c-27.333 -50 -41 -101 -41 -153c0 -66 19.667 -102.333 59 -109c3.33301 -0.666992 7 -1 11 -1
c34.667 0 64.334 19.667 89.001 59s37.667 81 39 125c0 9.33301 3.5 12.666 10.5 9.99902s10.167 -8.33398 9.5 -17.001c-2 -50 -18 -96 -48 -138s-69 -63 -117 -63c-55.333 0 -91.333 27 -108 81c-5.33301 19.333 -8 43.166 -8 71.499s8.33301 62.5 25 102.5
c28.667 66 71 110.667 127 134c22.667 9.33301 46.334 14 71.001 14c74.667 0 124.667 -35.667 150 -107c10.667 -30 16 -64.833 16 -104.5s-8.66699 -85.5 -26 -137.5c-31.333 -95.333 -80.666 -169 -147.999 -221c-51.333 -39.333 -106.666 -59 -165.999 -59
c-33.333 0 -58.833 8.33301 -76.5 25s-26.5 34 -26.5 52s7 28 21 30c12 -0.666992 19 -5.66699 21 -15c0 -18 6.16699 -33.5 18.5 -46.5s31.833 -19.5 58.5 -19.5z" />
    <glyph glyph-name="colon" unicode=":" horiz-adv-x="293" 
d="M88 72c16 0 24 -10.332 24 -30.999s-9.66699 -37.334 -29 -50.001c-9.33301 -6.66699 -17.666 -10 -24.999 -10c-10.667 0 -17.334 4.33301 -20.001 13c9.33301 0 15.333 13 18 39c0.666992 10 3.66699 19 9 27s13 12 23 12zM129 352.001
c16 0 24.001 -10.332 24.001 -30.999s-9.66699 -37.334 -29 -50.001c-9.33301 -6.66699 -17.666 -10 -24.999 -10c-10.667 0 -17.334 4.33301 -20.001 13c9.33301 0 15 13 17 39c1.33301 10 4.66602 19 9.99902 27s13 12 23 12z" />
    <glyph glyph-name="semicolon" unicode=";" horiz-adv-x="235" 
d="M58 37c-1.33301 23.333 7.66797 35 27.001 35s29 -12.667 29 -38c0 -40.667 -13 -76 -39 -106c-12.667 -14 -23.334 -21 -32.001 -21c-13.333 0 -20.333 3.33301 -21 10l-1 3c12.667 0 22 11.833 28 35.5s9 42.5 9 56.5v25zM118.001 352
c16.667 0 24.999 -10.5 24.999 -31.5s-9 -37.5 -27 -49.5c-9.33301 -6.66699 -17.666 -10 -24.999 -10c-11.333 0 -18.333 4.33301 -21 13c8.66699 0 14 13 16 39c0.666992 10 3.66699 19 9 27s13 12 23 12z" />
    <glyph glyph-name="less" unicode="&#x3c;" horiz-adv-x="508" 
d="M339 420c11.333 -2 17.001 -14.334 17.001 -37.001s-23.167 -53.5 -69.5 -92.5s-91.166 -60.5 -134.499 -64.5c37.333 -18.667 71.666 -48 102.999 -88s47 -73.667 47 -101c0 -17.333 -4 -27.666 -12 -30.999l-5 -1c0 42 -25.5 86.333 -76.5 133s-107.167 70 -168.5 70
c0 5.33301 3.66699 11 11 17c13.333 10.667 27.666 16 42.999 16c60.667 0 116.667 20.833 168 62.5s77 80.5 77 116.5z" />
    <glyph glyph-name="equal" unicode="=" horiz-adv-x="724" 
d="M531 369l-418 -2c-8 0 -11.667 3 -11 9c1.33301 10.667 12 17.667 32 21l18 1l411 -9c6.66699 0 10 -1.66699 10 -5c0 -9.33301 -14 -14.333 -42 -15zM508 208l-418 -2c-7.33301 0 -11 2.66699 -11 8c0 10.667 10.667 18 32 22c5.33301 0.666992 11.333 1 18 1l411 -9
c6.66699 0 10 -1.66699 10 -5c0 -9.33301 -14 -14.333 -42 -15z" />
    <glyph glyph-name="greater" unicode="&#x3e;" horiz-adv-x="548" 
d="M92 37c0 26 23.333 58.333 70 97s92 60 136 64c-38 18 -72.833 47.167 -104.5 87.5s-47.5 74.166 -47.5 101.499c0 8.66699 1.33301 15.834 4 21.501s6.66699 9.5 12 11.5c0 -42 25.5 -86.333 76.5 -133s107.167 -70 168.5 -70c-2 -8 -8.16699 -15.5 -18.5 -22.5
s-21.833 -10.5 -34.5 -10.5c-61.333 0 -117.5 -20.667 -168.5 -62s-76.5 -80.333 -76.5 -117c-11.333 2 -17 12.667 -17 32z" />
    <glyph glyph-name="question" unicode="?" horiz-adv-x="579" 
d="M190 72c16 0 24 -10.332 24 -30.999s-9.66699 -37.334 -29 -50.001c-9.33301 -6.66699 -17.666 -10 -24.999 -10c-10.667 0 -17.334 4.33301 -20.001 13c9.33301 0 15.333 13 18 39c0.666992 10 3.66699 19 9 27s13 12 23 12zM216 161.001
c0 -8.66699 -6.49805 -12.9951 -19.498 -12.9951s-19.5 4.33301 -19.5 13c0 60.667 35 125 105 193l86.5 86.5c29 29 53.667 62.5 74 100.5s30.5 77.667 30.5 119c0 60.667 -29 91 -87 91c-50 0 -88.667 -27 -116 -81c-15.333 -32 -23 -63 -23 -93c0 -12 1.33301 -24 4 -36
c7.33301 -34.667 24 -52 50 -52c0 -9.33301 -7.33301 -14 -22 -14c-41.333 0 -68 20.333 -80 61c-4 13.333 -6 26.666 -6 39.999c0 30 9 61.333 27 94c39.333 70.667 99.666 106 180.999 106c45.333 0 79.666 -10.833 102.999 -32.5s35 -49.334 35 -83.001
s-6 -64.334 -18 -92.001s-27.5 -52.5 -46.5 -74.5s-39.833 -43.667 -62.5 -65l-68.5 -63c-23 -20.667 -44.167 -41.334 -63.5 -62.001c-42.667 -46.667 -64 -94.334 -64 -143.001z" />
    <glyph glyph-name="at" unicode="@" horiz-adv-x="793" 
d="M295 98c-42.667 0 -63.9971 29.665 -63.9971 88.998c0 38.667 11.333 79 34 121c34.667 62.667 77.334 94 128.001 94c13.333 0 23.833 -3.83301 31.5 -11.5s11.5 -14.5 11.5 -20.5s-2 -10 -6 -12s-7.83301 -2.83301 -11.5 -2.5s-5.5 1.83301 -5.5 4.5
c0 11.333 -6.66699 17 -20 17c-27.333 0 -52.333 -22 -75 -66c-23.333 -46.667 -35 -88.334 -35 -125.001s5.66699 -57.667 17 -63c13.333 0 29 13.333 47 40c26.667 38.667 46.667 72 60 100l36 74c4.66699 11.333 8.83398 17.833 12.501 19.5s7.16699 2.5 10.5 2.5
c7.33301 0 12.5 -4.66699 15.5 -14s2.83301 -22.5 -0.5 -39.5l-8 -40.5c-2 -10 -4.33301 -24 -7 -42s-4 -32.167 -4 -42.5s0.666992 -21.166 2 -32.499c2.66699 -22 13 -33 31 -33c43.333 0 77.666 33.667 102.999 101c11.333 30 17 61.667 17 95s-8.33301 68.333 -25 105
c-30.667 66.667 -94.5 100 -191.5 100s-174.167 -40.333 -231.5 -121c-42.667 -61.333 -64 -129.666 -64 -204.999c0 -88 26 -153 78 -195c30.667 -24.667 68 -37 112 -37c47.333 0 83.666 10 108.999 30c21.333 18 34.333 33.667 39 47l3 9l16 -1
c-2.66699 -10.667 -8.33398 -22.667 -17.001 -36s-18.834 -24.666 -30.501 -33.999s-28.667 -17.833 -51 -25.5s-47.833 -11.5 -76.5 -11.5c-94 0 -160.667 35.667 -200 107c-21.333 38.667 -32 77 -32 115s4.33301 73.333 13 106c23.333 86.667 69.666 155.667 138.999 207
c60.667 44 131 66 211 66c104.667 0 174 -38 208 -114c13.333 -30 20 -61.167 20 -93.5s-5.66699 -65.5 -17 -99.5c-20 -60 -49.667 -100.667 -89 -122c-14.667 -8 -29.667 -12 -45 -12c-52 0 -78 31.333 -78 94c0 14 1.33301 29.333 4 46c-50.667 -92 -92 -138 -124 -138z
" />
    <glyph glyph-name="A" unicode="A" horiz-adv-x="1055" 
d="M1013 818c5.33301 0 9.33594 -1.66309 12.0029 -4.99609s4.33398 -8 5.00098 -14c-69.333 0 -130 -34.333 -182 -103c34.667 -12.667 68.334 -22.667 101.001 -30c36 46.667 69 70 99 70c6.66699 0 12.334 -1.83301 17.001 -5.5s8 -9.16699 10 -16.5
c-26 0 -53 -18.333 -81 -55c4.66699 -0.666992 11.667 -1 21 -1c66 0 112.333 19.667 139 59c11.333 15.333 17 28.333 17 39c0 30 -13.333 45 -40 45c6 9.33301 15.667 14 29 14c26 0 43 -13 51 -39c2 -8 3 -15.667 3 -23c0 -22 -9.33301 -43.667 -28 -65
c-32.667 -36 -83 -54 -151 -54c-20 0 -38 1.33301 -54 4c-44.667 -71.333 -80.667 -172.666 -108 -303.999c-19.333 -91.333 -29 -168 -29 -230c0 -26.667 1.66699 -50.667 5 -72c38 29.333 74.333 66.333 109 111s59.667 82 75 112l23 45h27
c-5.33301 -14 -16.833 -36.167 -34.5 -66.5s-34.667 -57 -51 -80s-37.5 -48.5 -63.5 -76.5s-52.333 -51.667 -79 -71c8.66699 -25.333 21 -38 37 -38c-6.66699 -13.333 -16.334 -20 -29.001 -20c-21.333 0 -39 10 -53 30c-48 -24.667 -94.667 -37 -140 -37
c-66 0 -123 17.333 -171 52c-70 -80 -154.333 -120 -253 -120s-170.334 35 -215.001 105c-24.667 39.333 -37 81.666 -37 126.999c0 18.667 2 37.667 6 57c14 64.667 45.667 110.667 95 138c26 14.667 55 22 87 22c68.667 0 115 -26.667 139 -80c10 -22 15 -44.5 15 -67.5
s-4.66699 -46.167 -14 -69.5c-22.667 -56 -59.667 -84 -111 -84c-8 0 -14.667 1.83301 -20 5.5s-9.33301 9.16699 -12 16.5c18 0 35 4.66699 51 14c26.667 16 47.667 45 63 87c4 14 6 25.5 6 34.5s-0.666992 19.333 -2 31s-5.66602 25.167 -12.999 40.5
s-20 27.666 -38 36.999s-39.333 14 -64 14c-63.333 0 -110 -28 -140 -84c-17.333 -32 -26 -62.333 -26 -91s3 -54.334 9 -77.001c17.333 -63.333 53.666 -107 108.999 -131c26 -11.333 54.667 -17 86 -17c90 0 171.333 40.667 244 122c-32 34 -54 75 -66 123
c-7.33301 28 -11 53 -11 75c0 69.333 20 124.333 60 165c29.333 29.333 65.166 44 107.499 44s80.5 -10.333 114.5 -31c59.333 138 107.333 233.667 144 287c-4.66699 1.33301 -21.834 7.66602 -51.501 18.999s-48.5 18.333 -56.5 21l-48 16c-56 18.667 -105.333 28 -148 28
c-86.667 0 -150.667 -32.667 -192 -98c-24 -36.667 -36 -74.667 -36 -114c0 -11.333 1.33301 -23 4 -35c7.33301 -43.333 26.666 -69.333 57.999 -78c6 -2 12.333 -3 19 -3c-4 -14.667 -15 -22 -33 -22c-40.667 0 -69.334 21.667 -86.001 65c-8 20.667 -12 43.667 -12 69
s6.66699 53.666 20 84.999c28 67.333 77.333 113.333 148 138c33.333 11.333 64.5 17 93.5 17s53 -1.5 72 -4.5s41.833 -8.66699 68.5 -17l58.5 -18.5c12.333 -4 36.333 -12.833 72 -26.5l61.5 -23.5c57.333 76 120 114 188 114zM798.003 -0.996094
c-11.333 26.667 -16.999 59.168 -16.999 97.501s-8 82.666 -24 132.999s-39.333 91.5 -70 123.5c-60.667 -160 -117.334 -273.333 -170.001 -340c41.333 -32.667 92 -49 152 -49c42.667 0 85.667 11.667 129 35zM659.004 377.005c-25.333 18 -54.833 26.999 -88.5 26.999
s-63.5 -12.667 -89.5 -38c-37.333 -38 -56 -87.667 -56 -149c0 -68 19 -125 57 -171c42.667 54.667 83.667 124.334 123 209.001zM789.004 218.004c10.667 78.667 29.332 157.168 55.999 235.501s57 142.833 91 193.5c-28 6.66699 -61.667 17 -101 31
c-31.333 -46.667 -62.666 -108.334 -93.999 -185.001l-44 -115c41.333 -36.667 72 -90 92 -160z" />
    <glyph glyph-name="B" unicode="B" horiz-adv-x="903" 
d="M666 451c67.333 -58.667 100.994 -141.669 100.994 -249.002c0 -103.333 -36 -189.333 -108 -258c-45.333 -43.333 -99.5 -65 -162.5 -65s-100.5 28 -112.5 84c-2.66699 12.667 -4 25.334 -4 38.001c0 43.333 14.333 90.666 43 141.999
c36.667 66.667 83.334 113 140.001 139c26.667 12 53 18 79 18c4 0 6.66699 -2 8 -6s1.16602 -7.83301 -0.500977 -11.5s-4.5 -5.5 -8.5 -5.5c-60.667 0 -115.667 -32 -165 -96c-45.333 -59.333 -68 -119.666 -68 -180.999c0 -48 18 -77.333 54 -88c8 -2 17 -3 27 -3
c34.667 0 67.334 12.333 98.001 37c58 46.667 96.667 122.334 116 227.001c3.33301 20 5 41.5 5 64.5s-3 47.167 -9 72.5c-10 45.333 -29 83.666 -57 114.999c-67.333 -66 -147 -99 -239 -99h-7c-18 -149.333 -49 -252 -93 -308c-18.667 -22.667 -42.667 -41.667 -72 -57
s-61.833 -23 -97.5 -23s-65.334 6 -89.001 18s-40.834 27.333 -51.501 46c-14.667 27.333 -22 52.333 -22 75s3.33301 43.834 10 63.501s16.334 39 29.001 58s29.334 34.5 50.001 46.5s43 18 67 18c13.333 0 22.666 -4.66699 27.999 -14l2 -5
c-58 0 -102.333 -24.667 -133 -74c-17.333 -28 -26 -56.667 -26 -86c0 -13.333 1.66699 -27 5 -41c14.667 -52 51.334 -78 110.001 -78c49.333 0 88 18.667 116 56c30.667 39.333 52.667 85 66 137c14.667 54.667 27.334 114 38.001 178
c-34.667 11.333 -57.334 29.666 -68.001 54.999c-4 9.33301 -6 20.333 -6 33s6 26.667 18 42c18 25.333 47.333 43 88 53c12.667 58.667 28.334 103.5 47.001 134.5s43.667 46.5 75 46.5c9.33301 0 15.333 -4 18 -12l2 -5c-25.333 0 -44.666 -13.5 -57.999 -40.5
s-23.666 -65.833 -30.999 -116.5c4 0.666992 10.333 1 19 1c72 0 134.667 -15.333 188 -46c35.333 52.667 53 105.334 53 158.001c0 38.667 -13.167 73.667 -39.5 105s-69.5 47 -129.5 47c-121.333 0 -217.333 -43.667 -288 -131c-54 -66 -81 -138 -81 -216
c0 -55.333 15.667 -93.666 47 -114.999c13.333 -9.33301 29 -14 47 -14c-6.66699 -15.333 -17 -23 -31 -23c-49.333 0 -82.666 25.667 -99.999 77c-8 22.667 -12 49.834 -12 81.501s9 69.5 27 113.5c34.667 87.333 93 153.666 175 198.999c63.333 35.333 135.333 53 216 53
c50.667 0 93.334 -8 128.001 -24c67.333 -30.667 101 -84.334 101 -161.001c0 -61.333 -24 -121.333 -72 -180zM436.994 503.998l-21.999 -1.00098c-6 -53.333 -11.333 -103.666 -16 -150.999h3c81.333 0 149.666 34.667 204.999 104c-44 32 -100.667 48 -170 48z
M359.995 491.997c-48 -16 -72.001 -40.999 -72.001 -74.999c0 -24.667 16.333 -43 49 -55c10.667 65.333 18.334 108.666 23.001 129.999z" />
    <glyph glyph-name="C" unicode="C" horiz-adv-x="709" 
d="M182 914c-50.667 0 -96.335 -12 -137.002 -36c-75.333 -45.333 -119.666 -116.666 -132.999 -213.999c-2 -15.333 -3 -34 -3 -56s4 -46.667 12 -74c11.333 -40.667 33.5 -77.334 66.5 -110.001s74.167 -55 123.5 -67c20.667 76 52 147.167 94 213.5
s95 121.666 159 165.999s131.333 66.5 202 66.5c61.333 0 98.666 -24.667 111.999 -74c4 -12.667 6 -26 6 -40c0 -40.667 -15.333 -85.667 -46 -135c-48 -79.333 -118 -139.666 -210 -180.999c-72 -32.667 -149.667 -49 -233 -49h-20c-14 -49.333 -21 -97 -21 -143
c0 -86.667 22 -146.667 66 -180c6 54.667 20 106 42 154s52.5 88.333 91.5 121s82.167 49 129.5 49c54.667 0 88.667 -24.333 102 -73c3.33301 -13.333 5 -27 5 -41c0 -36.667 -11.667 -76 -35 -118c-36.667 -64.667 -87.667 -108.667 -153 -132
c-47.333 -16 -94.333 -18.667 -141 -8c-0.666992 -8.66699 -1 -17.334 -1 -26.001c0 -48.667 10.333 -89.667 31 -123c23.333 -39.333 61.333 -59 114 -59c-2 -12.667 -13 -19 -33 -19c-53.333 0 -92.5 22 -117.5 66s-37.5 96 -37.5 156v19
c-57.333 24.667 -95.333 72 -114 142c-9.33301 33.333 -14 68.666 -14 105.999s5.33301 77 16 119c-46.667 10.667 -87 30 -121 58s-58.333 60 -73 96c-19.333 47.333 -29 91 -29 131s6.33301 77.667 19 113s30.834 68.833 54.501 100.5s55.5 57.334 95.5 77.001
s84 29.5 132 29.5c94.667 0 159.334 -36.667 194.001 -110c4 -8 -0.666992 -13.333 -14 -16c-16 -1.33301 -26 2.33398 -30 11.001c-20 60 -70.333 90 -151 90zM552.999 777c-38 0 -76.499 -12.499 -115.499 -37.499s-74.5 -57.833 -106.5 -98.5
c-68 -86.667 -117.667 -184.334 -149 -293.001h14c130.667 0 240.667 41.667 330 125c59.333 55.333 95.666 115 108.999 179c2.66699 14 4 26.667 4 38c0 34.667 -12.667 59.667 -38 75c-12.667 8 -28.667 12 -48 12zM492 298.001c-54 0 -103.166 -33 -147.499 -99
s-71.5 -139.333 -81.5 -220c17.333 -5.33301 35.666 -8 54.999 -8c73.333 0 135 32 185 96c39.333 49.333 59 98 59 146s-17.333 75.667 -52 83c-5.33301 1.33301 -11.333 2 -18 2z" />
    <glyph glyph-name="D" unicode="D" horiz-adv-x="880" 
d="M37 91c7.33301 0 14.8311 -0.5 22.498 -1.5l19.5 -2.5c5.33301 -0.666992 12.666 -2.5 21.999 -5.5s15.833 -5 19.5 -6s11 -3.66699 22 -8s17.5 -7 19.5 -8s9.5 -4.16699 22.5 -9.5s19.833 -8.33301 20.5 -9c32.667 37.333 60.334 95.333 83.001 174
c-99.333 6.66699 -170.666 46.667 -213.999 120c-23.333 40.667 -35 84.667 -35 132c0 27.333 3.66699 55.666 11 84.999c22.667 83.333 69.667 148.666 141 195.999c62 40.667 134.667 61 218 61c58.667 0 111.167 -9.66699 157.5 -29s83.333 -45.166 111 -77.499
s49.834 -69.5 66.501 -111.5c17.333 -44 26 -89.667 26 -137s-3.83301 -93.5 -11.5 -138.5s-22.334 -88.5 -44.001 -130.5s-46.5 -79.167 -74.5 -111.5s-61.833 -58.166 -101.5 -77.499s-84.5 -29 -134.5 -29s-105 11.667 -165 35c-38 -28.667 -84 -43 -138 -43
c-71.333 0 -116.666 16.667 -135.999 50c-4.66699 8.66699 -7 18.167 -7 28.5s6.66699 21.833 20 34.5s33 19 59 19zM259.998 19c50 -17.333 96.332 -26.0049 138.999 -26.0049s80 9 112 27s59.667 42.333 83 73s44.333 65.834 63 105.501s31.667 81.334 39 125.001
s11 87.334 11 131.001s-6.83301 85.334 -20.5 125.001s-32.167 74.834 -55.5 105.501s-55 55 -95 73s-85.667 27 -137 27c-109.333 0 -193 -38.667 -251 -116c-40.667 -53.333 -61 -113.333 -61 -180c0 -90.667 31 -159.334 93 -206.001
c33.333 -24.667 71.666 -39.334 114.999 -44.001c8 32 17.5 75.167 28.5 129.5s20.5 99 28.5 134s18 70.833 30 107.5c24.667 74 61.667 111 111 111c9.33301 0 15.666 -4.33301 18.999 -13l1 -4c-42.667 0 -72.334 -34.667 -89.001 -104
c-8.66699 -34 -15.5 -68.667 -20.5 -104l-18 -128.5c-7 -50.333 -14.5 -92.833 -22.5 -127.5c46.667 6.66699 85.834 24.334 117.501 53.001s53.834 63.334 66.501 104.001c0.666992 3.33301 2.83398 5.33301 6.50098 6s6.66699 0 9 -2s3.16602 -5 2.49902 -9
c-14.667 -45.333 -39.667 -84 -75 -116s-79.666 -51.667 -132.999 -59c-21.333 -90 -53.666 -156 -96.999 -198zM-12.0029 29.9951c0 -12.667 9 -23.167 27 -31.5s43.667 -12.5 77 -12.5s65 12.333 95 37c-66.667 28.667 -114.5 43 -143.5 43s-46.833 -8.33301 -53.5 -25
c-1.33301 -4 -2 -7.66699 -2 -11z" />
    <glyph glyph-name="E" unicode="E" horiz-adv-x="706" 
d="M279 939c4 0 7.16699 -1.5 9.5 -4.5s3.5 -5.83301 3.5 -8.5v-4c-43.333 0 -80.666 -12.667 -111.999 -38c-44 -36 -66 -79.333 -66 -130c0 -22 4.66699 -44 14 -66c14.667 -36 41.667 -63.667 81 -83c16 59.333 49.167 110.166 99.5 152.499s112.166 63.5 185.499 63.5
c55.333 0 90.666 -18.667 105.999 -56c4.66699 -11.333 7 -23 7 -35c0 -24.667 -10 -50.667 -30 -78c-49.333 -65.333 -128.333 -98 -237 -98c-33.333 0 -62.333 3 -87 9c-2 -12.667 -3 -26 -3 -40s2.33301 -28 7 -42c40.667 14.667 83.834 22 129.501 22
s73.5 -11.667 83.5 -35c2 -5.33301 3 -10.333 3 -15c0 -14 -10.667 -28 -32 -42s-54.333 -21 -99 -21s-80.667 15.333 -108 46c-59.333 -38 -103 -94 -131 -168c-18.667 -49.333 -28 -97.333 -28 -144c0 -23.333 2.33301 -46 7 -68c14 -68 46.667 -113.667 98 -137v6
c0 62 10.167 122.667 30.5 182s52.5 110.5 96.5 153.5s94.667 64.5 152 64.5s94.333 -26 111 -78c6 -18.667 9 -38 9 -58c0 -36.667 -10 -76.667 -30 -120c-34.667 -74 -87 -127.667 -157 -161c-42.667 -20 -88.667 -30 -138 -30c-8 0 -18.667 0.666992 -32 2
c2 -54.667 14.333 -99 37 -133s55.334 -51 98.001 -51c-2.66699 -11.333 -11 -17 -25 -17c-44.667 0 -79.834 19.333 -105.501 58s-40.5 88.667 -44.5 150c-48 12 -86.667 35.667 -116 71c-36 42.667 -54 97 -54 163c0 34 5 71.833 15 113.5s32 84.334 66 128.001
s75 77.5 123 101.5c-10.667 22.667 -16 44.167 -16 64.5s1 37.5 3 51.5c-30 14 -54.333 32.667 -73 56c-25.333 32.667 -38 69 -38 109c0 44.667 12.667 85 38 121c16 21.333 37 38.833 63 52.5s54.667 20.5 86 20.5zM467 301c-44.667 0 -86.1689 -20.832 -124.502 -62.499
s-67.666 -92.5 -87.999 -152.5s-31.166 -119.667 -32.499 -179c9.33301 -2 19.333 -3 30 -3c97.333 0 175 37.667 233 113c42.667 55.333 64 111.666 64 168.999s-16.667 93.333 -50 108c-9.33301 4.66699 -20 7 -32 7zM338.998 579.001c77.333 0 137.999 24 181.999 72
c26 28 39 55.333 39 82c0 6 -0.333008 11.667 -1 17c-8 31.333 -32 47.333 -72 48c-54.667 0 -103.167 -21.333 -145.5 -64s-70.166 -91.667 -83.499 -147c24.667 -5.33301 51.667 -8 81 -8zM385.997 481.001c-41.333 0 -80.333 -8.33398 -117 -25.001
c18 -28 48.167 -42 90.5 -42s69.5 9.33301 81.5 28c2.66699 4.66699 4 8.66699 4 12c0 8.66699 -5.83301 15.334 -17.5 20.001s-25.5 7 -41.5 7z" />
    <glyph glyph-name="F" unicode="F" horiz-adv-x="702" 
d="M370 348c-18.667 4 -33.999 10.332 -45.999 18.999v19c13.333 -8.66699 29.666 -15 48.999 -19c20 122.667 35 195.667 45 219s20 43.666 30 60.999c20 32.667 47 49 81 49c9.33301 0 15.666 -4 18.999 -12l1 -5c-16 0 -30 -5.33301 -42 -16s-21.5 -23.667 -28.5 -39
s-13.167 -36.666 -18.5 -63.999c-8.66699 -43.333 -14.667 -82.666 -18 -117.999s-5 -54 -5 -56c0 -7.33301 -0.666992 -14.333 -2 -21c28.667 4 54.334 11.667 77.001 23c4 40.667 15 76.5 33 107.5s40.667 46.5 68 46.5c16.667 0 25 -9 25 -27
c0 -35.333 -20 -70.666 -60 -105.999c-8.66699 -8 -18 -15.333 -28 -22c-2 -14 -3 -26.667 -3 -38c0 -49.333 12 -74 36 -74c-0.666992 -8 -6.33398 -12 -17.001 -12c-18 0 -31.667 9.66699 -41 29s-14 44 -14 74c-24 -10.667 -50 -17.334 -78 -20.001
c-16.667 -142 -38 -237.667 -64 -287c-12.667 -24 -28 -47 -46 -69c-35.333 -43.333 -87.666 -65 -156.999 -65c-34 0 -63.167 6.5 -87.5 19.5s-41.833 30.167 -52.5 51.5c-13.333 27.333 -20 53.333 -20 78s3.66699 48.167 11 70.5s17.5 44 30.5 65s30.167 38 51.5 51
s44 19.5 68 19.5c12.667 0 21.667 -4.66699 27 -14l3 -5c-56 0 -100.333 -25.667 -133 -77c-21.333 -34 -32 -69 -32 -105c0 -11.333 1.33301 -23 4 -35c9.33301 -48.667 36 -78 80 -88c10.667 -2.66699 25 -4 43 -4s37 4.83301 57 14.5s37.333 25 52 46
s27.167 42.167 37.5 63.5s19.833 49.333 28.5 84c12 52 24 114.667 36 188zM769.001 815.999c22 0 33 -13 33 -39c0 -20 -10.5 -38.5 -31.5 -55.5s-54 -25.5 -99 -25.5s-106.167 12.333 -183.5 37s-136 37 -176 37c-86 0 -153 -34.333 -201 -103
c-32.667 -46.667 -49 -96.667 -49 -150c0 -76 26 -126.333 78 -151c18 -8.66699 38.333 -13 61 -13c0 -4.66699 -2.66699 -9.66699 -8 -15s-11.333 -8 -18 -8c-70 0 -118.667 29 -146 87c-12.667 27.333 -19 56 -19 86s6 61.667 18 95c26 72 72.333 125.333 139 160
c43.333 22 89.166 33 137.499 33s108.333 -10.833 180 -32.5s126.5 -32.5 164.5 -32.5c57.333 0 90.333 13.333 99 40c4.66699 12.667 3.33398 21 -3.99902 25c-1.33301 0.666992 -2.33301 1 -3 1c4 16 13.333 24 28 24zM612.001 522.999
c-11.333 0 -22.333 -10.501 -33 -31.501s-19 -46.5 -25 -76.5c33.333 26.667 54.333 55.334 63 86.001c1.33301 5.33301 2 10.333 2 15s-2.33301 7 -7 7z" />
    <glyph glyph-name="G" unicode="G" horiz-adv-x="760" 
d="M289 415c-26 -86.667 -38.9932 -155.667 -38.9932 -207c0 -120.667 34.667 -181 104 -181c43.333 0 88.333 26.667 135 80c9.33301 52.667 15.666 89.5 18.999 110.5s7.16602 42.333 11.499 64s8.16602 38.667 11.499 51l12 42.5c4.66699 16 9.66699 28.333 15 37
s11.333 17.334 18 26.001c12 16 28 24 48 24c23.333 0 35 -16 35 -48c0 -11.333 -1.33301 -24.333 -4 -39c-14 -74 -49 -151 -105 -231c-16 -140 -41 -248.667 -75 -326c-33.333 -76 -74 -132.333 -122 -169c-58.667 -45.333 -130.667 -68 -216 -68
c-99.333 0 -169 34.333 -209 103c-19.333 33.333 -29 65.166 -29 95.499s3.66699 57.5 11 81.5c17.333 60 50.333 102.333 99 127c23.333 11.333 48.333 17 75 17c70.667 0 119 -27.333 145 -82c11.333 -24 17 -47 17 -69s-4 -43 -12 -63
c-17.333 -46 -45.666 -69 -84.999 -69c-6 0 -11.333 1.66699 -16 5s-8.33398 8 -11.001 14c30 0 53.333 20.333 70 61c8 20 12 40.167 12 60.5s-4.66699 41.166 -14 62.499c-18 40.667 -54.333 61 -109 61s-97.667 -26.333 -129 -79c-21.333 -35.333 -32 -72.333 -32 -111
c0 -16 2 -32.333 6 -49c14 -62.667 50 -105 108 -127c26 -10 59 -15 99 -15s78.833 9.16699 116.5 27.5s68.667 41.333 93 69s46 63 65 106s33.833 83.833 44.5 122.5s20.667 83.667 30 135c-45.333 -42 -88.5 -63 -129.5 -63s-75 12.167 -102 36.5s-44.167 53.5 -51.5 87.5
s-11 67 -11 99c0 62.667 11 129 33 199c-38.667 9.33301 -70.5 26.5 -95.5 51.5s-41 50.167 -48 75.5s-10.5 46.333 -10.5 63c0 91.333 31.667 157.333 95 198c27.333 18 57.666 27 90.999 27c10 0 15.333 -4 16 -12l1 -4c-32.667 0 -62.334 -8 -89.001 -24
c-51.333 -30.667 -82 -78.667 -92 -144c-1.33301 -11.333 -2 -24.166 -2 -38.499s3 -32.833 9 -55.5s20.667 -45.167 44 -67.5s52.666 -37.833 87.999 -46.5c35.333 102 85 188.5 149 259.5s132.667 106.5 206 106.5c55.333 0 83 -29 83 -87c0 -41.333 -17 -87 -51 -137
c-48.667 -72.667 -113.334 -123.667 -194.001 -153c-40 -14 -81.333 -21 -124 -21h-8zM572.007 790c-50.667 0 -101.167 -34.3311 -151.5 -102.998s-91.5 -151.334 -123.5 -248.001h1c97.333 0 180 36.667 248 110c54 59.333 81 118.666 81 177.999
c0 32.667 -12.333 53 -37 61c-5.33301 1.33301 -11.333 2 -18 2zM619.007 431.002c-16.667 0 -28.999 -16.335 -36.999 -49.002s-14 -69.167 -18 -109.5s-6.33301 -63.166 -7 -68.499c41.333 72 65.666 134.333 72.999 187c1.33301 6.66699 2 12.334 2 17.001
c0 15.333 -4.33301 23 -13 23z" />
    <glyph glyph-name="H" unicode="H" horiz-adv-x="861" 
d="M241 637l171 -11c32 72.667 73 109 123 109c9.33301 0 15.666 -4.33301 18.999 -13l1 -4c-40.667 0 -72.667 -29.667 -96 -89c67.333 10.667 114.666 39.334 141.999 86.001c10.667 18.667 16 33.667 16 45c0 26.667 -9.33301 40 -28 40c4 11.333 12 17 24 17
c22.667 0 34 -15.5 34 -46.5s-12.333 -61.167 -37 -90.5c-36 -43.333 -89.333 -68.666 -160 -75.999c-14.667 -48 -26.667 -108 -36 -180s-14.666 -112.333 -15.999 -121l131 89l121 81c30 108.667 68.833 198.667 116.5 270s97.834 107 150.501 107
c18 0 32.167 -5.66699 42.5 -17s15.5 -26 15.5 -44c0 -48.667 -23.333 -98.334 -70 -149.001s-111.667 -105.334 -195 -164.001c-30 -120.667 -45 -237.334 -45 -350.001c0 -100 14.333 -174.667 43 -224c22.667 -38.667 53.334 -58 92.001 -58
c-4 -13.333 -13.333 -20 -28 -20c-44.667 0 -80.667 18 -108 54c-41.333 53.333 -62 139.333 -62 258c0 92 12 188.667 36 290l-245 -163c-20 -134 -45.667 -225.333 -77 -274c-30 -45.333 -68 -68 -114 -68c-21.333 0 -38.333 7.33301 -51 22s-19 34.334 -19 59.001
c0 67.333 64.333 149.666 193 246.999c28.667 176.667 54.334 294.334 77.001 353.001l-149 11c-80.667 0 -138.334 -30.667 -173.001 -92c-16.667 -30.667 -25 -61.334 -25 -92.001c0 -16 2 -31.667 6 -47c12.667 -47.333 37.667 -71 75 -71
c0 -5.33301 -2.5 -10.333 -7.5 -15s-11.5 -7 -19.5 -7c-42.667 0 -72.334 22 -89.001 66c-7.33301 19.333 -11 41.333 -11 66s7 52.667 21 84c27.333 62.667 73.333 103.334 138 122.001c22.667 6.66699 47 10 73 10zM949 790c0 25.333 -10.667 37.999 -32 37.999
c-34.667 0 -69.167 -28.167 -103.5 -84.5s-64.166 -129.166 -89.499 -218.499c71.333 52 126.666 99.5 165.999 142.5s59 83.833 59 122.5zM158 0.999023c0 -36.667 14.1689 -55 42.502 -55s51.166 22.333 68.499 67s33.666 110 48.999 196
c-106.667 -82.667 -160 -152 -160 -208z" />
    <glyph glyph-name="I" unicode="I" horiz-adv-x="720" 
d="M244 -113c-99.333 0 -169.339 34.6709 -210.006 104.004c-31.333 54 -38.333 112.333 -21 175s50 106.334 98 131.001c22.667 11.333 47.334 17 74.001 17c70.667 0 119 -27.333 145 -82c11.333 -24 17 -47 17 -69s-4 -43 -12 -63c-17.333 -46 -45.666 -69 -84.999 -69
c-12 0 -20.667 4.66699 -26 14l-2 5c28.667 0 51 20.333 67 61c8 20 12 40.167 12 60.5s-4.33301 41.166 -13 62.499c-16.667 40.667 -51.667 61 -105 61s-95.666 -26 -126.999 -78c-20.667 -34.667 -31 -71.334 -31 -110.001c0 -16 1.66699 -32.667 5 -50
c14 -62.667 50 -105.334 108 -128.001c26 -10 58.333 -15 97 -15s74.834 8.83301 108.501 26.5s61 42.167 82 73.5s38.833 66 53.5 104s26.834 80.667 36.501 128s17.834 92 24.501 134c18.667 119.333 35.667 201.666 51 246.999c-62 4.66699 -94.333 7 -97 7
c-94.667 0 -161 -31 -199 -93c-17.333 -28 -26 -56.667 -26 -86c0 -14 2 -28 6 -42c12 -40 34 -60 66 -60c0 -5.33301 -2.66699 -10.333 -8 -15s-12 -7 -20 -7c-38 0 -65 19.667 -81 59c-7.33301 19.333 -11 40.333 -11 63s6.66699 48 20 76
c29.333 63.333 83 103.666 161 120.999c24.667 5.33301 47.167 8 67.5 8s63.5 -3 129.5 -9c30 76 73 114 129 114c4.66699 0 8.83398 -1.5 12.501 -4.5s6.5 -7.16699 8.5 -12.5c-48.667 0 -83.334 -33.333 -104.001 -100h20c68.667 0 116.667 21.667 144 65
c10.667 16.667 16 31 16 43c0 31.333 -11 47 -33 47c4 12 11.667 18 23 18c19.333 0 32.333 -12 39 -36c2 -8.66699 3 -17 3 -25c0 -24 -9.33301 -47.667 -28 -71c-35.333 -42.667 -90.333 -64 -165 -64h-25c-12 -46.667 -21 -103.5 -27 -170.5s-12.5 -122.333 -19.5 -166
s-15 -83.834 -24 -120.501s-22.333 -72.667 -40 -108s-38.5 -65.166 -62.5 -89.499s-55 -44 -93 -59s-81 -22.5 -129 -22.5z" />
    <glyph glyph-name="J" unicode="J" horiz-adv-x="776" 
d="M814 801c4 12 11.832 18.001 23.499 18.001s21.334 -4.83301 29.001 -14.5s11.5 -22.167 11.5 -37.5s-4.16699 -29.833 -12.5 -43.5s-18.333 -25.167 -30 -34.5s-27.834 -18.333 -48.501 -27c-28.667 -12.667 -71.334 -27 -128.001 -43
c-16 -58.667 -27.833 -129.5 -35.5 -212.5s-15.5 -152.167 -23.5 -207.5s-17 -106.833 -27 -154.5s-24.667 -94.334 -44 -140.001s-42 -84.5 -68 -116.5s-59.5 -57.667 -100.5 -77s-87.833 -29 -140.5 -29c-104.667 0 -179.334 37 -224.001 111
c-23.333 38.667 -35 81 -35 127c0 22 2.66699 44.667 8 68c16 68 49.333 117.667 100 149c30 18.667 62.667 28 98 28c72 0 121.333 -28.333 148 -85c10.667 -24 16 -47.5 16 -70.5s-3.66699 -45.5 -11 -67.5c-18 -49.333 -47.333 -74 -88 -74
c-11.333 0 -20.666 6.33301 -27.999 19c27.333 0 49 19.333 65 58c10 24 15 46.667 15 68s-3 41 -9 59c-17.333 49.333 -53 74 -107 74c-63.333 0 -113 -29.333 -149 -88c-24.667 -40.667 -37 -84 -37 -130c0 -16 1.66699 -32 5 -48
c12 -70.667 47.667 -120.334 107 -149.001c31.333 -15.333 71 -23 119 -23s92.333 15.667 133 47s72.167 70.833 94.5 118.5s42 105.334 59 173.001s29.5 132.167 37.5 193.5c23.333 167.333 46.333 288.666 69 363.999c-122 -35.333 -205 -74.666 -249 -117.999
c-18 -18.667 -33.333 -42.167 -46 -70.5s-19 -59.833 -19 -94.5s8.66699 -64 26 -88s39.333 -36 66 -36c0 -5.33301 -2.66699 -10.333 -8 -15s-12 -7 -20 -7c-32.667 0 -59.5 14 -80.5 42s-31.5 59.167 -31.5 93.5s4.16699 63.5 12.5 87.5s18.666 44.833 30.999 62.5
s29 34.5 50 50.5s40.833 29.333 59.5 40s42.334 21.667 71.001 33c42.667 16 91.667 32 147 48c31.333 87.333 76.333 131 135 131c4.66699 0 8.83398 -1.5 12.501 -4.5s6.5 -7.16699 8.5 -12.5c-46 0 -80.333 -32.667 -103 -98c58.667 17.333 102.834 34.333 132.501 51
s44.5 38 44.5 64c0 11.333 -3 20.5 -9 27.5s-13.333 10.5 -22 10.5z" />
    <glyph glyph-name="K" unicode="K" horiz-adv-x="836" 
d="M248 637l170.001 -11.0039h3c31.333 72.667 71.666 109 120.999 109c9.33301 0 15.666 -4.33301 18.999 -13l1 -4c-40.667 0 -72 -29.333 -94 -88c66 10 112.333 38.333 139 85c10.667 18 16 32.667 16 44c0 27.333 -9.33301 41 -28 41c4.66699 12 12.667 18 24 18
c22.667 0 34 -15.667 34 -47s-12.333 -61.666 -37 -90.999c-36.667 -42 -88.667 -67 -156 -75c-9.33301 -30.667 -18 -72.667 -26 -126c52.667 -11.333 94 -40.333 124 -87c48 40 99.667 110.667 155 212c21.333 38.667 43.333 76 66 112c50.667 80 104 120 160 120
c6.66699 0 11.834 -1.5 15.501 -4.5s5.83398 -7.5 6.50098 -13.5c-61.333 0 -111.666 -44 -150.999 -132l-52.5 -120c-17.667 -41.333 -41.667 -82.333 -72 -123s-65.5 -71.667 -105.5 -93c21.333 -46.667 41 -128 59 -244c6 -38 14 -75 24 -111
c20 -76.667 59 -115 117 -115c-1.33301 -12 -10 -18 -26 -18c-42 0 -75.833 10.333 -101.5 31s-43.5 49.334 -53.5 86.001s-17.167 73.834 -21.5 111.501s-8.83301 80.334 -13.5 128.001s-11.334 86.167 -20.001 115.5c-36 -14 -78.667 -21 -128 -21h-8
c-24 -142 -60.333 -241.667 -109 -299c-18.667 -22 -42.667 -40.167 -72 -54.5s-61.333 -21.5 -96 -21.5s-63.834 6 -87.501 18s-40.5 27.333 -50.5 46c-15.333 27.333 -23 52.333 -23 75s3.33301 43.834 10 63.501s16.334 39 29.001 58s29.5 34.5 50.5 46.5
s43.5 18 67.5 18c12.667 0 21.667 -4.66699 27 -14l3 -5c-58.667 0 -103.334 -24.667 -134.001 -74c-17.333 -28.667 -26 -57.334 -26 -86.001c0 -13.333 1.66699 -27 5 -41c14.667 -52 51.334 -78 110.001 -78c47.333 0 85.666 17.667 114.999 53
c30.667 36.667 54.667 80.667 72 132c14 41.333 29.333 99.333 46 174c-32.667 12 -53.334 31 -62.001 57c-2.66699 8.66699 -4 19 -4 31s6 25.333 18 40c18.667 21.333 46 32.333 82 33c12 52 23 91.333 33 118l-152 10c-74 0 -127 -27.667 -159 -83
c-15.333 -26.667 -23 -50 -23 -70s2.33301 -37 7 -51c13.333 -35.333 35 -54 65 -56c0 -5.33301 -2.66699 -10.333 -8 -15s-12 -7 -20 -7c-39.333 0 -66 20 -80 60c-6 16.667 -9 36.167 -9 58.5s7 47.833 21 76.5c36.667 74 101.334 111 194.001 111zM417.001 337.996
c40 0 77.667 11.333 113 34c-22 46 -55.333 74 -100 84l-18 -118h5zM373.001 460.996c-24 -2 -41.167 -9 -51.5 -21s-15.5 -22.333 -15.5 -31c0 -27.333 14.667 -47.333 44 -60z" />
    <glyph glyph-name="L" unicode="L" horiz-adv-x="730" 
d="M638 831c61.333 0 92.002 -45.999 92.002 -137.999c0 -58.667 -16 -126.334 -48 -203.001c-46.667 -111.333 -110 -197 -190 -257c-30.667 -22.667 -62 -40 -94 -52c-32 -82.667 -72.333 -143 -121 -181c66.667 -49.333 115 -81.5 145 -96.5s59 -22.5 87 -22.5
c48.667 0 80.667 17 96 51c4.66699 10.667 7 20.667 7 30s-2.5 17.166 -7.5 23.499s-10.833 9.5 -17.5 9.5c2 8 7 12 15 12c22.667 0 37.667 -12.667 45 -38c2.66699 -8.66699 4 -17 4 -25c0 -20 -7.66699 -38.667 -23 -56c-21.333 -25.333 -53 -38 -95 -38
c-52.667 0 -103.334 15.333 -152.001 46c-27.333 16.667 -47.166 29.667 -59.499 39l-65.5 50c-41.333 -26 -87 -39 -137 -39c-74 0 -122 18.667 -144 56c-6 11.333 -9 23.166 -9 35.499s5.33301 25.166 16 38.499c16.667 20.667 40.667 31 72 31c50 0 112.333 -27 187 -81
c30 30.667 57 76.334 81 137.001c-6.66699 -0.666992 -16.334 -1 -29.001 -1c-108.667 0 -188.334 43.333 -239.001 130c-30.667 53.333 -46 112.333 -46 177c0 22 1.66699 44.333 5 67c12 84.667 43.333 149.334 94 194.001c34.667 29.333 74 44 118 44s78 -14.333 102 -43
s36.667 -64 38 -106c0 -6 -3.33301 -10.833 -10 -14.5s-13.334 -4.66699 -20.001 -3s-10 5.83398 -10 12.501c-1.33301 40 -9.33301 71.833 -24 95.5s-41 35.5 -79 35.5c-60 0 -108.333 -33 -145 -99c-29.333 -52 -44 -109.333 -44 -172c0 -114.667 37 -197.667 111 -249
c40.667 -28.667 90 -43 148 -43c13.333 0 27 1 41 3c15.333 41.333 31.666 95.5 48.999 162.5l46.5 175c13.667 49.667 29.834 99.167 48.501 148.5c38.667 102.667 92.334 154 161.001 154zM627.002 802.001c-46.667 0 -82.334 -44.999 -107.001 -134.999
c-12 -43.333 -22.667 -88 -32 -134c-27.333 -140.667 -52.666 -245.667 -75.999 -315c82 42 149 120.667 201 236c42 92 62.667 176.667 62 254c-2 61.333 -18 92.666 -48 93.999zM54.002 82.002c-30 0 -49.1689 -10.5 -57.502 -31.5s0.833984 -40.833 27.501 -59.5
c20 -14 50.333 -21 91 -21s76.667 13 108 39c-65.333 48.667 -121.666 73 -168.999 73z" />
    <glyph glyph-name="M" unicode="M" horiz-adv-x="1274" 
d="M856 702l-61 19.002c-32 -49.333 -66 -138 -102 -266l-48.5 -160.5c-17.667 -56.333 -38 -109 -61 -158s-49.333 -93.5 -79 -133.5s-66.5 -71.667 -110.5 -95s-93.333 -35 -148 -35c-98 0 -169.333 35 -214 105c-24.667 39.333 -37 81.666 -37 126.999
c0 18.667 2 37.667 6 57c14 64.667 45.667 110.667 95 138c26 14.667 55 22 87 22c68.667 0 115 -26.667 139 -80c10 -22 15 -44.5 15 -67.5s-4.66699 -46.167 -14 -69.5c-22.667 -56 -59.667 -84 -111 -84c-8 0 -14.667 1.83301 -20 5.5s-9.33301 9.16699 -12 16.5
c18 0 35 4.66699 51 14c26.667 16 47.334 45 62.001 87c4.66699 14 7 25.5 7 34.5s-0.666992 19.333 -2 31s-5.66602 25.167 -12.999 40.5s-20 27.666 -38 36.999s-39.333 14 -64 14c-63.333 0 -110 -28 -140 -84c-17.333 -32 -26 -62.333 -26 -91s3 -54.334 9 -77.001
c17.333 -63.333 53.666 -107 108.999 -131c26 -11.333 59 -17 99 -17s80.5 11.167 121.5 33.5s76.333 52.666 106 90.999s56.5 81.166 80.5 128.499s45.833 98.5 65.5 153.5s37.5 107.167 53.5 156.5c42.667 126.667 79.667 215 111 265
c-100.667 31.333 -173.667 47 -219 47c-86 0 -150 -32.667 -192 -98c-24 -37.333 -36 -75.666 -36 -114.999c0 -11.333 1.33301 -23 4 -35c7.33301 -44 27 -70.333 59 -79c6 -1.33301 12 -2 18 -2c-4 -14 -15 -21 -33 -21c-40.667 0 -69.334 21.667 -86.001 65
c-8 20.667 -12 43.667 -12 69s6.66699 53.666 20 84.999c28 67.333 77.333 113.333 148 138c33.333 11.333 71.5 17 114.5 17s118.833 -17.333 227.5 -52c32.667 46.667 70 70 112 70c5.33301 0 9.33301 -1.66699 12 -5s4.33398 -8 5.00098 -14
c-39.333 0 -74.333 -19.667 -105 -59c30 -9.33301 49.333 -15.666 58 -18.999c28 48.667 54.333 73 79 73c11.333 0 18 -3.33301 20 -10l1 -3c-18.667 0 -38.334 -24.667 -59.001 -74l143 -46c44.667 84 91.334 126 140.001 126c6.66699 0 12 -1.66699 16 -5
s6.66699 -8.33301 8 -15c-50 0 -96 -38 -138 -114c36 -9.33301 58.333 -14.666 67 -15.999c39.333 78 74.666 117 105.999 117c11.333 0 18 -3.33301 20 -10l1 -3c-22 0 -48.667 -37 -80 -111c4.66699 -0.666992 11 -1 19 -1c66 0 112.333 19.667 139 59
c11.333 15.333 17 28.333 17 39c0 30 -13.333 45 -40 45c6 9.33301 15.667 14 29 14c26 0 43 -13 51 -39c2 -8 3 -15.667 3 -23c0 -22 -9.33301 -43.667 -28 -65c-32.667 -36 -83 -54 -151 -54c-16 0 -31.667 1.33301 -47 4c-29.333 -75.333 -54.5 -162.333 -75.5 -261
s-31.5 -186.667 -31.5 -264s15.667 -116 47 -116c-6.66699 -13.333 -16.334 -20 -29.001 -20c-52 0 -78 57 -78 171c0 67.333 10.667 147.5 32 240.5s50.333 179.167 87 258.5c-17.333 3.33301 -40 9 -68 17c-29.333 -57.333 -60.166 -141.166 -92.499 -251.499
s-61 -200.833 -86 -271.5s-50.167 -106 -75.5 -106c-50.667 0 -76 60.667 -76 182c0 74 10.833 160.667 32.5 260s50.5 184 86.5 254zM824.5 63.002c13.667 0 30.667 32.001 51 96.001l76 246c30.333 100 60.166 179 89.499 237l-141 45
c-29.333 -78.667 -53.666 -180.334 -72.999 -305.001c-15.333 -100.667 -23 -179 -23 -235s6.83301 -84 20.5 -84z" />
    <glyph glyph-name="N" unicode="N" horiz-adv-x="1154" 
d="M277 645c42.667 103.333 132.003 155.007 268.003 155.007c47.333 0 117 -15.333 209 -46c30.667 42.667 65.667 64 105 64c5.33301 0 9.33301 -1.66699 12 -5s4.33398 -8 5.00098 -14c-36.667 0 -69 -17.333 -97 -52c21.333 -5.33301 42.666 -9.33301 63.999 -12
c22.667 46 45.667 69 69 69c10.667 0 17 -3.33301 19 -10l1 -4c-16 0 -31 -19 -45 -57c38.667 0.666992 65 16 79 46c4.66699 9.33301 7 18.166 7 26.499s-2.83301 15.333 -8.5 21s-12.167 8.5 -19.5 8.5c3.33301 10 10.333 15 21 15c19.333 0 32 -11.333 38 -34
c2 -6.66699 3 -13.334 3 -20.001c0 -20 -9.66699 -39.5 -29 -58.5s-48.333 -28.5 -87 -28.5h-12c-19.333 -63.333 -32.833 -139.5 -40.5 -228.5s-11.5 -163.167 -11.5 -222.5c0 -150 13.333 -225 40 -225c11.333 0 25.333 27 42 81s35.5 119.333 56.5 196
s44.333 153.5 70 230.5s57.5 142.5 95.5 196.5s78.667 81 122 81c9.33301 0 17.166 -2.33301 23.499 -7s10.833 -12 13.5 -22c-49.333 0 -94.166 -27.833 -134.499 -83.5s-73.5 -123.5 -99.5 -203.5s-49.833 -159.833 -71.5 -239.5s-43.334 -147.334 -65.001 -203.001
s-43.167 -83.5 -64.5 -83.5c-33.333 0 -58 27.333 -74 82s-24 117.334 -24 188.001c0 81.333 7.16699 166.166 21.5 254.499s32.5 159.166 54.5 212.499c-24 4 -46.667 9 -68 15c-37.333 -57.333 -73 -163.333 -107 -318c-13.333 -60.667 -31.333 -124 -54 -190
s-47.834 -124 -75.501 -174s-65.667 -91.333 -114 -124s-104.5 -49 -168.5 -49c-98 0 -169.333 35 -214 105c-24.667 39.333 -37 81.666 -37 126.999c0 18.667 2 37.667 6 57c14 64.667 45.667 110.667 95 138c26 14.667 55 22 87 22c68.667 0 115 -26.667 139 -80
c10 -22 15 -44.5 15 -67.5s-4.66699 -46.167 -14 -69.5c-22.667 -56 -59.667 -84 -111 -84c-8 0 -14.667 1.83301 -20 5.5s-9.33301 9.16699 -12 16.5c18 0 35 4.66699 51 14c26.667 16 47.334 45 62.001 87c4.66699 14 7 25.5 7 34.5s-0.666992 19.333 -2 31
s-5.66602 25.167 -12.999 40.5s-20 27.666 -38 36.999s-39.333 14 -64 14c-63.333 0 -110 -28 -140 -84c-17.333 -32 -26 -62.333 -26 -91s3 -54.334 9 -77.001c17.333 -63.333 53.666 -107 108.999 -131c26 -11.333 54.667 -17 86 -17c57.333 0 108.666 15.667 153.999 47
s82 70.833 110 118.5s54.5 103.5 79.5 167.5s45.167 125.333 60.5 184c40 148.667 79 254.334 117 317.001c-3.33301 0.666992 -12.166 3.33398 -26.499 8.00098s-24 7.66699 -29 9l-27 7c-13 3.33301 -23.167 5.66602 -30.5 6.99902l-28 5c-20 3.33301 -42 5 -66 5
c-86.667 0 -150.667 -32.667 -192 -98c-24 -36.667 -36 -74.667 -36 -114c0 -11.333 1.33301 -23 4 -35c7.33301 -43.333 26.666 -69.333 57.999 -78c6 -2 12.333 -3 19 -3c-4 -14.667 -15 -22 -33 -22c-40.667 0 -69.334 21.667 -86.001 65c-8 20.667 -12 43.667 -12 69
s6.66699 53.666 20 84.999z" />
    <glyph glyph-name="O" unicode="O" horiz-adv-x="736" 
d="M339 340c0 -99.333 27.668 -148.998 83.001 -148.998c-2 -12.667 -13 -19 -33 -19c-48 0 -80.333 30.333 -97 91c-6.66699 26 -10 56.833 -10 92.5s7.66699 78.5 23 128.5c28 90 71.667 153 131 189c29.333 18 60.666 27 93.999 27c64 0 103 -38.333 117 -115
c4 -21.333 6 -43.666 6 -66.999c0 -66 -15.667 -141.667 -47 -227c-42.667 -118 -99.334 -209 -170.001 -273c-51.333 -47.333 -103.333 -71 -156 -71c-98 0 -165.667 45.333 -203 136c-19.333 46 -29 95.167 -29 147.5s6.66699 106.166 20 161.499
c29.333 122 82 223.5 158 304.5s161 121.5 255 121.5c5.33301 0 9.66602 -1.66699 12.999 -5s5.33301 -8.66602 6 -15.999c-92 0 -174.667 -51.667 -248 -155c-64.667 -91.333 -107 -197.666 -127 -318.999c-6.66699 -40.667 -10 -78.334 -10 -113.001
c0 -67.333 13.667 -124 41 -170s69 -69 125 -69c74.667 0 145.334 50.667 212.001 152c58.667 89.333 98.667 190 120 302c8 41.333 12 77.666 12 108.999c0 49.333 -9.66699 86.666 -29 111.999c-15.333 18 -34.333 27 -57 27c-59.333 0 -108.666 -40.333 -147.999 -121
c-34.667 -70.667 -52 -141.334 -52 -212.001z" />
    <glyph glyph-name="P" unicode="P" horiz-adv-x="730" 
d="M326 276c-56.667 15.333 -84.999 47.6699 -84.999 97.0029c0 19.333 5.16699 34.166 15.5 44.499s19.166 15.5 26.499 15.5c12 0 19 -3.66699 21 -11l1 -4c-17.333 0 -29.333 -9.66699 -36 -29c-2 -6.66699 -3 -13.334 -3 -20.001
c0 -17.333 6.83301 -31.666 20.5 -42.999s28.5 -19.333 44.5 -24c22.667 134.667 37.334 216 44.001 244c25.333 102.667 61.333 159.334 108 170.001c6 1.33301 12 2 18 2c10 0 16.667 -4 20 -12l1 -5c-28 0 -49.667 -15.333 -65 -46
c-14.667 -30.667 -24.834 -64.667 -30.501 -102s-9.83398 -66.666 -12.501 -87.999s-5.83398 -49.5 -9.50098 -84.5s-6.83398 -63.5 -9.50098 -85.5c82 2.66699 149.667 39 203 109c44.667 58.667 67 122.334 67 191.001c0 77.333 -27.333 133 -82 167
c-32 19.333 -71 29 -117 29c-129.333 0 -227.666 -46 -294.999 -138c-46.667 -62.667 -70 -132.667 -70 -210c0 -76 20 -129.667 60 -161c18 -14.667 38.667 -22 62 -22c-6 -15.333 -16.333 -23 -31 -23c-56 0 -95.667 28.667 -119 86c-12.667 30.667 -19 63.667 -19 99
s6 72.666 18 111.999c28.667 93.333 82.334 165.666 161.001 216.999c66 43.333 143.667 65 233 65c112.667 0 189.667 -36.333 231 -109c19.333 -33.333 29 -67.333 29 -102s-5.66699 -69 -17 -103c-25.333 -76 -71.333 -136 -138 -180
c-54 -34.667 -113.667 -52.334 -179 -53.001c-20 -141.333 -53 -240.333 -99 -297c-18 -22.667 -41 -41 -69 -55s-59 -21 -93 -21s-63 6 -87 18s-41 27.333 -51 46c-15.333 27.333 -23 52.333 -23 75s3.33301 43.834 10 63.501s16.334 39 29.001 58s29.334 34.5 50.001 46.5
s43 18 67 18c14 0 23 -4.66699 27 -14l3 -5c-58 0 -102 -24.667 -132 -74c-18 -28.667 -27 -57.334 -27 -86.001c0 -14 2 -27.667 6 -41c14 -52 50.333 -78 109 -78c26 0 49.667 6.66699 71 20s39.166 30.166 53.499 50.499s27.5 47.166 39.5 80.499
c18 50 34.667 117.333 50 202z" />
    <glyph glyph-name="Q" unicode="Q" horiz-adv-x="736" 
d="M339 340c0 -99.333 27.668 -148.998 83.001 -148.998c-2 -12.667 -13 -19 -33 -19c-48 0 -80.333 30.333 -97 91c-6.66699 26 -10 56.833 -10 92.5s7.66699 78.5 23 128.5c28 90 71.667 153 131 189c29.333 18 60.666 27 93.999 27c64 0 103 -38.333 117 -115
c4 -21.333 6 -43.666 6 -66.999c0 -66 -15.667 -141.667 -47 -227c-42.667 -118 -99.334 -209 -170.001 -273c-51.333 -47.333 -103.333 -71 -156 -71c-98 0 -165.667 45.333 -203 136c-19.333 46 -29 95.167 -29 147.5s6.66699 106.166 20 161.499
c29.333 122 82 223.5 158 304.5s161 121.5 255 121.5c5.33301 0 9.66602 -1.66699 12.999 -5s5.33301 -8.66602 6 -15.999c-92 0 -174.667 -51.667 -248 -155c-64.667 -91.333 -107 -197.666 -127 -318.999c-6.66699 -40.667 -10 -78.334 -10 -113.001
c0 -67.333 13.667 -124 41 -170s69 -69 125 -69c74.667 0 145.334 50.667 212.001 152c58.667 89.333 98.667 190 120 302c8 41.333 12 77.666 12 108.999c0 49.333 -9.66699 86.666 -29 111.999c-15.333 18 -34.333 27 -57 27c-59.333 0 -108.666 -40.333 -147.999 -121
c-34.667 -70.667 -52 -141.334 -52 -212.001zM10.001 -97.998c3.33301 16 13.6709 23.999 31.0039 23.999s39.5 -6.83301 66.5 -20.5s52.5 -28.5 76.5 -44.5s53.167 -30.833 87.5 -44.5s67.166 -20.5 98.499 -20.5c62 0 103 19.333 123 58c6 12 9 23 9 33s-3 19 -9 27
c-5.33301 6.66699 -12 10.334 -20 11.001c3.33301 12.667 11.666 19 24.999 19c26 0 43.333 -13.667 52 -41c3.33301 -10 5 -19.667 5 -29c0 -22 -8.33301 -43.333 -25 -64c-28 -36 -73 -54 -135 -54c-36.667 0 -74.334 7.66699 -113.001 23s-71.334 32 -98.001 50
c-72 48.667 -130 73 -174 73z" />
    <glyph glyph-name="R" unicode="R" horiz-adv-x="778" 
d="M487 700c9.33301 0 15.3369 -4.00098 18.0039 -12.001l2 -5c-28.667 0 -49.834 -17.167 -63.501 -51.5s-24.167 -84.833 -31.5 -151.5c56.667 -10.667 100 -44 130 -100c42.667 27.333 75.834 64 99.501 110s35.5 91.333 35.5 136s-16.833 83.334 -50.5 116.001
s-81.834 49 -144.501 49c-120.667 0 -214 -43 -280 -129c-46 -60.667 -69 -125.334 -69 -194.001s17.667 -115 53 -139c14.667 -9.33301 30.667 -14 48 -14c-6.66699 -15.333 -17 -23 -31 -23c-50 0 -85 26.333 -105 79c-10 25.333 -15 54.166 -15 86.499
s7.33301 68.5 22 108.5c30.667 87.333 86 153.333 166 198c61.333 34.667 131.666 52 210.999 52c56.667 0 104.667 -9 144 -27s67.666 -41 84.999 -69c18.667 -31.333 28 -64.833 28 -100.5s-6.83301 -69.834 -20.5 -102.501s-34.667 -64.5 -63 -95.5
s-61.5 -55.833 -99.5 -74.5c16.667 -43.333 31.667 -124 45 -242c4.66699 -38 11 -75 19 -111c17.333 -76 54.333 -114 111 -114c-1.33301 -12 -10 -18 -26 -18c-81.333 0 -130.666 38.667 -147.999 116c-8.66699 36.667 -14.167 73.667 -16.5 111s-4.5 79.833 -6.5 127.5
s-6.66699 86.167 -14 115.5c-36.667 -13.333 -75.667 -20 -117 -20h-9c-18.667 -144.667 -50.334 -243.667 -95.001 -297c-18 -22 -41.5 -40.333 -70.5 -55s-61 -22 -96 -22s-64.333 6 -88 18s-40.834 27.333 -51.501 46c-14.667 27.333 -22 52.333 -22 75
s3.33301 43.834 10 63.501s16.334 39 29.001 58s29.334 34.5 50.001 46.5s43 18 67 18c13.333 0 22.666 -4.66699 27.999 -14l2 -5c-58 0 -102.333 -24.667 -133 -74c-17.333 -28 -26 -56.667 -26 -86c0 -13.333 1.66699 -27 5 -41c14.667 -52 51.334 -78 110.001 -78
c28 0 53.167 7 75.5 21s40.666 31.333 54.999 52s27.5 48 39.5 82c18 52.667 34 120.334 48 203.001c-25.333 8.66699 -43.333 21.167 -54 37.5s-16 28.833 -16 37.5v18c3.33301 17.333 13.5 32.833 30.5 46.5s39.167 20.834 66.5 21.501
c8.66699 45.333 17.667 82.5 27 111.5s22.666 53.667 39.999 74s38 30.5 62 30.5zM402.004 337.999c37.333 0 73.667 7.99902 109 23.999c-20 52.667 -53.667 84.334 -101 95.001l-12 -119h4zM354.005 460.998c-24 -2 -41 -9.16699 -51 -21.5s-15 -22.5 -15 -30.5
c0 -27.333 15.667 -47.333 47 -60c8 50.667 14.333 88 19 112z" />
    <glyph glyph-name="S" unicode="S" horiz-adv-x="769" 
d="M69 -12c-22 41.333 -32.998 89.998 -32.998 145.998c0 52 8.83301 98.5 26.5 139.5s37 74 58 99s46.667 45 77 60s62.5 22.5 96.5 22.5c48 0 86.333 -13.667 115 -41l131 110c-2.66699 23.333 -4 46.333 -4 69c0 148 39 222 117 222c20 0 35.667 -7 47 -21
s17.666 -32 18.999 -54c0.666992 -32 -9.5 -64 -30.5 -96s-51.833 -67 -92.5 -105c20.667 -138 31 -231.833 31 -281.5s-6.33301 -97.667 -19 -144s-32 -88.5 -58 -126.5s-61.667 -67.667 -107 -89s-98 -32 -158 -32c-86 0 -151 29.333 -195 88
c-12 -42 -18 -89.833 -18 -143.5s14.167 -102 42.5 -145s64.833 -64.5 109.5 -64.5c3.33301 0 5.16602 -3.33301 5.49902 -10s-1.5 -10 -5.5 -10c-52.667 0 -96 24.833 -130 74.5s-51 104.834 -51 165.501s8.66699 116.334 26 167.001zM426.002 394.998
c18.667 -25.333 28.001 -53.833 28.001 -85.5s-4.83301 -60 -14.5 -85s-26.667 -47 -51 -66s-52.5 -28.5 -84.5 -28.5c-6.66699 0 -11.834 1.66699 -15.501 5s-6.16699 8.66602 -7.5 15.999c28.667 0 55 13.333 79 40c34.667 37.333 52 79.333 52 126
c0 19.333 -3.66699 38 -11 56c-74.667 -64 -137.667 -126.667 -189 -188s-89 -128 -113 -200c38 -61.333 97.667 -92 179 -92c50 0 93.833 10.5 131.5 31.5s67.167 49.5 88.5 85.5c42 70.667 63 156.334 63 257.001c0 24.667 -6 99.667 -18 225zM386.003 393.998
c-21.333 22.667 -50.667 33.999 -88 33.999s-71 -9 -101 -27c-55.333 -33.333 -95 -89.333 -119 -168c-10.667 -33.333 -16 -67.666 -16 -102.999c0 -39.333 6.33301 -75.666 19 -108.999c46 115.333 147.667 239.666 305 372.999zM587.002 643.997
c0 -18 1.66699 -42.001 5 -72.001c66 64.667 99 119.334 99 164.001c0 34.667 -12.667 52 -38 52c-44 0 -66 -48 -66 -144z" />
    <glyph glyph-name="T" unicode="T" horiz-adv-x="603" 
d="M529 696c9.33301 0 15.668 -3.99805 19.001 -11.998l1 -5c-49.333 0 -81 -49.667 -95 -149c-6.66699 -44.667 -12.334 -93.834 -17.001 -147.501s-11.667 -107.334 -21 -161.001s-22.5 -102.667 -39.5 -147s-43.333 -80.333 -79 -108s-79.5 -41.5 -131.5 -41.5
c-34 0 -63.167 6.5 -87.5 19.5s-41.833 30.167 -52.5 51.5c-13.333 27.333 -20 53.333 -20 78s3.66699 48.167 11 70.5s17.5 44 30.5 65s30.167 38 51.5 51s44 19.5 68 19.5c12.667 0 21.667 -4.66699 27 -14l3 -5c-56 0 -100.333 -25.667 -133 -77
c-21.333 -34 -32 -69 -32 -105c0 -11.333 1.33301 -23 4 -35c9.33301 -48.667 36 -78 80 -88c10.667 -2.66699 21.667 -4 33 -4c40 0 74 13.667 102 41s49.333 62.833 64 106.5s27 92 37 145s19 106 27 159s17.333 101.333 28 145s26.167 79.167 46.5 106.5s45.5 41 75.5 41
zM740.002 824.002c22 0 33 -13 33 -39c0 -20 -10.5 -38.5 -31.5 -55.5s-54 -25.5 -99 -25.5s-101.333 11 -169 33s-121.5 33 -161.5 33c-86 0 -153 -34.333 -201 -103c-32.667 -46.667 -49 -96.667 -49 -150c0 -76 26 -126.333 78 -151c18 -8.66699 38.333 -13 61 -13
c0 -4.66699 -2.66699 -9.66699 -8 -15s-11.333 -8 -18 -8c-70 0 -118.667 29 -146 87c-12.667 27.333 -19 56 -19 86s6 61.667 18 95c26 72 72.333 125.333 139 160c43.333 22 89.166 33 137.499 33s103.5 -9.5 165.5 -28.5s112 -28.5 150 -28.5
c57.333 0 90.333 13.333 99 40c4.66699 12.667 3.33398 21 -3.99902 25c-1.33301 0.666992 -2.33301 1 -3 1c4 16 13.333 24 28 24z" />
    <glyph glyph-name="U" unicode="U" horiz-adv-x="713" 
d="M580 493c22.667 0 34.0049 -13.666 34.0049 -40.999c0 -16.667 -4 -38.334 -12 -65.001c-20.667 -65.333 -57.334 -136.666 -110.001 -213.999c-0.666992 -11.333 -1 -22.333 -1 -33c0 -55.333 5.66699 -102.666 17 -141.999c14 -46 37 -69 69 -69
c-3.33301 -13.333 -12.666 -20 -27.999 -20c-34.667 0 -61.667 17.167 -81 51.5s-31 79.166 -35 134.499c-66.667 -78 -123.334 -117 -170.001 -117c-82.667 0 -124 44.667 -124 134c0 37.333 7.83301 80.5 23.5 129.5s33.167 93.667 52.5 134s36.833 85.666 52.5 135.999
s23.5 96.833 23.5 139.5s-12.333 77 -37 103s-58.667 39 -102 39c-66.667 0 -121 -34 -163 -102c-32.667 -54 -49 -111 -49 -171c0 -76 22.333 -124.333 67 -145c13.333 -6 27.666 -9 42.999 -9c51.333 0 90.333 28.667 117 86c1.33301 2.66699 3.5 4.16699 6.5 4.5
s5.66699 -0.5 8 -2.5s2.83301 -4.33301 1.5 -7c-12.667 -31.333 -30.334 -56.5 -53.001 -75.5s-49.334 -28.5 -80.001 -28.5c-60 0 -100.667 30.333 -122 91c-8.66699 26 -13 55.333 -13 88s7 69.334 21 110.001c26 76.667 67.667 130.667 125 162
c28.667 15.333 59 23 91 23c61.333 0 108.333 -20.833 141 -62.5s49 -96.834 49 -165.501c0 -40 -7.16699 -85.167 -21.5 -135.5s-30.5 -95.5 -48.5 -135.5c-46 -104 -69 -182.5 -69 -235.5s19.667 -79.5 59 -79.5c45.333 0 101.666 43.667 168.999 131v9
c0 52.667 6 105.667 18 159s29.667 98.5 53 135.5s49.333 55.5 78 55.5zM495.005 228.001c61.333 100.667 92 172.333 92 215c0 12 -4 18 -12 18c-17.333 0 -33.5 -22.833 -48.5 -68.5s-25.5 -100.5 -31.5 -164.5z" />
    <glyph glyph-name="V" unicode="V" horiz-adv-x="718" 
d="M508 221c-37.333 39.333 -55.999 106.332 -55.999 200.999c0 85.333 17.667 158 53 218c23.333 40 50.666 60 81.999 60c30 0 45 -33.667 45 -101c0 -42 -7.16699 -95.5 -21.5 -160.5s-36.166 -131.5 -65.499 -199.5c17.333 -19.333 38 -29 62 -29
c-3.33301 -13.333 -13.166 -20 -29.499 -20s-32.5 4.33301 -48.5 13c-32 -67.333 -67.667 -121.666 -107 -162.999s-79.666 -62 -120.999 -62c-84.667 0 -127 44.667 -127 134c0 46 9.66699 101.333 29 166l58 195.5c19.333 65.667 29 122.334 29 170.001
s-12.333 84.5 -37 110.5s-58.667 39 -102 39c-66.667 0 -121 -34 -163 -102c-32.667 -54 -49 -111 -49 -171c0 -76 22.333 -124.333 67 -145c13.333 -6 27.666 -9 42.999 -9c51.333 0 90.333 28.667 117 86c1.33301 2.66699 3.5 4.16699 6.5 4.5s5.66699 -0.5 8 -2.5
s2.83301 -4.33301 1.5 -7c-12.667 -31.333 -30.334 -56.5 -53.001 -75.5s-49.334 -28.5 -80.001 -28.5c-60 0 -100.667 30.333 -122 91c-8.66699 26 -13 55.333 -13 88s7 69.334 21 110.001c26 76.667 67.667 130.667 125 162c28.667 15.333 59 23 91 23
c61.333 0 108.333 -20.833 141 -62.5s49 -96.834 49 -165.501c0 -50 -8.5 -108 -25.5 -174s-34.167 -129.333 -51.5 -190s-26 -106.334 -26 -137.001s4.5 -52.5 13.5 -65.5s25.167 -19.5 48.5 -19.5c38 0 74.833 20 110.5 60s68.167 92.667 97.5 158zM605.001 606.999
c0 40.667 -7.50098 61.001 -22.501 61.001s-29.167 -15.333 -42.5 -46c-25.333 -56.667 -38 -126 -38 -208c0 -62.667 8.33301 -111.334 25 -146.001c44.667 114.667 70.334 218.667 77.001 312c0.666992 9.33301 1 18.333 1 27z" />
    <glyph glyph-name="W" unicode="W" horiz-adv-x="963" 
d="M851 578c0 -94 -20.3281 -197.998 -60.9951 -311.998c17.333 -37.333 39.666 -56 66.999 -56c-3.33301 -13.333 -14.333 -20 -33 -20s-36.334 9 -53.001 27c-27.333 -66 -58.833 -119.167 -94.5 -159.5s-73.167 -60.5 -112.5 -60.5c-51.333 0 -87.666 32 -108.999 96
c-58.667 -76.667 -115.667 -115 -171 -115c-84.667 0 -127 44.667 -127 134c0 66 22.333 154 67 264c16 40 31 85.167 45 135.5s21 96.833 21 139.5s-12.333 77 -37 103s-58.667 39 -102 39c-66.667 0 -121 -34 -163 -102c-32.667 -54 -49 -111 -49 -171
c0 -76 22.333 -124.333 67 -145c13.333 -6 27.666 -9 42.999 -9c51.333 0 90.333 28.667 117 86c1.33301 2.66699 3.5 4.16699 6.5 4.5s5.66699 -0.5 8 -2.5s2.83301 -4.33301 1.5 -7c-12.667 -31.333 -30.334 -56.5 -53.001 -75.5s-49.334 -28.5 -80.001 -28.5
c-60 0 -100.667 30.333 -122 91c-8.66699 26 -13 55.333 -13 88s7 69.334 21 110.001c26 76.667 67.667 130.667 125 162c28.667 15.333 59 23 91 23c61.333 0 108.333 -20.833 141 -62.5s49 -96.834 49 -165.501c0 -50 -10 -108 -30 -174l-60 -190
c-20 -60.667 -30 -106.334 -30 -137.001s4.5 -52.5 13.5 -65.5s25.167 -19.5 48.5 -19.5c52.667 0 107 40.667 163 122c-5.33301 35.333 -8 69.333 -8 102c0 106.667 18 198 54 274c26 53.333 53.667 80 83 80c26 0 39 -23 39 -69s-10.667 -101.333 -32 -166
s-49 -126.334 -83 -185.001c8 -91.333 33.333 -137 76 -137c64 0 123.333 72 178 216c-30.667 51.333 -46 124 -46 218c0 55.333 7 106 21 152c17.333 58 42.166 87 74.499 87s48.5 -39.667 48.5 -119zM825.005 585.002c0 53.333 -9 79.999 -27 79.999
c-13.333 0 -23.833 -19.167 -31.5 -57.5s-11.5 -71.166 -11.5 -98.499c0 -88 6.66699 -156 20 -204c33.333 108.667 50 202 50 280zM496.005 220.001v-9.00098c26 50 47.667 102 65 156c18.667 58.667 28 102.834 28 132.501s-6.33301 46.167 -19 49.5
c-17.333 0 -34 -36.833 -50 -110.5s-24 -146.5 -24 -218.5z" />
    <glyph glyph-name="X" unicode="X" horiz-adv-x="923" 
d="M448 650c0 95.333 -42.3232 143.01 -126.99 143.01c-62.667 0 -114.334 -30.667 -155.001 -92c-31.333 -48 -47 -97.667 -47 -149c0 -68 23.333 -110 70 -126c11.333 -4 24 -6 38 -6c51.333 0 90.333 28.333 117 85c3.33301 6 7.16602 7.5 11.499 4.5
s5.83301 -6.16699 4.5 -9.5c-12.667 -31.333 -30.334 -56.5 -53.001 -75.5s-49.334 -28.5 -80.001 -28.5c-62 0 -102.667 28.667 -122 86c-8 21.333 -12 46.666 -12 75.999s8.33301 63.666 25 102.999c27.333 67.333 68.666 113.666 123.999 138.999
c25.333 11.333 55.166 17 89.499 17s64.833 -7.83301 91.5 -23.5s45.334 -36.834 56.001 -63.501c15.333 -37.333 23 -81 23 -131c0 -23.333 -2 -48 -6 -74c54 96.667 106.5 171.834 157.5 225.501s105.5 80.5 163.5 80.5c20.667 0 36.834 -6.33301 48.501 -19
s17.5 -30.834 17.5 -54.501s-8 -48.834 -24 -75.501s-35.167 -50.834 -57.5 -72.501s-53.5 -45.834 -93.5 -72.501c-62.667 -41.333 -139.334 -86.666 -230.001 -135.999c-2 -12 -6 -34.667 -12 -68c-19.333 -98 -29 -169.667 -29 -215c0 -23.333 5.66699 -51.333 17 -84
c11.333 -36.667 41.666 -55 90.999 -55c63.333 0 117 34.667 161 104c34.667 55.333 52 109.833 52 163.5s-14.333 82.834 -43 87.501l-9 1c-38.667 0 -69.667 -19.333 -93 -58s-35 -75.834 -35 -111.501s7.33301 -57.167 22 -64.5c-2.66699 -10 -8.66699 -15 -18 -15
c-29.333 0 -44 26.333 -44 79c0 38 11 75.333 33 112c30.667 54 71.334 81 122.001 81c64 0 96 -38.667 96 -116c0 -42 -12.333 -87.333 -37 -136c-34.667 -68.667 -80.334 -114.667 -137.001 -138c-22.667 -9.33301 -50.334 -14 -83.001 -14s-62.334 7.5 -89.001 22.5
s-45 35.167 -55 60.5c-12.667 32.667 -19 66.667 -19 102s2.66699 67.666 8 96.999c-51.333 -92.667 -100.166 -164.5 -146.499 -215.5s-94.5 -76.5 -144.5 -76.5c-28.667 0 -51.334 7.66699 -68.001 23s-25 36.166 -25 62.499s8.33301 53.166 25 80.499
s36.167 51.666 58.5 72.999s54.666 45.833 96.999 73.5s78.666 50 108.999 67l125.5 68.5c0.666992 2.66699 1.66699 7 3 13c24.667 115.333 37 197 37 245zM47.5098 98.5098c-14.333 -24.333 -21.501 -46.6689 -21.501 -67.002s5.33301 -35.666 16 -45.999
s26.334 -15.5 47.001 -15.5s42.5 7.5 65.5 22.5s43.833 32.833 62.5 53.5s39.667 50 63 88c32.667 52.667 72 123.334 118 212.001l3 13c-150 -81.333 -250.333 -146 -301 -194c-20.667 -20 -38.167 -42.167 -52.5 -66.5zM803.009 804.007c-22.667 0 -45.832 -7 -69.499 -21
s-45.167 -31.333 -64.5 -52s-40.666 -48.667 -63.999 -84c-32.667 -50 -73.334 -120.667 -122.001 -212v-4c56 30 102.167 56 138.5 78s73.166 47.333 110.499 76c75.333 57.333 113 114.333 113 171c0 32 -14 48 -42 48z" />
    <glyph glyph-name="Y" unicode="Y" horiz-adv-x="771" 
d="M349 24c46.667 0 101.001 41.665 163.001 124.998c22 127.333 38 207 48 239c20.667 70 49.334 105 86.001 105c24 0 36 -14.333 36 -43c0 -16 -3.66699 -36 -11 -60c-18 -61.333 -51 -128.666 -99 -201.999c-18.667 -153.333 -44 -269.333 -76 -348
c-34 -83.333 -75.333 -144.666 -124 -183.999c-26.667 -22 -59 -40 -97 -54s-79.667 -21 -125 -21c-99.333 0 -169 34.333 -209 103c-19.333 33.333 -29 65.166 -29 95.499s3.66699 57.5 11 81.5c17.333 60 50.333 102.333 99 127c23.333 11.333 48.333 17 75 17
c70.667 0 119 -27.333 145 -82c11.333 -24 17 -47 17 -69s-4 -43 -12 -63c-17.333 -46 -45.666 -69 -84.999 -69c-6 0 -11.333 1.66699 -16 5s-8.33398 8 -11.001 14c30 0 53.333 20.333 70 61c8 20 12 40.167 12 60.5s-4.66699 41.166 -14 62.499
c-18 40.667 -54.333 61 -109 61s-97.667 -26.333 -129 -79c-21.333 -35.333 -32 -72.333 -32 -111c0 -16 2 -32.333 6 -49c14 -62.667 50 -105 108 -127c26 -10 55.833 -15 89.5 -15s65.334 5.16699 95.001 15.5s55.667 23.833 78 40.5s42.833 38 61.5 64
s34.5 52.333 47.5 79s25.167 57.667 36.5 93c16.667 54.667 32.667 121.667 48 201c-59.333 -66 -110.333 -99 -153 -99c-82.667 0 -124 44.667 -124 134c0 37.333 7.5 79.333 22.5 126s31.333 88.834 49 126.501s34 80.667 49 129s22.5 93.833 22.5 136.5
s-12.333 77 -37 103s-58.667 39 -102 39c-66.667 0 -121 -34 -163 -102c-32.667 -54 -49 -111 -49 -171c0 -76 22.333 -124.333 67 -145c13.333 -6 27.666 -9 42.999 -9c51.333 0 90.333 28.667 117 86c1.33301 2.66699 3.5 4.16699 6.5 4.5s5.66699 -0.5 8 -2.5
s2.83301 -4.33301 1.5 -7c-12.667 -31.333 -30.334 -56.5 -53.001 -75.5s-49.334 -28.5 -80.001 -28.5c-60 0 -100.667 30.333 -122 91c-8.66699 26 -13 55.333 -13 88s7 69.334 21 110.001c26 76.667 67.667 130.667 125 162c28.667 15.333 59 23 91 23
c61.333 0 108.333 -20.833 141 -62.5s49 -96.834 49 -165.501c0 -50 -10.833 -106.167 -32.5 -168.5l-65 -179.5c-21.667 -57.333 -32.5 -104.666 -32.5 -141.999c0 -50 19.667 -75 59 -75zM641.001 460.998c-16.667 0 -29 -16.334 -37 -49.001s-16.333 -86 -25 -160
c48 84.667 73 146.667 75 186c0 14.667 -4.33301 22.334 -13 23.001z" />
    <glyph glyph-name="Z" unicode="Z" horiz-adv-x="875" 
d="M748 831c33.333 0 50 -15.001 50 -45.001c0 -26 -14.167 -52.167 -42.5 -78.5s-62.5 -39.5 -102.5 -39.5c-15.333 0 -26.666 0.666992 -33.999 2c-16.667 -30.667 -41.834 -82.334 -75.501 -155.001s-59.167 -126 -76.5 -160
c81.333 34.667 137.666 98.334 168.999 191.001c1.33301 4 5 6.5 11 7.5s11.667 0.166992 17 -2.5s7.33301 -6.33398 6 -11.001c-16.667 -50 -43.834 -94.333 -81.501 -133s-83.167 -66.334 -136.5 -83.001c-65.333 -122 -129.666 -209.333 -192.999 -262
c34 -24 60.5 -41.833 79.5 -53.5s44.167 -23.5 75.5 -35.5s61 -18 89 -18c60.667 0 112 32.667 154 98c34 52 50.667 104.333 50 157c-4.66699 46 -22 71 -52 75c-38.667 0 -70.667 -19.833 -96 -59.5s-38 -77 -38 -112s6.33301 -55.833 19 -62.5
c-3.33301 -10 -9.33301 -15 -18 -15c-28 0 -42 22.167 -42 66.5s12 85.833 36 124.5c33.333 54 77 81 131 81c58 0 87 -36 87 -108c0 -43.333 -14 -91 -42 -143c-36.667 -69.333 -84 -115.666 -142 -138.999c-22.667 -9.33301 -47 -14 -73 -14s-51.5 3.33301 -76.5 10
s-49.667 17.334 -74 32.001s-43.166 27.167 -56.499 37.5l-57 46.5c-41.333 -24.667 -84.666 -37 -129.999 -37c-72.667 0 -119 18.333 -139 55c-6 10.667 -9 22.5 -9 35.5s6.66699 26.5 20 40.5c19.333 22.667 46 34 80 34s66.333 -6.83301 97 -20.5
s65.334 -33.5 104.001 -59.5c57.333 47.333 115.333 126 174 236c-22 -3.33301 -48.667 -5 -80 -5s-63.333 5.83301 -96 17.5s-58.667 27.334 -78 47.001s-34.833 42.167 -46.5 67.5s-17.5 52 -17.5 80s3 56 9 84s16.833 54.667 32.5 80s33.667 47.833 54 67.5
s44.666 35.334 72.999 47.001s59 17.5 92 17.5s64.667 -6 95 -18s60.666 -26.833 90.999 -44.5s55.833 -29.834 76.5 -36.501c46.667 75.333 91 113 133 113zM319 780.999c-60.667 0 -111.666 -28.666 -152.999 -85.999c-35.333 -48.667 -53 -101.334 -53 -158.001
c0 -83.333 33.667 -142.333 101 -177c36.667 -18.667 80.667 -28 132 -28c28 0 54 3 78 9c17.333 32.667 44.5 88 81.5 166s65.167 134 84.5 168c-28 6.66699 -58.167 19.167 -90.5 37.5s-63.333 34.333 -93 48s-58.834 20.5 -87.501 20.5zM-38.999 80
c0 -14 9.66992 -28.001 29.0029 -42.001s49.166 -21 89.499 -21s78.166 10.333 113.499 31c-32 26.667 -60.833 46.834 -86.5 60.501s-53.334 20.5 -83.001 20.5s-49.167 -10.333 -58.5 -31c-2.66699 -6 -4 -12 -4 -18zM746.004 801.999
c-31.333 0 -65.668 -30.333 -103.001 -91c12 -2 24.333 -3 37 -3c30.667 0 55.334 13.667 74.001 41c9.33301 12.667 14 22.667 14 30c0 15.333 -7.33301 23 -22 23z" />
    <glyph glyph-name="bracketleft" unicode="[" horiz-adv-x="302" 
d="M73 -86c20.667 0 37.668 -2 51.001 -6s21.333 -8 24 -12l5 -7h-173c20.667 105.333 68 404 142 896h173c-2 -6 -10.333 -11.667 -25 -17s-32.334 -8 -53.001 -8h-47l-69 -420.5l-70 -425.5h42z" />
    <glyph glyph-name="backslash" unicode="\" horiz-adv-x="457" 
d="M92 657c0 26 6.33301 39.002 19 39.002c13.333 0 22 -9 26 -27s28 -134.333 72 -349s69.667 -337.334 77 -368.001s11 -52.334 11 -65.001s-4.66699 -19 -14 -19c-5.33301 0 -9.33301 6 -12 18c-11.333 54 -41.5 181.833 -90.5 383.5l-81 334.5
c-5 21.333 -7.5 39 -7.5 53z" />
    <glyph glyph-name="bracketright" unicode="]" horiz-adv-x="328" 
d="M202 760c-20.667 0 -37.6689 2 -51.002 6s-21.666 8 -24.999 12l-4 7h173c-20.667 -105.333 -68 -404 -142 -896h-173c2 6 10.333 11.667 25 17s32.334 8 53.001 8h47l69 420.5l70 425.5h-42z" />
    <glyph glyph-name="asciicircum" unicode="^" horiz-adv-x="413" 
d="M414 387h-31l-136 127l-213 -127h-32l214 153h45z" />
    <glyph glyph-name="underscore" unicode="_" horiz-adv-x="655" 
d="M492 -65l-504 -2c-7.33301 0 -11 2.66699 -11 8c0 10.667 10.667 18 32 22c5.33301 0.666992 11.333 1 18 1l497 -9c6.66699 0 10 -1.66699 10 -5c0 -9.33301 -14 -14.333 -42 -15z" />
    <glyph glyph-name="grave" unicode="`" horiz-adv-x="396" 
d="M179 637c24 -22 46.833 -46.1689 68.5 -72.502s32.5 -42.666 32.5 -48.999s-3.5 -9.5 -10.5 -9.5s-22.167 8.33301 -45.5 25s-47.333 37 -72 61c-9.33301 9.33301 -14 17.333 -14 24s2 13.334 6 20.001s9.16699 10 15.5 10s12.833 -3 19.5 -9z" />
    <glyph glyph-name="a" unicode="a" 
d="M28 -1c-52.667 0 -78.998 39.6699 -78.998 119.003c0 46 12 96.333 36 151c33.333 74 75.666 122.333 126.999 145c18 7.33301 36.167 11 54.5 11s32.833 -5.33301 43.5 -16s16 -22.667 16 -36c0 -6 -3.16699 -8.83301 -9.5 -8.5s-9.5 3.5 -9.5 9.5
s-3.16699 11.5 -9.5 16.5s-15.5 7.5 -27.5 7.5c-42 0 -80 -37.667 -114 -113c-32 -70 -48 -136.333 -48 -199c0 -38.667 8.5 -58 25.5 -58s37.667 14.5 62 43.5s46.833 62.833 67.5 101.5c44.667 81.333 71 133.666 79 156.999s16.667 35 26 35c16.667 0 25 -14 25 -42
c0 -8.66699 -1 -18.667 -3 -30c-22 -106.667 -33.833 -168.334 -35.5 -185.001s-2.5 -28.667 -2.5 -36c0 -32 7.66699 -48 23 -48c17.333 0 41.666 23 72.999 69s58.333 92 81 138l34 69h27l-15.5 -32.5c-6.33301 -13.667 -18.833 -38 -37.5 -73s-36.5 -65.833 -53.5 -92.5
s-36 -50.834 -57 -72.501s-39.167 -32.5 -54.5 -32.5c-49.333 0 -74 36 -74 108c0 24 2.66699 52 8 84h-7c-68 -126.667 -125 -190 -171 -190z" />
    <glyph glyph-name="b" unicode="b" horiz-adv-x="371" 
d="M214 443c30 0 44.998 -31.3369 44.998 -94.0039c0 -6.66699 -0.333008 -13.667 -1 -21c8 -2.66699 19.667 -4 35 -4s29 6.33301 41 19s18 24.334 18 35.001c0 2.66699 1.66699 4.5 5 5.5s6.5 0.833008 9.5 -0.5s4.5 -3.33301 4.5 -6
c0 -19.333 -8.16699 -37.666 -24.5 -54.999s-38.166 -26 -65.499 -26c-7.33301 0 -15.666 0.666992 -24.999 2c-5.33301 -45.333 -16 -90.166 -32 -134.499s-37.167 -82.666 -63.5 -114.999s-53.5 -48.5 -81.5 -48.5c-66 0 -99 45.667 -99 137
c0 56.667 12.167 138.167 36.5 244.5s56.833 205.166 97.5 296.499s79.334 137 116.001 137c28 0 42 -17.333 42 -52c0 -12 -1.66699 -26 -5 -42c-12.667 -63.333 -42 -128.666 -88 -195.999c-34.667 -50.667 -66.334 -82 -95.001 -94c-34 -148.667 -51 -253.167 -51 -313.5
s16 -90.5 48 -90.5c34.667 0 66.167 29.667 94.5 89s47.5 122.666 57.5 189.999c-21.333 10.667 -36.333 27.334 -45 50.001c-5.33301 13.333 -8 24.833 -8 34.5s1.33301 18.167 4 25.5c5.33301 18 15.333 27 30 27zM249.998 760.996c0 20 -6.00098 30.333 -18.001 31
c-20.667 0 -43.667 -31.667 -69 -95s-49.333 -142 -72 -236c36.667 24 72.334 72 107.001 144s52 124 52 156z" />
    <glyph glyph-name="c" unicode="c" horiz-adv-x="339" 
d="M24 142c0 -78 27 -117 81 -117c21.333 0 43.833 9.5 67.5 28.5s45.167 41.833 64.5 68.5c42.667 61.333 72.667 111.333 90 150l13 28h27c-11.333 -26.667 -28 -59.5 -50 -98.5s-43 -71.833 -63 -98.5s-43.667 -50.834 -71 -72.501s-53.333 -32.5 -78 -32.5
c-69.333 0 -113.333 31.667 -132 95c-6 20 -9 45.167 -9 75.5s9.33301 67.5 28 111.5c27.333 65.333 64.666 109.333 111.999 132c18.667 8.66699 37.167 13 55.5 13s32.833 -5 43.5 -15c12.667 -12 19 -25.833 19 -41.5s-1.66699 -30.167 -5 -43.5
s-10.166 -25.166 -20.499 -35.499s-21.833 -15.5 -34.5 -15.5c-5.33301 0 -9.33301 3.66699 -12 11c5.33301 0 12.5 9.5 21.5 28.5s13.5 37.833 13.5 56.5s-8 28 -24 28c-34.667 0 -66.167 -29 -94.5 -87s-42.5 -114.333 -42.5 -169z" />
    <glyph glyph-name="d" unicode="d" horiz-adv-x="469" 
d="M311.5 386.5c-11 -46.333 -23.001 -99.998 -36.001 -160.998s-19.5 -109.833 -19.5 -146.5s8.33301 -55 25 -55c18 0 42.833 23 74.5 69s58.834 92 81.501 138l33 69h27l-15.5 -32.5c-6.33301 -13.667 -18.833 -38 -37.5 -73s-36.5 -65.833 -53.5 -92.5
s-36.167 -50.834 -57.5 -72.501s-39.666 -32.5 -54.999 -32.5c-48 0 -72 35.333 -72 106c0 26 3.66699 60 11 102h-8c-74 -137.333 -134 -206 -180 -206c-52.667 0 -79 39.667 -79 119c0 46 12 96.333 36 151c33.333 74 75.666 122.333 126.999 145
c18 7.33301 36.167 11 54.5 11s32.833 -5.33301 43.5 -16s16 -22.667 16 -36c0 -6 -3.16699 -8.83301 -9.5 -8.5s-9.5 3.5 -9.5 9.5s-3.16699 11.5 -9.5 16.5s-15.5 7.5 -27.5 7.5c-42 0 -80 -37.667 -114 -113c-32 -70 -48 -136.333 -48 -199c0 -38.667 8.33301 -58 25 -58
c22.667 0 51 24.667 85 74s63.833 102.333 89.5 159s44 108.5 55 155.5s27.833 111.167 50.5 192.5c14.667 52.667 34 79 58 79c5.33301 0 9.33301 -1.83301 12 -5.5s3.66699 -7.33398 3 -11.001s-10.667 -40.5 -30 -110.5s-34.5 -128.167 -45.5 -174.5z" />
    <glyph glyph-name="e" unicode="e" horiz-adv-x="345" 
d="M25 146c0 -80.667 28.666 -120.998 85.999 -120.998c21.333 0 43.833 9.5 67.5 28.5s45.167 41.833 64.5 68.5c42.667 61.333 72.667 111.333 90 150l13 28h27c-11.333 -26.667 -28 -59.5 -50 -98.5s-43 -71.833 -63 -98.5s-43.667 -50.834 -71 -72.501
s-53.333 -32.5 -78 -32.5c-98.667 0 -148 55.333 -148 166c0 51.333 15 102.666 45 153.999c41.333 71.333 92.333 107 153 107c42.667 0 64 -23.333 64 -70c0 -34.667 -13.333 -70.667 -40 -108c-37.333 -50.667 -81 -76.334 -131 -77.001c-7.33301 0 -12 3.33301 -14 10
l-1 4c34.667 0 67.834 22.833 99.501 68.5s47.5 83.834 47.5 114.501c0 20.667 -8 31 -24 31c-35.333 0 -68.333 -31 -99 -93c-25.333 -52.667 -38 -105.667 -38 -159z" />
    <glyph glyph-name="f" unicode="f" horiz-adv-x="282" 
d="M168 270c0 -59.333 9.33398 -89 28.001 -89c-0.666992 -8 -6.33398 -12 -17.001 -12c-16.667 0 -29.167 10.167 -37.5 30.5s-12.5 45.833 -12.5 76.5c-26.667 -11.333 -54.334 -18 -83.001 -20c-36 -224.667 -66.667 -378.334 -92 -461.001
c-38.667 -130 -85 -195 -139 -195c-36 0 -54 18.667 -54 56c0 16.667 3.66699 37.334 11 62.001c20.667 69.333 59 141.666 115 216.999c26 34.667 48.667 59.667 68 75l19 120.5l20 125.5h-27c-3.33301 0 -5 3.16699 -5 9.5s1.66699 9.5 5 9.5h30
c32.667 208.667 67.334 352.334 104.001 431.001c14 31.333 30.667 57.333 50 78s40.333 31 63 31c42 0 63 -30.667 63 -92c0 -50 -15.333 -104 -46 -162c-37.333 -70 -82 -113 -134 -129l-23 -5c-6 -32.667 -14.333 -83 -25 -151c28 2 55 9.33301 81 22
c3.33301 35.333 11.5 65.5 24.5 90.5s29.5 37.5 49.5 37.5c16 0 24 -9.33301 24 -28c0 -35.333 -19.667 -68 -59 -98c-0.666992 -10 -1 -20 -1 -30zM205.001 575c30 58 45 108.665 45 151.998s-10.667 65 -32 65c-30 0 -55.667 -29.167 -77 -87.5s-42 -142.166 -62 -251.499
c48 10.667 90 51.334 126 122.001zM-49.999 -19.002c-38 -39.333 -74.332 -95.666 -108.999 -168.999s-52 -122.5 -52 -147.5s7.33301 -37.5 22 -37.5c30.667 0 56.667 30.667 78 92s41.666 148.666 60.999 261.999zM172.002 326.998c12 11.333 21.167 23.332 27.5 35.999
s9.5 22.834 9.5 30.501s-2 12.167 -6 13.5c-14.667 0 -25 -26.667 -31 -80z" />
    <glyph glyph-name="g" unicode="g" horiz-adv-x="388" 
d="M268 365c16.667 0 24.999 -14.001 24.999 -42.001c0 -20 -11 -77.833 -33 -173.5s-41.667 -174.834 -59 -237.501s-33.666 -109.167 -48.999 -139.5s-33.833 -60.833 -55.5 -91.5s-45.5 -51.667 -71.5 -63s-56 -17 -90 -17c-63.333 0 -95 32.333 -95 97
c0 38 14.333 79 43 123c41.333 64.667 96.666 107.334 165.999 128.001c24.667 7.33301 50.334 11 77.001 11c4.66699 0 7 -4.66699 7 -14s-2.33301 -14 -7 -14c-78.667 0 -144.667 -31 -198 -93c-39.333 -46.667 -59 -91.667 -59 -135s16.667 -68.333 50 -75l16 -1
c54.667 0 98 22.667 130 68c32.667 46 58.334 104 77.001 174c18.667 70.667 42.667 181.334 72 332.001h-8c-72 -135.333 -131.333 -203 -178 -203c-52.667 0 -79 39.667 -79 119c0 46 12 96.333 36 151c33.333 74 75.666 122.333 126.999 145
c18 7.33301 36.167 11 54.5 11s32.833 -5.33301 43.5 -16s16 -22.667 16 -36c0 -6 -3.16699 -8.83301 -9.5 -8.5s-9.5 3.5 -9.5 9.5s-3.16699 11.5 -9.5 16.5s-15.5 7.5 -27.5 7.5c-42 0 -80 -37.667 -114 -113c-32 -70 -48 -136.333 -48 -199c0 -38.667 8.33301 -58 25 -58
c22 0 50.667 26 86 78c53.333 78.667 95 155.667 125 231c8 18.667 16 28 24 28z" />
    <glyph glyph-name="h" unicode="h" horiz-adv-x="410" 
d="M201 815c30 0 45.001 -19.998 45.001 -59.998c0 -10 -1 -21.667 -3 -35c-10 -63.333 -36.333 -128.666 -79 -195.999c-30.667 -48.667 -59.667 -79.334 -87 -92.001l-35 -196h7c56 124.667 112.667 187 170 187c20.667 0 36.834 -6.33301 48.501 -19s17.5 -30 17.5 -52
s-8.66699 -70.167 -26 -144.5s-26 -126.166 -26 -155.499c0 -43.333 8 -65 24 -65c0 -4.66699 -3 -9.33398 -9 -14.001s-13 -7 -21 -7c-38.667 0 -58 30.333 -58 91c0 37.333 9.83301 92.833 29.5 166.5s29.5 121.167 29.5 142.5s-8.33301 32 -25 32
c-19.333 0 -40.666 -16.333 -63.999 -49s-45 -74.334 -65 -125.001c-33.333 -81.333 -58.333 -149.333 -75 -204c-4 -13.333 -9.66699 -20 -17 -20c-12 0 -21 7.33301 -27 22c-3.33301 8 -5 16.5 -5 25.5s2.66699 25.667 8 50s14.166 67.166 26.499 128.499l31.5 152.5
l30 136c11.333 50.333 22.166 91.333 32.499 123s22.166 62.167 35.499 91.5c25.333 57.333 54.333 86 87 86zM223.001 753.002c0 21.333 -6.00098 34.333 -18.001 39c-39.333 0 -80 -110 -122 -330c26.667 18.667 54.334 56 83.001 112c38 75.333 57 135 57 179z" />
    <glyph glyph-name="i" unicode="i" horiz-adv-x="230" 
d="M107 599c15.333 0 22.998 -10.332 22.998 -30.999s-10 -37.334 -30 -50.001c-10 -6.66699 -18.667 -10 -26 -10c-10.667 0 -17 3.33301 -19 10l-1 3c6 0 10.333 6.5 13 19.5s6.83398 26 12.501 39s14.834 19.5 27.501 19.5zM42.998 24.001c17.333 0 41.666 23 72.999 69
s58.333 92 81 138l34 69h27l-15.5 -32.5c-6.33301 -13.667 -18.833 -38 -37.5 -73s-36.5 -65.833 -53.5 -92.5s-36 -50.834 -57 -72.501s-39.167 -32.5 -54.5 -32.5c-49.333 0 -74 32 -74 96c0 48 13.667 126 41 234c2.66699 11.333 4.83398 20 6.50098 26
s3.5 13.833 5.5 23.5s4 18.5 6 26.5c3.33301 14 9.33301 21 18 21c12 0 20.667 -8.66699 26 -26c2.66699 -8 4 -17.667 4 -29s-1.33301 -23.166 -4 -35.499s-7 -30.5 -13 -54.5s-10.667 -43.667 -14 -59s-7 -34 -11 -56c-7.33301 -36.667 -11 -69.167 -11 -97.5
s7.66699 -42.5 23 -42.5z" />
    <glyph glyph-name="j" unicode="j" horiz-adv-x="174" 
d="M38 424c12 0 20.666 -8.66699 25.999 -26c2.66699 -8 4 -17.667 4 -29s-3.33301 -30.5 -10 -57.5s-16.5 -69.5 -29.5 -127.5l-33.5 -148c-9.33301 -40.667 -20.333 -85.5 -33 -134.5s-25 -89.833 -37 -122.5s-25.333 -63.667 -40 -93c-29.333 -57.333 -64 -86 -104 -86
c-34.667 0 -52 17.333 -52 52c0 16.667 4.33301 38 13 64c22.667 68 63.334 139.667 122.001 215c31.333 41.333 58.333 69 81 83c11.333 51.333 36.333 181 75 389c2 14 8 21 18 21zM-243.001 -344c0 -19.333 7 -29 21 -29c53.333 0 107 120 161 360
c-37.333 -32.667 -77 -88 -119 -166s-63 -133 -63 -165zM86.999 599c15.333 0 22.998 -10.332 22.998 -30.999s-10 -37.334 -30 -50.001c-10 -6.66699 -18.667 -10 -26 -10c-10.667 0 -17 3.33301 -19 10l-1 3c6 0 10.333 6.5 13 19.5s6.83398 26 12.501 39
s14.834 19.5 27.501 19.5z" />
    <glyph glyph-name="k" unicode="k" horiz-adv-x="381" 
d="M196 260c26 38 39.0029 70.6719 39.0029 98.0049s-9 41 -27 41c-21.333 0 -44.666 -17.833 -69.999 -53.5s-48 -78.167 -68 -127.5c-38.667 -95.333 -62.334 -161.333 -71.001 -198c-4 -13.333 -9.66699 -20 -17 -20c-12 0 -21 7.33301 -27 22
c-3.33301 8 -5 16.5 -5 25.5s2.66699 25.667 8 50s14.166 67.166 26.499 128.499l31.5 152.5l30 136c11.333 50.333 22.166 91.333 32.499 123s22.166 62.167 35.499 91.5c25.333 57.333 54.333 86 87 86c30 0 45 -20 45 -60c0 -10 -1 -21.667 -3 -35
c-10 -63.333 -36.333 -128.666 -79 -195.999c-30.667 -48.667 -59.667 -79.334 -87 -92.001c-4.66699 -24.667 -11 -60 -19 -106l-17 -96h5c56.667 128.667 114.334 193 173.001 193c44 0 66 -24.333 66 -73c0 -32 -13.5 -66.667 -40.5 -104s-63.167 -61.333 -108.5 -72
c22.667 -8.66699 41.834 -23.834 57.501 -45.501s26.5 -42.5 32.5 -62.5c15.333 -52.667 30.666 -79 45.999 -79c0 -4.66699 -3 -9.33398 -9 -14.001s-13 -7 -21 -7c-22.667 0 -40.5 10.667 -53.5 32s-21.5 44.666 -25.5 69.999s-11.333 48.666 -22 69.999
s-25.334 32 -44.001 32h-2c-6 0 -10.333 4.66699 -13 14c41.333 0 79.333 25.333 114 76zM223.003 753.005c0 21.333 -6.00098 34.333 -18.001 39c-39.333 0 -80 -110 -122 -330c26.667 18.667 54.334 56 83.001 112c38 75.333 57 135 57 179z" />
    <glyph glyph-name="l" unicode="l" horiz-adv-x="237" 
d="M219 627c24 62.667 36 105.336 36 128.003s-5.66699 34.667 -17 36c-31.333 0 -63.833 -50.167 -97.5 -150.5s-60 -204.333 -79 -312s-28.5 -183.834 -28.5 -228.501c0 -75.333 18.667 -113 56 -113c0 -4.66699 -3 -9.33398 -9 -14.001s-13 -7 -21 -7
c-54.667 0 -82 49 -82 147c0 36 6.66699 91.167 20 165.5s30.666 152.166 51.999 233.499s49 152.166 83 212.499s68.667 90.5 104 90.5c28 0 42 -17.667 42 -53c0 -26.667 -8.33301 -64 -25 -112c-32 -93.333 -78 -186.666 -138 -279.999
c-16 -24.667 -30.333 -44.667 -43 -60c-3.33301 -4 -5 -2.66699 -5 4c-0.666992 12.667 2.33301 23.667 9 33c54.667 82 102.334 175.333 143.001 280z" />
    <glyph glyph-name="m" unicode="m" horiz-adv-x="617" 
d="M-15 0c-18.667 0 -28.001 14.334 -28.001 43.001c0 15.333 18.667 127 56 335c2 14 8 21 18 21c12 0 21 -8.66699 27 -26c3.33301 -9.33301 5 -19.5 5 -30.5s-1.33301 -22.833 -4 -35.5l-15 -76h6c58.667 132 115.334 198 170.001 198c18.667 0 33.5 -6.66699 44.5 -20
s16.5 -29.333 16.5 -48c0 -34.667 -5.33301 -78 -16 -130h4c56.667 123.333 112.334 185 167.001 185c18 0 32.667 -6.66699 44 -20s17 -31 17 -53s-8.5 -68.667 -25.5 -140s-25.5 -121.666 -25.5 -150.999c0 -43.333 8 -65 24 -65c0 -4.66699 -3 -9.33398 -9 -14.001
s-13 -7 -21 -7c-38.667 0 -58 30.333 -58 91c0 38 9.66699 92.833 29 164.5s29 117.667 29 138s-6.66699 30.5 -20 30.5c-24.667 0 -53.5 -29.833 -86.5 -89.5s-59.333 -116.834 -79 -171.501s-31.167 -89.834 -34.5 -105.501s-9.33301 -23.5 -18 -23.5
c-18.667 0 -28 14.333 -28 43c0 10.667 5.66699 48.334 17 113.001c22 118.667 33 189.5 33 212.5s-6.66699 34.5 -20 34.5c-18 0 -39 -18.5 -63 -55.5s-45.667 -79.833 -65 -128.5c-42 -102.667 -66.667 -169 -74 -199c-2.66699 -13.333 -8.33398 -20 -17.001 -20z" />
    <glyph glyph-name="n" unicode="n" horiz-adv-x="407" 
d="M-15 0c-18.667 0 -27.999 14.333 -27.999 43c0 15.333 18.667 127 56 335c2 14 8 21 18 21c12 0 21 -8.66699 27 -26c3.33301 -9.33301 5 -19.5 5 -30.5s-1.33301 -22.833 -4 -35.5l-16 -80h6c60 134.667 117.333 202 172 202c21.333 0 37.666 -6.5 48.999 -19.5
s17 -30.833 17 -53.5s-9 -71.667 -27 -147s-27 -127.666 -27 -156.999c0 -43.333 8 -65 24 -65c0 -4.66699 -3 -9.33398 -9 -14.001s-13 -7 -21 -7c-38.667 0 -58 30.333 -58 91c0 37.333 10.167 93.833 30.5 169.5s30.5 124 30.5 145s-8.33301 31.5 -25 31.5
c-24 0 -52.833 -31.333 -86.5 -94s-60.667 -122.5 -81 -179.5s-32 -92.833 -35 -107.5s-8.83301 -22 -17.5 -22z" />
    <glyph glyph-name="o" unicode="o" horiz-adv-x="393" 
d="M23 132c0 -70 18.6689 -105.006 56.002 -105.006c25.333 0 49 15.667 71 47c42 58.667 67.667 136 77 232c-23.333 10 -39.666 26.333 -48.999 49c-6 14 -9 25.833 -9 35.5s1.33301 18.167 4 25.5c6 18 17 27 33 27s28.167 -10.167 36.5 -30.5s12.5 -46.166 12.5 -77.499
v-7c8 -2.66699 19.833 -4 35.5 -4s29.5 6.33301 41.5 19s18 24.334 18 35.001c0 2.66699 1.66699 4.5 5 5.5s6.5 0.833008 9.5 -0.5s4.5 -3.33301 4.5 -6c0 -19.333 -8.16699 -37.666 -24.5 -54.999s-38.166 -26 -65.499 -26c-6.66699 0 -15.334 0.666992 -26.001 2
c-4 -45.333 -13.5 -90.166 -28.5 -134.499s-35.833 -82.666 -62.5 -114.999s-55.334 -48.5 -86.001 -48.5c-58 0 -93.667 31 -107 93c-3.33301 18 -5 36.333 -5 55c0 42 9.66699 87 29 135c25.333 62.667 56.666 101.667 93.999 117c19.333 6.66699 32.666 7.66699 39.999 3
s12 -10 14 -16c-30.667 0 -58 -28.667 -82 -86s-36 -113.666 -36 -168.999z" />
    <glyph glyph-name="p" unicode="p" horiz-adv-x="405" 
d="M122 27c25.333 0 52.998 34.3291 82.998 102.996c30.667 72.667 46 139 46 199c0 41.333 -10.667 62.333 -32 63c-20.667 0 -44.167 -16.667 -70.5 -50s-50.166 -72.666 -71.499 -117.999c-46 -99.333 -74.667 -173.666 -86 -222.999
c-35.333 -160 -59.666 -259.333 -72.999 -298c-23.333 -68 -50 -102 -80 -102c-23.333 0 -35 16 -35 48c0 18.667 4 43.334 12 74.001c20.667 74 53 145 97 213l27 37c6 30 14 73.333 24 130c20 114 34.5 189.5 43.5 226.5s19.667 62.333 32 76s22.833 20.5 31.5 20.5
c16.667 0 22.667 -6.66699 18 -20c-16.667 -54.667 -34 -119.334 -52 -194.001h7c65.333 142 124.333 213 177 213c42.667 0 69.334 -27.333 80.001 -82c3.33301 -17.333 5 -35 5 -53c0 -44 -10 -91.667 -30 -143c-28 -73.333 -65.333 -119.666 -112 -138.999
c-14 -6 -28 -9 -42 -9c-32.667 0 -51.667 18 -57 54c-0.666992 6 0.666016 10.667 3.99902 14s7.33301 4.33301 12 3s7.33398 -4.66602 8.00098 -9.99902c3.33301 -22 14.666 -33 33.999 -33zM-165.002 -372.004c26 0 58 100.667 96 302
c-39.333 -61.333 -71 -129.333 -95 -204c-10.667 -33.333 -16 -58 -16 -74s5 -24 15 -24z" />
    <glyph glyph-name="q" unicode="q" horiz-adv-x="388" 
d="M-60 -35c89.333 0 162.328 44.332 218.995 132.999c46.667 72 70 148.667 70 230c0 52.667 -12.667 85.334 -38 98.001c-6 3.33301 -12.333 5 -19 5c6 18 16.667 27 32 27c38.667 0 63.334 -25 74.001 -75c4 -18 6 -37 6 -57c0 -45.333 -10.333 -95 -31 -149
c-36 -92 -88.667 -157.667 -158 -197c-29.333 -17.333 -60.666 -28 -93.999 -32c2 -0.666992 9.83301 -5 23.5 -13s23.834 -13.333 30.501 -16s17 -6.33398 31 -11.001c24 -9.33301 54.833 -14 92.5 -14s62.834 14 75.501 42c7.33301 15.333 7.66602 25.333 0.999023 30
c-1.33301 0.666992 -2.66602 1 -3.99902 1c1.33301 8.66699 6.33301 13 15 13c11.333 0 17 -8 17 -24c0 -34.667 -15.667 -64 -47 -88c-21.333 -16.667 -48 -25 -80 -25s-62.667 8.33301 -92 25s-56 33.334 -80 50.001s-46.333 25 -67 25
c2.66699 14.667 10.334 22 23.001 22zM165.995 405.999c-37.333 0 -70.168 -29.668 -98.501 -89.001s-42.5 -118.333 -42.5 -177s17.333 -88 52 -88c-1.33301 -10.667 -9 -16 -23 -16c-45.333 0 -73 26.667 -83 80c-2 14.667 -3 29.334 -3 44.001c0 42 10.333 87 31 135
c27.333 64 62 103.667 104 119c10.667 3.33301 20 5 28 5c14.667 0 26.334 -4.33301 35.001 -13z" />
    <glyph glyph-name="r" unicode="r" horiz-adv-x="322" 
d="M-14 0c-18.667 0 -28.001 14.3301 -28.001 42.9971c0 15.333 18.667 127 56 335c2.66699 14 8.66699 21 18 21c12 0 21 -8.66699 27 -26c3.33301 -9.33301 5 -19.5 5 -30.5s-1.33301 -22.833 -4 -35.5l-16 -82h5c57.333 133.333 110 200 158 200
c26.667 0 44.334 -13 53.001 -39c3.33301 -10 5 -21.5 5 -34.5s-3.66699 -27.167 -11 -42.5c-12.667 -26 -31.667 -39 -57 -39c-5.33301 0 -9.5 1.33301 -12.5 4s-4.83301 6.33398 -5.5 11.001c5.33301 0 12.333 9.83301 21 29.5s13.667 37.834 15 54.501
s-4.33398 26.334 -17.001 29.001c-23.333 0 -51 -30.333 -83 -91s-57.667 -118.667 -77 -174s-30.666 -91.333 -33.999 -108s-9.33301 -25 -18 -25z" />
    <glyph glyph-name="s" unicode="s" horiz-adv-x="317" 
d="M123 534l1.99902 -0.000976562c6 -0.666992 10.667 -3.33398 14 -8.00098s5 -9.5 5 -14.5s-4.5 -15.5 -13.5 -31.5s-13.5 -28.833 -13.5 -38.5s1.33301 -18.667 4 -27s11 -28.5 25 -60.5c30.667 -70 46 -132.5 46 -187.5s-14.833 -100.5 -44.5 -136.5s-65 -54 -106 -54
s-61.5 24.833 -61.5 74.5s17.667 102.834 53 159.501c20.667 32.667 43 57.334 67 74.001c6.66699 4.66699 11.167 3.66699 13.5 -3s0.833008 -12 -4.5 -16c-38.667 -28 -68.667 -72.333 -90 -133c-19.333 -54.667 -21.333 -92.667 -6 -114c5.33301 -8 13 -12 23 -12
c29.333 0 52.333 19.667 69 59s25 88.333 25 147c0 50.667 -6 97.667 -18 141s-18.667 68.333 -20 75l-65 -128h-27l88 170c2.66699 42.667 14.334 64 35.001 64z" />
    <glyph glyph-name="t" unicode="t" horiz-adv-x="247" 
d="M-28 437c0 7.33301 4.66797 11 14.001 11h52l13 50l14 52c4 15.333 7.5 29.333 10.5 42s8.83301 19 17.5 19c11.333 0 19.333 -8.66699 24 -26c2 -7.33301 3 -16.333 3 -27s-2 -24.334 -6 -41.001l-19 -69h62c6 0 10.167 -2 12.5 -6s2.33301 -7.83301 0 -11.5
s-6.5 -5.5 -12.5 -5.5h-68c-41.333 -155.333 -62 -265.333 -62 -330c0 -47.333 10.667 -71 32 -71c17.333 0 41.666 23 72.999 69s58.333 92 81 138l34 69h27l-15.5 -32.5c-6.33301 -13.667 -18.833 -38 -37.5 -73s-36.5 -65.833 -53.5 -92.5s-36 -50.834 -57 -72.501
s-40.5 -32.5 -58.5 -32.5s-33.5 5.83301 -46.5 17.5s-21.333 28.334 -25 50.001s-5.5 43.834 -5.5 66.501c0 52.667 18.667 150.667 56 294h-45c-5.33301 0 -9 1.5 -11 4.5s-3 5.5 -3 7.5z" />
    <glyph glyph-name="u" unicode="u" horiz-adv-x="467" 
d="M279 24c17.333 0 41.667 23 73 69s58.333 92 81 138l34 69h27l-15.5 -32.5c-6.33301 -13.667 -18.833 -38 -37.5 -73s-36.5 -65.833 -53.5 -92.5s-36 -50.834 -57 -72.501s-40.833 -32.5 -59.5 -32.5s-34 5.66699 -46 17c-14.667 14.667 -22 40.334 -22 77.001
s6.33301 85 19 145h-7c-76.667 -157.333 -140.334 -236 -191.001 -236c-44.667 0 -67 29 -67 87c0 42 18 125.667 54 251l18 64.5c4 14.333 10.333 21.5 19 21.5c12 0 20.667 -8.66699 26 -26c2.66699 -7.33301 4 -16.5 4 -27.5s-1.66699 -23 -5 -36
s-10.333 -37.833 -21 -74.5c-28.667 -98.667 -43 -165 -43 -199c0 -22 6.66699 -33 20 -33c16.667 0 36.334 15 59.001 45c24 31.333 43.667 61.666 59 90.999l37 72l28 58.5l22.5 50.5l16.5 38.5c5.33301 12.333 8 18.833 8 19.5c6 14 12.667 21 20 21
c12 0 20.667 -8.66699 26 -26c2.66699 -8 4 -17.667 4 -29s-1.33301 -23.166 -4 -35.499s-7 -30.5 -13 -54.5s-10.667 -43.667 -14 -59l-12 -56c-6.66699 -36.667 -10 -69.167 -10 -97.5s7.66699 -42.5 23 -42.5z" />
    <glyph glyph-name="v" unicode="v" horiz-adv-x="362" 
d="M205 443c28.667 0 42.999 -27.6689 42.999 -83.002c0 -10 -0.666992 -20.333 -2 -31c11.333 -3.33301 24.333 -5 39 -5s28 6.33301 40 19s18 24.334 18 35.001c0 2.66699 1.66699 4.5 5 5.5s6.5 0.833008 9.5 -0.5s4.5 -3.33301 4.5 -6
c0 -19.333 -8.16699 -37.666 -24.5 -54.999s-38.166 -26 -65.499 -26c-10.667 0 -20.334 1 -29.001 3c-17.333 -106.667 -52 -190.334 -104 -251.001c-27.333 -32 -54 -48 -80 -48c-48 0 -77.333 16 -88 48c-6 17.333 -9 35.666 -9 54.999s2.66699 42.333 8 69
c8.66699 43.333 26.667 113 54 209c4 14 10.333 21 19 21c12 0 20.667 -8.66699 26 -26c2.66699 -7.33301 4 -16.5 4 -27.5s-2 -24.167 -6 -39.5c-25.333 -95.333 -39.666 -152.833 -42.999 -172.5s-5 -36.5 -5 -50.5c0 -39.333 12.333 -59 37 -59c36 0 69.5 30 100.5 90
s52.167 123.667 63.5 191c-20 10.667 -33.167 24.834 -39.5 42.501s-9.5 31.334 -9.5 41.001s1.33301 18.167 4 25.5c5.33301 17.333 15.333 26 30 26z" />
    <glyph glyph-name="w" unicode="w" horiz-adv-x="574" 
d="M277 27c24.667 0 48.332 15.667 70.999 47c40.667 57.333 68 134.666 82 231.999c-21.333 10.667 -35.5 25 -42.5 43s-10.5 32 -10.5 42c0 34.667 11.333 52 34 52c28 0 42 -31 42 -93v-21c10 -3.33301 22.5 -5 37.5 -5s28.5 6.33301 40.5 19s18 24.334 18 35.001
c0 2.66699 1.5 4.5 4.5 5.5s6.16699 0.833008 9.5 -0.5s5 -3.33301 5 -6c0 -19.333 -8.16699 -37.666 -24.5 -54.999s-38.166 -26 -65.499 -26c-10 0 -19 1 -27 3c-12 -105.333 -43 -189 -93 -251c-26 -32 -53.667 -48 -83 -48c-46.667 0 -78 24.667 -94 74
c-39.333 -49.333 -77 -74 -113 -74c-50.667 0 -82 17.333 -94 52c-6.66699 18.667 -10 38.667 -10 60s2.33301 45 7 71c10 49.333 29.333 123 58 221c4 14 10.333 21 19 21c12 0 20.667 -8.33301 26 -25c2.66699 -8 4 -17.5 4 -28.5s-1.66699 -22.5 -5 -34.5l-12 -44
l-12 -44c-3.33301 -12 -7.16602 -26.667 -11.499 -44s-7.66602 -32.333 -9.99902 -45s-4.33301 -26.334 -6 -41.001s-1.83398 -27.167 -0.500977 -37.5s3.66602 -19.833 6.99902 -28.5c6.66699 -17.333 20.667 -26 42 -26c32 0 66.333 26.333 103 79
c-2.66699 16 -4 32.333 -4 49c0 44.667 8.33301 92.334 25 143.001c23.333 69.333 47 104 71 104c19.333 0 29 -15 29 -45c0 -12 -1.66699 -26 -5 -42c-10 -56.667 -32 -115.334 -66 -176.001c6 -74.667 24 -112 54 -112zM256.998 275
c9.33301 28 14.501 46.832 15.501 56.499s1.5 17.834 1.5 24.501s-2.66699 10.667 -8 12c-11.333 0 -21.333 -18.5 -30 -55.5s-13.334 -77.833 -14.001 -122.5c14 28.667 25.667 57 35 85z" />
    <glyph glyph-name="x" unicode="x" horiz-adv-x="392" 
d="M279 -13c-2 -14 -11.835 -21 -29.502 -21s-33.667 5.83301 -48 17.5s-27.5 29.167 -39.5 52.5c-19.333 37.333 -38 87 -56 149l-97 -124c-25.333 -34 -38.666 -51.667 -39.999 -53c-4 -5.33301 -7.33301 -5.16602 -10 0.500977s-4 11 -4 16s1.66699 9.66699 5 14
s11.333 15.5 24 33.5l111 149c-26.667 88 -46.667 139.333 -60 154c-7.33301 8 -15.333 12 -24 12c5.33301 16 18 24 38 24c28.667 0 58.667 -45.333 90 -136c81.333 100 135.333 150 162 150c6.66699 0 12.334 -2.16699 17.001 -6.5s8 -10.833 10 -19.5
c-28 0 -87.333 -53.333 -178 -160l12.5 -39l13 -40.5c3 -9.66699 7.16699 -22.167 12.5 -37.5s9.83301 -27.5 13.5 -36.5s8.16699 -19.5 13.5 -31.5s10.333 -21.333 15 -28s9.66699 -13.334 15 -20.001c10 -12.667 21.333 -19 34 -19z" />
    <glyph glyph-name="y" unicode="y" horiz-adv-x="404" 
d="M-56 -399c-63.333 0 -94.999 32.332 -94.999 96.999c0 38 14.333 79 43 123c41.333 64.667 96.666 107.334 165.999 128.001c24.667 7.33301 50.334 11 77.001 11c4.66699 0 7 -4.66699 7 -14s-2.33301 -14 -7 -14c-78.667 0 -144.667 -31 -198 -93
c-39.333 -46.667 -59 -91.667 -59 -135s16.667 -68.333 50 -75l16 -1c55.333 0 99.666 23.333 132.999 70c23.333 33.333 40.833 67.166 52.5 101.499s20.334 61.833 26.001 82.5s12.167 47.834 19.5 81.501s13.166 62.167 17.499 85.5l19 100.5l19.5 103.5h-6
c-80.667 -168.667 -147 -253 -199 -253c-44.667 0 -67 29 -67 87c0 42 18 125.667 54 251l18 64.5c4 14.333 10.333 21.5 19 21.5c12 0 20.667 -8.66699 26 -26c2.66699 -7.33301 4 -16.5 4 -27.5s-1.66699 -23 -5 -36s-10.333 -37.833 -21 -74.5
c-28.667 -98.667 -43 -165 -43 -199c0 -22 6.66699 -33 20 -33c16 0 35.833 15 59.5 45s46.834 66.667 69.501 110c41.333 78.667 75 152 101 220c5.33301 14 12 21 20 21c11.333 0 19.666 -8.66699 24.999 -26c2.66699 -9.33301 4 -19.666 4 -30.999s-5.5 -44 -16.5 -98
l-33 -155c-11 -49.333 -25.333 -107.333 -43 -174s-34.334 -116.334 -50.001 -149.001s-34.667 -66 -57 -100s-47.166 -57.5 -74.499 -70.5s-58 -19.5 -92 -19.5z" />
    <glyph glyph-name="z" unicode="z" horiz-adv-x="409" 
d="M-8.5 24.5c-12.333 -16.333 -23.5 -24.502 -33.5 -24.502s-15 2.33301 -15 7c0 2 0.666992 3.66699 2 5c90 113.333 181.333 219 274 317c-20 -5.33301 -40 -8 -60 -8c-58 0 -94.333 17 -109 51c-3.33301 8.66699 -5 18.167 -5 28.5s4.83301 21 14.5 32
s20.5 16.5 32.5 16.5s20.833 -2.16699 26.5 -6.5s9.5 -10.833 11.5 -19.5c-10 0 -16.333 -5.66699 -19 -17c-0.666992 -3.33301 -1 -6.33301 -1 -9c0 -13.333 9.33301 -23.666 28 -30.999c12 -4.66699 29.833 -7 53.5 -7s46.834 4.33301 69.501 13
c36.667 35.333 60.334 53 71.001 53c5.33301 0 8 -2 8 -6s-5 -13 -15 -27s-29 -28.667 -57 -44l-234 -272c2.66699 0.666992 8.16699 1 16.5 1s26 -6.33301 53 -19s51.167 -19 72.5 -19c38.667 0 64.667 15.667 78 47c4 10 6 19.5 6 28.5s-2.33301 16.5 -7 22.5
s-10.334 9 -17.001 9c1.33301 8.66699 6.33301 13 15 13c24.667 0 37 -19.333 37 -58c0 -28 -10.667 -55.667 -32 -83s-51.333 -41 -90 -41c-18.667 0 -35.334 3.83301 -50.001 11.5s-25.667 15.834 -33 24.501c-21.333 24 -38.833 36 -52.5 36s-26.667 -8.16699 -39 -24.5z
" />
    <glyph glyph-name="braceleft" unicode="{" horiz-adv-x="403" 
d="M60 358c-5.33301 0 -8 4.49512 -8 13.4951s2.33301 13.5 7 13.5c25.333 0 45.166 14.833 59.499 44.5s25.333 65.5 33 107.5s16.667 84.167 27 126.5s28.333 78.333 54 108s59.5 44.5 101.5 44.5c9.33301 0 15.666 -4 18.999 -12l1 -5
c-34.667 0 -62.5 -9.16699 -83.5 -27.5s-34.833 -41.333 -41.5 -69s-12.667 -58.667 -18 -93s-9.66602 -67.166 -12.999 -98.499s-11.666 -60.166 -24.999 -86.499s-31.666 -44.833 -54.999 -55.5c14.667 -14 22 -36.333 22 -67s-3 -61 -9 -91
c-18.667 -91.333 -28 -159.666 -28 -204.999c0 -24 6 -44.833 18 -62.5s32.333 -26.5 61 -26.5c-2.66699 -11.333 -9.33398 -17 -20.001 -17c-36 0 -61 15.667 -75 47c-10.667 25.333 -16 55 -16 89c0 32 3.5 74.833 10.5 128.5s10.5 89.334 10.5 107.001
s-0.333008 30.834 -1 39.501c-2 31.333 -12.333 47 -31 47z" />
    <glyph glyph-name="bar" unicode="|" horiz-adv-x="404" 
d="M153 -141c-5.33301 0 -8.66699 6.66602 -10 19.999c4 318.667 9.33301 565.334 16 740.001c0.666992 54.667 13 82 37 82c10.667 0 16 -8 16 -24c0 -6.66699 -6 -124 -18 -352s-18.667 -362 -20 -402c-1.33301 -42.667 -8.33301 -64 -21 -64z" />
    <glyph glyph-name="braceright" unicode="}" horiz-adv-x="356" 
d="M205 346c-15.333 14.667 -23.0029 37.5 -23.0029 68.5s3 61.167 9 90.5c19.333 94 29 157.667 29 191s-6 58.833 -18 76.5s-32.333 26.5 -61 26.5c2.66699 11.333 9.33398 17 20.001 17c36 0 61 -15.667 75 -47c10.667 -26 16 -56.333 16 -91
c0 -34 -3.33301 -77 -10 -129s-10 -86.833 -10 -104.5v-39.5c2.66699 -31.333 13.334 -47 32.001 -47c5.33301 0 8 -4.5 8 -13.5s-2.66699 -13.5 -8 -13.5c-25.333 0 -45.166 -14.833 -59.499 -44.5s-25.333 -65.5 -33 -107.5s-16.667 -84.167 -27 -126.5
s-28.333 -78.333 -54 -108s-59.167 -44.5 -100.5 -44.5c-9.33301 0 -15.333 4 -18 12l-2 5c40.667 0 71.667 12.5 93 37.5s35 56.5 41 94.5s10.667 76.667 14 116c9.33301 98.667 38.333 159 87 181z" />
    <glyph glyph-name="asciitilde" unicode="~" horiz-adv-x="496" 
d="M367 410c-24.667 0 -57.665 -6.66602 -98.998 -19.999s-71.333 -20 -90 -20s-35.334 4.66699 -50.001 14s-25.334 18.666 -32.001 27.999l-9 13h26c11.333 -15.333 28 -23 50 -23s54 8.16699 96 24.5s75 24.5 99 24.5s47.5 -6.5 70.5 -19.5s40.167 -26.167 51.5 -39.5
l16 -19h-26c-27.333 24.667 -59.333 37 -96 37h-7z" />
    <glyph glyph-name="exclamdown" unicode="&#xa1;" horiz-adv-x="459" 
d="M257 426c16 0 24.001 -10.332 24.001 -30.999s-9.66699 -37.334 -29 -50.001c-9.33301 -6.66699 -17.666 -10 -24.999 -10c-10.667 0 -17.334 4.33301 -20.001 13c9.33301 0 15 13 17 39c1.33301 10 4.66602 19 9.99902 27s13 12 23 12zM193.001 241.001
c0 8.66699 6.49707 12.9951 19.4971 12.9951s19.5 -4.33301 19.5 -13c0 -60.667 -34.667 -125 -104 -193l-87.5 -86.5c-29 -29 -53.667 -62.5 -74 -100.5s-30.5 -77.667 -30.5 -119c0 -60.667 29 -91 87 -91c50 0 88.667 27 116 81c15.333 32 23 63 23 93
c0 12 -1.33301 24 -4 36c-7.33301 34.667 -24 52 -50 52c0 9.33301 7.33301 14 22 14c41.333 0 68 -20.333 80 -61c4 -13.333 6 -26.666 6 -39.999c0 -30 -9 -61.333 -27 -94c-39.333 -70.667 -99.666 -106 -180.999 -106c-45.333 0 -79.666 10.833 -102.999 32.5
s-35 49.334 -35 83.001s6 64.334 18 92.001s27.5 52.5 46.5 74.5s40 43.667 63 65l68.5 63c22.667 20.667 43.334 41.334 62.001 62.001c43.333 46.667 65 94.334 65 143.001z" />
    <glyph glyph-name="cent" unicode="&#xa2;" horiz-adv-x="339" 
d="M171 534c1.33301 0 2.66602 -0.666992 3.99902 -2c8 -3.33301 12 -10.833 12 -22.5s-0.333008 -21.167 -1 -28.5l-8 -57c21.333 -4 36 -14.667 44 -32c5.33301 -10 8 -19 8 -27s-1.33301 -15 -4 -21c-5.33301 -16 -14.333 -24 -27 -24
c-5.33301 0 -9.33301 3.66699 -12 11c3.33301 0 6.33301 4.83301 9 14.5s2.33398 20 -0.999023 31s-10.333 17.833 -21 20.5l-59 -371c18 2.66699 35.667 11.334 53 26.001s30 28.667 38 42l13 20h27c-23.333 -47.333 -53 -81 -89 -101
c-15.333 -8.66699 -30.666 -13.667 -45.999 -15l-15.5 -102.5c-1 -6.33301 -2.5 -9.5 -4.5 -9.5c-9.33301 0 -14 9 -14 27c0 5.33301 0.333008 11 1 17l9 69c-62 5.33301 -101 38.333 -117 99c-5.33301 19.333 -8 39.333 -8 60c0 40 9.66699 82.333 29 127
c28.667 64.667 68 107.667 118 129c12.667 5.33301 26 8.66602 40 9.99902l15 99c1.33301 7.33301 3.66602 11 6.99902 11zM22 142c0 -72 23 -111 69 -117l54 370c-34 -11.333 -63 -44 -87 -98s-36 -105.667 -36 -155z" />
    <glyph glyph-name="sterling" unicode="&#xa3;" horiz-adv-x="697" 
d="M193 275c-8 0 -11.667 2.33203 -11 6.99902c1.33301 9.33301 13.666 15 36.999 17l13 1h61c20 104.667 37.667 175.334 53 212.001c32 78 81.333 117 148 117c55.333 0 93 -22 113 -66c8 -17.333 12 -34.666 12 -51.999s-4.33301 -35 -13 -53
c-16.667 -31.333 -42 -47.333 -76 -48c-12.667 0 -21.667 4.66699 -27 14l-3 5c17.333 0 32.333 6 45 18c20.667 18.667 31 44.667 31 78c0 26 -7.83301 45.5 -23.5 58.5s-32.334 19.5 -50.001 19.5s-31.667 -1.66699 -42 -5s-19.5 -8.83301 -27.5 -16.5
s-15 -15.167 -21 -22.5s-11.667 -18.333 -17 -33s-9.66602 -27 -12.999 -37s-7 -24.667 -11 -44s-6.66699 -34.333 -8 -45c-7.33301 -47.333 -13 -81.333 -17 -102c23.333 -0.666992 70 -1 140 -1c7.33301 0 10.666 -2 9.99902 -6c-2.66699 -9.33301 -16.667 -14 -42 -14
c-53.333 0 -90.666 -0.333008 -111.999 -1c-21.333 -122 -55 -204.667 -101 -248c69.333 -38 123.333 -57 162 -57c48.667 0 80.667 17 96 51c4.66699 10.667 7 20.667 7 30s-2.5 17.166 -7.5 23.499s-10.833 9.5 -17.5 9.5c2 8 7 12 15 12c22.667 0 37.667 -12.667 45 -38
c2.66699 -8.66699 4 -17 4 -25c0 -20 -7.66699 -38.667 -23 -56c-21.333 -25.333 -53 -38 -95 -38c-25.333 0 -51.5 4 -78.5 12s-48.667 16.167 -65 24.5s-37.5 19.833 -63.5 34.5c-32.667 -23.333 -75.5 -35 -128.5 -35s-85.833 14 -98.5 42c-2.66699 6.66699 -4 13 -4 19
c0 13.333 7.83301 26.333 23.5 39s38 19 67 19s71.167 -15.333 126.5 -46c32.667 36.667 60.334 112 83.001 226h-96zM17 34.999c0 -10 7.66797 -18.334 23.001 -25.001s37.666 -10 66.999 -10s56 10 80 30c-47.333 26.667 -85.333 40 -114 40s-46.667 -8.33301 -54 -25
c-1.33301 -3.33301 -2 -6.66602 -2 -9.99902z" />
    <glyph glyph-name="currency" unicode="&#xa4;" horiz-adv-x="576" 
d="M414 407c7.33301 0 11 -3.33398 11 -10.001c0 -4 -1.66699 -8 -5 -12l-60 -60c11.333 -18.667 17 -41.334 17 -68.001c0 -50 -14.667 -97 -44 -141l66 -66c4 -4 5.5 -8.16699 4.5 -12.5s-3.5 -7 -7.5 -8s-8.33301 0.5 -13 4.5l-64 64c-31.333 -38 -66 -57 -104 -57
s-65.667 12.333 -83 37l-48 -48c-3.33301 -3.33301 -6.66602 -5 -9.99902 -5c-7.33301 0 -11 3.33301 -11 10c0 3.33301 1.66699 7 5 11l53 53c-5.33301 14 -8 31 -8 51s6.33301 43.333 19 70c21.333 44.667 51.333 71.667 90 81c4 0.666992 7 -0.333008 9 -3
s2.66699 -5.66699 2 -9s-2 -5.33301 -4 -6c-22 -6 -39.333 -27.333 -52 -64c-8.66699 -24.667 -13 -48.667 -13 -72c0 -57.333 17 -86 51 -86s61.667 22 83 66s32 86.333 32 127c0 59.333 -17.333 89 -52 89c-21.333 0 -38.833 -6 -52.5 -18s-25.167 -16.667 -34.5 -14
c-3.33301 0.666992 -4 2.33398 -2 5.00098l-68 68c-4 4 -5.5 8.33301 -4.5 13s3.66699 7.33398 8 8.00098s8.83301 -1 13.5 -5l67 -68c24 20.667 49.5 31 76.5 31s48.167 -6.66699 63.5 -20l59 59c3.33301 3.33301 6.66602 5 9.99902 5z" />
    <glyph glyph-name="yen" unicode="&#xa5;" horiz-adv-x="626" 
d="M277 71c-8 0 -11.667 2.00391 -11 6.00391c8 9.33301 24.667 14.666 50 15.999h34c12 36 22.333 77.333 31 124c-45.333 -47.333 -84.666 -71 -117.999 -71c-58.667 0 -88 28.333 -88 85c0 32 11.333 82.333 34 151s34 121.667 34 159c0 57.333 -26.333 86 -79 86
c-44.667 0 -80.334 -23 -107.001 -69c-18 -30.667 -27 -61.667 -27 -93c0 -14 1.66699 -28.333 5 -43c12.667 -45.333 43.334 -68 92.001 -68c-1.33301 -11.333 -10.333 -17 -27 -17c-46.667 0 -77 23.333 -91 70c-4.66699 16.667 -7 36.834 -7 60.501s7.33301 51.5 22 83.5
c31.333 66.667 78 100 140 100c41.333 0 73.333 -12.833 96 -38.5s34 -57.834 34 -96.501s-11 -92.834 -33 -162.501s-33 -117.5 -33 -143.5s11.333 -39 34 -39c37.333 0 79.333 29 126 87c10.667 76.667 22.167 135.667 34.5 177s23.5 67.5 33.5 78.5s21.667 16.5 35 16.5
c22.667 0 34 -13 34 -39c0 -12.667 -2.66699 -28.334 -8 -47.001c-12.667 -42.667 -35.334 -89.334 -68.001 -140.001c-10.667 -89.333 -24.334 -160.333 -41.001 -213l51 -1c7.33301 0 10.666 -1.66699 9.99902 -5c-1.33301 -8 -15.333 -12 -42 -12
c-8 -0.666992 -16.333 -1 -25 -1l-18 -44l55 -1c7.33301 0 10.666 -1.66699 9.99902 -5c-1.33301 -8 -15.333 -12 -42 -12c-10 -0.666992 -21 -1 -33 -1c-44 -82.667 -108.333 -124 -193 -124c-63.333 0 -104 21 -122 63c-5.33301 12.667 -8 26.167 -8 40.5
s5.83301 30.166 17.5 47.499s28.167 26 49.5 26c12.667 0 20.334 -4 23.001 -12l2 -5c-28 0 -47 -13 -57 -39c-4 -9.33301 -6 -20.166 -6 -32.499s6.83301 -26.166 20.5 -41.499s35.5 -23 65.5 -23c62.667 0 112.334 33 149.001 99h-58c-8 0 -11.667 2 -11 6
c8 9.33301 24.667 14.666 50 15.999h30c6.66699 15.333 12.334 29 17.001 41h-66zM498 478.004c0 13.333 -4 20 -12 20s-14 -10.167 -18 -30.5s-7.33301 -42.833 -10 -67.5s-4 -38.334 -4 -41.001c29.333 54.667 44 94.334 44 119.001z" />
    <glyph glyph-name="brokenbar" unicode="&#xa6;" horiz-adv-x="413" 
d="M196 701c10.667 0 16 -9.33301 16 -28s-5.66699 -129 -17 -331h-43c4 174.667 6.33301 267 7 277c0.666992 54.667 13 82 37 82zM153 -141c-5.33301 0 -8.66699 6.66699 -10 20c0.666992 48.667 3 171 7 367h40l-7 -132c-4.66699 -90.667 -7.66699 -155 -9 -193
c-1.33301 -41.333 -8.33301 -62 -21 -62z" />
    <glyph glyph-name="section" unicode="&#xa7;" horiz-adv-x="583" 
d="M45 91c0 -32.667 7.66504 -58.1689 22.998 -76.502s43.833 -27.5 85.5 -27.5s74.834 14.333 99.501 43s37 63 37 103c0 48 -22.667 92.667 -68 134l-58 53c-45.333 42 -68 89 -68 141c0 36 11.833 66.667 35.5 92s56.5 40.333 98.5 45c-14 26 -21 53.333 -21 82
c0 40 14.167 73.167 42.5 99.5s67.166 39.5 116.499 39.5c34.667 0 62.334 -8.5 83.001 -25.5s31 -38.5 31 -64.5c0 -12.667 -10.167 -19 -30.5 -19s-30.5 6.33301 -30.5 19c0 44 -21.667 66 -65 66c-26.667 0 -48.167 -8.83301 -64.5 -26.5s-24.5 -39.167 -24.5 -64.5
s6.83301 -48.666 20.5 -69.999s30.167 -41 49.5 -59l58 -55c46.667 -46 70 -95.333 70 -148c0 -39.333 -11.167 -75.166 -33.5 -107.499s-50.5 -55.5 -84.5 -69.5c3.33301 -14.667 5 -28.667 5 -42c0 -53.333 -19.167 -98.333 -57.5 -135s-85.666 -55 -141.999 -55
s-98.333 12.667 -126 38s-41.5 56.666 -41.5 93.999c0 10.667 5 18.334 15 23.001s20 4.5 30 -0.5s15 -13.833 15 -26.5zM178.498 549.498c-16.333 -17.667 -24.4971 -39.334 -24.4971 -65.001s7.5 -50 22.5 -73s32.167 -42.833 51.5 -59.5
c55.333 -48 91.666 -91.333 108.999 -130c19.333 12.667 35.166 31 47.499 55s18.5 48.5 18.5 73.5s-5.83301 48.333 -17.5 70s-24.834 39.5 -39.501 53.5l-53 50.5c-20.667 19.667 -36.667 36.834 -48 51.501h-2c-26.667 0 -48.167 -8.83301 -64.5 -26.5z" />
    <glyph glyph-name="dieresis" unicode="&#xa8;" horiz-adv-x="303" 
d="M106 599c15.333 0 22.998 -10.332 22.998 -30.999s-10 -37.334 -30 -50.001c-10 -6.66699 -18.667 -10 -26 -10c-10.667 0 -17 3.33301 -19 10l-1 3c6 0 10.333 6.5 13 19.5s6.83398 26 12.501 39s14.834 19.5 27.501 19.5zM231.998 599.001
c15.333 0 22.998 -10.332 22.998 -30.999s-10 -37.334 -30 -50.001c-10 -6.66699 -18.667 -10 -26 -10c-10.667 0 -17 3.33301 -19 10l-1 3c6 0 10.333 6.5 13 19.5s6.83398 26 12.501 39s14.834 19.5 27.501 19.5z" />
    <glyph glyph-name="copyright" unicode="&#xa9;" horiz-adv-x="773" 
d="M285 192c0 -58.667 20.6689 -88.0029 62.002 -88.0029c12.667 0 25.5 4.33301 38.5 13s22.5 17.334 28.5 26.001l10 13l19 -6c-3.33301 -5.33301 -7.83301 -11.666 -13.5 -18.999s-16.834 -17.166 -33.501 -29.499s-33 -18.5 -49 -18.5c-71.333 0 -107 41 -107 123
c0 38.667 11.333 77.667 34 117c31.333 53.333 69.333 80 114 80c13.333 0 24.166 -3.83301 32.499 -11.5s13 -17.167 14 -28.5s0.166992 -22.5 -2.5 -33.5s-8 -20.333 -16 -28s-15 -11.5 -21 -11.5c-8 0 -12.667 2.66699 -14 8c4 0 9.33301 7.16699 16 21.5
s10 28.5 10 42.5s-6 21 -18 21c-26 0 -49.833 -21.667 -71.5 -65s-32.5 -85.333 -32.5 -126zM96.002 208.997c0 -58.667 19.333 -109.667 58 -153c46 -51.333 105 -77 177 -77s136.333 25.667 193 77c65.333 58.667 98 129.667 98 213c0 60 -20 111.667 -60 155
c-46 51.333 -105 77 -177 77s-136.167 -25.5 -192.5 -76.5s-87.833 -112.5 -94.5 -184.5c-1.33301 -10.667 -2 -21 -2 -31zM387.002 520.997c77.333 0 140.667 -27.668 190 -83.001c42.667 -47.333 64 -103.666 64 -168.999c0 -9.33301 -0.333008 -19 -1 -29
c-8.66699 -77.333 -43.334 -143.5 -104.001 -198.5s-129.667 -82.5 -207 -82.5s-140.666 27.667 -189.999 83c-42 46.667 -63 101.334 -63 164.001c0 11.333 0.666992 22.666 2 33.999c7.33301 77.333 41.333 143.5 102 198.5s129.667 82.5 207 82.5z" />
    <glyph glyph-name="ordfeminine" unicode="&#xaa;" horiz-adv-x="583" 
d="M350 634c-14.667 -68.667 -22.002 -118.001 -22.002 -148.001s8 -45 24 -45c12.667 0 27.5 16.333 44.5 49s30.5 65.334 40.5 98.001l16 49h21l-7.5 -23.5c-3 -9.66699 -9.16699 -26.834 -18.5 -51.501s-18.666 -46.5 -27.999 -65.5s-20.5 -36.167 -33.5 -51.5
s-25.167 -23 -36.5 -23c-43.333 0 -65 31.667 -65 95c0 10.667 0.666992 22.334 2 35.001h-6c-46 -85.333 -85.333 -128 -118 -128c-42.667 0 -64 29.667 -64 89c0 38.667 11.333 79 34 121c34.667 62.667 77.334 94 128.001 94c13.333 0 23.833 -3.83301 31.5 -11.5
s11.5 -14.5 11.5 -20.5s-2 -10 -6 -12s-7.83301 -2.83301 -11.5 -2.5s-5.5 1.83301 -5.5 4.5c0 11.333 -6.66699 17 -20 17c-27.333 0 -52 -22 -74 -66c-24 -46.667 -36 -88.334 -36 -125.001s5.66699 -57.667 17 -63c26.667 0 67.667 57.333 123 172l20.5 45
c5.66699 12.667 12.667 19 21 19s14 -4.66699 17 -14s3.16699 -21.666 0.5 -36.999z" />
    <glyph glyph-name="guillemotleft" unicode="&#xab;" horiz-adv-x="537" 
d="M170 68c-88 102 -132 156.667 -132 164c0 4 2 7.33301 6 10l178 113v-25l-139 -107l87 -128v-27zM348 68c-88 102 -132 156.667 -132 164c0 4 2 7.33301 6 10l178 113v-25l-139 -107l87 -128v-27z" />
    <glyph glyph-name="logicalnot" unicode="&#xac;" horiz-adv-x="768" 
d="M574 319.5c4.66699 -5.66699 7 -10.833 7 -15.5s-0.666992 -9 -2 -13l-82 -189h-24l55 182l-458 9v21l474 14h12.5c7 0 12.833 -2.83301 17.5 -8.5z" />
    <glyph glyph-name="uni00AD" unicode="&#xad;" horiz-adv-x="609" 
d="M423 285l-317 -2c-7.33301 0 -11 2.66699 -11 8c0 10.667 10.667 18 32 22c5.33301 0.666992 11.333 1 18 1l310 -9c6.66699 0 10 -1.66699 10 -5c0 -9.33301 -14 -14.333 -42 -15z" />
    <glyph glyph-name="registered" unicode="&#xae;" horiz-adv-x="546" 
d="M309.5 750c45 0 81 -14.999 108 -44.999s40.5 -64.667 40.5 -104c0 -4.66699 -0.333008 -9.33398 -1 -14.001c-5.33301 -45.333 -25.5 -83.833 -60.5 -115.5s-75 -47.5 -120 -47.5s-80.667 14.667 -107 44s-39.5 62 -39.5 98c0 53.333 18.667 97.333 56 132
s78.5 52 123.5 52zM373 467.001c48.667 34.667 72.9951 79.9971 72.9951 135.997c0 34.667 -12.5 65.834 -37.5 93.501s-58.333 41.5 -100 41.5s-78.834 -14.667 -111.501 -44c-37.333 -34 -56 -75.667 -56 -125c0 -34 12.333 -64.667 37 -92s57.667 -41 99 -41
c29.333 0 58 8 86 24c-15.333 2 -26 9 -32 21s-9.66699 30.5 -11 55.5s-2.66602 40.5 -3.99902 46.5c-7.33301 -2.66699 -16 -4 -26 -4h-2c-8 -65.333 -31.667 -98 -71 -98c-20 0 -33 7 -39 21c-2.66699 6.66699 -4 13.5 -4 20.5s2.33301 14.833 7 23.5
c8.66699 14 20.334 21 35.001 21l10 -7c-20.667 0 -33.667 -9.66699 -39 -29c-1.33301 -4.66699 -2 -10.834 -2 -18.501s3.5 -13.167 10.5 -16.5s12.833 -5 17.5 -5c16.667 0 29.167 8 37.5 24s14.833 38.333 19.5 67c-13.333 5.33301 -19.166 13.833 -17.499 25.5
s9.83398 17.834 24.501 18.501c7.33301 38 19 57 35 57c4.66699 0 7 -1.66699 7 -5v-1c-13.333 0 -21.666 -17.667 -24.999 -53c13.333 -2.66699 24 -10.667 32 -24c20.667 14.667 31 34.334 31 59.001c0 8.66699 -2 17 -6 25c-7.33301 13.333 -20.666 20 -39.999 20
c-40 0 -67.667 -17 -83 -51c-6 -12.667 -9 -24 -9 -34s2.66699 -18.5 8 -25.5s12 -10.5 20 -10.5c-1.33301 -5.33301 -5 -8 -11 -8c-20.667 0 -31 13.5 -31 40.5s9.83301 50.167 29.5 69.5s44.667 29 75 29s50.833 -8.33301 61.5 -25c6 -9.33301 9 -18.666 9 -27.999
s-2 -18.333 -6 -27c-8.66699 -20.667 -23 -36 -43 -46c4 -10.667 7.33301 -26.5 10 -47.5s6.16699 -38 10.5 -51s11.5 -20.5 21.5 -22.5zM292.995 615.998l-4 -28c8 0 16.333 1.66699 25 5c-4 11.333 -11 19 -21 23zM261.995 602.998
c0 -5.33301 3.33398 -9.33301 10.001 -12c1.33301 12 2.66602 21 3.99902 27c-9.33301 -1.33301 -14 -6.33301 -14 -15z" />
    <glyph glyph-name="degree" unicode="&#xb0;" horiz-adv-x="349" 
d="M98 557c15.333 15.333 34.5 23.001 57.5 23.001s42.167 -7.66699 57.5 -23s23 -34.333 23 -57s-7.66699 -41.667 -23 -57s-34.5 -23 -57.5 -23s-42.167 7.83301 -57.5 23.5s-23 34.667 -23 57s7.66699 41.166 23 56.499zM154 446.001c14.667 0 27.498 5.33301 38.498 16
s16.5 23.5 16.5 38.5s-5.33301 27.833 -16 38.5s-23.667 16 -39 16s-28.166 -5.33301 -38.499 -16s-15.5 -23.5 -15.5 -38.5s5.33301 -27.833 16 -38.5s23.334 -16 38.001 -16z" />
    <glyph glyph-name="plusminus" unicode="&#xb1;" horiz-adv-x="702" 
d="M447 266l-128 -1l-11 -83c-2 -10 -5.33301 -12 -10 -6s-7 19 -7 39l5 50c-38 -0.666992 -93.333 -1 -166 -1c-8 0 -11.667 3 -11 9c1.33301 10.667 12 17.667 32 21l18 1c22 0 65 -1.33301 129 -4c10 97.333 15.167 149.5 15.5 156.5s2.5 10.5 6.5 10.5
c1.33301 0 3 -0.666992 5 -2c10 -4 15 -16 15 -36c0 -4.66699 -0.333008 -9.66699 -1 -15l-16 -115c77.333 -2.66699 129.333 -4 156 -4c6.66699 0 10 -1.66699 10 -5c0 -9.33301 -14 -14.333 -42 -15zM423 109l-317 -2c-7.33301 0 -11 2.66699 -11 8
c0 10.667 10.667 18 32 22c5.33301 0.666992 11.333 1 18 1l310 -9c6.66699 0 10 -1.66699 10 -5c0 -9.33301 -14 -14.333 -42 -15z" />
    <glyph glyph-name="twosuperior" unicode="&#xb2;" horiz-adv-x="535" 
d="M239 615c-38 0 -56.999 23.001 -56.999 69.001c0 26 9.66699 51.667 29 77c26.667 36 63 54 109 54c30 0 52.833 -7.33301 68.5 -22s23.5 -33 23.5 -55s-4.66699 -42.833 -14 -62.5s-23.166 -39 -41.499 -58s-35 -35.167 -50 -48.5s-34.833 -29.5 -59.5 -48.5
s-41.334 -32.167 -50.001 -39.5h2c10.667 0 26.667 -5.83301 48 -17.5s41.666 -17.5 60.999 -17.5c32.667 0 55.667 14.333 69 43c5.33301 9.33301 8 17.666 8 24.999s-2 12.5 -6 15.5s-7.66699 4.5 -11 4.5c1.33301 8.66699 6 13 14 13c16 0 24 -15 24 -45
s-10.5 -55.5 -31.5 -76.5s-43.333 -31.5 -67 -31.5s-42.5 5.33301 -56.5 16s-25.667 21.334 -35 32.001s-19.333 16 -30 16s-19.334 -4.5 -26.001 -13.5s-10 -16.833 -10 -23.5c0 -5.33301 -4.83301 -8 -14.5 -8s-14.5 2.66699 -14.5 8c0 9.33301 8.5 22.166 25.5 38.499
s37.333 34.5 61 54.5s47.334 41.333 71.001 64s43.834 48.167 60.501 76.5s25 54 25 77s-4 39.167 -12 48.5s-22 14 -42 14c-34 0 -59.333 -19.333 -76 -58c-8 -19.333 -12 -36 -12 -50s2.66699 -27.167 8 -39.5s14.666 -18.5 27.999 -18.5
c-2.66699 -8.66699 -9 -13 -19 -13z" />
    <glyph glyph-name="threesuperior" unicode="&#xb3;" horiz-adv-x="498" 
d="M358 653c26 -21.333 39 -53 39 -95c0 -56 -23.667 -100.667 -71 -134c-29.333 -20.667 -65.666 -31 -108.999 -31s-73.333 15.333 -90 46c-7.33301 14.667 -11 29.667 -11 45s4.66699 31 14 47c18 30.667 45 46 81 46c7.33301 0 12.833 -1.83301 16.5 -5.5
s5.5 -7.5 5.5 -11.5v-5c-5.33301 2.66699 -13.333 4 -24 4s-21.334 -5 -32.001 -15c-16.667 -14.667 -25 -35.334 -25 -62.001c0 -5.33301 0.666992 -13 2 -23s8.16602 -20 20.499 -30s30.333 -15 54 -15s45.834 8.66699 66.501 26c37.333 30.667 56 73 56 127
c0 27.333 -6 49.666 -18 66.999c-20.667 -13.333 -45 -20 -73 -20s-42 8.66699 -42 26c0 13.333 9.33301 23.666 28 30.999c10.667 4 22.834 6 36.501 6s28.167 -2.33301 43.5 -7c16 22.667 24 43.334 24 62.001c0 44 -18.333 66 -55 66c-28.667 0 -48 -13.333 -58 -40
c-3.33301 -9.33301 -5 -18 -5 -26s2.33301 -14.167 7 -18.5s9.33398 -6.5 14.001 -6.5c-2.66699 -8.66699 -9.33398 -13 -20.001 -13c-22.667 0 -34 14.333 -34 43c0 20 9.33301 38.667 28 56s44.667 26 78 26s57.166 -8.66699 71.499 -26s21.5 -35.666 21.5 -54.999
c0 -31.333 -13.333 -59.666 -40 -84.999zM237 641c0 -6 8.5 -9 25.5 -9s33.5 7 49.5 21c-9.33301 5.33301 -19.333 8 -30 8c-24 0 -38.667 -5 -44 -15c-0.666992 -2 -1 -3.66699 -1 -5z" />
    <glyph glyph-name="acute" unicode="&#xb4;" horiz-adv-x="388" 
d="M271 617c-20 -24.667 -42.5 -48.666 -67.5 -71.999s-41 -35 -48 -35s-10.5 3.66699 -10.5 11s7.83301 23.166 23.5 47.499s34.5 48.833 56.5 73.5c8 10 15.667 15 23 15s14.333 -1.5 21 -4.5s10 -7.66699 10 -14s-2.66699 -13.5 -8 -21.5z" />
    <glyph glyph-name="mu" unicode="&#xb5;" horiz-adv-x="467" 
d="M279 24c17.333 0 41.668 23 73.001 69s58.333 92 81 138l34 69h27l-15.5 -32.5c-6.33301 -13.667 -18.833 -38 -37.5 -73s-36.5 -65.833 -53.5 -92.5s-36 -50.834 -57 -72.501s-39.333 -32.5 -55 -32.5s-28.834 3 -39.501 9c-22.667 12.667 -34 42 -34 88
c0 32.667 8.66699 89.334 26 170.001c-82.667 -176 -150.667 -264 -204 -264c-25.333 0 -43 8 -53 24c-20 -96 -30 -174.667 -30 -236s10.667 -92 32 -92c-6.66699 -13.333 -16.334 -20 -29.001 -20c-38 0 -57 35.667 -57 107s19.333 178.666 58 321.999l37.5 135l46.5 163
c4 14 10.333 21 19 21c12 0 20.667 -8.66699 26 -26c2.66699 -7.33301 4 -16.5 4 -27.5s-1.66699 -23 -5 -36s-10.333 -37.833 -21 -74.5c-28.667 -98.667 -43 -165 -43 -199c0 -22 6.66699 -33 20 -33c23.333 0 54.333 31.167 93 93.5s71.334 124.833 98.001 187.5l41 94
c3.33301 14 9.33301 21 18 21c12 0 20.667 -8.66699 26 -26c2.66699 -8 4 -17.667 4 -29s-1.33301 -23.166 -4 -35.499s-7 -30.5 -13 -54.5s-10.667 -43.667 -14 -59l-12 -56c-6.66699 -36.667 -10 -69.167 -10 -97.5s7.66699 -42.5 23 -42.5z" />
    <glyph glyph-name="mu" unicode="&#x3bc;" horiz-adv-x="467" 
d="M279 24c17.333 0 41.668 23 73.001 69s58.333 92 81 138l34 69h27l-15.5 -32.5c-6.33301 -13.667 -18.833 -38 -37.5 -73s-36.5 -65.833 -53.5 -92.5s-36 -50.834 -57 -72.501s-39.333 -32.5 -55 -32.5s-28.834 3 -39.501 9c-22.667 12.667 -34 42 -34 88
c0 32.667 8.66699 89.334 26 170.001c-82.667 -176 -150.667 -264 -204 -264c-25.333 0 -43 8 -53 24c-20 -96 -30 -174.667 -30 -236s10.667 -92 32 -92c-6.66699 -13.333 -16.334 -20 -29.001 -20c-38 0 -57 35.667 -57 107s19.333 178.666 58 321.999l37.5 135l46.5 163
c4 14 10.333 21 19 21c12 0 20.667 -8.66699 26 -26c2.66699 -7.33301 4 -16.5 4 -27.5s-1.66699 -23 -5 -36s-10.333 -37.833 -21 -74.5c-28.667 -98.667 -43 -165 -43 -199c0 -22 6.66699 -33 20 -33c23.333 0 54.333 31.167 93 93.5s71.334 124.833 98.001 187.5l41 94
c3.33301 14 9.33301 21 18 21c12 0 20.667 -8.66699 26 -26c2.66699 -8 4 -17.667 4 -29s-1.33301 -23.166 -4 -35.499s-7 -30.5 -13 -54.5s-10.667 -43.667 -14 -59l-12 -56c-6.66699 -36.667 -10 -69.167 -10 -97.5s7.66699 -42.5 23 -42.5z" />
    <glyph glyph-name="paragraph" unicode="&#xb6;" horiz-adv-x="756" 
d="M207 -113c-94.667 0 -158.328 28.665 -190.995 85.998c-13.333 23.333 -20 45.666 -20 66.999s4 41.666 12 60.999c19.333 46.667 51.333 70 96 70c13.333 0 22.666 -4.66699 27.999 -14l2 -5c-31.333 0 -55.666 -17.333 -72.999 -52c-10 -20 -15 -39.333 -15 -58
s3.66699 -36.667 11 -54c23.333 -50 73.333 -75 150 -75c56 0 103.5 14.833 142.5 44.5s68 67.334 87 113.001s35.5 98.5 49.5 158.5s24.333 117.667 31 173c16.667 138.667 42 236.334 76 293.001c-48 19.333 -87.667 29 -119 29c-68 0 -124.667 -34 -170 -102
c-37.333 -56 -56 -116 -56 -180c0 -68 21.333 -111.667 64 -131c13.333 -6.66699 28.666 -10 45.999 -10c-1.33301 -10.667 -9 -16 -23 -16c-69.333 0 -118.666 29.333 -147.999 88c-14.667 30 -22 60.333 -22 91s4.66699 61 14 91
c23.333 72.667 67.666 126.334 132.999 161.001c41.333 21.333 86.166 32 134.499 32s101.5 -11.333 159.5 -34l3 3c24.667 122 62 183 112 183c9.33301 0 15.666 -4 18.999 -12l1 -5c-47.333 0 -82 -46.667 -104 -140c21.333 13.333 43.666 20 66.999 20
c32.667 0 52.334 -11 59.001 -33c2 -4.66699 3 -9 3 -13c0 -14 -7.16699 -26 -21.5 -36s-30.666 -15 -48.999 -15s-41.833 5.33301 -70.5 16c-7.33301 -45.333 -13.833 -105.5 -19.5 -180.5l-15.5 -200.5c-4.66699 -58.667 -11.334 -117 -20.001 -175
c-19.333 -121.333 -57.333 -182 -114 -182c-7.33301 0 -12.333 2.33301 -15 7s-3.33398 11.334 -2.00098 20.001c42.667 0 73.667 52.667 93 158c14 77.333 26.333 170.5 37 279.5s19.334 185.167 26.001 228.5c-20.667 -58.667 -40 -157.667 -58 -297
c-6.66699 -51.333 -17.834 -105.5 -33.501 -162.5s-34.334 -106.167 -56.001 -147.5s-53 -75.5 -94 -102.5s-89.833 -40.5 -146.5 -40.5zM705.006 740.998c-30.667 0 -55.667 -12.333 -75 -37c25.333 -10 48.833 -15 70.5 -15s34.5 7.66699 38.5 23
c0.666992 2.66699 1 5 1 7c0 8.66699 -5.66699 15 -17 19c-5.33301 2 -11.333 3 -18 3z" />
    <glyph glyph-name="periodcentered" unicode="&#xb7;" horiz-adv-x="369" 
d="M177 302c15.333 0 22.999 -10.332 22.999 -30.999s-10 -37.334 -30 -50.001c-10 -6.66699 -18.667 -10 -26 -10c-10.667 0 -17.334 4.33301 -20.001 13c6 0 10.333 6.5 13 19.5s6.83398 26 12.501 39s14.834 19.5 27.501 19.5z" />
    <glyph glyph-name="cedilla" unicode="&#xb8;" horiz-adv-x="339" 
d="M16 -64c0 14 16.332 43.999 48.999 89.999h21l-44 -78c16 8.66699 34.667 13 56 13c32.667 0 52 -12.333 58 -37c0.666992 -4.66699 1 -9.33398 1 -14.001c0 -19.333 -11 -38.5 -33 -57.5s-52 -28.5 -90 -28.5s-57 12.333 -57 37c0 10 4.33301 17 13 21
c2.66699 1.33301 5.66699 2 9 2c7.33301 0 11.666 -3 12.999 -9v-3c-8.66699 0 -13.667 -4 -15 -12c-1.33301 -11.333 5.33398 -18.666 20.001 -21.999l13 -1c38.667 0 66.334 14.333 83.001 43c6.66699 10.667 10 20.334 10 29.001s-3.16699 16.5 -9.5 23.5
s-17 10.5 -32 10.5s-33.167 -5.33301 -54.5 -16h-2c-6 0 -9 3 -9 9z" />
    <glyph glyph-name="onesuperior" unicode="&#xb9;" horiz-adv-x="430" 
d="M278 388c-26 0 -39.001 27.3301 -39.001 81.9971c0 64 17 139 51 225c-36 -20 -64.667 -41.667 -86 -65s-32 -51.666 -32 -84.999c0 -8 1.66699 -13 5 -15s5.33301 -3 6 -3c0 -8 -4.16699 -12 -12.5 -12s-15.666 3.83301 -21.999 11.5s-9.5 19.5 -9.5 35.5
s4.66699 32.5 14 49.5s23.333 32.5 42 46.5c26 20.667 62 42.334 108 65.001c28.667 62 56 93 82 93c16.667 0 25 -8.33301 25 -25c0 -13.333 -6.5 -25.5 -19.5 -36.5s-32.833 -23.5 -59.5 -37.5c-20.667 -59.333 -35 -125.666 -43 -198.999c-2 -24 -3 -44 -3 -60
c0 -34 5.33301 -51.667 16 -53c-2 -11.333 -9.66699 -17 -23 -17zM384.999 796.997c-14 0 -28.667 -18.333 -44 -55c34.667 18.667 52 34 52 46c0 6 -2.66699 9 -8 9z" />
    <glyph glyph-name="ordmasculine" unicode="&#xba;" horiz-adv-x="420" 
d="M236 693c-22 0 -41.3311 -20.168 -57.998 -60.501s-25 -81.666 -25 -123.999s11.333 -63.5 34 -63.5c17.333 0 33.333 11 48 33c29.333 42.667 47.666 96.667 54.999 162c-15.333 8 -25.5 18.167 -30.5 30.5s-7.5 22 -7.5 29s1 13.167 3 18.5c4 12.667 11.667 19 23 19
s20 -7.16699 26 -21.5s9 -27.333 9 -39v-21.5c6 -2 14.5 -3 25.5 -3s20.667 4.5 29 13.5s12.5 16 12.5 21s1.16699 7.83301 3.5 8.5s4.66602 0.5 6.99902 -0.5s3.5 -2.5 3.5 -4.5c0 -14 -5.83301 -27.167 -17.5 -39.5s-24.5 -18.5 -38.5 -18.5s-23 0.333008 -27 1
c-4.66699 -51.333 -18.667 -99.333 -42 -144s-51.333 -67 -84 -67c-53.333 0 -80 36 -80 108c0 36 8.66699 72 26 108c23.333 48 50.333 72 81 72c12 0 19.667 -4 23 -12z" />
    <glyph glyph-name="guillemotright" unicode="&#xbb;" horiz-adv-x="557" 
d="M306 355c88 -102 132 -156.667 132 -164c0 -4 -2 -7.33301 -6 -10l-178 -113v25l139 107l-87 128v27zM128 355c88 -102 132 -156.667 132 -164c0 -4 -2 -7.33301 -6 -10l-178 -113v25l139 107l-87 128v27z" />
    <glyph glyph-name="onequarter" unicode="&#xbc;" horiz-adv-x="954" 
d="M749 322c9.33301 0 14.002 -3.33301 14.002 -10v-3c-13.333 0 -27.333 -21.667 -42 -65s-25.667 -90.333 -33 -141h3c24 0 39.333 8.33301 46 25c5.33301 12 3.33301 19.333 -6 22c-1.33301 0.666992 -2.66602 1 -3.99902 1c1.33301 9.33301 7.66602 14 18.999 14
s17 -9.33301 17 -28s-9.66699 -33.334 -29 -44.001c-11.333 -6 -25.333 -9 -42 -9h-6c-2 -18.667 -3 -34.334 -3 -47.001c0 -30.667 5 -46 15 -46c-1.33301 -11.333 -9 -17 -23 -17c-24 0 -36 22.667 -36 68c0 14 1 29.667 3 47c-4 0.666992 -37.333 9.66699 -100 27
c-20.667 -24 -42.834 -36 -66.501 -36s-35.5 9 -35.5 27c0 12 8.33301 21.333 25 28c9.33301 4 19.5 6 30.5 6s21.167 -1 30.5 -3c13.333 25.333 23.666 56.5 30.999 93.5s11 72 11 105s-5.66699 49.5 -17 49.5c2.66699 11.333 10.667 17 24 17c26 0 39 -25.333 39 -76
c0 -25.333 -5 -56.666 -15 -93.999s-25.333 -71 -46 -101c54 -15.333 84.667 -23.666 92 -24.999c8.66699 52 23.5 100.833 44.5 146.5s40.833 68.5 59.5 68.5zM230.002 -102c-6.66699 0 -10 5 -10 15s6.33301 28.333 19 55l85.5 184.5l140.5 307l85 186.5c8 14 17 21 27 21
c12 0 18 -8.33301 18 -25c0 -18 -7 -40.333 -21 -67c-2 -4.66699 -51.333 -103.167 -148 -295.5s-157 -314.5 -181 -366.5c-4.66699 -10 -9.66699 -15 -15 -15zM261.002 194c-26 0 -39.001 27.3301 -39.001 81.9971c0 64 17 139 51 225c-36 -20 -64.667 -41.667 -86 -65
s-32 -51.666 -32 -84.999c0 -8 1.66699 -13 5 -15s5.33301 -3 6 -3c0 -8 -4.16699 -12 -12.5 -12s-15.666 3.83301 -21.999 11.5s-9.5 19.5 -9.5 35.5s4.66699 32.5 14 49.5s23.333 32.5 42 46.5c26 20.667 62 42.334 108 65.001c28.667 62 56 93 82 93
c16.667 0 25 -8.33301 25 -25c0 -13.333 -6.5 -25.5 -19.5 -36.5s-32.833 -23.5 -59.5 -37.5c-20.667 -59.333 -34.667 -125.666 -42 -198.999c-2.66699 -24 -4 -44 -4 -60c0 -34 5.33301 -51.667 16 -53c-2 -11.333 -9.66699 -17 -23 -17zM368.001 602.997
c-14 0 -28.667 -18.333 -44 -55c34.667 18.667 52 34 52 46c0 6 -2.66699 9 -8 9zM497.001 124.997c-20 0 -31.668 -4.66797 -35.001 -14.001c0 -7.33301 5.33301 -11.666 16 -12.999c14 0 26.667 8.33301 38 25c-9.33301 1.33301 -15.666 2 -18.999 2z" />
    <glyph glyph-name="onehalf" unicode="&#xbd;" horiz-adv-x="947" 
d="M574 192c-38 0 -57 22.998 -57 68.998c0 26 9.66699 51.667 29 77c27.333 35.333 63.666 53.333 108.999 54c30 0 52.833 -7.33301 68.5 -22s23.5 -33 23.5 -55s-4.66699 -42.833 -14 -62.5s-23.166 -39 -41.499 -58s-35 -35.167 -50 -48.5s-34.833 -29.5 -59.5 -48.5
s-41.334 -32.167 -50.001 -39.5h2c10.667 0 26.667 -5.83301 48 -17.5s41.666 -17.5 60.999 -17.5c32.667 0 55.667 14.333 69 43c5.33301 9.33301 8 17.666 8 24.999s-2 12.5 -6 15.5s-7.66699 4.5 -11 4.5c1.33301 8.66699 6 13 14 13c16 0 24 -15 24 -45
s-10.5 -55.5 -31.5 -76.5s-43.333 -31.5 -67 -31.5s-42.5 5.33301 -56.5 16s-25.667 21.334 -35 32.001s-18.666 16 -27.999 16s-17.166 -3.16699 -23.499 -9.5s-11.166 -15.5 -14.499 -27.5c0 -5.33301 -4.83301 -8 -14.5 -8s-14.5 2.66699 -14.5 8
c0 16.667 40.667 58 122 124c30 24.667 57.667 54.834 83 90.501s38 69.834 38 102.501c0 18.667 -4 32.667 -12 42s-22 14 -42 14c-34 0 -59.333 -19.333 -76 -58c-8 -19.333 -12 -36 -12 -50s2.66699 -27.167 8 -39.5s14.666 -18.5 27.999 -18.5
c-2.66699 -8.66699 -9 -13 -19 -13zM230 -102.002c-6.66699 0 -10 5 -10 15s6.33301 28.333 19 55l85.5 184.5l140.5 307l85 186.5c8 14 17 21 27 21c12 0 18 -8.33301 18 -25c0 -18 -7 -40.333 -21 -67c-2 -4.66699 -51.333 -103.167 -148 -295.5s-157 -314.5 -181 -366.5
c-4.66699 -10 -9.66699 -15 -15 -15zM261 193.998c-26 0 -39.001 27.3301 -39.001 81.9971c0 64 17 139 51 225c-36 -20 -64.667 -41.667 -86 -65s-32 -51.666 -32 -84.999c0 -8 1.66699 -13 5 -15s5.33301 -3 6 -3c0 -8 -4.16699 -12 -12.5 -12
s-15.666 3.83301 -21.999 11.5s-9.5 19.5 -9.5 35.5s4.66699 32.5 14 49.5s23.333 32.5 42 46.5c26 20.667 62 42.334 108 65.001c28.667 62 56 93 82 93c16.667 0 25 -8.33301 25 -25c0 -13.333 -6.5 -25.5 -19.5 -36.5s-32.833 -23.5 -59.5 -37.5
c-20.667 -59.333 -34.667 -125.666 -42 -198.999c-2.66699 -24 -4 -44 -4 -60c0 -34 5.33301 -51.667 16 -53c-2 -11.333 -9.66699 -17 -23 -17zM367.999 602.995c-14 0 -28.667 -18.333 -44 -55c34.667 18.667 52 34 52 46c0 6 -2.66699 9 -8 9z" />
    <glyph glyph-name="threequarters" unicode="&#xbe;" horiz-adv-x="957" 
d="M298 454c26 -21.333 39 -53 39 -95c0 -56 -23.667 -100.667 -71 -134c-29.333 -20.667 -65.666 -31 -108.999 -31s-73.333 15.333 -90 46c-7.33301 14.667 -11 29.667 -11 45s4.66699 31 14 47c18 30.667 45 46 81 46c7.33301 0 12.833 -1.83301 16.5 -5.5
s5.5 -7.16699 5.5 -10.5v-6c-5.33301 2.66699 -13.333 4 -24 4s-21.334 -5 -32.001 -15c-16.667 -14.667 -25 -35.334 -25 -62.001c0 -5.33301 0.666992 -13 2 -23s8.16602 -20 20.499 -30s30.333 -15 54 -15s45.834 8.33301 66.501 25c37.333 31.333 56 74 56 128
c0 27.333 -6 49.666 -18 66.999c-20.667 -13.333 -45 -20 -73 -20s-42 8.66699 -42 26c0 13.333 9.33301 23.666 28 30.999c10.667 4 22.834 6 36.501 6s28.167 -2.33301 43.5 -7c16 22.667 24 43.334 24 62.001c0 44 -18.333 66 -55 66c-28.667 0 -48 -13.333 -58 -40
c-3.33301 -9.33301 -5 -18 -5 -26s2.33301 -14.167 7 -18.5s9.33398 -6.5 14.001 -6.5c-2.66699 -8.66699 -9.33398 -13 -20.001 -13c-22.667 0 -34 14.333 -34 43c0 20 9.33301 38.667 28 56s44.667 26 78 26s57.166 -8.66699 71.499 -26s21.5 -35.666 21.5 -54.999
c0 -31.333 -13.333 -59.666 -40 -84.999zM748 322c9.33301 0 14.002 -3.33301 14.002 -10v-3c-13.333 0 -27.333 -21.667 -42 -65s-25.667 -90.333 -33 -141h3c24 0 39.333 8.33301 46 25c5.33301 12 3.33301 19.333 -6 22c-1.33301 0.666992 -2.66602 1 -3.99902 1
c1.33301 9.33301 7.66602 14 18.999 14s17 -9.33301 17 -28s-9.66699 -33.334 -29 -44.001c-11.333 -6 -25.333 -9 -42 -9h-6c-2 -18.667 -3 -34.334 -3 -47.001c0 -30.667 5 -46 15 -46c-1.33301 -11.333 -9 -17 -23 -17c-24 0 -36 22.667 -36 68c0 14 1 29.667 3 47
c-4 0.666992 -37.333 9.66699 -100 27c-20.667 -24 -42.834 -36 -66.501 -36s-35.5 9 -35.5 27c0 12 8.33301 21.333 25 28c9.33301 4 19.5 6 30.5 6s21.167 -1 30.5 -3c13.333 25.333 23.666 56.5 30.999 93.5s11 72 11 105s-5.66699 49.5 -17 49.5
c2.66699 11.333 10.667 17 24 17c26 0 39 -25.333 39 -76c0 -25.333 -5 -56.666 -15 -93.999s-25.333 -71 -46 -101c54 -15.333 84.667 -23.666 92 -24.999c8.66699 52 23.5 100.833 44.5 146.5s40.833 68.5 59.5 68.5zM229.002 -102c-6.66699 0 -10 5 -10 15
s6.33301 28.333 19 55l85.5 184.5l140.5 307l85 186.5c8 14 17 21 27 21c12 0 18 -8.33301 18 -25c0 -18 -7 -40.333 -21 -67c-2 -4.66699 -51.333 -103.167 -148 -295.5s-157 -314.5 -181 -366.5c-4.66699 -10 -9.66699 -15 -15 -15zM177.002 442c0 -6 8.5 -9 25.5 -9
s33.5 7 49.5 21c-9.33301 5.33301 -19.333 8 -30 8c-24 0 -38.667 -5 -44 -15c-0.666992 -2 -1 -3.66699 -1 -5zM496.002 125c-20 0 -31.668 -4.66797 -35.001 -14.001c0 -7.33301 5.33301 -11.666 16 -12.999c14 0 26.667 8.33301 38 25
c-9.33301 1.33301 -15.666 2 -18.999 2z" />
    <glyph glyph-name="questiondown" unicode="&#xbf;" horiz-adv-x="469" 
d="M190 72c16 0 24 -10.332 24 -30.999s-9.66699 -37.334 -29 -50.001c-9.33301 -6.66699 -17.666 -10 -24.999 -10c-10.667 0 -17.334 4.33301 -20.001 13c9.33301 0 15.333 13 18 39c0.666992 10 3.66699 19 9 27s13 12 23 12zM216 161.001
c0 -8.66699 -6.49805 -12.9951 -19.498 -12.9951s-19.5 4.33301 -19.5 13c0 60.667 35 125 105 193l86.5 86.5c29 29 53.667 62.5 74 100.5s30.5 77.667 30.5 119c0 60.667 -29 91 -87 91c-50 0 -88.667 -27 -116 -81c-15.333 -32 -23 -63 -23 -93c0 -12 1.33301 -24 4 -36
c7.33301 -34.667 24 -52 50 -52c0 -9.33301 -7.33301 -14 -22 -14c-41.333 0 -68 20.333 -80 61c-4 13.333 -6 26.666 -6 39.999c0 30 9 61.333 27 94c39.333 70.667 99.666 106 180.999 106c45.333 0 79.666 -10.833 102.999 -32.5s35 -49.334 35 -83.001
s-6 -64.334 -18 -92.001s-27.5 -52.5 -46.5 -74.5s-39.833 -43.667 -62.5 -65l-68.5 -63c-23 -20.667 -44.167 -41.334 -63.5 -62.001c-42.667 -46.667 -64 -94.334 -64 -143.001z" />
    <glyph glyph-name="Agrave" unicode="&#xc0;" horiz-adv-x="1005" 
d="M919 1007c24 -22 46.833 -46.1689 68.5 -72.502s32.5 -42.666 32.5 -48.999s-3.5 -9.5 -10.5 -9.5s-22.167 8.33301 -45.5 25s-47.333 37 -72 61c-9.33301 9.33301 -14 17.333 -14 24s2 13.334 6 20.001s9.16699 10 15.5 10s12.833 -3 19.5 -9zM1013 817.998
c5.33301 0 9.33594 -1.66309 12.0029 -4.99609s4.33398 -8 5.00098 -14c-69.333 0 -130 -34.333 -182 -103c34.667 -12.667 68.334 -22.667 101.001 -30c36 46.667 69 70 99 70c6.66699 0 12.334 -1.83301 17.001 -5.5s8 -9.16699 10 -16.5c-26 0 -53 -18.333 -81 -55
c4.66699 -0.666992 11.667 -1 21 -1c66 0 112.333 19.667 139 59c11.333 15.333 17 28.333 17 39c0 30 -13.333 45 -40 45c6 9.33301 15.667 14 29 14c26 0 43 -13 51 -39c2 -8 3 -15.667 3 -23c0 -22 -9.33301 -43.667 -28 -65c-32.667 -36 -83 -54 -151 -54
c-20 0 -38 1.33301 -54 4c-44.667 -71.333 -80.667 -172.666 -108 -303.999c-19.333 -91.333 -29 -168 -29 -230c0 -26.667 1.66699 -50.667 5 -72c38 29.333 74.333 66.333 109 111s59.667 82 75 112l23 45h27c-5.33301 -14 -16.833 -36.167 -34.5 -66.5
s-34.667 -57 -51 -80s-37.5 -48.5 -63.5 -76.5s-52.333 -51.667 -79 -71c8.66699 -25.333 21 -38 37 -38c-6.66699 -13.333 -16.334 -20 -29.001 -20c-21.333 0 -39 10 -53 30c-48 -24.667 -94.667 -37 -140 -37c-66 0 -123 17.333 -171 52c-70 -80 -154.333 -120 -253 -120
s-170.334 35 -215.001 105c-24.667 39.333 -37 81.666 -37 126.999c0 18.667 2 37.667 6 57c14 64.667 45.667 110.667 95 138c26 14.667 55 22 87 22c68.667 0 115 -26.667 139 -80c10 -22 15 -44.5 15 -67.5s-4.66699 -46.167 -14 -69.5c-22.667 -56 -59.667 -84 -111 -84
c-8 0 -14.667 1.83301 -20 5.5s-9.33301 9.16699 -12 16.5c18 0 35 4.66699 51 14c26.667 16 47.667 45 63 87c4 14 6 25.5 6 34.5s-0.666992 19.333 -2 31s-5.66602 25.167 -12.999 40.5s-20 27.666 -38 36.999s-39.333 14 -64 14c-63.333 0 -110 -28 -140 -84
c-17.333 -32 -26 -62.333 -26 -91s3 -54.334 9 -77.001c17.333 -63.333 53.666 -107 108.999 -131c26 -11.333 54.667 -17 86 -17c90 0 171.333 40.667 244 122c-32 34 -54 75 -66 123c-7.33301 28 -11 53 -11 75c0 69.333 20 124.333 60 165
c29.333 29.333 65.166 44 107.499 44s80.5 -10.333 114.5 -31c59.333 138 107.333 233.667 144 287c-4.66699 1.33301 -21.834 7.66602 -51.501 18.999s-48.5 18.333 -56.5 21l-48 16c-56 18.667 -105.333 28 -148 28c-86.667 0 -150.667 -32.667 -192 -98
c-24 -36.667 -36 -74.667 -36 -114c0 -11.333 1.33301 -23 4 -35c7.33301 -43.333 26.666 -69.333 57.999 -78c6 -2 12.333 -3 19 -3c-4 -14.667 -15 -22 -33 -22c-40.667 0 -69.334 21.667 -86.001 65c-8 20.667 -12 43.667 -12 69s6.66699 53.666 20 84.999
c28 67.333 77.333 113.333 148 138c33.333 11.333 64.5 17 93.5 17s53 -1.5 72 -4.5s41.833 -8.66699 68.5 -17l58.5 -18.5c12.333 -4 36.333 -12.833 72 -26.5l61.5 -23.5c57.333 76 120 114 188 114zM798.003 -0.998047c-11.333 26.667 -16.999 59.168 -16.999 97.501
s-8 82.666 -24 132.999s-39.333 91.5 -70 123.5c-60.667 -160 -117.334 -273.333 -170.001 -340c41.333 -32.667 92 -49 152 -49c42.667 0 85.667 11.667 129 35zM659.004 377.003c-25.333 18 -54.833 26.999 -88.5 26.999s-63.5 -12.667 -89.5 -38
c-37.333 -38 -56 -87.667 -56 -149c0 -68 19 -125 57 -171c42.667 54.667 83.667 124.334 123 209.001zM789.004 218.002c10.667 78.667 29.332 157.168 55.999 235.501s57 142.833 91 193.5c-28 6.66699 -61.667 17 -101 31
c-31.333 -46.667 -62.666 -108.334 -93.999 -185.001l-44 -115c41.333 -36.667 72 -90 92 -160z" />
    <glyph glyph-name="Aacute" unicode="&#xc1;" horiz-adv-x="1005" 
d="M1147 987c-20 -24.667 -42.5 -48.666 -67.5 -71.999s-41 -35 -48 -35s-10.5 3.66699 -10.5 11s7.83301 23.166 23.5 47.499s34.5 48.833 56.5 73.5c8 10 15.667 15 23 15s14.333 -1.5 21 -4.5s10 -7.66699 10 -14s-2.66699 -13.5 -8 -21.5zM1013 818.001
c5.33301 0 9.33594 -1.66309 12.0029 -4.99609s4.33398 -8 5.00098 -14c-69.333 0 -130 -34.333 -182 -103c34.667 -12.667 68.334 -22.667 101.001 -30c36 46.667 69 70 99 70c6.66699 0 12.334 -1.83301 17.001 -5.5s8 -9.16699 10 -16.5c-26 0 -53 -18.333 -81 -55
c4.66699 -0.666992 11.667 -1 21 -1c66 0 112.333 19.667 139 59c11.333 15.333 17 28.333 17 39c0 30 -13.333 45 -40 45c6 9.33301 15.667 14 29 14c26 0 43 -13 51 -39c2 -8 3 -15.667 3 -23c0 -22 -9.33301 -43.667 -28 -65c-32.667 -36 -83 -54 -151 -54
c-20 0 -38 1.33301 -54 4c-44.667 -71.333 -80.667 -172.666 -108 -303.999c-19.333 -91.333 -29 -168 -29 -230c0 -26.667 1.66699 -50.667 5 -72c38 29.333 74.333 66.333 109 111s59.667 82 75 112l23 45h27c-5.33301 -14 -16.833 -36.167 -34.5 -66.5
s-34.667 -57 -51 -80s-37.5 -48.5 -63.5 -76.5s-52.333 -51.667 -79 -71c8.66699 -25.333 21 -38 37 -38c-6.66699 -13.333 -16.334 -20 -29.001 -20c-21.333 0 -39 10 -53 30c-48 -24.667 -94.667 -37 -140 -37c-66 0 -123 17.333 -171 52c-70 -80 -154.333 -120 -253 -120
s-170.334 35 -215.001 105c-24.667 39.333 -37 81.666 -37 126.999c0 18.667 2 37.667 6 57c14 64.667 45.667 110.667 95 138c26 14.667 55 22 87 22c68.667 0 115 -26.667 139 -80c10 -22 15 -44.5 15 -67.5s-4.66699 -46.167 -14 -69.5c-22.667 -56 -59.667 -84 -111 -84
c-8 0 -14.667 1.83301 -20 5.5s-9.33301 9.16699 -12 16.5c18 0 35 4.66699 51 14c26.667 16 47.667 45 63 87c4 14 6 25.5 6 34.5s-0.666992 19.333 -2 31s-5.66602 25.167 -12.999 40.5s-20 27.666 -38 36.999s-39.333 14 -64 14c-63.333 0 -110 -28 -140 -84
c-17.333 -32 -26 -62.333 -26 -91s3 -54.334 9 -77.001c17.333 -63.333 53.666 -107 108.999 -131c26 -11.333 54.667 -17 86 -17c90 0 171.333 40.667 244 122c-32 34 -54 75 -66 123c-7.33301 28 -11 53 -11 75c0 69.333 20 124.333 60 165
c29.333 29.333 65.166 44 107.499 44s80.5 -10.333 114.5 -31c59.333 138 107.333 233.667 144 287c-4.66699 1.33301 -21.834 7.66602 -51.501 18.999s-48.5 18.333 -56.5 21l-48 16c-56 18.667 -105.333 28 -148 28c-86.667 0 -150.667 -32.667 -192 -98
c-24 -36.667 -36 -74.667 -36 -114c0 -11.333 1.33301 -23 4 -35c7.33301 -43.333 26.666 -69.333 57.999 -78c6 -2 12.333 -3 19 -3c-4 -14.667 -15 -22 -33 -22c-40.667 0 -69.334 21.667 -86.001 65c-8 20.667 -12 43.667 -12 69s6.66699 53.666 20 84.999
c28 67.333 77.333 113.333 148 138c33.333 11.333 64.5 17 93.5 17s53 -1.5 72 -4.5s41.833 -8.66699 68.5 -17l58.5 -18.5c12.333 -4 36.333 -12.833 72 -26.5l61.5 -23.5c57.333 76 120 114 188 114zM798.003 -0.995117c-11.333 26.667 -16.999 59.168 -16.999 97.501
s-8 82.666 -24 132.999s-39.333 91.5 -70 123.5c-60.667 -160 -117.334 -273.333 -170.001 -340c41.333 -32.667 92 -49 152 -49c42.667 0 85.667 11.667 129 35zM659.004 377.006c-25.333 18 -54.833 26.999 -88.5 26.999s-63.5 -12.667 -89.5 -38
c-37.333 -38 -56 -87.667 -56 -149c0 -68 19 -125 57 -171c42.667 54.667 83.667 124.334 123 209.001zM789.004 218.005c10.667 78.667 29.332 157.168 55.999 235.501s57 142.833 91 193.5c-28 6.66699 -61.667 17 -101 31
c-31.333 -46.667 -62.666 -108.334 -93.999 -185.001l-44 -115c41.333 -36.667 72 -90 92 -160z" />
    <glyph glyph-name="Acircumflex" unicode="&#xc2;" horiz-adv-x="1005" 
d="M1016.5 984c4.33301 0 7.50098 -2.33301 9.50098 -7l50 -99h-24l-38 64l-109 -64h-25l105.5 86.5c16.333 13 26.666 19.5 30.999 19.5zM1013 818c5.33301 0 9.33594 -1.66309 12.0029 -4.99609s4.33398 -8 5.00098 -14c-69.333 0 -130 -34.333 -182 -103
c34.667 -12.667 68.334 -22.667 101.001 -30c36 46.667 69 70 99 70c6.66699 0 12.334 -1.83301 17.001 -5.5s8 -9.16699 10 -16.5c-26 0 -53 -18.333 -81 -55c4.66699 -0.666992 11.667 -1 21 -1c66 0 112.333 19.667 139 59c11.333 15.333 17 28.333 17 39
c0 30 -13.333 45 -40 45c6 9.33301 15.667 14 29 14c26 0 43 -13 51 -39c2 -8 3 -15.667 3 -23c0 -22 -9.33301 -43.667 -28 -65c-32.667 -36 -83 -54 -151 -54c-20 0 -38 1.33301 -54 4c-44.667 -71.333 -80.667 -172.666 -108 -303.999c-19.333 -91.333 -29 -168 -29 -230
c0 -26.667 1.66699 -50.667 5 -72c38 29.333 74.333 66.333 109 111s59.667 82 75 112l23 45h27c-5.33301 -14 -16.833 -36.167 -34.5 -66.5s-34.667 -57 -51 -80s-37.5 -48.5 -63.5 -76.5s-52.333 -51.667 -79 -71c8.66699 -25.333 21 -38 37 -38
c-6.66699 -13.333 -16.334 -20 -29.001 -20c-21.333 0 -39 10 -53 30c-48 -24.667 -94.667 -37 -140 -37c-66 0 -123 17.333 -171 52c-70 -80 -154.333 -120 -253 -120s-170.334 35 -215.001 105c-24.667 39.333 -37 81.666 -37 126.999c0 18.667 2 37.667 6 57
c14 64.667 45.667 110.667 95 138c26 14.667 55 22 87 22c68.667 0 115 -26.667 139 -80c10 -22 15 -44.5 15 -67.5s-4.66699 -46.167 -14 -69.5c-22.667 -56 -59.667 -84 -111 -84c-8 0 -14.667 1.83301 -20 5.5s-9.33301 9.16699 -12 16.5c18 0 35 4.66699 51 14
c26.667 16 47.667 45 63 87c4 14 6 25.5 6 34.5s-0.666992 19.333 -2 31s-5.66602 25.167 -12.999 40.5s-20 27.666 -38 36.999s-39.333 14 -64 14c-63.333 0 -110 -28 -140 -84c-17.333 -32 -26 -62.333 -26 -91s3 -54.334 9 -77.001
c17.333 -63.333 53.666 -107 108.999 -131c26 -11.333 54.667 -17 86 -17c90 0 171.333 40.667 244 122c-32 34 -54 75 -66 123c-7.33301 28 -11 53 -11 75c0 69.333 20 124.333 60 165c29.333 29.333 65.166 44 107.499 44s80.5 -10.333 114.5 -31
c59.333 138 107.333 233.667 144 287c-4.66699 1.33301 -21.834 7.66602 -51.501 18.999s-48.5 18.333 -56.5 21l-48 16c-56 18.667 -105.333 28 -148 28c-86.667 0 -150.667 -32.667 -192 -98c-24 -36.667 -36 -74.667 -36 -114c0 -11.333 1.33301 -23 4 -35
c7.33301 -43.333 26.666 -69.333 57.999 -78c6 -2 12.333 -3 19 -3c-4 -14.667 -15 -22 -33 -22c-40.667 0 -69.334 21.667 -86.001 65c-8 20.667 -12 43.667 -12 69s6.66699 53.666 20 84.999c28 67.333 77.333 113.333 148 138c33.333 11.333 64.5 17 93.5 17
s53 -1.5 72 -4.5s41.833 -8.66699 68.5 -17l58.5 -18.5c12.333 -4 36.333 -12.833 72 -26.5l61.5 -23.5c57.333 76 120 114 188 114zM798.004 -0.996094c-11.333 26.667 -16.999 59.168 -16.999 97.501s-8 82.666 -24 132.999s-39.333 91.5 -70 123.5
c-60.667 -160 -117.334 -273.333 -170.001 -340c41.333 -32.667 92 -49 152 -49c42.667 0 85.667 11.667 129 35zM659.005 377.005c-25.333 18 -54.833 26.999 -88.5 26.999s-63.5 -12.667 -89.5 -38c-37.333 -38 -56 -87.667 -56 -149c0 -68 19 -125 57 -171
c42.667 54.667 83.667 124.334 123 209.001zM789.005 218.004c10.667 78.667 29.332 157.168 55.999 235.501s57 142.833 91 193.5c-28 6.66699 -61.667 17 -101 31c-31.333 -46.667 -62.666 -108.334 -93.999 -185.001l-44 -115c41.333 -36.667 72 -90 92 -160z" />
    <glyph glyph-name="Atilde" unicode="&#xc3;" horiz-adv-x="1005" 
d="M921 920c-16.667 0 -33.002 -14 -49.002 -42h-23c1.33301 4 5.5 11.167 12.5 21.5s13.833 18.5 20.5 24.5c17.333 16.667 37.666 25 60.999 25c12.667 0 28.334 -6.5 47.001 -19.5s33.5 -19.5 44.5 -19.5s20.5 3 28.5 9s15.333 15 22 27h22
c-2 -5.33301 -5.16699 -12 -9.5 -20s-14.166 -18.5 -29.499 -31.5s-31.166 -19.5 -47.499 -19.5s-34.5 7.5 -54.5 22.5s-35 22.5 -45 22.5zM1013 818c5.33301 0 9.33594 -1.66309 12.0029 -4.99609s4.33398 -8 5.00098 -14c-69.333 0 -130 -34.333 -182 -103
c34.667 -12.667 68.334 -22.667 101.001 -30c36 46.667 69 70 99 70c6.66699 0 12.334 -1.83301 17.001 -5.5s8 -9.16699 10 -16.5c-26 0 -53 -18.333 -81 -55c4.66699 -0.666992 11.667 -1 21 -1c66 0 112.333 19.667 139 59c11.333 15.333 17 28.333 17 39
c0 30 -13.333 45 -40 45c6 9.33301 15.667 14 29 14c26 0 43 -13 51 -39c2 -8 3 -15.667 3 -23c0 -22 -9.33301 -43.667 -28 -65c-32.667 -36 -83 -54 -151 -54c-20 0 -38 1.33301 -54 4c-44.667 -71.333 -80.667 -172.666 -108 -303.999c-19.333 -91.333 -29 -168 -29 -230
c0 -26.667 1.66699 -50.667 5 -72c38 29.333 74.333 66.333 109 111s59.667 82 75 112l23 45h27c-5.33301 -14 -16.833 -36.167 -34.5 -66.5s-34.667 -57 -51 -80s-37.5 -48.5 -63.5 -76.5s-52.333 -51.667 -79 -71c8.66699 -25.333 21 -38 37 -38
c-6.66699 -13.333 -16.334 -20 -29.001 -20c-21.333 0 -39 10 -53 30c-48 -24.667 -94.667 -37 -140 -37c-66 0 -123 17.333 -171 52c-70 -80 -154.333 -120 -253 -120s-170.334 35 -215.001 105c-24.667 39.333 -37 81.666 -37 126.999c0 18.667 2 37.667 6 57
c14 64.667 45.667 110.667 95 138c26 14.667 55 22 87 22c68.667 0 115 -26.667 139 -80c10 -22 15 -44.5 15 -67.5s-4.66699 -46.167 -14 -69.5c-22.667 -56 -59.667 -84 -111 -84c-8 0 -14.667 1.83301 -20 5.5s-9.33301 9.16699 -12 16.5c18 0 35 4.66699 51 14
c26.667 16 47.667 45 63 87c4 14 6 25.5 6 34.5s-0.666992 19.333 -2 31s-5.66602 25.167 -12.999 40.5s-20 27.666 -38 36.999s-39.333 14 -64 14c-63.333 0 -110 -28 -140 -84c-17.333 -32 -26 -62.333 -26 -91s3 -54.334 9 -77.001
c17.333 -63.333 53.666 -107 108.999 -131c26 -11.333 54.667 -17 86 -17c90 0 171.333 40.667 244 122c-32 34 -54 75 -66 123c-7.33301 28 -11 53 -11 75c0 69.333 20 124.333 60 165c29.333 29.333 65.166 44 107.499 44s80.5 -10.333 114.5 -31
c59.333 138 107.333 233.667 144 287c-4.66699 1.33301 -21.834 7.66602 -51.501 18.999s-48.5 18.333 -56.5 21l-48 16c-56 18.667 -105.333 28 -148 28c-86.667 0 -150.667 -32.667 -192 -98c-24 -36.667 -36 -74.667 -36 -114c0 -11.333 1.33301 -23 4 -35
c7.33301 -43.333 26.666 -69.333 57.999 -78c6 -2 12.333 -3 19 -3c-4 -14.667 -15 -22 -33 -22c-40.667 0 -69.334 21.667 -86.001 65c-8 20.667 -12 43.667 -12 69s6.66699 53.666 20 84.999c28 67.333 77.333 113.333 148 138c33.333 11.333 64.5 17 93.5 17
s53 -1.5 72 -4.5s41.833 -8.66699 68.5 -17l58.5 -18.5c12.333 -4 36.333 -12.833 72 -26.5l61.5 -23.5c57.333 76 120 114 188 114zM798.001 -0.996094c-11.333 26.667 -16.999 59.168 -16.999 97.501s-8 82.666 -24 132.999s-39.333 91.5 -70 123.5
c-60.667 -160 -117.334 -273.333 -170.001 -340c41.333 -32.667 92 -49 152 -49c42.667 0 85.667 11.667 129 35zM659.002 377.005c-25.333 18 -54.833 26.999 -88.5 26.999s-63.5 -12.667 -89.5 -38c-37.333 -38 -56 -87.667 -56 -149c0 -68 19 -125 57 -171
c42.667 54.667 83.667 124.334 123 209.001zM789.002 218.004c10.667 78.667 29.332 157.168 55.999 235.501s57 142.833 91 193.5c-28 6.66699 -61.667 17 -101 31c-31.333 -46.667 -62.666 -108.334 -93.999 -185.001l-44 -115c41.333 -36.667 72 -90 92 -160z" />
    <glyph glyph-name="Adieresis" unicode="&#xc4;" horiz-adv-x="1005" 
d="M934 969c15.333 0 22.998 -10.332 22.998 -30.999s-10 -37.334 -30 -50.001c-10 -6.66699 -18.667 -10 -26 -10c-10.667 0 -17 3.33301 -19 10l-1 3c6 0 10.333 6.5 13 19.5s6.83398 26 12.501 39s14.834 19.5 27.501 19.5zM1060 969.001
c15.333 0 22.998 -10.332 22.998 -30.999s-10 -37.334 -30 -50.001c-10 -6.66699 -18.667 -10 -26 -10c-10.667 0 -17 3.33301 -19 10l-1 3c6 0 10.333 6.5 13 19.5s6.83398 26 12.501 39s14.834 19.5 27.501 19.5zM1013 818.002
c5.33301 0 9.33594 -1.66309 12.0029 -4.99609s4.33398 -8 5.00098 -14c-69.333 0 -130 -34.333 -182 -103c34.667 -12.667 68.334 -22.667 101.001 -30c36 46.667 69 70 99 70c6.66699 0 12.334 -1.83301 17.001 -5.5s8 -9.16699 10 -16.5c-26 0 -53 -18.333 -81 -55
c4.66699 -0.666992 11.667 -1 21 -1c66 0 112.333 19.667 139 59c11.333 15.333 17 28.333 17 39c0 30 -13.333 45 -40 45c6 9.33301 15.667 14 29 14c26 0 43 -13 51 -39c2 -8 3 -15.667 3 -23c0 -22 -9.33301 -43.667 -28 -65c-32.667 -36 -83 -54 -151 -54
c-20 0 -38 1.33301 -54 4c-44.667 -71.333 -80.667 -172.666 -108 -303.999c-19.333 -91.333 -29 -168 -29 -230c0 -26.667 1.66699 -50.667 5 -72c38 29.333 74.333 66.333 109 111s59.667 82 75 112l23 45h27c-5.33301 -14 -16.833 -36.167 -34.5 -66.5
s-34.667 -57 -51 -80s-37.5 -48.5 -63.5 -76.5s-52.333 -51.667 -79 -71c8.66699 -25.333 21 -38 37 -38c-6.66699 -13.333 -16.334 -20 -29.001 -20c-21.333 0 -39 10 -53 30c-48 -24.667 -94.667 -37 -140 -37c-66 0 -123 17.333 -171 52c-70 -80 -154.333 -120 -253 -120
s-170.334 35 -215.001 105c-24.667 39.333 -37 81.666 -37 126.999c0 18.667 2 37.667 6 57c14 64.667 45.667 110.667 95 138c26 14.667 55 22 87 22c68.667 0 115 -26.667 139 -80c10 -22 15 -44.5 15 -67.5s-4.66699 -46.167 -14 -69.5c-22.667 -56 -59.667 -84 -111 -84
c-8 0 -14.667 1.83301 -20 5.5s-9.33301 9.16699 -12 16.5c18 0 35 4.66699 51 14c26.667 16 47.667 45 63 87c4 14 6 25.5 6 34.5s-0.666992 19.333 -2 31s-5.66602 25.167 -12.999 40.5s-20 27.666 -38 36.999s-39.333 14 -64 14c-63.333 0 -110 -28 -140 -84
c-17.333 -32 -26 -62.333 -26 -91s3 -54.334 9 -77.001c17.333 -63.333 53.666 -107 108.999 -131c26 -11.333 54.667 -17 86 -17c90 0 171.333 40.667 244 122c-32 34 -54 75 -66 123c-7.33301 28 -11 53 -11 75c0 69.333 20 124.333 60 165
c29.333 29.333 65.166 44 107.499 44s80.5 -10.333 114.5 -31c59.333 138 107.333 233.667 144 287c-4.66699 1.33301 -21.834 7.66602 -51.501 18.999s-48.5 18.333 -56.5 21l-48 16c-56 18.667 -105.333 28 -148 28c-86.667 0 -150.667 -32.667 -192 -98
c-24 -36.667 -36 -74.667 -36 -114c0 -11.333 1.33301 -23 4 -35c7.33301 -43.333 26.666 -69.333 57.999 -78c6 -2 12.333 -3 19 -3c-4 -14.667 -15 -22 -33 -22c-40.667 0 -69.334 21.667 -86.001 65c-8 20.667 -12 43.667 -12 69s6.66699 53.666 20 84.999
c28 67.333 77.333 113.333 148 138c33.333 11.333 64.5 17 93.5 17s53 -1.5 72 -4.5s41.833 -8.66699 68.5 -17l58.5 -18.5c12.333 -4 36.333 -12.833 72 -26.5l61.5 -23.5c57.333 76 120 114 188 114zM797.999 -0.994141c-11.333 26.667 -16.999 59.168 -16.999 97.501
s-8 82.666 -24 132.999s-39.333 91.5 -70 123.5c-60.667 -160 -117.334 -273.333 -170.001 -340c41.333 -32.667 92 -49 152 -49c42.667 0 85.667 11.667 129 35zM659 377.007c-25.333 18 -54.833 26.999 -88.5 26.999s-63.5 -12.667 -89.5 -38
c-37.333 -38 -56 -87.667 -56 -149c0 -68 19 -125 57 -171c42.667 54.667 83.667 124.334 123 209.001zM789 218.006c10.667 78.667 29.332 157.168 55.999 235.501s57 142.833 91 193.5c-28 6.66699 -61.667 17 -101 31c-31.333 -46.667 -62.666 -108.334 -93.999 -185.001
l-44 -115c41.333 -36.667 72 -90 92 -160z" />
    <glyph glyph-name="Aring" unicode="&#xc5;" horiz-adv-x="1005" 
d="M951 1031c12.667 12.667 28.5 19.002 47.5 19.002s34.833 -6.33301 47.5 -19s19 -28.334 19 -47.001s-6.33301 -34.334 -19 -47.001s-28.5 -19 -47.5 -19s-34.833 6.5 -47.5 19.5s-19 28.667 -19 47s6.33301 33.833 19 46.5zM966 952.502
c8.66699 -9 19.167 -13.5 31.5 -13.5s23 4.5 32 13.5s13.5 19.667 13.5 32s-4.5 22.833 -13.5 31.5s-19.833 13 -32.5 13s-23.167 -4.33301 -31.5 -13s-12.5 -19.167 -12.5 -31.5s4.33301 -23 13 -32zM1013 818.002c5.33301 0 9.33594 -1.66309 12.0029 -4.99609
s4.33398 -8 5.00098 -14c-69.333 0 -130 -34.333 -182 -103c34.667 -12.667 68.334 -22.667 101.001 -30c36 46.667 69 70 99 70c6.66699 0 12.334 -1.83301 17.001 -5.5s8 -9.16699 10 -16.5c-26 0 -53 -18.333 -81 -55c4.66699 -0.666992 11.667 -1 21 -1
c66 0 112.333 19.667 139 59c11.333 15.333 17 28.333 17 39c0 30 -13.333 45 -40 45c6 9.33301 15.667 14 29 14c26 0 43 -13 51 -39c2 -8 3 -15.667 3 -23c0 -22 -9.33301 -43.667 -28 -65c-32.667 -36 -83 -54 -151 -54c-20 0 -38 1.33301 -54 4
c-44.667 -71.333 -80.667 -172.666 -108 -303.999c-19.333 -91.333 -29 -168 -29 -230c0 -26.667 1.66699 -50.667 5 -72c38 29.333 74.333 66.333 109 111s59.667 82 75 112l23 45h27c-5.33301 -14 -16.833 -36.167 -34.5 -66.5s-34.667 -57 -51 -80
s-37.5 -48.5 -63.5 -76.5s-52.333 -51.667 -79 -71c8.66699 -25.333 21 -38 37 -38c-6.66699 -13.333 -16.334 -20 -29.001 -20c-21.333 0 -39 10 -53 30c-48 -24.667 -94.667 -37 -140 -37c-66 0 -123 17.333 -171 52c-70 -80 -154.333 -120 -253 -120
s-170.334 35 -215.001 105c-24.667 39.333 -37 81.666 -37 126.999c0 18.667 2 37.667 6 57c14 64.667 45.667 110.667 95 138c26 14.667 55 22 87 22c68.667 0 115 -26.667 139 -80c10 -22 15 -44.5 15 -67.5s-4.66699 -46.167 -14 -69.5c-22.667 -56 -59.667 -84 -111 -84
c-8 0 -14.667 1.83301 -20 5.5s-9.33301 9.16699 -12 16.5c18 0 35 4.66699 51 14c26.667 16 47.667 45 63 87c4 14 6 25.5 6 34.5s-0.666992 19.333 -2 31s-5.66602 25.167 -12.999 40.5s-20 27.666 -38 36.999s-39.333 14 -64 14c-63.333 0 -110 -28 -140 -84
c-17.333 -32 -26 -62.333 -26 -91s3 -54.334 9 -77.001c17.333 -63.333 53.666 -107 108.999 -131c26 -11.333 54.667 -17 86 -17c90 0 171.333 40.667 244 122c-32 34 -54 75 -66 123c-7.33301 28 -11 53 -11 75c0 69.333 20 124.333 60 165
c29.333 29.333 65.166 44 107.499 44s80.5 -10.333 114.5 -31c59.333 138 107.333 233.667 144 287c-4.66699 1.33301 -21.834 7.66602 -51.501 18.999s-48.5 18.333 -56.5 21l-48 16c-56 18.667 -105.333 28 -148 28c-86.667 0 -150.667 -32.667 -192 -98
c-24 -36.667 -36 -74.667 -36 -114c0 -11.333 1.33301 -23 4 -35c7.33301 -43.333 26.666 -69.333 57.999 -78c6 -2 12.333 -3 19 -3c-4 -14.667 -15 -22 -33 -22c-40.667 0 -69.334 21.667 -86.001 65c-8 20.667 -12 43.667 -12 69s6.66699 53.666 20 84.999
c28 67.333 77.333 113.333 148 138c33.333 11.333 64.5 17 93.5 17s53 -1.5 72 -4.5s41.833 -8.66699 68.5 -17l58.5 -18.5c12.333 -4 36.333 -12.833 72 -26.5l61.5 -23.5c57.333 76 120 114 188 114zM798.003 -0.994141c-11.333 26.667 -16.999 59.168 -16.999 97.501
s-8 82.666 -24 132.999s-39.333 91.5 -70 123.5c-60.667 -160 -117.334 -273.333 -170.001 -340c41.333 -32.667 92 -49 152 -49c42.667 0 85.667 11.667 129 35zM659.004 377.007c-25.333 18 -54.833 26.999 -88.5 26.999s-63.5 -12.667 -89.5 -38
c-37.333 -38 -56 -87.667 -56 -149c0 -68 19 -125 57 -171c42.667 54.667 83.667 124.334 123 209.001zM789.004 218.006c10.667 78.667 29.332 157.168 55.999 235.501s57 142.833 91 193.5c-28 6.66699 -61.667 17 -101 31
c-31.333 -46.667 -62.666 -108.334 -93.999 -185.001l-44 -115c41.333 -36.667 72 -90 92 -160z" />
    <glyph glyph-name="AE" unicode="&#xc6;" horiz-adv-x="1424" 
d="M934 464c-10.667 22 -15.9971 46.0049 -15.9971 72.0049s3.5 51.667 10.5 77s19 50.666 36 75.999s37 47.666 60 66.999s50.833 35 83.5 47s67.334 18 104.001 18c55.333 0 90.666 -18.667 105.999 -56c4.66699 -11.333 7 -23 7 -35c0 -24.667 -10 -50.667 -30 -78
c-39.333 -52 -100 -83.333 -182 -94l-55 -4l-1 25c77.333 0 138 24 182 72c26 28 39 55.333 39 82c0 6 -0.333008 11.667 -1 17c-8 31.333 -32 47.333 -72 48c-50 0 -95.5 -18.833 -136.5 -56.5s-69.833 -81.5 -86.5 -131.5c-10 -28.667 -15 -53.5 -15 -74.5
s2.66699 -39.167 8 -54.5c40.667 14.667 83.834 22 129.501 22s73.5 -11.667 83.5 -35c2 -5.33301 3 -10.333 3 -15c0 -14 -10.667 -28 -32 -42s-54.333 -21 -99 -21s-80.667 15.333 -108 46c-59.333 -38 -103 -94 -131 -168c-18.667 -49.333 -28 -97.333 -28 -144
c0 -23.333 2.33301 -46 7 -68c14 -68 46.667 -113.667 98 -137v6c0 62 10.167 122.667 30.5 182s52.5 110.5 96.5 153.5s94.667 64.5 152 64.5s94.333 -26 111 -78c6 -18.667 9 -38 9 -58c0 -36.667 -10 -76.667 -30 -120c-34.667 -74 -87 -127.667 -157 -161
c-42.667 -20 -88.667 -30 -138 -30c-8 0 -18.667 0.666992 -32 2c2 -54.667 14.333 -99 37 -133s55.334 -51 98.001 -51c-2.66699 -11.333 -11 -17 -25 -17c-44.667 0 -79.834 19.333 -105.501 58s-40.5 88.667 -44.5 150c-56.667 14 -99.334 43.167 -128.001 87.5
s-43 96.5 -43 156.5c0 29.333 -8.66699 66.666 -26 111.999s-39.333 82 -66 110c-60.667 -160 -117.334 -273.333 -170.001 -340c41.333 -32.667 92 -49 152 -49l1 -23c-66 0 -123 17.333 -171 52c-70 -80 -154.333 -120 -253 -120s-170.334 35 -215.001 105
c-24.667 39.333 -37 81.666 -37 126.999c0 18.667 2 37.667 6 57c14 64.667 45.667 110.667 95 138c26 14.667 55 22 87 22c68.667 0 115 -26.667 139 -80c10 -22 15 -44.5 15 -67.5s-4.66699 -46.167 -14 -69.5c-22.667 -56 -59.667 -84 -111 -84
c-8 0 -14.667 1.83301 -20 5.5s-9.33301 9.16699 -12 16.5c18 0 35 4.66699 51 14c26.667 16 47.667 45 63 87c4 14 6 25.5 6 34.5s-0.666992 19.333 -2 31s-5.66602 25.167 -12.999 40.5s-20 27.666 -38 36.999s-39.333 14 -64 14c-63.333 0 -110 -28 -140 -84
c-17.333 -32 -26 -62.333 -26 -91s3 -54.334 9 -77.001c17.333 -63.333 53.666 -107 108.999 -131c26 -11.333 54.667 -17 86 -17c90 0 171.333 40.667 244 122c-32 34 -54 75 -66 123c-7.33301 28 -11 53 -11 75c0 69.333 20 124.333 60 165
c29.333 29.333 65.166 44 107.499 44s80.5 -10.333 114.5 -31c56.667 131.333 94.334 211.666 113.001 240.999s37.167 56 55.5 80s35.833 42 52.5 54c40.667 29.333 81.667 44 123 44c5.33301 0 9.33301 -1.66699 12 -5s4.33398 -8 5.00098 -14
c-33.333 0 -67.333 -9 -102 -27c-18 -9.33301 -45 -34.666 -81 -75.999c-32 -37.333 -72.667 -119.333 -122 -246l-28 -72c43.333 -37.333 74.333 -91.666 93 -162.999c13.333 52.667 36.666 101.167 69.999 145.5s74.666 78.833 123.999 103.5zM1185 301.005
c-44.667 0 -86.1689 -20.832 -124.502 -62.499s-67.666 -92.5 -87.999 -152.5s-31.166 -119.667 -32.499 -179c8.66699 -2 18.667 -3 30 -3c97.333 0 175 37.667 233 113c42.667 55.333 64 111.666 64 168.999s-16.667 93.333 -50 108c-9.33301 4.66699 -20 7 -32 7z
M609.001 377.006c-25.333 18 -54.833 26.999 -88.5 26.999s-63.5 -12.667 -89.5 -38c-37.333 -38 -56 -87.667 -56 -149c0 -68 19 -125 57 -171c42.667 54.667 83.667 124.334 123 209.001zM1104 481.005c-41.333 0 -80.333 -8.33398 -117 -25.001
c18 -28 48.167 -42 90.5 -42s69.5 9.33301 81.5 28c2.66699 4.66699 4 8.66699 4 12c0 8.66699 -5.83301 15.334 -17.5 20.001s-25.5 7 -41.5 7z" />
    <glyph glyph-name="Ccedilla" unicode="&#xc7;" horiz-adv-x="658" 
d="M125 324c-13.333 -53.333 -20.0029 -100.17 -20.0029 -140.503s4.5 -76.166 13.5 -107.499s26.333 -56.666 52 -75.999s58.167 -29 97.5 -29c73.333 0 135 32 185 96c39.333 49.333 59 98 59 146s-17.333 75.667 -52 83c-5.33301 1.33301 -11.333 2 -18 2l-9 27
c55.333 0 89.333 -24.333 102 -73c3.33301 -13.333 5 -27 5 -41c0 -36.667 -12 -76 -36 -118c-36 -64.667 -86.667 -108.667 -152 -132c-26.667 -8.66699 -54 -13.334 -82 -14.001l-31 -56c16 8.66699 34.667 13 56 13c32.667 0 52 -12.333 58 -37
c0.666992 -4.66699 1 -9.33398 1 -14.001c0 -19.333 -11 -38.5 -33 -57.5s-51 -28.5 -87 -28.5s-56 10 -60 30c-2.66699 14 1.66602 23.333 12.999 28c2.66699 1.33301 5.66699 2 9 2c7.33301 0 11.666 -3 12.999 -9v-3c-8.66699 0 -13.667 -4 -15 -12
c-1.33301 -11.333 5.33398 -18.666 20.001 -21.999l13 -1c38.667 0 66.334 14.333 83.001 43c6.66699 10.667 10 20.334 10 29.001s-3.16699 16.5 -9.5 23.5s-17 10.5 -32 10.5s-33.167 -5.33301 -54.5 -16h-2c-7.33301 5.33301 -8.16602 14.666 -2.49902 27.999
s14.834 30 27.501 50c-88.667 6 -148.667 46 -180 120c-18 42.667 -27 86.667 -27 132s5 90 15 134c-46.667 10.667 -87 30 -121 58s-58.333 60 -73 96c-19.333 47.333 -29 91 -29 131s6.33301 77.667 19 113s30.834 68.833 54.501 100.5s55.5 57.334 95.5 77.001
s84 29.5 132 29.5c94.667 0 159.334 -36.667 194.001 -110c4 -8 -0.666992 -13.333 -14 -16c-16 -1.33301 -26 2.33398 -30 11.001c-20 60 -70.333 90 -151 90c-50.667 0 -96.334 -12 -137.001 -36c-75.333 -45.333 -119.666 -116.666 -132.999 -213.999
c-2 -15.333 -3 -34 -3 -56s4 -46.667 12 -74c11.333 -40.667 33.5 -77.334 66.5 -110.001s74.167 -55 123.5 -67c20.667 76 52 147.167 94 213.5s95 121.666 159 165.999s131.333 66.5 202 66.5c61.333 0 98.666 -24.667 111.999 -74c4 -12.667 6 -26 6 -40
c0 -40.667 -15.333 -85.667 -46 -135c-48 -79.333 -118 -139.666 -210 -180.999c-72 -32.667 -149.667 -49 -233 -49h-20zM502.997 776.996c-38 0 -76.499 -12.499 -115.499 -37.499s-74.5 -57.833 -106.5 -98.5c-68 -86.667 -117.667 -184.334 -149 -293.001h14
c130.667 0 240.667 41.667 330 125c59.333 55.333 95.666 115 108.999 179c2.66699 14 4 26.667 4 38c0 34.667 -12.667 59.667 -38 75c-12.667 8 -28.667 12 -48 12z" />
    <glyph glyph-name="Egrave" unicode="&#xc8;" horiz-adv-x="657" 
d="M416 1007c24 -22 46.833 -46.1689 68.5 -72.502s32.5 -42.666 32.5 -48.999s-3.5 -9.5 -10.5 -9.5s-22.167 8.33301 -45.5 25s-47.333 37 -72 61c-9.33301 9.33301 -14 17.333 -14 24s2 13.334 6 20.001s9.16699 10 15.5 10s12.833 -3 19.5 -9zM279 938.998
c4 0 7.16699 -1.5 9.5 -4.5s3.5 -5.83301 3.5 -8.5v-4c-43.333 0 -80.666 -12.667 -111.999 -38c-44 -36 -66 -79.333 -66 -130c0 -22 4.66699 -44 14 -66c14.667 -36 41.667 -63.667 81 -83c16 59.333 49.167 110.166 99.5 152.499s112.166 63.5 185.499 63.5
c55.333 0 90.666 -18.667 105.999 -56c4.66699 -11.333 7 -23 7 -35c0 -24.667 -10 -50.667 -30 -78c-49.333 -65.333 -128.333 -98 -237 -98c-33.333 0 -62.333 3 -87 9c-2 -12.667 -3 -26 -3 -40s2.33301 -28 7 -42c40.667 14.667 83.834 22 129.501 22
s73.5 -11.667 83.5 -35c2 -5.33301 3 -10.333 3 -15c0 -14 -10.667 -28 -32 -42s-54.333 -21 -99 -21s-80.667 15.333 -108 46c-59.333 -38 -103 -94 -131 -168c-18.667 -49.333 -28 -97.333 -28 -144c0 -23.333 2.33301 -46 7 -68c14 -68 46.667 -113.667 98 -137v6
c0 62 10.167 122.667 30.5 182s52.5 110.5 96.5 153.5s94.667 64.5 152 64.5s94.333 -26 111 -78c6 -18.667 9 -38 9 -58c0 -36.667 -10 -76.667 -30 -120c-34.667 -74 -87 -127.667 -157 -161c-42.667 -20 -88.667 -30 -138 -30c-8 0 -18.667 0.666992 -32 2
c2 -54.667 14.333 -99 37 -133s55.334 -51 98.001 -51c-2.66699 -11.333 -11 -17 -25 -17c-44.667 0 -79.834 19.333 -105.501 58s-40.5 88.667 -44.5 150c-48 12 -86.667 35.667 -116 71c-36 42.667 -54 97 -54 163c0 34 5 71.833 15 113.5s32 84.334 66 128.001
s75 77.5 123 101.5c-10.667 22.667 -16 44.167 -16 64.5s1 37.5 3 51.5c-30 14 -54.333 32.667 -73 56c-25.333 32.667 -38 69 -38 109c0 44.667 12.667 85 38 121c16 21.333 37 38.833 63 52.5s54.667 20.5 86 20.5zM467 300.998
c-44.667 0 -86.1689 -20.832 -124.502 -62.499s-67.666 -92.5 -87.999 -152.5s-31.166 -119.667 -32.499 -179c9.33301 -2 19.333 -3 30 -3c97.333 0 175 37.667 233 113c42.667 55.333 64 111.666 64 168.999s-16.667 93.333 -50 108c-9.33301 4.66699 -20 7 -32 7z
M338.998 578.999c77.333 0 137.999 24 181.999 72c26 28 39 55.333 39 82c0 6 -0.333008 11.667 -1 17c-8 31.333 -32 47.333 -72 48c-54.667 0 -103.167 -21.333 -145.5 -64s-70.166 -91.667 -83.499 -147c24.667 -5.33301 51.667 -8 81 -8zM385.997 480.999
c-41.333 0 -80.333 -8.33398 -117 -25.001c18 -28 48.167 -42 90.5 -42s69.5 9.33301 81.5 28c2.66699 4.66699 4 8.66699 4 12c0 8.66699 -5.83301 15.334 -17.5 20.001s-25.5 7 -41.5 7z" />
    <glyph glyph-name="Eacute" unicode="&#xc9;" horiz-adv-x="657" 
d="M581 987c-20 -24.667 -42.5 -48.666 -67.5 -71.999s-41 -35 -48 -35s-10.5 3.66699 -10.5 11s7.83301 23.166 23.5 47.499s34.5 48.833 56.5 73.5c8 10 15.667 15 23 15s14.333 -1.5 21 -4.5s10 -7.66699 10 -14s-2.66699 -13.5 -8 -21.5zM279 939.001
c4 0 7.16699 -1.5 9.5 -4.5s3.5 -5.83301 3.5 -8.5v-4c-43.333 0 -80.666 -12.667 -111.999 -38c-44 -36 -66 -79.333 -66 -130c0 -22 4.66699 -44 14 -66c14.667 -36 41.667 -63.667 81 -83c16 59.333 49.167 110.166 99.5 152.499s112.166 63.5 185.499 63.5
c55.333 0 90.666 -18.667 105.999 -56c4.66699 -11.333 7 -23 7 -35c0 -24.667 -10 -50.667 -30 -78c-49.333 -65.333 -128.333 -98 -237 -98c-33.333 0 -62.333 3 -87 9c-2 -12.667 -3 -26 -3 -40s2.33301 -28 7 -42c40.667 14.667 83.834 22 129.501 22
s73.5 -11.667 83.5 -35c2 -5.33301 3 -10.333 3 -15c0 -14 -10.667 -28 -32 -42s-54.333 -21 -99 -21s-80.667 15.333 -108 46c-59.333 -38 -103 -94 -131 -168c-18.667 -49.333 -28 -97.333 -28 -144c0 -23.333 2.33301 -46 7 -68c14 -68 46.667 -113.667 98 -137v6
c0 62 10.167 122.667 30.5 182s52.5 110.5 96.5 153.5s94.667 64.5 152 64.5s94.333 -26 111 -78c6 -18.667 9 -38 9 -58c0 -36.667 -10 -76.667 -30 -120c-34.667 -74 -87 -127.667 -157 -161c-42.667 -20 -88.667 -30 -138 -30c-8 0 -18.667 0.666992 -32 2
c2 -54.667 14.333 -99 37 -133s55.334 -51 98.001 -51c-2.66699 -11.333 -11 -17 -25 -17c-44.667 0 -79.834 19.333 -105.501 58s-40.5 88.667 -44.5 150c-48 12 -86.667 35.667 -116 71c-36 42.667 -54 97 -54 163c0 34 5 71.833 15 113.5s32 84.334 66 128.001
s75 77.5 123 101.5c-10.667 22.667 -16 44.167 -16 64.5s1 37.5 3 51.5c-30 14 -54.333 32.667 -73 56c-25.333 32.667 -38 69 -38 109c0 44.667 12.667 85 38 121c16 21.333 37 38.833 63 52.5s54.667 20.5 86 20.5zM467 301.001
c-44.667 0 -86.1689 -20.832 -124.502 -62.499s-67.666 -92.5 -87.999 -152.5s-31.166 -119.667 -32.499 -179c9.33301 -2 19.333 -3 30 -3c97.333 0 175 37.667 233 113c42.667 55.333 64 111.666 64 168.999s-16.667 93.333 -50 108c-9.33301 4.66699 -20 7 -32 7z
M338.998 579.002c77.333 0 137.999 24 181.999 72c26 28 39 55.333 39 82c0 6 -0.333008 11.667 -1 17c-8 31.333 -32 47.333 -72 48c-54.667 0 -103.167 -21.333 -145.5 -64s-70.166 -91.667 -83.499 -147c24.667 -5.33301 51.667 -8 81 -8zM385.997 481.002
c-41.333 0 -80.333 -8.33398 -117 -25.001c18 -28 48.167 -42 90.5 -42s69.5 9.33301 81.5 28c2.66699 4.66699 4 8.66699 4 12c0 8.66699 -5.83301 15.334 -17.5 20.001s-25.5 7 -41.5 7z" />
    <glyph glyph-name="Ecircumflex" unicode="&#xca;" horiz-adv-x="657" 
d="M526 984c4 0 7.33301 -2.33301 10 -7l50 -99h-24l-38 64l-109 -64h-25l105.5 86.5c16.333 13 26.5 19.5 30.5 19.5zM279 939c4 0 7.16699 -1.5 9.5 -4.5s3.5 -5.83301 3.5 -8.5v-4c-43.333 0 -80.666 -12.667 -111.999 -38c-44 -36 -66 -79.333 -66 -130
c0 -22 4.66699 -44 14 -66c14.667 -36 41.667 -63.667 81 -83c16 59.333 49.167 110.166 99.5 152.499s112.166 63.5 185.499 63.5c55.333 0 90.666 -18.667 105.999 -56c4.66699 -11.333 7 -23 7 -35c0 -24.667 -10 -50.667 -30 -78c-49.333 -65.333 -128.333 -98 -237 -98
c-33.333 0 -62.333 3 -87 9c-2 -12.667 -3 -26 -3 -40s2.33301 -28 7 -42c40.667 14.667 83.834 22 129.501 22s73.5 -11.667 83.5 -35c2 -5.33301 3 -10.333 3 -15c0 -14 -10.667 -28 -32 -42s-54.333 -21 -99 -21s-80.667 15.333 -108 46c-59.333 -38 -103 -94 -131 -168
c-18.667 -49.333 -28 -97.333 -28 -144c0 -23.333 2.33301 -46 7 -68c14 -68 46.667 -113.667 98 -137v6c0 62 10.167 122.667 30.5 182s52.5 110.5 96.5 153.5s94.667 64.5 152 64.5s94.333 -26 111 -78c6 -18.667 9 -38 9 -58c0 -36.667 -10 -76.667 -30 -120
c-34.667 -74 -87 -127.667 -157 -161c-42.667 -20 -88.667 -30 -138 -30c-8 0 -18.667 0.666992 -32 2c2 -54.667 14.333 -99 37 -133s55.334 -51 98.001 -51c-2.66699 -11.333 -11 -17 -25 -17c-44.667 0 -79.834 19.333 -105.501 58s-40.5 88.667 -44.5 150
c-48 12 -86.667 35.667 -116 71c-36 42.667 -54 97 -54 163c0 34 5 71.833 15 113.5s32 84.334 66 128.001s75 77.5 123 101.5c-10.667 22.667 -16 44.167 -16 64.5s1 37.5 3 51.5c-30 14 -54.333 32.667 -73 56c-25.333 32.667 -38 69 -38 109c0 44.667 12.667 85 38 121
c16 21.333 37 38.833 63 52.5s54.667 20.5 86 20.5zM467 301c-44.667 0 -86.1689 -20.832 -124.502 -62.499s-67.666 -92.5 -87.999 -152.5s-31.166 -119.667 -32.499 -179c9.33301 -2 19.333 -3 30 -3c97.333 0 175 37.667 233 113c42.667 55.333 64 111.666 64 168.999
s-16.667 93.333 -50 108c-9.33301 4.66699 -20 7 -32 7zM338.998 579.001c77.333 0 137.999 24 181.999 72c26 28 39 55.333 39 82c0 6 -0.333008 11.667 -1 17c-8 31.333 -32 47.333 -72 48c-54.667 0 -103.167 -21.333 -145.5 -64s-70.166 -91.667 -83.499 -147
c24.667 -5.33301 51.667 -8 81 -8zM385.997 481.001c-41.333 0 -80.333 -8.33398 -117 -25.001c18 -28 48.167 -42 90.5 -42s69.5 9.33301 81.5 28c2.66699 4.66699 4 8.66699 4 12c0 8.66699 -5.83301 15.334 -17.5 20.001s-25.5 7 -41.5 7z" />
    <glyph glyph-name="Edieresis" unicode="&#xcb;" horiz-adv-x="657" 
d="M440 969c15.333 0 22.998 -10.332 22.998 -30.999s-10 -37.334 -30 -50.001c-10 -6.66699 -18.667 -10 -26 -10c-10.667 0 -17 3.33301 -19 10l-1 3c6 0 10.333 6.5 13 19.5s6.83398 26 12.501 39s14.834 19.5 27.501 19.5zM565.998 969.001
c15.333 0 22.998 -10.332 22.998 -30.999s-10 -37.334 -30 -50.001c-10 -6.66699 -18.667 -10 -26 -10c-10.667 0 -17 3.33301 -19 10l-1 3c6 0 10.333 6.5 13 19.5s6.83398 26 12.501 39s14.834 19.5 27.501 19.5zM278.996 939.002c4 0 7.16699 -1.5 9.5 -4.5
s3.5 -5.83301 3.5 -8.5v-4c-43.333 0 -80.666 -12.667 -111.999 -38c-44 -36 -66 -79.333 -66 -130c0 -22 4.66699 -44 14 -66c14.667 -36 41.667 -63.667 81 -83c16 59.333 49.167 110.166 99.5 152.499s112.166 63.5 185.499 63.5c55.333 0 90.666 -18.667 105.999 -56
c4.66699 -11.333 7 -23 7 -35c0 -24.667 -10 -50.667 -30 -78c-49.333 -65.333 -128.333 -98 -237 -98c-33.333 0 -62.333 3 -87 9c-2 -12.667 -3 -26 -3 -40s2.33301 -28 7 -42c40.667 14.667 83.834 22 129.501 22s73.5 -11.667 83.5 -35c2 -5.33301 3 -10.333 3 -15
c0 -14 -10.667 -28 -32 -42s-54.333 -21 -99 -21s-80.667 15.333 -108 46c-59.333 -38 -103 -94 -131 -168c-18.667 -49.333 -28 -97.333 -28 -144c0 -23.333 2.33301 -46 7 -68c14 -68 46.667 -113.667 98 -137v6c0 62 10.167 122.667 30.5 182s52.5 110.5 96.5 153.5
s94.667 64.5 152 64.5s94.333 -26 111 -78c6 -18.667 9 -38 9 -58c0 -36.667 -10 -76.667 -30 -120c-34.667 -74 -87 -127.667 -157 -161c-42.667 -20 -88.667 -30 -138 -30c-8 0 -18.667 0.666992 -32 2c2 -54.667 14.333 -99 37 -133s55.334 -51 98.001 -51
c-2.66699 -11.333 -11 -17 -25 -17c-44.667 0 -79.834 19.333 -105.501 58s-40.5 88.667 -44.5 150c-48 12 -86.667 35.667 -116 71c-36 42.667 -54 97 -54 163c0 34 5 71.833 15 113.5s32 84.334 66 128.001s75 77.5 123 101.5c-10.667 22.667 -16 44.167 -16 64.5
s1 37.5 3 51.5c-30 14 -54.333 32.667 -73 56c-25.333 32.667 -38 69 -38 109c0 44.667 12.667 85 38 121c16 21.333 37 38.833 63 52.5s54.667 20.5 86 20.5zM466.996 301.002c-44.667 0 -86.1689 -20.832 -124.502 -62.499s-67.666 -92.5 -87.999 -152.5
s-31.166 -119.667 -32.499 -179c9.33301 -2 19.333 -3 30 -3c97.333 0 175 37.667 233 113c42.667 55.333 64 111.666 64 168.999s-16.667 93.333 -50 108c-9.33301 4.66699 -20 7 -32 7zM338.994 579.003c77.333 0 137.999 24 181.999 72c26 28 39 55.333 39 82
c0 6 -0.333008 11.667 -1 17c-8 31.333 -32 47.333 -72 48c-54.667 0 -103.167 -21.333 -145.5 -64s-70.166 -91.667 -83.499 -147c24.667 -5.33301 51.667 -8 81 -8zM385.993 481.003c-41.333 0 -80.333 -8.33398 -117 -25.001c18 -28 48.167 -42 90.5 -42
s69.5 9.33301 81.5 28c2.66699 4.66699 4 8.66699 4 12c0 8.66699 -5.83301 15.334 -17.5 20.001s-25.5 7 -41.5 7z" />
    <glyph glyph-name="Igrave" unicode="&#xcc;" horiz-adv-x="648" 
d="M624 1007c24 -22 46.833 -46.1689 68.5 -72.502s32.5 -42.666 32.5 -48.999s-3.5 -9.5 -10.5 -9.5s-22.167 8.33301 -45.5 25s-47.333 37 -72 61c-9.33301 9.33301 -14 17.333 -14 24s2 13.334 6 20.001s9.16699 10 15.5 10s12.833 -3 19.5 -9zM244 -113.002
c-99.333 0 -169.339 34.6709 -210.006 104.004c-31.333 54 -38.333 112.333 -21 175s50 106.334 98 131.001c22.667 11.333 47.334 17 74.001 17c70.667 0 119 -27.333 145 -82c11.333 -24 17 -47 17 -69s-4 -43 -12 -63c-17.333 -46 -45.666 -69 -84.999 -69
c-12 0 -20.667 4.66699 -26 14l-2 5c28.667 0 51 20.333 67 61c8 20 12 40.167 12 60.5s-4.33301 41.166 -13 62.499c-16.667 40.667 -51.667 61 -105 61s-95.666 -26 -126.999 -78c-20.667 -34.667 -31 -71.334 -31 -110.001c0 -16 1.66699 -32.667 5 -50
c14 -62.667 50 -105.334 108 -128.001c26 -10 58.333 -15 97 -15s74.834 8.83301 108.501 26.5s61 42.167 82 73.5s38.833 66 53.5 104s26.834 80.667 36.501 128s17.834 92 24.501 134c18.667 119.333 35.667 201.666 51 246.999c-62 4.66699 -94.333 7 -97 7
c-94.667 0 -161 -31 -199 -93c-17.333 -28 -26 -56.667 -26 -86c0 -14 2 -28 6 -42c12 -40 34 -60 66 -60c0 -5.33301 -2.66699 -10.333 -8 -15s-12 -7 -20 -7c-38 0 -65 19.667 -81 59c-7.33301 19.333 -11 40.333 -11 63s6.66699 48 20 76
c29.333 63.333 83 103.666 161 120.999c24.667 5.33301 47.167 8 67.5 8s63.5 -3 129.5 -9c30 76 73 114 129 114c4.66699 0 8.83398 -1.5 12.501 -4.5s6.5 -7.16699 8.5 -12.5c-48.667 0 -83.334 -33.333 -104.001 -100h20c68.667 0 116.667 21.667 144 65
c10.667 16.667 16 31 16 43c0 31.333 -11 47 -33 47c4 12 11.667 18 23 18c19.333 0 32.333 -12 39 -36c2 -8.66699 3 -17 3 -25c0 -24 -9.33301 -47.667 -28 -71c-35.333 -42.667 -90.333 -64 -165 -64h-25c-12 -46.667 -21 -103.5 -27 -170.5s-12.5 -122.333 -19.5 -166
s-15 -83.834 -24 -120.501s-22.333 -72.667 -40 -108s-38.5 -65.166 -62.5 -89.499s-55 -44 -93 -59s-81 -22.5 -129 -22.5z" />
    <glyph glyph-name="Iacute" unicode="&#xcd;" horiz-adv-x="648" 
d="M810 987c-20 -24.667 -42.5 -48.666 -67.5 -71.999s-41 -35 -48 -35s-10.5 3.66699 -10.5 11s7.83301 23.166 23.5 47.499s34.5 48.833 56.5 73.5c8 10 15.667 15 23 15s14.333 -1.5 21 -4.5s10 -7.66699 10 -14s-2.66699 -13.5 -8 -21.5zM244 -112.999
c-99.333 0 -169.339 34.6709 -210.006 104.004c-31.333 54 -38.333 112.333 -21 175s50 106.334 98 131.001c22.667 11.333 47.334 17 74.001 17c70.667 0 119 -27.333 145 -82c11.333 -24 17 -47 17 -69s-4 -43 -12 -63c-17.333 -46 -45.666 -69 -84.999 -69
c-12 0 -20.667 4.66699 -26 14l-2 5c28.667 0 51 20.333 67 61c8 20 12 40.167 12 60.5s-4.33301 41.166 -13 62.499c-16.667 40.667 -51.667 61 -105 61s-95.666 -26 -126.999 -78c-20.667 -34.667 -31 -71.334 -31 -110.001c0 -16 1.66699 -32.667 5 -50
c14 -62.667 50 -105.334 108 -128.001c26 -10 58.333 -15 97 -15s74.834 8.83301 108.501 26.5s61 42.167 82 73.5s38.833 66 53.5 104s26.834 80.667 36.501 128s17.834 92 24.501 134c18.667 119.333 35.667 201.666 51 246.999c-62 4.66699 -94.333 7 -97 7
c-94.667 0 -161 -31 -199 -93c-17.333 -28 -26 -56.667 -26 -86c0 -14 2 -28 6 -42c12 -40 34 -60 66 -60c0 -5.33301 -2.66699 -10.333 -8 -15s-12 -7 -20 -7c-38 0 -65 19.667 -81 59c-7.33301 19.333 -11 40.333 -11 63s6.66699 48 20 76
c29.333 63.333 83 103.666 161 120.999c24.667 5.33301 47.167 8 67.5 8s63.5 -3 129.5 -9c30 76 73 114 129 114c4.66699 0 8.83398 -1.5 12.501 -4.5s6.5 -7.16699 8.5 -12.5c-48.667 0 -83.334 -33.333 -104.001 -100h20c68.667 0 116.667 21.667 144 65
c10.667 16.667 16 31 16 43c0 31.333 -11 47 -33 47c4 12 11.667 18 23 18c19.333 0 32.333 -12 39 -36c2 -8.66699 3 -17 3 -25c0 -24 -9.33301 -47.667 -28 -71c-35.333 -42.667 -90.333 -64 -165 -64h-25c-12 -46.667 -21 -103.5 -27 -170.5s-12.5 -122.333 -19.5 -166
s-15 -83.834 -24 -120.501s-22.333 -72.667 -40 -108s-38.5 -65.166 -62.5 -89.499s-55 -44 -93 -59s-81 -22.5 -129 -22.5z" />
    <glyph glyph-name="Icircumflex" unicode="&#xce;" horiz-adv-x="648" 
d="M723.5 984c4.33301 0 7.50098 -2.33301 9.50098 -7l50 -99h-24l-38 64l-109 -64h-25l105.5 86.5c16.333 13 26.666 19.5 30.999 19.5zM244.001 -113c-99.333 0 -169.339 34.6709 -210.006 104.004c-31.333 54 -38.333 112.333 -21 175s50 106.334 98 131.001
c22.667 11.333 47.334 17 74.001 17c70.667 0 119 -27.333 145 -82c11.333 -24 17 -47 17 -69s-4 -43 -12 -63c-17.333 -46 -45.666 -69 -84.999 -69c-12 0 -20.667 4.66699 -26 14l-2 5c28.667 0 51 20.333 67 61c8 20 12 40.167 12 60.5s-4.33301 41.166 -13 62.499
c-16.667 40.667 -51.667 61 -105 61s-95.666 -26 -126.999 -78c-20.667 -34.667 -31 -71.334 -31 -110.001c0 -16 1.66699 -32.667 5 -50c14 -62.667 50 -105.334 108 -128.001c26 -10 58.333 -15 97 -15s74.834 8.83301 108.501 26.5s61 42.167 82 73.5s38.833 66 53.5 104
s26.834 80.667 36.501 128s17.834 92 24.501 134c18.667 119.333 35.667 201.666 51 246.999c-62 4.66699 -94.333 7 -97 7c-94.667 0 -161 -31 -199 -93c-17.333 -28 -26 -56.667 -26 -86c0 -14 2 -28 6 -42c12 -40 34 -60 66 -60c0 -5.33301 -2.66699 -10.333 -8 -15
s-12 -7 -20 -7c-38 0 -65 19.667 -81 59c-7.33301 19.333 -11 40.333 -11 63s6.66699 48 20 76c29.333 63.333 83 103.666 161 120.999c24.667 5.33301 47.167 8 67.5 8s63.5 -3 129.5 -9c30 76 73 114 129 114c4.66699 0 8.83398 -1.5 12.501 -4.5s6.5 -7.16699 8.5 -12.5
c-48.667 0 -83.334 -33.333 -104.001 -100h20c68.667 0 116.667 21.667 144 65c10.667 16.667 16 31 16 43c0 31.333 -11 47 -33 47c4 12 11.667 18 23 18c19.333 0 32.333 -12 39 -36c2 -8.66699 3 -17 3 -25c0 -24 -9.33301 -47.667 -28 -71
c-35.333 -42.667 -90.333 -64 -165 -64h-25c-12 -46.667 -21 -103.5 -27 -170.5s-12.5 -122.333 -19.5 -166s-15 -83.834 -24 -120.501s-22.333 -72.667 -40 -108s-38.5 -65.166 -62.5 -89.499s-55 -44 -93 -59s-81 -22.5 -129 -22.5z" />
    <glyph glyph-name="Idieresis" unicode="&#xcf;" horiz-adv-x="648" 
d="M645 969c15.333 0 22.998 -10.332 22.998 -30.999s-10 -37.334 -30 -50.001c-10 -6.66699 -18.667 -10 -26 -10c-10.667 0 -17 3.33301 -19 10l-1 3c6 0 10.333 6.5 13 19.5s6.83398 26 12.501 39s14.834 19.5 27.501 19.5zM770.998 969.001
c15.333 0 22.998 -10.332 22.998 -30.999s-10 -37.334 -30 -50.001c-10 -6.66699 -18.667 -10 -26 -10c-10.667 0 -17 3.33301 -19 10l-1 3c6 0 10.333 6.5 13 19.5s6.83398 26 12.501 39s14.834 19.5 27.501 19.5zM243.996 -112.998
c-99.333 0 -169.339 34.6709 -210.006 104.004c-31.333 54 -38.333 112.333 -21 175s50 106.334 98 131.001c22.667 11.333 47.334 17 74.001 17c70.667 0 119 -27.333 145 -82c11.333 -24 17 -47 17 -69s-4 -43 -12 -63c-17.333 -46 -45.666 -69 -84.999 -69
c-12 0 -20.667 4.66699 -26 14l-2 5c28.667 0 51 20.333 67 61c8 20 12 40.167 12 60.5s-4.33301 41.166 -13 62.499c-16.667 40.667 -51.667 61 -105 61s-95.666 -26 -126.999 -78c-20.667 -34.667 -31 -71.334 -31 -110.001c0 -16 1.66699 -32.667 5 -50
c14 -62.667 50 -105.334 108 -128.001c26 -10 58.333 -15 97 -15s74.834 8.83301 108.501 26.5s61 42.167 82 73.5s38.833 66 53.5 104s26.834 80.667 36.501 128s17.834 92 24.501 134c18.667 119.333 35.667 201.666 51 246.999c-62 4.66699 -94.333 7 -97 7
c-94.667 0 -161 -31 -199 -93c-17.333 -28 -26 -56.667 -26 -86c0 -14 2 -28 6 -42c12 -40 34 -60 66 -60c0 -5.33301 -2.66699 -10.333 -8 -15s-12 -7 -20 -7c-38 0 -65 19.667 -81 59c-7.33301 19.333 -11 40.333 -11 63s6.66699 48 20 76
c29.333 63.333 83 103.666 161 120.999c24.667 5.33301 47.167 8 67.5 8s63.5 -3 129.5 -9c30 76 73 114 129 114c4.66699 0 8.83398 -1.5 12.501 -4.5s6.5 -7.16699 8.5 -12.5c-48.667 0 -83.334 -33.333 -104.001 -100h20c68.667 0 116.667 21.667 144 65
c10.667 16.667 16 31 16 43c0 31.333 -11 47 -33 47c4 12 11.667 18 23 18c19.333 0 32.333 -12 39 -36c2 -8.66699 3 -17 3 -25c0 -24 -9.33301 -47.667 -28 -71c-35.333 -42.667 -90.333 -64 -165 -64h-25c-12 -46.667 -21 -103.5 -27 -170.5s-12.5 -122.333 -19.5 -166
s-15 -83.834 -24 -120.501s-22.333 -72.667 -40 -108s-38.5 -65.166 -62.5 -89.499s-55 -44 -93 -59s-81 -22.5 -129 -22.5z" />
    <glyph glyph-name="Eth" unicode="&#xd0;" horiz-adv-x="830" 
d="M-13 91c7.33301 0 14.8311 -0.5 22.498 -1.5l19.5 -2.5c5.33301 -0.666992 12.666 -2.5 21.999 -5.5s15.833 -5 19.5 -6s11 -3.66699 22 -8s17.5 -7 19.5 -8s9.5 -4.16699 22.5 -9.5s19.833 -8.33301 20.5 -9c32.667 37.333 60.334 95.333 83.001 174
c-99.333 6.66699 -170.666 46.667 -213.999 120c-23.333 40.667 -35 84.667 -35 132c0 27.333 3.66699 55.666 11 84.999c22.667 83.333 69.667 148.666 141 195.999c62 40.667 134.667 61 218 61c58.667 0 111.167 -9.66699 157.5 -29s83.333 -45.166 111 -77.499
s49.834 -69.5 66.501 -111.5c17.333 -44 26 -89.667 26 -137s-3.83301 -93.5 -11.5 -138.5s-22.334 -88.5 -44.001 -130.5s-46.5 -79.167 -74.5 -111.5s-61.833 -58.166 -101.5 -77.499s-84.5 -29 -134.5 -29s-105 11.667 -165 35c-38 -28.667 -84 -43 -138 -43
c-71.333 0 -116.666 16.667 -135.999 50c-4.66699 8.66699 -7 18.167 -7 28.5s6.66699 21.833 20 34.5s33 19 59 19zM143.998 454c-8 0 -11.668 2.99609 -11.001 8.99609c1.33301 10.667 12 17.667 32 21l18 1c32.667 0 70.667 -1 114 -3c16 76.667 35 135.667 57 177
s51.667 62 89 62c9.33301 0 15.666 -4.33301 18.999 -13l1 -4c-35.333 0 -61 -22 -77 -66c-14 -36.667 -26 -89.334 -36 -158.001c72 -2.66699 119.667 -4 143 -4c7.33301 0 10.666 -2 9.99902 -6c-2.66699 -9.33301 -16.667 -14 -42 -14
c-47.333 0 -85.333 -0.333008 -114 -1c-16.667 -114.667 -28 -186.334 -34 -215.001c46.667 6.66699 85.834 24.334 117.501 53.001s53.834 63.334 66.501 104.001c0.666992 3.33301 2.83398 5.33301 6.50098 6s6.66699 0 9 -2s3.16602 -5 2.49902 -9
c-14.667 -45.333 -39.667 -84 -75 -116s-79.666 -51.667 -132.999 -59c-21.333 -90 -53.666 -156 -96.999 -198c50 -17.333 96.333 -26 139 -26s80 9 112 27s59.667 42.333 83 73s44.333 65.834 63 105.501s31.667 81.334 39 125.001s11 87.334 11 131.001
s-6.83301 85.334 -20.5 125.001s-32.167 74.834 -55.5 105.501s-55 55 -95 73s-85.667 27 -137 27c-109.333 0 -193 -38.667 -251 -116c-40.667 -53.333 -61 -113.333 -61 -180c0 -90.667 31 -159.334 93 -206.001c33.333 -24.667 71.666 -39.334 114.999 -44.001
c8.66699 34.667 24 106.334 46 215.001h-147zM-62.0029 29.9961c0 -12.667 9 -23.167 27 -31.5s43.667 -12.5 77 -12.5s65 12.333 95 37c-66.667 28.667 -114.5 43 -143.5 43s-46.833 -8.33301 -53.5 -25c-1.33301 -4 -2 -7.66699 -2 -11z" />
    <glyph glyph-name="Ntilde" unicode="&#xd1;" horiz-adv-x="1104" 
d="M1000 953c-16.667 0 -33.002 -14 -49.002 -42h-23c1.33301 4 5.5 11.167 12.5 21.5s13.833 18.833 20.5 25.5c17.333 16 37.666 24 60.999 24c12.667 0 28.334 -6.5 47.001 -19.5s33.5 -19.5 44.5 -19.5s20.5 3 28.5 9s15.333 15 22 27h22
c-2 -5.33301 -5.16699 -12 -9.5 -20s-14.166 -18.5 -29.499 -31.5s-31.166 -19.5 -47.499 -19.5s-34.5 7.5 -54.5 22.5s-35 22.5 -45 22.5zM276.998 645c42.667 103.333 132.003 155.007 268.003 155.007c47.333 0 117 -15.333 209 -46c30.667 42.667 65.667 64 105 64
c5.33301 0 9.33301 -1.66699 12 -5s4.33398 -8 5.00098 -14c-36.667 0 -69 -17.333 -97 -52c21.333 -5.33301 42.666 -9.33301 63.999 -12c22.667 46 45.667 69 69 69c10.667 0 17 -3.33301 19 -10l1 -4c-16 0 -31 -19 -45 -57c38.667 0.666992 65 16 79 46
c4.66699 9.33301 7 18.166 7 26.499s-2.83301 15.333 -8.5 21s-12.167 8.5 -19.5 8.5c3.33301 10 10.333 15 21 15c19.333 0 32 -11.333 38 -34c2 -6.66699 3 -13.334 3 -20.001c0 -20 -9.66699 -39.5 -29 -58.5s-48.333 -28.5 -87 -28.5h-12
c-19.333 -63.333 -32.833 -139.5 -40.5 -228.5s-11.5 -163.167 -11.5 -222.5c0 -150 13.333 -225 40 -225c11.333 0 25.333 27 42 81s35.5 119.333 56.5 196s44.333 153.5 70 230.5s57.5 142.5 95.5 196.5s78.667 81 122 81c9.33301 0 17.166 -2.33301 23.499 -7
s10.833 -12 13.5 -22c-49.333 0 -94.166 -27.833 -134.499 -83.5s-73.5 -123.5 -99.5 -203.5s-49.833 -159.833 -71.5 -239.5s-43.334 -147.334 -65.001 -203.001s-43.167 -83.5 -64.5 -83.5c-33.333 0 -58 27.333 -74 82s-24 117.334 -24 188.001
c0 81.333 7.16699 166.166 21.5 254.499s32.5 159.166 54.5 212.499c-24 4 -46.667 9 -68 15c-37.333 -57.333 -73 -163.333 -107 -318c-13.333 -60.667 -31.333 -124 -54 -190s-47.834 -124 -75.501 -174s-65.667 -91.333 -114 -124s-104.5 -49 -168.5 -49
c-98 0 -169.333 35 -214 105c-24.667 39.333 -37 81.666 -37 126.999c0 18.667 2 37.667 6 57c14 64.667 45.667 110.667 95 138c26 14.667 55 22 87 22c68.667 0 115 -26.667 139 -80c10 -22 15 -44.5 15 -67.5s-4.66699 -46.167 -14 -69.5
c-22.667 -56 -59.667 -84 -111 -84c-8 0 -14.667 1.83301 -20 5.5s-9.33301 9.16699 -12 16.5c18 0 35 4.66699 51 14c26.667 16 47.334 45 62.001 87c4.66699 14 7 25.5 7 34.5s-0.666992 19.333 -2 31s-5.66602 25.167 -12.999 40.5s-20 27.666 -38 36.999
s-39.333 14 -64 14c-63.333 0 -110 -28 -140 -84c-17.333 -32 -26 -62.333 -26 -91s3 -54.334 9 -77.001c17.333 -63.333 53.666 -107 108.999 -131c26 -11.333 54.667 -17 86 -17c57.333 0 108.666 15.667 153.999 47s82 70.833 110 118.5s54.5 103.5 79.5 167.5
s45.167 125.333 60.5 184c40 148.667 79 254.334 117 317.001c-3.33301 0.666992 -12.166 3.33398 -26.499 8.00098s-24 7.66699 -29 9l-27 7c-13 3.33301 -23.167 5.66602 -30.5 6.99902l-28 5c-20 3.33301 -42 5 -66 5c-86.667 0 -150.667 -32.667 -192 -98
c-24 -36.667 -36 -74.667 -36 -114c0 -11.333 1.33301 -23 4 -35c7.33301 -43.333 26.666 -69.333 57.999 -78c6 -2 12.333 -3 19 -3c-4 -14.667 -15 -22 -33 -22c-40.667 0 -69.334 21.667 -86.001 65c-8 20.667 -12 43.667 -12 69s6.66699 53.666 20 84.999z" />
    <glyph glyph-name="Ograve" unicode="&#xd2;" horiz-adv-x="686" 
d="M461 1007c24 -22 46.833 -46.1689 68.5 -72.502s32.5 -42.666 32.5 -48.999s-3.5 -9.5 -10.5 -9.5s-22.167 8.33301 -45.5 25s-47.333 37 -72 61c-9.33301 9.33301 -14 17.333 -14 24s2 13.334 6 20.001s9.16699 10 15.5 10s12.833 -3 19.5 -9zM339 339.998
c0 -99.333 27.668 -148.998 83.001 -148.998c-2 -12.667 -13 -19 -33 -19c-48 0 -80.333 30.333 -97 91c-6.66699 26 -10 56.833 -10 92.5s7.66699 78.5 23 128.5c28 90 71.667 153 131 189c29.333 18 60.666 27 93.999 27c64 0 103 -38.333 117 -115
c4 -21.333 6 -43.666 6 -66.999c0 -66 -15.667 -141.667 -47 -227c-42.667 -118 -99.334 -209 -170.001 -273c-51.333 -47.333 -103.333 -71 -156 -71c-98 0 -165.667 45.333 -203 136c-19.333 46 -29 95.167 -29 147.5s6.66699 106.166 20 161.499
c29.333 122 82 223.5 158 304.5s161 121.5 255 121.5c5.33301 0 9.66602 -1.66699 12.999 -5s5.33301 -8.66602 6 -15.999c-92 0 -174.667 -51.667 -248 -155c-64.667 -91.333 -107 -197.666 -127 -318.999c-6.66699 -40.667 -10 -78.334 -10 -113.001
c0 -67.333 13.667 -124 41 -170s69 -69 125 -69c74.667 0 145.334 50.667 212.001 152c58.667 89.333 98.667 190 120 302c8 41.333 12 77.666 12 108.999c0 49.333 -9.66699 86.666 -29 111.999c-15.333 18 -34.333 27 -57 27c-59.333 0 -108.666 -40.333 -147.999 -121
c-34.667 -70.667 -52 -141.334 -52 -212.001z" />
    <glyph glyph-name="Oacute" unicode="&#xd3;" horiz-adv-x="686" 
d="M648 987c-20 -24.667 -42.5 -48.666 -67.5 -71.999s-41 -35 -48 -35s-10.5 3.66699 -10.5 11s7.83301 23.166 23.5 47.499s34.5 48.833 56.5 73.5c8 10 15.667 15 23 15s14.333 -1.5 21 -4.5s10 -7.66699 10 -14s-2.66699 -13.5 -8 -21.5zM339 340.001
c0 -99.333 27.668 -148.998 83.001 -148.998c-2 -12.667 -13 -19 -33 -19c-48 0 -80.333 30.333 -97 91c-6.66699 26 -10 56.833 -10 92.5s7.66699 78.5 23 128.5c28 90 71.667 153 131 189c29.333 18 60.666 27 93.999 27c64 0 103 -38.333 117 -115
c4 -21.333 6 -43.666 6 -66.999c0 -66 -15.667 -141.667 -47 -227c-42.667 -118 -99.334 -209 -170.001 -273c-51.333 -47.333 -103.333 -71 -156 -71c-98 0 -165.667 45.333 -203 136c-19.333 46 -29 95.167 -29 147.5s6.66699 106.166 20 161.499
c29.333 122 82 223.5 158 304.5s161 121.5 255 121.5c5.33301 0 9.66602 -1.66699 12.999 -5s5.33301 -8.66602 6 -15.999c-92 0 -174.667 -51.667 -248 -155c-64.667 -91.333 -107 -197.666 -127 -318.999c-6.66699 -40.667 -10 -78.334 -10 -113.001
c0 -67.333 13.667 -124 41 -170s69 -69 125 -69c74.667 0 145.334 50.667 212.001 152c58.667 89.333 98.667 190 120 302c8 41.333 12 77.666 12 108.999c0 49.333 -9.66699 86.666 -29 111.999c-15.333 18 -34.333 27 -57 27c-59.333 0 -108.666 -40.333 -147.999 -121
c-34.667 -70.667 -52 -141.334 -52 -212.001z" />
    <glyph glyph-name="Ocircumflex" unicode="&#xd4;" horiz-adv-x="686" 
d="M561.5 984c4.33301 0 7.50098 -2.33301 9.50098 -7l50 -99h-24l-38 64l-109 -64h-25l105.5 86.5c16.333 13 26.666 19.5 30.999 19.5zM339.001 340c0 -99.333 27.668 -148.998 83.001 -148.998c-2 -12.667 -13 -19 -33 -19c-48 0 -80.333 30.333 -97 91
c-6.66699 26 -10 56.833 -10 92.5s7.66699 78.5 23 128.5c28 90 71.667 153 131 189c29.333 18 60.666 27 93.999 27c64 0 103 -38.333 117 -115c4 -21.333 6 -43.666 6 -66.999c0 -66 -15.667 -141.667 -47 -227c-42.667 -118 -99.334 -209 -170.001 -273
c-51.333 -47.333 -103.333 -71 -156 -71c-98 0 -165.667 45.333 -203 136c-19.333 46 -29 95.167 -29 147.5s6.66699 106.166 20 161.499c29.333 122 82 223.5 158 304.5s161 121.5 255 121.5c5.33301 0 9.66602 -1.66699 12.999 -5s5.33301 -8.66602 6 -15.999
c-92 0 -174.667 -51.667 -248 -155c-64.667 -91.333 -107 -197.666 -127 -318.999c-6.66699 -40.667 -10 -78.334 -10 -113.001c0 -67.333 13.667 -124 41 -170s69 -69 125 -69c74.667 0 145.334 50.667 212.001 152c58.667 89.333 98.667 190 120 302
c8 41.333 12 77.666 12 108.999c0 49.333 -9.66699 86.666 -29 111.999c-15.333 18 -34.333 27 -57 27c-59.333 0 -108.666 -40.333 -147.999 -121c-34.667 -70.667 -52 -141.334 -52 -212.001z" />
    <glyph glyph-name="Otilde" unicode="&#xd5;" horiz-adv-x="686" 
d="M476 920c-16.667 0 -33.002 -14 -49.002 -42h-23c1.33301 4 5.5 11.167 12.5 21.5s13.833 18.5 20.5 24.5c17.333 16.667 37.666 25 60.999 25c12.667 0 28.334 -6.5 47.001 -19.5s33.5 -19.5 44.5 -19.5s20.5 3 28.5 9s15.333 15 22 27h22
c-2 -5.33301 -5.16699 -12 -9.5 -20s-14.166 -18.5 -29.499 -31.5s-31.166 -19.5 -47.499 -19.5s-34.5 7.5 -54.5 22.5s-35 22.5 -45 22.5zM338.998 340c0 -99.333 27.668 -148.998 83.001 -148.998c-2 -12.667 -13 -19 -33 -19c-48 0 -80.333 30.333 -97 91
c-6.66699 26 -10 56.833 -10 92.5s7.66699 78.5 23 128.5c28 90 71.667 153 131 189c29.333 18 60.666 27 93.999 27c64 0 103 -38.333 117 -115c4 -21.333 6 -43.666 6 -66.999c0 -66 -15.667 -141.667 -47 -227c-42.667 -118 -99.334 -209 -170.001 -273
c-51.333 -47.333 -103.333 -71 -156 -71c-98 0 -165.667 45.333 -203 136c-19.333 46 -29 95.167 -29 147.5s6.66699 106.166 20 161.499c29.333 122 82 223.5 158 304.5s161 121.5 255 121.5c5.33301 0 9.66602 -1.66699 12.999 -5s5.33301 -8.66602 6 -15.999
c-92 0 -174.667 -51.667 -248 -155c-64.667 -91.333 -107 -197.666 -127 -318.999c-6.66699 -40.667 -10 -78.334 -10 -113.001c0 -67.333 13.667 -124 41 -170s69 -69 125 -69c74.667 0 145.334 50.667 212.001 152c58.667 89.333 98.667 190 120 302
c8 41.333 12 77.666 12 108.999c0 49.333 -9.66699 86.666 -29 111.999c-15.333 18 -34.333 27 -57 27c-59.333 0 -108.666 -40.333 -147.999 -121c-34.667 -70.667 -52 -141.334 -52 -212.001z" />
    <glyph glyph-name="Odieresis" unicode="&#xd6;" horiz-adv-x="686" 
d="M435 969c15.333 0 22.998 -10.332 22.998 -30.999s-10 -37.334 -30 -50.001c-10 -6.66699 -18.667 -10 -26 -10c-10.667 0 -17 3.33301 -19 10l-1 3c6 0 10.333 6.5 13 19.5s6.83398 26 12.501 39s14.834 19.5 27.501 19.5zM560.998 969.001
c15.333 0 22.998 -10.332 22.998 -30.999s-10 -37.334 -30 -50.001c-10 -6.66699 -18.667 -10 -26 -10c-10.667 0 -17 3.33301 -19 10l-1 3c6 0 10.333 6.5 13 19.5s6.83398 26 12.501 39s14.834 19.5 27.501 19.5zM338.996 340.002
c0 -99.333 27.668 -148.998 83.001 -148.998c-2 -12.667 -13 -19 -33 -19c-48 0 -80.333 30.333 -97 91c-6.66699 26 -10 56.833 -10 92.5s7.66699 78.5 23 128.5c28 90 71.667 153 131 189c29.333 18 60.666 27 93.999 27c64 0 103 -38.333 117 -115
c4 -21.333 6 -43.666 6 -66.999c0 -66 -15.667 -141.667 -47 -227c-42.667 -118 -99.334 -209 -170.001 -273c-51.333 -47.333 -103.333 -71 -156 -71c-98 0 -165.667 45.333 -203 136c-19.333 46 -29 95.167 -29 147.5s6.66699 106.166 20 161.499
c29.333 122 82 223.5 158 304.5s161 121.5 255 121.5c5.33301 0 9.66602 -1.66699 12.999 -5s5.33301 -8.66602 6 -15.999c-92 0 -174.667 -51.667 -248 -155c-64.667 -91.333 -107 -197.666 -127 -318.999c-6.66699 -40.667 -10 -78.334 -10 -113.001
c0 -67.333 13.667 -124 41 -170s69 -69 125 -69c74.667 0 145.334 50.667 212.001 152c58.667 89.333 98.667 190 120 302c8 41.333 12 77.666 12 108.999c0 49.333 -9.66699 86.666 -29 111.999c-15.333 18 -34.333 27 -57 27c-59.333 0 -108.666 -40.333 -147.999 -121
c-34.667 -70.667 -52 -141.334 -52 -212.001z" />
    <glyph glyph-name="multiply" unicode="&#xd7;" horiz-adv-x="539" 
d="M66 3c-3.33301 -3.33301 -6.49805 -5.00098 -9.49805 -5.00098s-4.5 3.5 -4.5 10.5s6 17.5 18 31.5l151 180l-110 187c-4.66699 8 -3.33398 12.667 3.99902 14c1.33301 0.666992 3 1 5 1c12 0 25.333 -12.333 40 -37s40.667 -72.667 78 -144l152 180
c3.33301 4 6.33301 6 9 6s5 -1.66699 7 -5s3 -8.5 3 -15.5s-9.16699 -21.5 -27.5 -43.5l-129.5 -148c41.333 -77.333 71.666 -132.666 90.999 -165.999c5.33301 -8 4.66602 -12 -2.00098 -12c-9.33301 0 -19.666 10 -30.999 30l-75 129c-88 -98.667 -144.333 -163 -169 -193
z" />
    <glyph glyph-name="Oslash" unicode="&#xd8;" horiz-adv-x="686" 
d="M489 697c75.333 -16 113.006 -80.6699 113.006 -194.003c0 -80.667 -23 -173 -69 -277s-104.667 -181.667 -176 -233c-39.333 -28 -78.333 -43 -117 -45c-16.667 -50 -26.834 -81.167 -30.501 -93.5s-6.83398 -18.5 -9.50098 -18.5s-5.83398 1.16699 -9.50098 3.5
s-5.5 7.33301 -5.5 15s1.33301 15.834 4 24.501l21 69c-92 6.66699 -154.333 55.667 -187 147c-16 44 -24 92 -24 144s8 108.333 24 169c32 122 85.667 220.667 161 296s157.666 113.333 246.999 114c5.33301 0 9.66602 -1.66699 12.999 -5s5.33301 -8.66602 6 -15.999
c-92 0 -174.667 -51.667 -248 -155c-64.667 -91.333 -107 -197.666 -127 -318.999c-6 -40.667 -9 -78 -9 -112c0 -67.333 13 -123 39 -167s63.667 -68 113 -72l180 557c88 271.333 132.667 409.333 134 414s3.66602 7 6.99902 7c15.333 0 23 -8.66699 23 -26
c0 -8 -1.66699 -16.667 -5 -26zM485.006 214.497c25.333 63.667 42.666 119.833 51.999 168.5s14 87 14 115s-2.66699 53.333 -8 76c-11.333 48 -33.666 76 -66.999 84l-228 -685c46.667 5.33301 91.5 31 134.5 77s77.167 100.833 102.5 164.5z" />
    <glyph glyph-name="Ugrave" unicode="&#xd9;" horiz-adv-x="664" 
d="M429 783c24 -22 46.833 -46.1689 68.5 -72.502s32.5 -42.666 32.5 -48.999s-3.5 -9.5 -10.5 -9.5s-22.167 8.33301 -45.5 25s-47.333 37 -72 61c-9.33301 9.33301 -14 17.333 -14 24s2 13.334 6 20.001s9.16699 10 15.5 10s12.833 -3 19.5 -9zM580 492.998
c22.667 0 34.0049 -13.666 34.0049 -40.999c0 -16.667 -4 -38.334 -12 -65.001c-20.667 -65.333 -57.334 -136.666 -110.001 -213.999c-0.666992 -11.333 -1 -22.333 -1 -33c0 -55.333 5.66699 -102.666 17 -141.999c14 -46 37 -69 69 -69
c-3.33301 -13.333 -12.666 -20 -27.999 -20c-34.667 0 -61.667 17.167 -81 51.5s-31 79.166 -35 134.499c-66.667 -78 -123.334 -117 -170.001 -117c-82.667 0 -124 44.667 -124 134c0 37.333 7.83301 80.5 23.5 129.5s33.167 93.667 52.5 134s36.833 85.666 52.5 135.999
s23.5 96.833 23.5 139.5s-12.333 77 -37 103s-58.667 39 -102 39c-66.667 0 -121 -34 -163 -102c-32.667 -54 -49 -111 -49 -171c0 -76 22.333 -124.333 67 -145c13.333 -6 27.666 -9 42.999 -9c51.333 0 90.333 28.667 117 86c1.33301 2.66699 3.5 4.16699 6.5 4.5
s5.66699 -0.5 8 -2.5s2.83301 -4.33301 1.5 -7c-12.667 -31.333 -30.334 -56.5 -53.001 -75.5s-49.334 -28.5 -80.001 -28.5c-60 0 -100.667 30.333 -122 91c-8.66699 26 -13 55.333 -13 88s7 69.334 21 110.001c26 76.667 67.667 130.667 125 162
c28.667 15.333 59 23 91 23c61.333 0 108.333 -20.833 141 -62.5s49 -96.834 49 -165.501c0 -40 -7.16699 -85.167 -21.5 -135.5s-30.5 -95.5 -48.5 -135.5c-46 -104 -69 -182.5 -69 -235.5s19.667 -79.5 59 -79.5c45.333 0 101.666 43.667 168.999 131v9
c0 52.667 6 105.667 18 159s29.667 98.5 53 135.5s49.333 55.5 78 55.5zM495.005 227.999c61.333 100.667 92 172.333 92 215c0 12 -4 18 -12 18c-17.333 0 -33.5 -22.833 -48.5 -68.5s-25.5 -100.5 -31.5 -164.5z" />
    <glyph glyph-name="Uacute" unicode="&#xda;" horiz-adv-x="664" 
d="M573 753c-20 -24.667 -42.5 -48.666 -67.5 -71.999s-41 -35 -48 -35s-10.5 3.66699 -10.5 11s7.83301 23.166 23.5 47.499s34.5 48.833 56.5 73.5c8 10 15.667 15 23 15s14.333 -1.5 21 -4.5s10 -7.66699 10 -14s-2.66699 -13.5 -8 -21.5zM580 493.001
c22.667 0 34.0049 -13.666 34.0049 -40.999c0 -16.667 -4 -38.334 -12 -65.001c-20.667 -65.333 -57.334 -136.666 -110.001 -213.999c-0.666992 -11.333 -1 -22.333 -1 -33c0 -55.333 5.66699 -102.666 17 -141.999c14 -46 37 -69 69 -69
c-3.33301 -13.333 -12.666 -20 -27.999 -20c-34.667 0 -61.667 17.167 -81 51.5s-31 79.166 -35 134.499c-66.667 -78 -123.334 -117 -170.001 -117c-82.667 0 -124 44.667 -124 134c0 37.333 7.83301 80.5 23.5 129.5s33.167 93.667 52.5 134s36.833 85.666 52.5 135.999
s23.5 96.833 23.5 139.5s-12.333 77 -37 103s-58.667 39 -102 39c-66.667 0 -121 -34 -163 -102c-32.667 -54 -49 -111 -49 -171c0 -76 22.333 -124.333 67 -145c13.333 -6 27.666 -9 42.999 -9c51.333 0 90.333 28.667 117 86c1.33301 2.66699 3.5 4.16699 6.5 4.5
s5.66699 -0.5 8 -2.5s2.83301 -4.33301 1.5 -7c-12.667 -31.333 -30.334 -56.5 -53.001 -75.5s-49.334 -28.5 -80.001 -28.5c-60 0 -100.667 30.333 -122 91c-8.66699 26 -13 55.333 -13 88s7 69.334 21 110.001c26 76.667 67.667 130.667 125 162
c28.667 15.333 59 23 91 23c61.333 0 108.333 -20.833 141 -62.5s49 -96.834 49 -165.501c0 -40 -7.16699 -85.167 -21.5 -135.5s-30.5 -95.5 -48.5 -135.5c-46 -104 -69 -182.5 -69 -235.5s19.667 -79.5 59 -79.5c45.333 0 101.666 43.667 168.999 131v9
c0 52.667 6 105.667 18 159s29.667 98.5 53 135.5s49.333 55.5 78 55.5zM495.005 228.002c61.333 100.667 92 172.333 92 215c0 12 -4 18 -12 18c-17.333 0 -33.5 -22.833 -48.5 -68.5s-25.5 -100.5 -31.5 -164.5z" />
    <glyph glyph-name="Ucircumflex" unicode="&#xdb;" horiz-adv-x="664" 
d="M583 691h-24l-38 64l-109 -64h-25l121 99c12 9.33301 20.333 9.33301 25 0zM580 493c22.667 0 34.0049 -13.666 34.0049 -40.999c0 -16.667 -4 -38.334 -12 -65.001c-20.667 -65.333 -57.334 -136.666 -110.001 -213.999c-0.666992 -11.333 -1 -22.333 -1 -33
c0 -55.333 5.66699 -102.666 17 -141.999c14 -46 37 -69 69 -69c-3.33301 -13.333 -12.666 -20 -27.999 -20c-34.667 0 -61.667 17.167 -81 51.5s-31 79.166 -35 134.499c-66.667 -78 -123.334 -117 -170.001 -117c-82.667 0 -124 44.667 -124 134
c0 37.333 7.83301 80.5 23.5 129.5s33.167 93.667 52.5 134s36.833 85.666 52.5 135.999s23.5 96.833 23.5 139.5s-12.333 77 -37 103s-58.667 39 -102 39c-66.667 0 -121 -34 -163 -102c-32.667 -54 -49 -111 -49 -171c0 -76 22.333 -124.333 67 -145
c13.333 -6 27.666 -9 42.999 -9c51.333 0 90.333 28.667 117 86c1.33301 2.66699 3.5 4.16699 6.5 4.5s5.66699 -0.5 8 -2.5s2.83301 -4.33301 1.5 -7c-12.667 -31.333 -30.334 -56.5 -53.001 -75.5s-49.334 -28.5 -80.001 -28.5c-60 0 -100.667 30.333 -122 91
c-8.66699 26 -13 55.333 -13 88s7 69.334 21 110.001c26 76.667 67.667 130.667 125 162c28.667 15.333 59 23 91 23c61.333 0 108.333 -20.833 141 -62.5s49 -96.834 49 -165.501c0 -40 -7.16699 -85.167 -21.5 -135.5s-30.5 -95.5 -48.5 -135.5
c-46 -104 -69 -182.5 -69 -235.5s19.667 -79.5 59 -79.5c45.333 0 101.666 43.667 168.999 131v9c0 52.667 6 105.667 18 159s29.667 98.5 53 135.5s49.333 55.5 78 55.5zM495.005 228.001c61.333 100.667 92 172.333 92 215c0 12 -4 18 -12 18
c-17.333 0 -33.5 -22.833 -48.5 -68.5s-25.5 -100.5 -31.5 -164.5z" />
    </font>
</defs>
</svg>
