<?xml version="1.0" standalone="no"?>
<!DOCTYPE svg PUBLIC "-//W3C//DTD SVG 1.1//EN" "http://www.w3.org/Graphics/SVG/1.1/DTD/svg11.dtd" >
<svg>
<metadata>
Created by FontForge 20090914 at Sun Apr  8 10:29:16 2012
 By www-data
Copyright (c) May 20, 2011, Jovanny Lemonad (lemonad@jovanny.ru), with Reserved Font Name "Yeseva" and "Yeseva One". 
</metadata>
<defs>
<font id="YesevaOne-Regular" horiz-adv-x="640" >
  <font-face 
    font-family="Yeseva One"
    font-weight="400"
    font-stretch="normal"
    units-per-em="1000"
    panose-1="2 0 5 5 9 0 0 2 0 4"
    ascent="800"
    descent="-200"
    x-height="500"
    cap-height="700"
    bbox="-120.001 -300 2375 930.001"
    underline-thickness="50"
    underline-position="-50"
    unicode-range="U+0020-U+2122"
  />
<missing-glyph horiz-adv-x="300" 
 />
    <glyph glyph-name=".notdef" horiz-adv-x="300" 
 />
    <glyph glyph-name="space" unicode=" " horiz-adv-x="300" 
 />
    <glyph glyph-name="exclam" unicode="!" horiz-adv-x="340" 
d="M270 600l-80 -385h-40l-80 385c0 34 9.66699 61.667 29 83s43 32 71 32s51.667 -10.667 71 -32s29 -49 29 -83zM170 -10c-23.333 0 -42.5 7.5 -57.5 22.5s-22.5 34.167 -22.5 57.5s7.5 42.5 22.5 57.5s34.167 22.5 57.5 22.5s42.5 -7.5 57.5 -22.5
s22.5 -34.167 22.5 -57.5s-7.5 -42.5 -22.5 -57.5s-34.167 -22.5 -57.5 -22.5z" />
    <glyph glyph-name="quotedbl" unicode="&#x22;" horiz-adv-x="410" 
d="M116 710c20 0 35.667 -6.83301 47 -20.5s17 -31.834 17 -54.501l-40 -210h-50l-40 210c0 22.667 6 40.834 18 54.501s28 20.5 48 20.5zM296 710c20 0 35.667 -6.83301 47 -20.5s17 -31.834 17 -54.501l-40 -210h-50l-40 210c0 22.667 6 40.834 18 54.501s28 20.5 48 20.5
z" />
    <glyph glyph-name="numbersign" unicode="#" horiz-adv-x="695" 
d="M60 505h164l36 195h50l-36 -195h205l36 195h50l-36 -195h146v-40h-154l-43 -230h157v-40h-164l-36 -195h-50l36 195h-205l-36 -195h-50l36 195h-146v40h153l43 230h-156v40zM266 465l-43 -230h205l43 230h-205z" />
    <glyph glyph-name="dollar" unicode="$" horiz-adv-x="675" 
d="M320 -14c-64 6.66699 -115.666 31.334 -154.999 74.001c-8.66699 -15.333 -20.834 -29.166 -36.501 -41.499s-30.167 -18.5 -43.5 -18.5h-20v190h45c20.667 -48 49.5 -90 86.5 -126s78.167 -54 123.5 -54v251l-130 94c-86.667 61.333 -130 124.666 -130 189.999
c0 113.333 86.667 170 260 170v65h35v-68c27.333 -4 52.666 -12 75.999 -24s39.666 -23 48.999 -33l15 -15c8.66699 15.333 20.834 29.166 36.501 41.499s30.167 18.5 43.5 18.5h20v-190h-45c-20 45.333 -47.167 85.833 -81.5 121.5s-72.166 55.167 -113.499 58.5v-252
l130 -93c86.667 -61.333 130 -123 130 -185c0 -114 -86.667 -172.333 -260 -175v-65h-35v66zM257.001 655c-14.667 -17.333 -22 -38.832 -22 -64.499s7 -47.834 21 -66.501s35.333 -39 64 -61v225c-27.333 -4.66699 -48.333 -15.667 -63 -33zM440.001 115.001
c0 24.667 -6.66699 45.5 -20 62.5s-35 36.5 -65 58.5v-223c56.667 10 85 44 85 102z" />
    <glyph glyph-name="percent" unicode="%" horiz-adv-x="755" 
d="M620 700h45l-530 -700h-50zM255 535c0 103.333 -18.333 155 -55 155s-55 -51.667 -55 -155s18.333 -155 55 -155s55 51.667 55 155zM370 535c0 -53.333 -14.833 -95.833 -44.5 -127.5s-71.5 -47.5 -125.5 -47.5s-95.833 15.833 -125.5 47.5s-44.5 74.167 -44.5 127.5
s14.833 95.833 44.5 127.5s71.5 47.5 125.5 47.5s95.833 -15.833 125.5 -47.5s44.5 -74.167 44.5 -127.5zM610 165c0 103.333 -18.333 155 -55 155s-55 -51.667 -55 -155s18.333 -155 55 -155s55 51.667 55 155zM725 165c0 -53.333 -14.833 -95.833 -44.5 -127.5
s-71.5 -47.5 -125.5 -47.5s-95.833 15.833 -125.5 47.5s-44.5 74.167 -44.5 127.5s14.833 95.833 44.5 127.5s71.5 47.5 125.5 47.5s95.833 -15.833 125.5 -47.5s44.5 -74.167 44.5 -127.5z" />
    <glyph glyph-name="ampersand" unicode="&#x26;" horiz-adv-x="765" 
d="M325 10c43.333 0 85 20.001 125 60.001l-190 260c0 0.666992 -1.66699 -0.833008 -5 -4.5s-7.5 -9.5 -12.5 -17.5s-9.83301 -18 -14.5 -30c-12 -26.667 -18 -64.834 -18 -114.501s11 -87.667 33 -114s49.333 -39.5 82 -39.5zM345 715.001
c53.333 0 100.331 -16.332 140.998 -48.999c10 -7.33301 17.333 -13.333 22 -18l7 -8c8.66699 15.333 20.834 29.166 36.501 41.499s30.167 18.5 43.5 18.5h20v-190h-45c-20.667 48 -49.5 90 -86.5 126s-78.167 54 -123.5 54c-20.667 0 -37.5 -7.16699 -50.5 -21.5
s-19.5 -33.833 -19.5 -58.5s10 -52.667 30 -84l12 -18c11.333 -18 19 -29 23 -33l190 -265c23.333 50 35 103.333 35 160l-100 15v15h215v-15l-90 -15c0 -26.667 -3.83301 -55 -11.5 -85s-15.167 -53.333 -22.5 -70l-11 -25l120 -165l55 -10v-15h-165
c-46 0 -81 16.667 -105 50c-15.333 -12.667 -28.833 -23 -40.5 -31s-29.167 -15.667 -52.5 -23s-49 -11 -77 -11c-87.333 0 -151.666 16.167 -192.999 48.5s-62 74.5 -62 126.5c0 28.667 7.16699 54.667 21.5 78s31.833 41.333 52.5 54c43.333 26.667 81.333 43 114 49l22 4
l-65 90c-36.667 51.333 -55 98 -55 140s17.333 75.833 52 101.5s89 38.5 163 38.5z" />
    <glyph glyph-name="quotesingle" unicode="'" horiz-adv-x="230" 
d="M116 710c20 0 35.667 -6.83301 47 -20.5s17 -31.834 17 -54.501l-40 -210h-50l-40 210c0 22.667 6 40.834 18 54.501s28 20.5 48 20.5z" />
    <glyph glyph-name="parenleft" unicode="(" horiz-adv-x="375" 
d="M220 265c0 -220 45 -385 135 -495l-10 -10c-84 50 -152.5 119.667 -205.5 209s-79.5 188 -79.5 296s26.5 206.667 79.5 296s121.5 159 205.5 209l10 -10c-90 -110 -135 -275 -135 -495z" />
    <glyph glyph-name="parenright" unicode=")" horiz-adv-x="375" 
d="M155 265c0 220 -45 385 -135 495l10 10c84 -50 152.5 -119.667 205.5 -209s79.5 -188 79.5 -296s-26.5 -206.667 -79.5 -296s-121.5 -159 -205.5 -209l-10 10c90 110 135 275 135 495z" />
    <glyph glyph-name="asterisk" unicode="*" horiz-adv-x="478" 
d="M239 700c36.667 0 55 -20 55 -60l-34 -105l79 80c12 7.33301 24.5 11 37.5 11s24.833 -6.16699 35.5 -18.5s16 -26.833 16 -43.5s-11.333 -31.334 -34 -44.001l-95 -20l93 -20c22.667 -12.667 34 -27.334 34 -44.001s-5.33301 -31.167 -16 -43.5s-22.5 -18.5 -35.5 -18.5
s-25.5 3.66699 -37.5 11l-78 80l35 -105c0 -40 -18.333 -60 -55 -60s-55 20 -55 60l35 105l-78 -80c-12 -7.33301 -24.5 -11 -37.5 -11s-24.833 6.16699 -35.5 18.5s-16 26.833 -16 43.5s11.333 31.334 34 44.001l93 20l-95 20c-22.667 12.667 -34 27.334 -34 44.001
s5.33301 31.167 16 43.5s22.5 18.5 35.5 18.5s25.5 -3.66699 37.5 -11l79 -80l-34 105c0 40 18.333 60 55 60z" />
    <glyph glyph-name="plus" unicode="+" horiz-adv-x="535" 
d="M290 85h-45v225h-215v45h215v225h45v-225h215v-45h-215v-225z" />
    <glyph glyph-name="comma" unicode="," horiz-adv-x="280" 
d="M97 -133l-9 19c36.667 9.33301 64.667 33.333 84 72c8 14.667 13 31.334 15 50.001c-16 -12 -34 -18 -54 -18s-37.167 7.5 -51.5 22.5s-21.5 34.167 -21.5 57.5s7.16699 42.5 21.5 57.5s33 22.5 56 22.5s42.5 -8.5 58.5 -25.5s24 -41.167 24 -72.5
s-4.16699 -59 -12.5 -83s-18.833 -42.333 -31.5 -55c-24.667 -24.667 -46.667 -39.334 -66 -44.001z" />
    <glyph glyph-name="hyphen" unicode="-" horiz-adv-x="385" 
d="M355 310h-325v55h325v-55z" />
    <glyph glyph-name="period" unicode="." horiz-adv-x="280" 
d="M140 -10c-23.333 0 -42.5 7.5 -57.5 22.5s-22.5 34.167 -22.5 57.5s7.5 42.5 22.5 57.5s34.167 22.5 57.5 22.5s42.5 -7.5 57.5 -22.5s22.5 -34.167 22.5 -57.5s-7.5 -42.5 -22.5 -57.5s-34.167 -22.5 -57.5 -22.5z" />
    <glyph glyph-name="slash" unicode="/" horiz-adv-x="390" 
d="M335 700h45l-320 -700h-50z" />
    <glyph glyph-name="zero" unicode="0" horiz-adv-x="710" 
d="M235 350c0 -64.667 3.33301 -120.334 10 -167.001s15.834 -82.5 27.501 -107.5s24.334 -43 38.001 -54s28.5 -16.5 44.5 -16.5s30.833 5.5 44.5 16.5s26.334 29 38.001 54s20.834 60.833 27.501 107.5s10 102.334 10 167.001s-3.33301 120.334 -10 167.001
s-15.834 82.5 -27.501 107.5s-24.334 43 -38.001 54s-28.5 16.5 -44.5 16.5s-30.833 -5.5 -44.5 -16.5s-26.334 -29 -38.001 -54s-20.834 -60.833 -27.501 -107.5s-10 -102.334 -10 -167.001zM650 350c0 -114 -27.833 -203.333 -83.5 -268s-126.167 -97 -211.5 -97
s-155.833 32.333 -211.5 97s-83.5 154 -83.5 268s27.833 203.333 83.5 268s126.167 97 211.5 97s155.833 -32.333 211.5 -97s83.5 -154 83.5 -268z" />
    <glyph glyph-name="one" unicode="1" horiz-adv-x="455" 
d="M325 700v-675l80 -10v-15h-330v15l80 10v565l-110 -65l-15 25l205 150h90z" />
    <glyph glyph-name="two" unicode="2" horiz-adv-x="620" 
d="M550 0l-510 -0.000976562v25c0 66 24 126.333 72 181c27.333 31.333 65 67 113 107s82.333 70.333 103 91c48 48 72 98.333 72 151c0 90 -48.333 135 -145 135c-25.333 0 -50 -4 -74 -12l-11 -3v-160c-13.333 -3.33301 -30.833 -5 -52.5 -5s-40 7.16699 -55 21.5
s-22.5 32.166 -22.5 53.499c0 35.333 22.167 65.833 66.5 91.5s109.5 38.5 195.5 38.5s152.167 -18.5 198.5 -55.5s69.5 -86.833 69.5 -149.5c0 -44.667 -13.833 -83.5 -41.5 -116.5s-63 -60.333 -106 -82s-86.833 -42.5 -131.5 -62.5s-87.5 -44.667 -128.5 -74
s-70.167 -62.666 -87.5 -99.999h384c2 20.667 8 42.334 18 65.001s19.667 40 29 52l14 18h30v-210z" />
    <glyph glyph-name="three" unicode="3" horiz-adv-x="645" 
d="M508.5 35.5c-51 -33.667 -119.669 -50.4971 -206.002 -50.4971s-151.666 12.833 -195.999 38.5s-66.5 56.167 -66.5 91.5c0 21.333 7.5 39.166 22.5 53.499s35.833 21.5 62.5 21.5l45 -5v-160c26.667 -10 58.334 -15 95.001 -15c50.667 0 88.334 13.5 113.001 40.5
s37 68.833 37 125.5s-13 99 -39 127s-63 42 -111 42h-75v25h60c48 0 85 13.333 111 40s39 65 39 115c0 110 -43.333 165 -130 165c-25.333 0 -50 -4 -74 -12l-11 -3v-160c-13.333 -3.33301 -30.833 -5 -52.5 -5s-40 7.16699 -55 21.5s-22.5 32.166 -22.5 53.499
c0 35.333 22.167 65.833 66.5 91.5s106.166 38.5 185.499 38.5s143 -16.833 191 -50.5s72 -80.167 72 -139.5c0 -46.667 -18.5 -84.667 -55.5 -114s-91.833 -46.333 -164.5 -51c76 -4.66699 134.167 -23 174.5 -55s60.5 -73.667 60.5 -125
c0 -62.667 -25.5 -110.834 -76.5 -144.501z" />
    <glyph glyph-name="four" unicode="4" horiz-adv-x="630" 
d="M250 15l80 10v135h-330v25l465 525h35v-510h120v-40h-120v-135l80 -10v-15h-330v15zM50 200h280v315z" />
    <glyph glyph-name="five" unicode="5" horiz-adv-x="615" 
d="M530 625l-420.001 0.000976562l-15 -215c50 26.667 111.667 40 185 40c90.667 0 160.834 -19.667 210.501 -59s74.5 -96.833 74.5 -172.5s-24.833 -133.5 -74.5 -173.5s-119.834 -60 -210.501 -60c-73.333 0 -131.666 13 -174.999 39s-65 56.333 -65 91
c0 21.333 7.5 39.166 22.5 53.499s35.833 21.5 62.5 21.5l45 -5v-160c26.667 -10 55 -15 85 -15c93.333 0 140 69.167 140 207.5s-46.667 207.5 -140 207.5c-26.667 0 -53.667 -4.16699 -81 -12.5s-48 -16.5 -62 -24.5l-22 -13l-25 25l20 300h354c2 20.667 8 41.5 18 62.5
s19.667 36.833 29 47.5l14 15h30v-200z" />
    <glyph glyph-name="six" unicode="6" horiz-adv-x="670" 
d="M137.5 75.5c-51.667 60.333 -77.502 151.164 -77.502 272.497s26.333 212.833 79 274.5s126.334 92.5 221.001 92.5c69.333 0 125 -13 167 -39s63 -56.333 63 -91c0 -21.333 -7.5 -39.166 -22.5 -53.499s-35.833 -21.5 -62.5 -21.5l-45 5v160
c-23.333 10 -46.666 15 -69.999 15c-46.667 0 -85 -23.167 -115 -69.5s-45 -119.833 -45 -220.5c36.667 13.333 81.667 20 135 20c84 0 147.5 -19.167 190.5 -57.5s64.5 -90.666 64.5 -156.999s-23.833 -119.666 -71.5 -159.999s-115.167 -60.5 -202.5 -60.5
s-156.833 30.167 -208.5 90.5zM349.998 4.99805c28.667 0 52.5 15.833 71.5 47.5s28.5 81.5 28.5 149.5s-9.16699 117.167 -27.5 147.5s-47.5 45.5 -87.5 45.5c-35.333 0 -66 -5 -92 -15l-13 -5v-105c0 -176.667 40 -265 120 -265z" />
    <glyph glyph-name="seven" unicode="7" horiz-adv-x="590" 
d="M515 625h-384c-2 -20.667 -8 -42.334 -18 -65.001s-19.667 -40 -29 -52l-14 -18h-30v210h510v-25c0 -67.333 -24.667 -146.333 -74 -237l-62 -118.5c-20.667 -41 -38.167 -89.333 -52.5 -145s-21.5 -113.834 -21.5 -174.501h-180c7.33301 63.333 22.5 122.333 45.5 177
s49.333 101.667 79 141s59.167 75.333 88.5 108s57.5 66.334 84.5 101.001s46.167 67.334 57.5 98.001z" />
    <glyph glyph-name="eight" unicode="8" horiz-adv-x="690" 
d="M345 -15c-90 0 -159.998 17 -209.998 51s-75 82 -75 144c0 44.667 18.5 83.334 55.5 116.001s86.833 54 149.5 64c-52 5.33301 -96.667 23.333 -134 54s-56 67.667 -56 111c0 59.333 24.167 105.833 72.5 139.5s114.166 50.5 197.499 50.5s149.166 -16.833 197.499 -50.5
s72.5 -80.167 72.5 -139.5c0 -43.333 -18.667 -80.333 -56 -111s-82 -48.667 -134 -54c62.667 -10 112.5 -31.333 149.5 -64s55.5 -71.334 55.5 -116.001c0 -62 -25 -110 -75 -144s-120 -51 -210 -51zM345.002 5c36 0 64.167 14.5 84.5 43.5s30.5 71.5 30.5 127.5
s-10.833 99 -32.5 129s-49.167 45 -82.5 45s-60.833 -15 -82.5 -45s-32.5 -73 -32.5 -129s10.167 -98.5 30.5 -127.5s48.5 -43.5 84.5 -43.5zM445.002 525c0 113.333 -33.333 170 -100 170s-100 -56.667 -100 -170c0 -49.333 9 -87.5 27 -114.5s42.333 -40.5 73 -40.5
s55 13.5 73 40.5s27 65.167 27 114.5z" />
    <glyph glyph-name="nine" unicode="9" horiz-adv-x="670" 
d="M532.5 624.5c51.667 -60.333 77.502 -151.164 77.502 -272.497s-26.333 -212.833 -79 -274.5s-126.334 -92.5 -221.001 -92.5c-69.333 0 -125 13 -167 39s-63 56.333 -63 91c0 21.333 7.5 39.166 22.5 53.499s35.833 21.5 62.5 21.5l45 -5v-160
c23.333 -10 46.666 -15 69.999 -15c46.667 0 85 23.167 115 69.5s45 119.833 45 220.5c-36.667 -13.333 -81.667 -20 -135 -20c-84 0 -147.5 19.167 -190.5 57.5s-64.5 90.666 -64.5 156.999s23.833 119.666 71.5 159.999s115.167 60.5 202.5 60.5
s156.833 -30.167 208.5 -90.5zM320.002 695.002c-28.667 0 -52.5 -15.833 -71.5 -47.5s-28.5 -81.5 -28.5 -149.5s9.16699 -117.167 27.5 -147.5s47.5 -45.5 87.5 -45.5c35.333 0 66 5 92 15l13 5v105c0 176.667 -40 265 -120 265z" />
    <glyph glyph-name="colon" unicode=":" horiz-adv-x="280" 
d="M140 -10c-23.333 0 -42.5 7.5 -57.5 22.5s-22.5 34.167 -22.5 57.5s7.5 42.5 22.5 57.5s34.167 22.5 57.5 22.5s42.5 -7.5 57.5 -22.5s22.5 -34.167 22.5 -57.5s-7.5 -42.5 -22.5 -57.5s-34.167 -22.5 -57.5 -22.5zM140 350c-23.333 0 -42.5 7.5 -57.5 22.5
s-22.5 34.167 -22.5 57.5s7.5 42.5 22.5 57.5s34.167 22.5 57.5 22.5s42.5 -7.5 57.5 -22.5s22.5 -34.167 22.5 -57.5s-7.5 -42.5 -22.5 -57.5s-34.167 -22.5 -57.5 -22.5z" />
    <glyph glyph-name="semicolon" unicode=";" horiz-adv-x="280" 
d="M140 350c-23.333 0 -42.5 7.5 -57.5 22.5s-22.5 34.167 -22.5 57.5s7.5 42.5 22.5 57.5s34.167 22.5 57.5 22.5s42.5 -7.5 57.5 -22.5s22.5 -34.167 22.5 -57.5s-7.5 -42.5 -22.5 -57.5s-34.167 -22.5 -57.5 -22.5zM97 -133l-9 19c36.667 9.33301 64.667 33.333 84 72
c8 14.667 13 31.334 15 50.001c-16 -12 -34 -18 -54 -18s-37.167 7.5 -51.5 22.5s-21.5 34.167 -21.5 57.5s7.16699 42.5 21.5 57.5s33 22.5 56 22.5s42.5 -8.5 58.5 -25.5s24 -41.167 24 -72.5s-4.16699 -59 -12.5 -83s-18.833 -42.333 -31.5 -55
c-24.667 -24.667 -46.667 -39.334 -66 -44.001z" />
    <glyph glyph-name="less" unicode="&#x3c;" horiz-adv-x="490" 
d="M0 290l440 300v-60l-350 -240l350 -240v-60z" />
    <glyph glyph-name="equal" unicode="=" horiz-adv-x="535" 
d="M505 200h-475v45h475v-45zM505 395h-475v45h475v-45z" />
    <glyph glyph-name="greater" unicode="&#x3e;" horiz-adv-x="490" 
d="M50 590l440 -300l-440 -300v60l350 240l-350 240v60z" />
    <glyph glyph-name="question" unicode="?" horiz-adv-x="590" 
d="M285 295l-0.000976562 -79.999h-50v105c96.667 45.333 145 120.333 145 225c0 50 -11.667 86.667 -35 110s-60 35 -110 35c-25.333 0 -50 -4 -74 -12l-11 -3v-160c-13.333 -3.33301 -30.833 -5 -52.5 -5s-40 7.16699 -55 21.5s-22.5 32.166 -22.5 53.499
c0 35.333 22.167 65.833 66.5 91.5s109.333 38.5 195 38.5s151.834 -18 198.501 -54s70 -83 70 -141c0 -40.667 -13.833 -77.334 -41.5 -110.001s-60.5 -57.667 -98.5 -75s-79.667 -30.666 -125 -39.999zM259.999 -9.99902c-23.333 0 -42.5 7.5 -57.5 22.5
s-22.5 34.167 -22.5 57.5s7.5 42.5 22.5 57.5s34.167 22.5 57.5 22.5s42.5 -7.5 57.5 -22.5s22.5 -34.167 22.5 -57.5s-7.5 -42.5 -22.5 -57.5s-34.167 -22.5 -57.5 -22.5z" />
    <glyph glyph-name="at" unicode="@" horiz-adv-x="840" 
d="M340 320c0 -35.333 3.33301 -65 10 -89c11.333 -40.667 26.333 -61 45 -61c14.667 0 27.5 7 38.5 21s18.167 28.333 21.5 43l5 21v280c-36 0 -65 -17 -87 -51s-33 -88.667 -33 -164zM420 10c35.333 0 69.668 5 103.001 15s57.666 20 72.999 30l24 15l15 -25
c-5.33301 -4.66699 -13.5 -10.667 -24.5 -18s-35.167 -17 -72.5 -29s-76.666 -18 -117.999 -18c-105.333 0 -195 35.5 -269 106.5s-111 158.833 -111 263.5s37 192.5 111 263.5s163.667 106.5 269 106.5s195 -35.5 269 -106.5s111 -158.833 111 -263.5
c0 -65.333 -13.167 -117.5 -39.5 -156.5s-64.833 -58.5 -115.5 -58.5c-28.667 0 -54 3.66699 -76 11s-38.333 16 -49 26c-22 20.667 -34.667 39.667 -38 57l-2 11c-6.66699 -27.333 -16.334 -48 -29.001 -62c-26.667 -28.667 -60.834 -43 -102.501 -43
s-78.5 17.333 -110.5 52s-48 79 -48 133c0 76 22.833 135 68.5 177s112.834 63 201.501 63h150v-335c0 -43.333 18.333 -65 55 -65c25.333 0 47.5 16.5 66.5 49.5s28.5 79.833 28.5 140.5c0 100 -33 181.667 -99 245s-146.333 95 -241 95s-175 -31.667 -241 -95
s-99 -145 -99 -245s33 -181.667 99 -245s146.333 -95 241 -95z" />
    <glyph glyph-name="A" unicode="A" horiz-adv-x="760" 
d="M-20 15l91.999 15l303 680h30l310 -685l65 -10v-15h-145c-63.333 0 -111.666 36.667 -144.999 110l-41 90h-266l-76 -170l98 -15v-15h-225v15zM314.999 497l-119 -267h240z" />
    <glyph glyph-name="B" unicode="B" horiz-adv-x="750" 
d="M300 345v-320h60c106.667 0 160 53.333 160 160s-53.333 160 -160 160h-60zM300 675v-305h40c106.667 0 160 50 160 150c0 50 -13.667 88.333 -41 115s-67 40 -119 40h-40zM130 25v650l-80 10v15h310c102.667 0 180 -15.833 232 -47.5s78 -75.834 78 -132.501
c0 -45.333 -17.333 -82.166 -52 -110.499s-89 -44.833 -163 -49.5c79.333 -4.66699 138.333 -22.5 177 -53.5s58 -71.5 58 -121.5c0 -58.667 -26 -104.167 -78 -136.5s-129.333 -48.5 -232 -48.5h-330v15z" />
    <glyph glyph-name="C" unicode="C" horiz-adv-x="705" 
d="M268 694.5c35.333 13.667 67.166 20.499 95.499 20.499s52 -2.5 71 -7.5s34.833 -11.167 47.5 -18.5c24 -13.333 42.667 -27 56 -41l7 -8c8.66699 15.333 20.834 29.166 36.501 41.499s30.167 18.5 43.5 18.5h20v-190h-45c-20.667 48 -49.5 90 -86.5 126
s-76.667 54 -119 54s-79.5 -27.833 -111.5 -83.5s-48 -142 -48 -259s17.5 -202.5 52.5 -256.5s79.167 -81 132.5 -81c44 0 85.667 13.167 125 39.5s68.333 59.833 87 100.5l23 -15c-52.667 -100 -136 -150 -250 -150c-88.667 0 -166.667 27.667 -234 83
c-34 27.333 -61 65.333 -81 114s-30 104.667 -30 168s9.83301 119.333 29.5 168s45.5 86.834 77.5 114.501s65.667 48.334 101 62.001z" />
    <glyph glyph-name="D" unicode="D" horiz-adv-x="765" 
d="M325 675h-25v-650h25c63.333 0 115 26 155 78s60 134.333 60 247s-20 195 -60 247s-91.667 78 -155 78zM130 25v649.998l-80 10v15h280c104 0 192.333 -26.667 265 -80c36.667 -27.333 65.834 -64.166 87.501 -110.499s32.5 -99.5 32.5 -159.5
s-10.833 -113.167 -32.5 -159.5s-50.834 -83.166 -87.501 -110.499c-72.667 -53.333 -161 -80 -265 -80h-280v15z" />
    <glyph glyph-name="E" unicode="E" horiz-adv-x="705" 
d="M300 25l250.001 0.000976562c1.33301 28 7.5 55.833 18.5 83.5s21.5 48.167 31.5 61.5l15 20h30v-190h-595v15l80 10v650l-80 10v15h595v-190h-30c-4.66699 5.33301 -10.334 12.666 -17.001 21.999s-16 28.5 -28 57.5s-18.667 57.5 -20 85.5h-250v-305h135
c2.66699 18.667 8.5 40.5 17.5 65.5s18.167 44.833 27.5 59.5h25v-275h-25c-9.33301 14.667 -18.5 34.5 -27.5 59.5s-14.833 46.833 -17.5 65.5h-135v-320z" />
    <glyph glyph-name="F" unicode="F" horiz-adv-x="685" 
d="M300 350l135.001 0.000976562c2.66699 18.667 8.5 40.5 17.5 65.5s18.167 44.833 27.5 59.5h25v-275h-25c-9.33301 14.667 -18.5 34.5 -27.5 59.5s-14.833 46.833 -17.5 65.5h-135v-300l70 -10v-15h-320v15l80 10v650l-80 10v15h595v-190h-30
c-4.66699 5.33301 -10.334 12.666 -17.001 21.999s-16 28.5 -28 57.5s-18.667 57.5 -20 85.5h-250v-325z" />
    <glyph glyph-name="G" unicode="G" horiz-adv-x="745" 
d="M268 694.5c35.333 13.667 67.1602 20.5 95.4932 20.5s52 -2.5 71 -7.5s34.833 -11.167 47.5 -18.5c24 -13.333 42.667 -27 56 -41l7 -8c8.66699 15.333 20.834 29.166 36.501 41.499s30.167 18.5 43.5 18.5h20v-190h-45c-20.667 48 -49.5 90 -86.5 126
s-76.667 54 -119 54s-79.5 -27.833 -111.5 -83.5s-48 -140.334 -48 -254.001s14.667 -197.5 44 -251.5s63 -81 101 -81c20.667 0 39.834 8 57.501 24s29.834 32 36.501 48l11 23v210l-70 10v15h310v-15l-70 -10v-325h-15c-21.333 0 -40.666 3.5 -57.999 10.5
s-30.666 15.5 -39.999 25.5c-19.333 20.667 -30.666 38.667 -33.999 54l-3 10c-1.33301 -7.33301 -7.16602 -19.166 -17.499 -35.499s-21 -29.5 -32 -39.5s-26.333 -19.167 -46 -27.5s-43 -12.5 -70 -12.5s-56.333 6.83301 -88 20.5s-62.167 34.167 -91.5 61.5
s-53.333 65.666 -72 114.999s-28 105.5 -28 168.5s9.83301 118.833 29.5 167.5s45.5 86.834 77.5 114.501s65.667 48.334 101 62.001z" />
    <glyph glyph-name="H" unicode="H" horiz-adv-x="835" 
d="M300 675v-305h235v305l-80 10v15h330v-15l-80 -10v-650l80 -10v-15h-330v15l80 10v320h-235v-320l80 -10v-15h-330v15l80 10v650l-80 10v15h330v-15z" />
    <glyph glyph-name="I" unicode="I" horiz-adv-x="430" 
d="M300 675v-650l80 -10v-15h-330v15l80 10v650l-80 10v15h330v-15z" />
    <glyph glyph-name="J" unicode="J" horiz-adv-x="630" 
d="M442.5 45.5c-45 -40.333 -106.667 -60.5 -185 -60.5s-139.166 13 -182.499 39s-65 56.333 -65 91c0 21.333 7.5 39.166 22.5 53.499s35.833 21.5 62.5 21.5l45 -5v-160c20 -10 49.167 -15 87.5 -15s66.666 14.167 84.999 42.5s27.5 80.833 27.5 157.5v465l-80 10v15h330
v-15l-80 -10v-465c0 -69.333 -22.5 -124.166 -67.5 -164.499z" />
    <glyph glyph-name="K" unicode="K" horiz-adv-x="750" 
d="M300 675l0.000976562 -315l275 310l-95 15v15h225v-15l-95 -15l-202 -228l297 -417l55 -10v-15h-155c-28.667 0 -54.334 7.66699 -77.001 23s-46.667 41 -72 77l-156 220v-295l80 -10v-15h-330v15l80 10v650l-80 10v15h330v-15z" />
    <glyph glyph-name="L" unicode="L" horiz-adv-x="685" 
d="M645 0h-595v15l80 10v650l-80 10v15h320v-15l-70 -10v-650h250c1.33301 28 7.5 55.833 18.5 83.5s21.5 48.167 31.5 61.5l15 20h30v-190z" />
    <glyph glyph-name="M" unicode="M" horiz-adv-x="1065" 
d="M880 700h134.999v-15l-80 -10v-650l80 -10v-15h-330v15l80 10v555l-249 -590h-30l-311 575v-535l100 -15v-15h-225v15l90 15v645l-80 10v15h150c33.333 0 60.333 -8 81 -24s40.334 -41.333 59.001 -76l220 -405l170 405c14.667 35.333 33 60.833 55 76.5
s50.333 23.5 85 23.5z" />
    <glyph glyph-name="N" unicode="N" horiz-adv-x="815" 
d="M695 -10h-35l-485 515v-475l100 -15v-15h-225v15l90 15v645l-80 10v15h105c30 0 55.5 -7.16699 76.5 -21.5s49.5 -40.5 85.5 -78.5l333 -355v425l-100 15v15h225v-15l-90 -15v-680z" />
    <glyph glyph-name="O" unicode="O" horiz-adv-x="780" 
d="M235 350c0 -118.667 15.5 -205.834 46.5 -261.501s67.167 -83.5 108.5 -83.5s77.5 27.833 108.5 83.5s46.5 142.834 46.5 261.501s-15.5 205.834 -46.5 261.501s-67.167 83.5 -108.5 83.5s-77.5 -27.833 -108.5 -83.5s-46.5 -142.834 -46.5 -261.501zM720 350
c0 -63.333 -9.83301 -119.333 -29.5 -168s-45.667 -86.834 -78 -114.501s-67.333 -48.334 -105 -62.001s-76.834 -20.5 -117.501 -20.5s-79.834 6.83301 -117.501 20.5s-72.667 34.334 -105 62.001s-58.333 65.834 -78 114.501s-29.5 104.667 -29.5 168
s9.83301 119.333 29.5 168s45.667 86.834 78 114.501s67.333 48.334 105 62.001s76.834 20.5 117.501 20.5s79.834 -6.83301 117.501 -20.5s72.667 -34.334 105 -62.001s58.333 -65.834 78 -114.501s29.5 -104.667 29.5 -168z" />
    <glyph glyph-name="P" unicode="P" horiz-adv-x="710" 
d="M300 295h50c106.667 0 160 63.333 160 190s-53.333 190 -160 190h-50v-380zM370 270h-70v-245l80 -10v-15h-330v15l80 10v650l-80 10v15h320c103.333 0 180.833 -18.667 232.5 -56s77.5 -90.333 77.5 -159s-25.833 -121.667 -77.5 -159s-129.167 -56 -232.5 -56z" />
    <glyph glyph-name="Q" unicode="Q" horiz-adv-x="780" 
d="M720 350c0 -101.333 -23.1709 -181.332 -69.5039 -239.999s-104.833 -96.667 -175.5 -114c4.66699 -97.333 41.334 -146 110.001 -146v-20c-88.667 0 -155.667 14.667 -201 44s-71.333 69.666 -78 120.999c-71.333 17.333 -130.166 55.333 -176.499 114
s-69.5 139 -69.5 241c0 63.333 9.83301 119.333 29.5 168s45.667 86.834 78 114.501s67.333 48.334 105 62.001s76.834 20.5 117.501 20.5s79.834 -6.83301 117.501 -20.5s72.667 -34.334 105 -62.001s58.333 -65.834 78 -114.501s29.5 -104.667 29.5 -168zM234.996 350.001
c0 -118.667 15.5 -205.834 46.5 -261.501s67.167 -83.5 108.5 -83.5s77.5 27.833 108.5 83.5s46.5 142.834 46.5 261.501s-15.5 205.834 -46.5 261.501s-67.167 83.5 -108.5 83.5s-77.5 -27.833 -108.5 -83.5s-46.5 -142.834 -46.5 -261.501z" />
    <glyph glyph-name="R" unicode="R" horiz-adv-x="745" 
d="M300 335h60c42.667 0 76.667 15.333 102 46s38 72 38 124s-12.667 93.333 -38 124s-59.333 46 -102 46h-60v-340zM335 310l-35.002 0.000976562v-285l80 -10v-15h-330v15l80 10v650l-80 10v15h330c92.667 0 164.167 -17.667 214.5 -53s75.5 -81.666 75.5 -138.999
s-19.667 -101.833 -59 -133.5s-96.333 -49.834 -171 -54.501c4.66699 0 14.334 -2.5 29.001 -7.5s27.334 -10.5 38.001 -16.5c27.333 -16.667 50 -40.334 68 -71.001l115 -200l55 -10v-15h-135c-34.667 -0 -64.167 7.83301 -88.5 23.5s-46.5 41.167 -66.5 76.5z" />
    <glyph glyph-name="S" unicode="S" horiz-adv-x="675" 
d="M262.5 662.5c-18.333 -18.333 -27.502 -41.3301 -27.502 -68.9971s7.33301 -51.334 22 -71.001s37.334 -40.5 68.001 -62.5l160 -115c86.667 -61.333 130 -123 130 -185c0 -116.667 -88.333 -175 -265 -175c-55.333 0 -106 16.333 -152 49
c-11.333 7.33301 -19.666 13.333 -24.999 18l-8 8c-8.66699 -15.333 -20.834 -29.166 -36.501 -41.499s-30.167 -18.5 -43.5 -18.5h-20v190h45c20 -46 50.167 -87.5 90.5 -124.5s83.5 -55.5 129.5 -55.5c34.667 0 61.667 9.33301 81 28s29 42.5 29 71.5s-7 52.167 -21 69.5
s-37 37.666 -69 60.999l-160 115c-86.667 61.333 -130 124.666 -130 189.999c0 113.333 85 170 255 170c54 0 103.333 -16.333 148 -49c10.667 -7.33301 18.667 -13.333 24 -18l8 -8c8.66699 15.333 20.834 29.166 36.501 41.499s30.167 18.5 43.5 18.5h20v-190h-45
c-20 46 -49.833 87.5 -89.5 124.5s-81.5 55.5 -125.5 55.5c-30 0 -54.167 -9.16699 -72.5 -27.5z" />
    <glyph glyph-name="T" unicode="T" horiz-adv-x="700" 
d="M660 700l0.000976562 -189.999h-30c-4.66699 5.33301 -10.334 12.666 -17.001 21.999s-16 28.5 -28 57.5s-18.667 57.5 -20 85.5h-130v-650l80 -10v-15h-330v15l80 10v650h-130c-1.33301 -28 -7.5 -55.833 -18.5 -83.5s-21.5 -48.167 -31.5 -61.5l-15 -20h-30v190h620z
" />
    <glyph glyph-name="U" unicode="U" horiz-adv-x="790" 
d="M645 265l-0.000976562 404.999l-100 15v15h225v-15l-90 -15v-405c0 -88 -21.833 -156.667 -65.5 -206s-100.167 -74 -169.5 -74c-105.333 0 -185.833 25 -241.5 75s-83.5 118.333 -83.5 205v410l-80 10v15h330v-15l-80 -10v-410c0 -88 14.833 -152.5 44.5 -193.5
s71.334 -61.5 125.001 -61.5s98 22.333 133 67s52.5 107.334 52.5 188.001z" />
    <glyph glyph-name="V" unicode="V" horiz-adv-x="715" 
d="M644 670l-267 -680h-30l-312 685l-55 10v15h134c34 0 62 -8.16699 84 -24.5s40.667 -41.5 56 -75.5l176 -386l179 456l-98 15v15h224v-15z" />
    <glyph glyph-name="W" unicode="W" horiz-adv-x="1070" 
d="M998 670l-248.002 -680h-30l-195 453l-165 -453h-30l-294 685l-56 10v15h130c64.667 0 111.334 -33.333 140.001 -100l161 -374l95 261l-80 188l-56 10v15h130c64.667 0 111.334 -33.333 140.001 -100l161 -374l162 444l-98 15v15h225v-15z" />
    <glyph glyph-name="X" unicode="X" horiz-adv-x="710" 
d="M55 675l-55 10v15h160c32 0 58 -8 78 -24s40.667 -41.333 62 -76l99 -161l172 231l-96 15v15h225v-15l-94 -15l-191 -257l240 -388l55 -10v-15h-160c-32 0 -58 8 -78 24s-40.667 41.333 -62 76l-99 160l-172 -230l96 -15v-15h-225v15l94 15l191 256z" />
    <glyph glyph-name="Y" unicode="Y" horiz-adv-x="675" 
d="M35 675l-55 10v15h140c33.333 0 60 -7.83301 80 -23.5s40 -41.167 60 -76.5l150 -270l167 340l-97 15v15h225v-15l-93 -15l-182 -375v-270l80 -10v-15h-330v15l80 10v240z" />
    <glyph glyph-name="Z" unicode="Z" horiz-adv-x="670" 
d="M435 675h-280c-1.33301 -28 -7.5 -55.833 -18.5 -83.5s-21.5 -48.167 -31.5 -61.5l-15 -20h-30v190h570v-25l-395 -650h280c1.33301 28 7.5 55.833 18.5 83.5s21.5 48.167 31.5 61.5l15 20h30v-190h-570v25z" />
    <glyph glyph-name="bracketleft" unicode="[" horiz-adv-x="340" 
d="M60 700h260v-25h-100v-850h100v-25h-260v900z" />
    <glyph glyph-name="backslash" unicode="\" horiz-adv-x="390" 
d="M10 700h45l325 -700h-50z" />
    <glyph glyph-name="bracketright" unicode="]" horiz-adv-x="340" 
d="M20 700h260v-900h-260v25h100v850h-100v25z" />
    <glyph glyph-name="asciicircum" unicode="^" horiz-adv-x="470" 
d="M235 650l-155 -240h-50l205 320l205 -320h-50z" />
    <glyph glyph-name="underscore" unicode="_" horiz-adv-x="380" 
d="M380 -97h-380v37h380v-37z" />
    <glyph glyph-name="grave" unicode="`" horiz-adv-x="240" 
d="M30 700h130l50 -170h-44z" />
    <glyph glyph-name="a" unicode="a" 
d="M230 230c-6.66699 -33.333 -10.001 -60 -10.001 -80c0 -44.667 6 -77.5 18 -98.5s27.333 -31.5 46 -31.5s35.834 8 51.501 24s27.167 32 34.5 48l10 23v130c-45.333 0 -88 -3.66699 -128 -11zM89.999 405c0 73.333 73.002 110 219.002 110c72.667 0 131 -20.333 175 -61
s66 -95.334 66 -164.001v-265l80 -10v-15h-95c-21.333 0 -40.666 3.5 -57.999 10.5s-30.333 15.5 -39 25.5c-18.667 19.333 -30.334 37.333 -35.001 54l-3 10l-5 -12c-2 -5.33301 -7.5 -14.666 -16.5 -27.999s-18.833 -25 -29.5 -35s-25.334 -19.167 -44.001 -27.5
s-38.667 -12.5 -60 -12.5c-62.667 0 -110.834 14.333 -144.501 43s-50.5 69.334 -50.5 122.001c0 28.667 5 53.667 15 75c103.333 26.667 208.333 41.667 315 45v20c0 76 -9 128.333 -27 157s-45.667 43 -83 43l-50 -5v-150c-13.333 -3.33301 -30.833 -5 -52.5 -5
s-40 7.16699 -55 21.5s-22.5 32.166 -22.5 53.499z" />
    <glyph glyph-name="b" unicode="b" horiz-adv-x="650" 
d="M260 440l-0.000976562 -325c1.33301 -5.33301 5.83301 -14.833 13.5 -28.5s15.167 -24.5 22.5 -32.5c18.667 -22.667 38.334 -34 59.001 -34c50 0 75 77.5 75 232.5s-26.667 232.5 -80 232.5c-12 0 -25.5 -3.83301 -40.5 -11.5s-26.833 -15.167 -35.5 -22.5zM9.99902 700
l130.002 0.000976562c80 0 120 -40 120 -120v-110c13.333 11.333 32.833 21.666 58.5 30.999s49.5 14 71.5 14c63.333 0 114.166 -22 152.499 -66s57.5 -110.333 57.5 -199c0 -44 -6.66699 -83.667 -20 -119s-30.333 -63 -51 -83c-42.667 -42 -87.334 -63 -134.001 -63
c-21.333 0 -41.333 4 -60 12s-33.667 17.667 -45 29c-22 22 -37 42.667 -45 62l-5 12c-10.667 -42 -36.334 -71.667 -77.001 -89c-17.333 -7.33301 -36.666 -11 -57.999 -11h-15v675l-80 10v15z" />
    <glyph glyph-name="c" unicode="c" horiz-adv-x="560" 
d="M350 490c-44.667 0 -77.498 -17.668 -98.498 -53.001s-31.5 -97.333 -31.5 -186s10 -151 30 -187s49.167 -54 87.5 -54s72.166 11 101.499 33s52 47.667 68 77l23 -15c-51.333 -80 -121.333 -120 -210 -120c-78 0 -142.5 22.333 -193.5 67s-76.5 110.667 -76.5 198
s25.5 153.333 76.5 198s112.833 67 185.5 67c145.333 0 218 -36.667 218 -110c0 -21.333 -7.5 -39.166 -22.5 -53.499s-35.833 -21.5 -62.5 -21.5l-45 5v150c-16.667 3.33301 -33.334 5 -50.001 5z" />
    <glyph glyph-name="d" unicode="d" horiz-adv-x="650" 
d="M380 470l0.000976562 205l-80 10v15h130c80 0 120 -40 120 -120v-555l80 -10v-15h-95c-21.333 0 -40.666 3.5 -57.999 10.5s-30.333 15.5 -39 25.5c-18.667 19.333 -30.334 37.333 -35.001 54l-3 10l-5 -12c-2 -5.33301 -7.5 -14.666 -16.5 -27.999
s-18.833 -25 -29.5 -35s-25.334 -19.167 -44.001 -27.5s-39 -12.5 -61 -12.5s-44.5 5.33301 -67.5 16s-44.833 26.167 -65.5 46.5s-37.667 48.166 -51 83.499s-20 75 -20 119c0 88.667 19.167 155 57.5 199s89.166 66 152.499 66c22 0 43.833 -3.83301 65.5 -11.5
s37.834 -15.167 48.501 -22.5zM380.001 115v325l-14 11c-8.66699 7.33301 -20.5 14.833 -35.5 22.5s-28.5 11.5 -40.5 11.5c-53.333 0 -80 -77.5 -80 -232.5s25 -232.5 75 -232.5c18 0 34.833 8 50.5 24s27.167 32 34.5 48z" />
    <glyph glyph-name="e" unicode="e" horiz-adv-x="600" 
d="M545 265c-110 -26.667 -218.332 -41.666 -324.999 -44.999c4.66699 -140 44.667 -210 120 -210c36.667 0 69.667 11 99 33s52 47.667 68 77l23 -15c-51.333 -80 -120.333 -120 -207 -120s-153.834 23.5 -201.501 70.5s-71.5 111.667 -71.5 194s23 147.166 69 194.499
s109.333 71 190 71s142.667 -16.5 186 -49.5s65 -74.833 65 -125.5c0 -21.333 -4 -43 -12 -65zM220.001 300.001l0.000976562 -55c45.333 0 90.666 3.66699 135.999 11l24 4c6.66699 33.333 10 63.333 10 90c0 49.333 -8 85.833 -24 109.5s-36.333 35.5 -61 35.5
c-56.667 0 -85 -65 -85 -195z" />
    <glyph glyph-name="f" unicode="f" horiz-adv-x="510" 
d="M370 0l-329.999 -0.000976562v15l80 10v410l-80 10v20h80v35c0 67.333 20.667 120 62 158s94.333 57 159 57c132.667 0 199 -35 199 -105c0 -21.333 -7.5 -39.166 -22.5 -53.499s-35.833 -21.5 -62.5 -21.5l-40 5v145c-13.333 3.33301 -25 5 -35 5
c-28.667 0 -50.834 -13.167 -66.501 -39.5s-23.5 -76.5 -23.5 -150.5v-35h180v-20l-180 -10v-410l80 -10v-15z" />
    <glyph glyph-name="g" unicode="g" horiz-adv-x="650" 
d="M540 345c0 -110 -81.668 -164.998 -245.001 -164.998c-57.333 0 -100.666 5.33301 -129.999 16c-6 -2.66699 -11.667 -7.66699 -17 -15s-8 -14.333 -8 -21c0 -20 21.667 -30 65 -30h140c65.333 0 115 -14.833 149 -44.5s51 -73.167 51 -130.5
c0 -113.333 -80 -170 -240 -170c-83.333 0 -144.166 10.5 -182.499 31.5s-57.5 47.167 -57.5 78.5c0 21.333 7.5 39.166 22.5 53.499s35.833 21.5 62.5 21.5l40 -5v-140c36.667 -10 71.667 -15 105 -15c74.667 0 129.167 10.833 163.5 32.5s51.5 49.167 51.5 82.5
c0 21.333 -12.167 37.5 -36.5 48.5s-67.166 16.5 -128.499 16.5h-140c-93.333 0 -140 35 -140 105c0 21.333 7.66699 42.166 23 62.499s32.666 36.166 51.999 47.499c-24.667 9.33301 -45.834 25.333 -63.501 48s-26.5 53.334 -26.5 92.001c0 56.667 19.5 99.167 58.5 127.5
s101.167 42.5 186.5 42.5c32 0 68.167 -4.16699 108.5 -12.5s70.833 -17.5 91.5 -27.5c10 30 29 51 57 63c11.333 4.66699 24 7 38 7c25.333 0 45.833 -8.16699 61.5 -24.5s23.5 -37.333 23.5 -63s-5.5 -45 -16.5 -58s-25.5 -19.5 -43.5 -19.5l-45 5v135
c-10.667 0 -20.5 -5 -29.5 -15s-15.5 -20 -19.5 -30l-6 -15c16.667 -26.667 25 -65 25 -115zM364.999 466.002l-5 19c-20 6.66699 -42 10 -66 10s-44 -12.167 -60 -36.5s-24 -61.666 -24 -111.999s8 -87.333 24 -111s36.333 -35.5 61 -35.5s45 11.833 61 35.5
s24 58.167 24 103.5s-5 87.666 -15 126.999z" />
    <glyph glyph-name="h" unicode="h" horiz-adv-x="710" 
d="M110 25v650.001l-80 10v15h130c80 0 120 -40 120 -120v-146c37.333 54 86.5 81 147.5 81s108.333 -14.333 142 -43s50.5 -69.334 50.5 -122.001v-325l80 -10v-15h-130c-80 0 -120 40 -120 120v230c0 44.667 -6 77.5 -18 98.5s-28 31.5 -48 31.5s-38.833 -8 -56.5 -24
s-30.167 -32 -37.5 -48l-10 -23v-360l70 -10v-15h-320v15z" />
    <glyph glyph-name="i" unicode="i" horiz-adv-x="380" 
d="M120 625c0 22.667 8.5 42.5 25.5 59.5s36.833 25.5 59.5 25.5s42.5 -8.5 59.5 -25.5s25.5 -36.833 25.5 -59.5s-8.5 -42.5 -25.5 -59.5s-36.833 -25.5 -59.5 -25.5s-42.5 8.5 -59.5 25.5s-25.5 36.833 -25.5 59.5zM120 25v450l-80 10v15h130c80 0 120 -40 120 -120v-355
l80 -10v-15h-330v15z" />
    <glyph glyph-name="j" unicode="j" horiz-adv-x="390" 
d="M130 625c0 22.667 8.5 42.5 25.5 59.5s36.833 25.5 59.5 25.5s42.5 -8.5 59.5 -25.5s25.5 -36.833 25.5 -59.5s-8.5 -42.5 -25.5 -59.5s-36.833 -25.5 -59.5 -25.5s-42.5 8.5 -59.5 25.5s-25.5 36.833 -25.5 59.5zM130 0l-0.000976562 475.001l-80 10v15h130
c80 0 120 -40 120 -120v-380c0 -67.333 -20.667 -120 -62 -158s-94.333 -57 -159 -57c-132.667 0 -199 35 -199 105c0 21.333 7.5 39.166 22.5 53.499s35.833 21.5 62.5 21.5l40 -5v-145c13.333 -3.33301 25 -5 35 -5c28.667 0 50.834 13.167 66.501 39.5
s23.5 76.5 23.5 150.5z" />
    <glyph glyph-name="k" unicode="k" horiz-adv-x="645" 
d="M280 25l80 -10v-15h-330v15l80 10v650l-80 10v15h130c80 0 120 -40 120 -120v-320l205 210l-95 15v15h225v-15l-95 -15l-130 -133l210 -312l55 -10v-15h-145c-29.333 0 -54 7 -74 21s-42 38.667 -66 74l-90 135v-205z" />
    <glyph glyph-name="l" unicode="l" horiz-adv-x="380" 
d="M110 25v650l-80 10v15h130c80 0 120 -40 120 -120v-555l80 -10v-15h-330v15z" />
    <glyph glyph-name="m" unicode="m" horiz-adv-x="1030" 
d="M445 25l0.000976562 324.999c0 86.667 -20 130 -60 130c-14.667 0 -30 -8 -46 -24s-28.333 -32 -37 -48l-12 -23v-360l60 -10v-15h-310v15l80 10v450l-80 10v15h95c21.333 0 40.666 -3.5 57.999 -10.5s30.333 -15.5 39 -25.5c18.667 -19.333 30.334 -37.333 35.001 -54
l3 -10c19.333 47.333 52.666 81.333 99.999 102c18.667 8.66699 38.667 13 60 13c88 0 145.333 -33.667 172 -101c39.333 67.333 90 101 152 101s108.5 -14.167 139.5 -42.5s46.5 -69.166 46.5 -122.499v-325l80 -10v-15h-130c-80 0 -120 40 -120 120v230
c0 86.667 -20 130 -60 130c-14.667 0 -30 -8 -46 -24s-28 -32 -36 -48l-13 -23v-360l80 -10v-15h-310v15z" />
    <glyph glyph-name="n" unicode="n" horiz-adv-x="720" 
d="M290 25l79.9971 -9.99902v-15h-330v15l80 10v450l-80 10v15h95c21.333 0 40.666 -3.5 57.999 -10.5s30.333 -15.5 39 -25.5c18.667 -19.333 30.334 -37.333 35.001 -54l3 -10c10.667 27.333 29 52.333 55 75c11.333 10 26.833 19.167 46.5 27.5s40.834 12.5 63.501 12.5
c62.667 0 110.834 -14.333 144.501 -43s50.5 -69.334 50.5 -122.001v-325l80 -10v-15h-130c-80 0 -120 40 -120 120v230c0 44.667 -6 77.5 -18 98.5s-27.667 31.5 -47 31.5s-37.666 -8 -54.999 -24s-30 -32 -38 -48l-12 -23v-360z" />
    <glyph glyph-name="o" unicode="o" 
d="M590 250c0 -87.333 -25.5 -153.333 -76.5 -198s-115.5 -67 -193.5 -67s-142.5 22.333 -193.5 67s-76.5 110.667 -76.5 198s25.5 153.333 76.5 198s115.5 67 193.5 67s142.5 -22.333 193.5 -67s76.5 -110.667 76.5 -198zM220 250c0 -163.333 33.333 -245 100 -245
s100 81.667 100 245s-33.333 245 -100 245s-100 -81.667 -100 -245z" />
    <glyph glyph-name="p" unicode="p" horiz-adv-x="660" 
d="M270 385v-325l14 -11c8.66699 -7.33301 20.5 -14.833 35.5 -22.5s28.5 -11.5 40.5 -11.5c53.333 0 80 77.5 80 232.5s-25 232.5 -75 232.5c-18 0 -34.833 -8 -50.5 -24s-27.167 -32 -34.5 -48zM20 -185l79.999 10.001v650l-80 10v15h95
c21.333 0 40.666 -3.5 57.999 -10.5s30.333 -15.5 39 -25.5c18.667 -19.333 30.334 -37.333 35.001 -54l3 -10l5 12c2 5.33301 7.5 14.666 16.5 27.999s18.833 25 29.5 35s25.334 19.167 44.001 27.5s39 12.5 61 12.5s44.5 -5.33301 67.5 -16s44.833 -26.167 65.5 -46.5
s37.667 -48.166 51 -83.499s20 -75 20 -119c0 -88.667 -19.167 -155 -57.5 -199s-89.166 -66 -152.499 -66c-22 0 -43.833 3.66699 -65.5 11s-37.834 14.666 -48.501 21.999l-16 12v-205l80 -10v-15h-330v15z" />
    <glyph glyph-name="q" unicode="q" horiz-adv-x="650" 
d="M390 60l0.000976562 325c-1.33301 5.33301 -5.83301 14.833 -13.5 28.5s-15.167 24.5 -22.5 32.5c-18.667 22.667 -38.334 34 -59.001 34c-50 0 -75 -77.5 -75 -232.5s26.667 -232.5 80 -232.5c12 0 25.5 3.83301 40.5 11.5s26.833 15.167 35.5 22.5zM560.001 -175
l79.998 -10.001v-15h-330v15l80 10v205c-13.333 -11.333 -32.833 -21.666 -58.5 -30.999s-49.5 -14 -71.5 -14c-63.333 0 -114.166 22 -152.499 66s-57.5 110.333 -57.5 199c0 44 6.66699 83.667 20 119s30.333 63 51 83c42.667 42 87.334 63 134.001 63
c21.333 0 41.333 -4 60 -12s33.667 -17.667 45 -29c22 -22 37 -42.667 45 -62l5 -12c10.667 42 36.334 71.667 77.001 89c17.333 7.33301 36.666 11 57.999 11h15v-675z" />
    <glyph glyph-name="r" unicode="r" horiz-adv-x="580" 
d="M290 25l80.002 -10.001v-15h-330v15l80 10v450l-80 10v15h95c21.333 0 40.666 -3.5 57.999 -10.5s30.333 -15.5 39 -25.5c18.667 -19.333 30.334 -37.333 35.001 -54l3 -10l8 11c3.33301 4.66699 10.5 13.167 21.5 25.5s22.667 23 35 32s28.166 17.333 47.499 25
s38.666 11.5 57.999 11.5c80 0 120 -31.667 120 -95c0 -21.333 -7.5 -39.166 -22.5 -53.499s-35.833 -21.5 -62.5 -21.5l-45 5v140c-22 0 -44.667 -8 -68 -24s-41.333 -32 -54 -48l-18 -23v-360z" />
    <glyph glyph-name="s" unicode="s" horiz-adv-x="580" 
d="M210 425c0 -30.667 23.3311 -59 69.998 -85l160 -90c25.333 -14 46.666 -32.167 63.999 -54.5s26 -47.5 26 -75.5c0 -40 -18 -72.5 -54 -97.5s-89.667 -37.5 -161 -37.5c-32.667 0 -63.5 5.83301 -92.5 17.5s-49.833 23.5 -62.5 35.5l-20 17c0 -4 -2 -9.83301 -6 -17.5
s-8 -13.834 -12 -18.501c-12 -12.667 -27.667 -19 -47 -19h-20v175h50c12 -48 36.5 -87.5 73.5 -118.5s74.167 -46.5 111.5 -46.5c24.667 0 44.167 6.5 58.5 19.5s21.5 29.833 21.5 50.5c0 27.333 -23.333 54 -70 80l-160 90c-25.333 14 -46.666 32.167 -63.999 54.5
s-26 47.5 -26 75.5c0 40 18 72.5 54 97.5s89.667 37.5 161 37.5c29.333 0 57.833 -5.83301 85.5 -17.5s47.834 -23.5 60.501 -35.5l19 -17c0 4 2 9.83301 6 17.5s8 13.834 12 18.501c12 12.667 27.667 19 47 19h20v-175h-50c-12 48 -36.167 87.5 -72.5 118.5
s-72.166 46.5 -107.499 46.5c-22 0 -40 -6.33301 -54 -19s-21 -28 -21 -46z" />
    <glyph glyph-name="t" unicode="t" horiz-adv-x="470" 
d="M300 -16c-68.667 0 -120.835 17 -156.502 51s-53.5 80.667 -53.5 140v295l-80 10v20h80v145c16.667 3.33301 33.334 5 50.001 5c80 0 120 -40 120 -120v-30h170v-20l-170 -10v-295c0 -58 7.66699 -100 23 -126s34.5 -39 57.5 -39s43.333 10 61 30
s28.834 48.333 33.501 85l25 -5c-10.667 -48 -27.5 -82.667 -50.5 -104s-59.5 -32 -109.5 -32z" />
    <glyph glyph-name="u" unicode="u" horiz-adv-x="720" 
d="M430 475l-79.9971 9.99902v15h330v-15l-80 -10v-450l80 -10v-15h-95c-21.333 0 -40.666 3.5 -57.999 10.5s-30.333 15.5 -39 25.5c-18.667 19.333 -30.334 37.333 -35.001 54l-3 10c-10.667 -27.333 -29 -52.333 -55 -75c-11.333 -10 -26.833 -19.167 -46.5 -27.5
s-40.834 -12.5 -63.501 -12.5c-62.667 0 -110.834 14.333 -144.501 43s-50.5 69.334 -50.5 122.001v325l-80 10v15h130c80 0 120 -40 120 -120v-230c0 -44.667 6 -77.5 18 -98.5s27.667 -31.5 47 -31.5s37.666 8 54.999 24s30 32 38 48l12 23v360z" />
    <glyph glyph-name="v" unicode="v" horiz-adv-x="610" 
d="M538 470l-218 -480h-30l-255 485l-55 10v15h136c33.333 0 60.333 -8 81 -24s40 -41.333 58 -76l116 -221l132 291l-98 15v15h225v-15z" />
    <glyph glyph-name="w" unicode="w" horiz-adv-x="902" 
d="M830 470l-202 -480h-30l-157 310l-130 -310h-30l-245 485l-56 10v15h130c60 0 106.667 -33.333 140 -100l108 -214l64 152l-69 137l-56 10v15h130c60 0 106.667 -33.333 140 -100l108 -214l120 284l-98 15v15h225v-15z" />
    <glyph glyph-name="x" unicode="x" horiz-adv-x="585" 
d="M55 475l-55 10v15h150c32 0 57.667 -7.83301 77 -23.5s40.333 -41.167 63 -76.5l43 -67l103 137l-96 15v15h235v-15l-104 -15l-122 -162l181 -283l55 -10v-15h-150c-32 -0 -57.667 7.83301 -77 23.5s-40.333 41.167 -63 76.5l-48 74l-108 -144l96 -15v-15h-225v15l94 15
l127 169z" />
    <glyph glyph-name="y" unicode="y" horiz-adv-x="584" 
d="M533 470l-218 -530.001c-42.667 -104 -104.334 -156 -185.001 -156c-37.333 0 -66.666 8.33301 -87.999 25s-32 37.834 -32 63.501s7.66699 46.5 23 62.5s36 24 62 24l40 -5v-145c28 0 55 11.5 81 34.5s47.333 55.167 64 96.5l16 40l-261 495l-55 10v15h135
c33.333 0 60.5 -8 81.5 -24s40.5 -41.333 58.5 -76l120 -228l123 298l-98 15v15h224v-15z" />
    <glyph glyph-name="z" unicode="z" horiz-adv-x="590" 
d="M355 475h-195c-1.33301 -28 -7.5 -55 -18.5 -81s-21.5 -44.667 -31.5 -56l-15 -18h-30v180h475v-25l-305 -450h195c1.33301 28 7.5 55 18.5 81s21.5 44.667 31.5 56l15 18h30v-180h-475v25z" />
    <glyph glyph-name="braceleft" unicode="{" horiz-adv-x="400" 
d="M280 550v-140.002c0 -45.333 -14.667 -82.166 -44 -110.499s-71.333 -44.833 -126 -49.5c54.667 -4.66699 96.667 -21.167 126 -49.5s44 -65.166 44 -110.499v-140c0 -40.667 8.33301 -71.667 25 -93s38.334 -32 65.001 -32h10v-25h-50
c-67.333 0 -119.166 14.833 -155.499 44.5s-54.5 68.167 -54.5 115.5v155c0 41.333 -8.83301 72.5 -26.5 93.5s-42.167 31.5 -73.5 31.5v20c31.333 0 55.833 10.5 73.5 31.5s26.5 52.167 26.5 93.5v155c0 47.333 18.167 85.833 54.5 115.5s88.166 44.5 155.499 44.5h50v-25
h-10c-26.667 0 -48.334 -10.667 -65.001 -32s-25 -52.333 -25 -93z" />
    <glyph glyph-name="bar" unicode="|" horiz-adv-x="255" 
d="M100 701h55v-901h-55v901z" />
    <glyph glyph-name="braceright" unicode="}" horiz-adv-x="400" 
d="M120 410v140.002c0 40.667 -8.33301 71.667 -25 93s-38.334 32 -65.001 32h-10v25h50c67.333 0 119.166 -14.833 155.499 -44.5s54.5 -68.167 54.5 -115.5v-155c0 -41.333 8.83301 -72.5 26.5 -93.5s42.167 -31.5 73.5 -31.5v-20c-31.333 0 -55.833 -10.5 -73.5 -31.5
s-26.5 -52.167 -26.5 -93.5v-155c0 -47.333 -18.167 -85.833 -54.5 -115.5s-88.166 -44.5 -155.499 -44.5h-50v25h10c26.667 0 48.334 10.667 65.001 32s25 52.333 25 93v140c0 45.333 14.667 82.166 44 110.499s71.333 44.833 126 49.5
c-54.667 4.66699 -96.667 21.167 -126 49.5s-44 65.166 -44 110.499z" />
    <glyph glyph-name="asciitilde" unicode="~" horiz-adv-x="545" 
d="M366 225c-22 0 -44.332 5 -66.999 15s-41 20.667 -55 32c-39.333 32 -72.5 48 -99.5 48s-48.333 -5.83301 -64 -17.5s-25.5 -23.167 -29.5 -34.5l-6 -18h-15c0 38 9 74.333 27 109c24.667 47.333 64 71 118 71c31.333 0 60.5 -8 87.5 -24s52 -31.833 75 -47.5
s46 -23.5 69 -23.5s42.333 5.83301 58 17.5s25.5 23.5 29.5 35.5l6 17h15c0 -38 -9 -74.333 -27 -109c-24.667 -47.333 -65.334 -71 -122.001 -71z" />
    <glyph glyph-name="nbspace" unicode="&#xa0;" horiz-adv-x="0" 
 />
    <glyph glyph-name="exclamdown" unicode="&#xa1;" horiz-adv-x="340" 
d="M190 285l80 -385c0 -34 -9.66699 -61.667 -29 -83s-43 -32 -71 -32s-51.667 10.667 -71 32s-29 49 -29 83l80 385h40zM170 510c23.333 0 42.5 -7.5 57.5 -22.5s22.5 -34.167 22.5 -57.5s-7.5 -42.5 -22.5 -57.5s-34.167 -22.5 -57.5 -22.5s-42.5 7.5 -57.5 22.5
s-22.5 34.167 -22.5 57.5s7.5 42.5 22.5 57.5s34.167 22.5 57.5 22.5z" />
    <glyph glyph-name="cent" unicode="&#xa2;" horiz-adv-x="560" 
d="M345 -80h-34.9971v65c-76 2 -138.333 25.167 -187 69.5s-73 109.5 -73 195.5s24.333 151.167 73 195.5s111 67.5 187 69.5v65h35v-66c123.333 -4 185 -40.333 185 -109c0 -21.333 -7.5 -39.166 -22.5 -53.499s-35.833 -21.5 -62.5 -21.5l-45 5v150
c-16.667 3.33301 -33.334 5 -50.001 5h-5v-480c35.333 0.666992 67.166 12 95.499 34s50.5 47.333 66.5 76l23 -15c-46.667 -72.667 -108.334 -112.334 -185.001 -119.001v-66zM242.003 416.5c-14.667 -36.333 -21.999 -92.333 -21.999 -168s7.5 -131.834 22.5 -168.501
s37.5 -59 67.5 -67v472c-30.667 -9.33301 -53.334 -32.166 -68.001 -68.499z" />
    <glyph glyph-name="sterling" unicode="&#xa3;" 
d="M221 657.5c44.667 38.333 99.3311 57.498 163.998 57.498c132.667 0 199 -35 199 -105c0 -21.333 -7.5 -39.166 -22.5 -53.499s-35.833 -21.5 -62.5 -21.5l-40 5v145c-13.333 3.33301 -27.166 5 -41.499 5s-28 -4.33301 -41 -13s-25.167 -27.667 -36.5 -57
s-19.333 -69.333 -24 -120l-9 -105h182v-20l-184 -10l-25 -320h219c2 20.667 8 42.334 18 65.001s19.667 40 29 52l14 18h30v-180h-560v25l81 20l25 320l-77 10v20h80l8 105c4.66699 66.667 29.334 119.167 74.001 157.5z" />
    <glyph glyph-name="currency" unicode="&#xa4;" horiz-adv-x="710" 
d="M555 185h-255v-160l80 -10v-15h-330v15l80 10v160h-80v35h80v60h-80v35h80v360l-80 10v15h320c206.667 0 310 -70 310 -210s-103.333 -210 -310 -210h-70v-60h255v-35zM300 310h50c106.667 0 160 60.833 160 182.5s-53.333 182.5 -160 182.5h-50v-365z" />
    <glyph glyph-name="yen" unicode="&#xa5;" horiz-adv-x="675" 
d="M580 165h-150v-140l80 -10v-15h-330v15l80 10v140h-150v35h150v65l-11 20h-139v35h120l-195 355l-55 10v15h140c33.333 0 60 -7.83301 80 -23.5s40 -41.167 60 -76.5l150 -270l168 340l-98 15v15h225v-15l-92 -15l-171 -350h138v-35h-150v-85h150v-35z" />
    <glyph glyph-name="brokenbar" unicode="&#xa6;" horiz-adv-x="255" 
d="M155 -200h-55v360h55v-360zM100 701h55v-361h-55v361z" />
    <glyph glyph-name="section" unicode="&#xa7;" horiz-adv-x="610" 
d="M395 110l50 -35c56.667 -40.667 85 -89 85 -145c0 -40.667 -18.667 -74.167 -56 -100.5s-93.666 -39.5 -168.999 -39.5c-143.333 0 -215 36.667 -215 110c0 21.333 7.5 39.166 22.5 53.499s35.833 21.5 62.5 21.5l45 -5v-150c16.667 -3.33301 39.334 -5 68.001 -5
c58 0 87 25 87 75c0 33.333 -23.333 66.666 -70 99.999l-160 115c-56.667 40.667 -85 85.667 -85 135c0 72 51.667 122 155 150l-50 35c-56.667 40.667 -85 89 -85 145c0 40.667 18.667 74.167 56 100.5s93.666 39.5 168.999 39.5c143.333 0 215 -36.667 215 -110
c0 -21.333 -7.5 -39.166 -22.5 -53.499s-35.833 -21.5 -62.5 -21.5l-45 5v150c-16.667 3.33301 -39.334 5 -68.001 5c-58 0 -87 -25 -87 -75c0 -33.333 23.333 -66.666 70 -99.999l160 -115c56.667 -40.667 85 -85.667 85 -135c0 -72 -51.667 -122 -155 -150zM375 125
c13.333 20 20 47.333 20 82s-23.333 69 -70 103l-90 65c-13.333 -20 -20 -47.333 -20 -82s23.333 -69 70 -103z" />
    <glyph glyph-name="dieresis" unicode="&#xa8;" horiz-adv-x="305" 
d="M60 700c-17.333 0 -31.666 5.66699 -42.999 17s-17 25.666 -17 42.999s5.66699 31.666 17 42.999s25.666 17 42.999 17s31.666 -5.66699 42.999 -17s17 -25.666 17 -42.999s-5.66699 -31.666 -17 -42.999s-25.666 -17 -42.999 -17zM288.5 717
c-11 -11.333 -25.333 -17 -43 -17s-32.167 5.66699 -43.5 17s-17 25.666 -17 42.999s5.66699 31.666 17 42.999s25.833 17 43.5 17s32 -5.66699 43 -17s16.5 -25.666 16.5 -42.999s-5.5 -31.666 -16.5 -42.999z" />
    <glyph glyph-name="copyright" unicode="&#xa9;" horiz-adv-x="840" 
d="M455 540c-30 0 -53.332 -14.167 -69.999 -42.5s-25 -77.5 -25 -147.5s8.33301 -119.167 25 -147.5s40 -42.5 70 -42.5c52.667 0 97.667 26.667 135 80l20 -15c-45.333 -60 -103 -90 -173 -90s-125.333 19.333 -166 58s-61 91 -61 157s20.333 118.333 61 157s97 58 169 58
c51.333 0 94.166 -9.5 128.499 -28.5s51.5 -44.5 51.5 -76.5c0 -21.333 -6.66699 -38.333 -20 -51s-33.333 -19 -60 -19l-40 5v140c-13.333 3.33301 -28.333 5 -45 5zM800.001 350c0 -104.667 -37 -192.5 -111 -263.5s-163.667 -106.5 -269 -106.5s-195 35.5 -269 106.5
s-111 158.833 -111 263.5s37 192.5 111 263.5s163.667 106.5 269 106.5s195 -35.5 269 -106.5s111 -158.833 111 -263.5zM420.001 10c94.667 0 175 31.667 241 95s99 145 99 245s-33 181.667 -99 245s-146.333 95 -241 95s-175 -31.667 -241 -95s-99 -145 -99 -245
s33 -181.667 99 -245s146.333 -95 241 -95z" />
    <glyph glyph-name="ordfeminine" unicode="&#xaa;" horiz-adv-x="470" 
d="M165 525c-6.66699 -16.667 -10 -38.333 -10 -65c0 -50 11.667 -75 35 -75c12 0 23.333 5.16699 34 15.5s18.667 20.833 24 31.5l7 16v87c-32 0 -58.333 -2.33301 -79 -7zM255 555.001l-0.000976562 25.001c0 37.333 -6 65 -18 83s-27.667 27 -47 27l-40 -5v-95
c-10 -3.33301 -21.833 -5 -35.5 -5s-26.167 4.33301 -37.5 13s-17 21 -17 37c0 50 53.333 75 160 75c47.333 0 84.166 -13.167 110.499 -39.5s39.5 -63.166 39.5 -110.499v-170l60 -5v-15h-70c-30 0 -52 8 -66 24c-12.667 15.333 -20.667 30.666 -24 45.999
c-2 -6.66699 -6.66699 -15.334 -14 -26.001s-14.666 -19.334 -21.999 -26.001c-20.667 -18.667 -48 -28 -82 -28s-61.167 9 -81.5 27s-30.5 42.333 -30.5 73c0 24.667 5 46.334 15 65.001c66.667 20 133.334 30 200.001 30z" />
    <glyph glyph-name="guillemotleft" unicode="&#xab;" horiz-adv-x="490" 
d="M215 230v40l215 160l20 -25l-135 -155l135 -155l-21 -25zM360 475l-255 -225l255 -225l-20 -25l-340 230v40l340 230z" />
    <glyph glyph-name="logicalnot" unicode="&#xac;" horiz-adv-x="415" 
d="M340 250v90h-310v45h355v-135h-45z" />
    <glyph glyph-name="uni00AD" unicode="&#xad;" horiz-adv-x="335" 
d="M305 310h-275v55h275v-55z" />
    <glyph glyph-name="registered" unicode="&#xae;" horiz-adv-x="840" 
d="M800 350c0 -104.667 -37 -192.5 -111 -263.5s-163.667 -106.5 -269 -106.5s-195 35.5 -269 106.5s-111 158.833 -111 263.5s37 192.5 111 263.5s163.667 106.5 269 106.5s195 -35.5 269 -106.5s111 -158.833 111 -263.5zM420 10c94.667 0 175 31.667 241 95
s99 145 99 245s-33 181.667 -99 245s-146.333 95 -241 95s-175 -31.667 -241 -95s-99 -145 -99 -245s33 -181.667 99 -245s146.333 -95 241 -95zM665 140l-105.001 0.000976562c-46.667 0 -81.667 21.667 -105 65l-65 120h-10v-165l55 -5v-15h-255v15l55 5v380l-55 5v15h210
c86.667 0 147.5 -10.333 182.5 -31s52.5 -50.334 52.5 -89.001c0 -28.667 -12.333 -53.5 -37 -74.5s-57.667 -32.833 -99 -35.5c20 0 40.667 -11.333 62 -34c8.66699 -8.66699 16.334 -19 23.001 -31l56 -100l35 -10v-15zM389.999 535.001h-10v-190h10
c27.333 0 48.333 8.33301 63 25s22 40 22 70c0 63.333 -28.333 95 -85 95z" />
    <glyph glyph-name="macron" unicode="&#xaf;" horiz-adv-x="325" 
d="M325 700h-325v55h325v-55z" />
    <glyph glyph-name="degree" unicode="&#xb0;" horiz-adv-x="440" 
d="M220 675c-36 0 -65.833 -12.833 -89.5 -38.5s-35.5 -59.5 -35.5 -101.5s11.833 -75.833 35.5 -101.5s53.5 -38.5 89.5 -38.5s65.833 12.833 89.5 38.5s35.5 59.5 35.5 101.5s-11.833 75.833 -35.5 101.5s-53.5 38.5 -89.5 38.5zM220 710c48 0 88.333 -16.667 121 -50
s49 -75 49 -125s-16.333 -91.667 -49 -125s-73 -50 -121 -50s-88.333 16.667 -121 50s-49 75 -49 125s16.333 91.667 49 125s73 50 121 50z" />
    <glyph glyph-name="plusminus" unicode="&#xb1;" horiz-adv-x="535" 
d="M290 85h-45v225h-215v45h215v225h45v-225h215v-45h-215v-225zM30 100h475v-45h-475v45z" />
    <glyph glyph-name="twosuperior" unicode="&#xb2;" horiz-adv-x="395" 
d="M200 710c52 0 90.833 -9.33203 116.5 -27.999s38.5 -42.167 38.5 -70.5s-11.833 -52.333 -35.5 -72s-50.167 -34.167 -79.5 -43.5c-89.333 -28 -146 -55 -170 -81h210c5.33301 26 16 48 32 66l8 9h20v-120h-300v25c0 22 6.66699 41.667 20 59s29.5 31.666 48.5 42.999
l57.5 35c46 27.333 69 60.5 69 99.5s-18.333 58.5 -55 58.5l-50 -5v-95c-10 -3.33301 -21.833 -5 -35.5 -5s-26.167 4.33301 -37.5 13s-17 21 -17 37c0 50 53.333 75 160 75z" />
    <glyph glyph-name="threesuperior" unicode="&#xb3;" horiz-adv-x="395" 
d="M312 683.5c25.333 -17.667 38.002 -37.8311 38.002 -60.498s-10.833 -41.5 -32.5 -56.5s-50.834 -23.833 -87.501 -26.5c39.333 -2.66699 70 -11.834 92 -27.501s33 -36 33 -61s-12.833 -46.5 -38.5 -64.5s-64.5 -27 -116.5 -27c-106.667 0 -160 25 -160 75
c0 16 5.66699 28.333 17 37s24 13 38 13l35 -5v-95c20 -3.33301 37.667 -5 53 -5s27.833 6.66699 37.5 20s14.5 31.5 14.5 54.5s-4.83301 41.333 -14.5 55s-23.167 20.5 -40.5 20.5h-50v20h45c17.333 0 30.833 6.5 40.5 19.5s14.5 29.667 14.5 50
s-4.66699 37.166 -14 50.499s-21.333 20 -36 20l-50 -5v-95c-10 -3.33301 -21.833 -5 -35.5 -5s-26.167 4.33301 -37.5 13s-17 21 -17 37c0 50 53.333 75 160 75c49.333 0 86.666 -8.83301 111.999 -26.5z" />
    <glyph glyph-name="acute" unicode="&#xb4;" horiz-adv-x="180" 
d="M50 870h130l-136 -170h-44z" />
    <glyph glyph-name="mu" unicode="&#xb5;" horiz-adv-x="740" 
d="M110 -175l0.00292969 650.002l-80 10v15h130c80 0 120 -40 120 -120v-220c0 -32 7.16699 -61 21.5 -87s30.833 -39 49.5 -39s36 6.66699 52 20s27.667 26.666 35 39.999l12 21v360l-80 10v15h330v-15l-80 -10v-450l80 -10v-15h-95c-21.333 0 -40.666 3.5 -57.999 10.5
s-30.333 15.5 -39 25.5c-18.667 19.333 -30.334 37.333 -35.001 54l-3 10c-2 -9.33301 -6.83301 -20.333 -14.5 -33s-15.667 -23.334 -24 -32.001s-19.833 -16.667 -34.5 -24s-29.834 -11 -45.501 -11s-29.334 3.16699 -41.001 9.5s-19.834 12.833 -24.501 19.5l-6 10v-119
c0 -80 -40 -120 -120 -120h-130v15z" />
    <glyph glyph-name="mu" unicode="&#x3bc;" horiz-adv-x="740" 
d="M110 -175l0.00292969 650.002l-80 10v15h130c80 0 120 -40 120 -120v-220c0 -32 7.16699 -61 21.5 -87s30.833 -39 49.5 -39s36 6.66699 52 20s27.667 26.666 35 39.999l12 21v360l-80 10v15h330v-15l-80 -10v-450l80 -10v-15h-95c-21.333 0 -40.666 3.5 -57.999 10.5
s-30.333 15.5 -39 25.5c-18.667 19.333 -30.334 37.333 -35.001 54l-3 10c-2 -9.33301 -6.83301 -20.333 -14.5 -33s-15.667 -23.334 -24 -32.001s-19.833 -16.667 -34.5 -24s-29.834 -11 -45.501 -11s-29.334 3.16699 -41.001 9.5s-19.834 12.833 -24.501 19.5l-6 10v-119
c0 -80 -40 -120 -120 -120h-130v15z" />
    <glyph glyph-name="paragraph" unicode="&#xb6;" 
d="M385 -200l-55 -0.000976562v410c-86 1.33301 -154.167 23.833 -204.5 67.5s-75.5 103.334 -75.5 179.001s26.167 135.167 78.5 178.5s122.833 65 211.5 65h260v-25h-85v-875h-55v875h-75v-875z" />
    <glyph glyph-name="periodcentered" unicode="&#xb7;" horiz-adv-x="300" 
d="M150 270c-23.333 0 -42.5 7.5 -57.5 22.5s-22.5 34.167 -22.5 57.5s7.5 42.5 22.5 57.5s34.167 22.5 57.5 22.5s42.5 -7.5 57.5 -22.5s22.5 -34.167 22.5 -57.5s-7.5 -42.5 -22.5 -57.5s-34.167 -22.5 -57.5 -22.5z" />
    <glyph glyph-name="cedilla" unicode="&#xb8;" horiz-adv-x="140" 
d="M20 -70l-5 0.00195312v70h30v-50c32 0 57.5 -6.83301 76.5 -20.5s28.5 -31.834 28.5 -54.501s-9.5 -40.834 -28.5 -54.501s-44.5 -20.5 -76.5 -20.5h-45v20h20c15.333 0 28.333 5 39 15s16 23.333 16 40s-5.33301 30 -16 40s-23.667 15 -39 15z" />
    <glyph glyph-name="onesuperior" unicode="&#xb9;" horiz-adv-x="325" 
d="M225 700v-310l60 -5v-15h-235v15l60 5v230l-55 -45l-15 20l105 105h80z" />
    <glyph glyph-name="ordmasculine" unicode="&#xba;" horiz-adv-x="420" 
d="M380 535c0 -53.333 -14.833 -95.833 -44.5 -127.5s-71.5 -47.5 -125.5 -47.5s-95.833 15.833 -125.5 47.5s-44.5 74.167 -44.5 127.5s14.833 95.833 44.5 127.5s71.5 47.5 125.5 47.5s95.833 -15.833 125.5 -47.5s44.5 -74.167 44.5 -127.5zM265 535
c0 103.333 -18.333 155 -55 155s-55 -51.667 -55 -155s18.333 -155 55 -155s55 51.667 55 155z" />
    <glyph glyph-name="guillemotright" unicode="&#xbb;" horiz-adv-x="490" 
d="M385 250l-255 225l20 25l340 -230v-40l-340 -230l-20 25zM275 270v-40l-214 -160l-21 25l135 155l-135 155l20 25z" />
    <glyph glyph-name="onequarter" unicode="&#xbc;" horiz-adv-x="770" 
d="M615 700h45l-530 -700h-50zM575 340c52 0 90.833 -9.33203 116.5 -27.999s38.5 -42.167 38.5 -70.5s-11.833 -52.333 -35.5 -72s-50.5 -34.167 -80.5 -43.5c-88.667 -28 -145 -55 -169 -81h210c5.33301 26 16 48 32 66l8 9h20v-120h-300v25c0 22 6.66699 41.667 20 59
s29.5 31.666 48.5 42.999l57.5 35c46 27.333 69 60.5 69 99.5s-18.333 58.5 -55 58.5l-50 -5v-95c-10 -3.33301 -21.833 -5 -35.5 -5s-26.167 4.33301 -37.5 13s-17 21 -17 37c0 50 53.333 75 160 75zM225 700.001v-310l60 -5v-15h-235v15l60 5v230l-55 -45l-15 20l105 105
h80z" />
    <glyph glyph-name="onehalf" unicode="&#xbd;" horiz-adv-x="700" 
d="M325 70v20l240 250h30v-250h65v-20h-65v-50l60 -5v-15h-235v15l60 5v50h-155zM480 220l-125 -130h125v130zM615 700h45l-530 -700h-50zM225 700v-310l60 -5v-15h-235v15l60 5v230l-55 -45l-15 20l105 105h80z" />
    <glyph glyph-name="threequarters" unicode="&#xbe;" horiz-adv-x="755" 
d="M312 683.5c25.333 -17.667 38.002 -37.8311 38.002 -60.498s-10.833 -41.5 -32.5 -56.5s-50.834 -23.833 -87.501 -26.5c39.333 -2.66699 70 -11.834 92 -27.501s33 -36 33 -61s-12.833 -46.5 -38.5 -64.5s-64.5 -27 -116.5 -27c-106.667 0 -160 25 -160 75
c0 16 5.66699 28.333 17 37s24 13 38 13l35 -5v-95c20 -3.33301 37.667 -5 53 -5s27.833 6.66699 37.5 20s14.5 31.5 14.5 54.5s-4.83301 41.333 -14.5 55s-23.167 20.5 -40.5 20.5h-50v20h45c17.333 0 30.833 6.5 40.5 19.5s14.5 29.667 14.5 50
s-4.66699 37.166 -14 50.499s-21.333 20 -36 20l-50 -5v-95c-10 -3.33301 -21.833 -5 -35.5 -5s-26.167 4.33301 -37.5 13s-17 21 -17 37c0 50 53.333 75 160 75c49.333 0 86.666 -8.83301 111.999 -26.5zM670.002 700.003h45l-530 -700h-50zM380.002 70.0029v20l240 250h30
v-250h65v-20h-65v-50l60 -5v-15h-235v15l60 5v50h-155zM535.002 220.003l-125 -130h125v130z" />
    <glyph glyph-name="questiondown" unicode="&#xbf;" horiz-adv-x="590" 
d="M305 205l0.000976562 79.999h50v-105c-96.667 -45.333 -145 -120.333 -145 -225c0 -50 11.667 -86.667 35 -110s60 -35 110 -35c25.333 0 50 4 74 12l11 3v160c13.333 3.33301 30.833 5 52.5 5s40 -7.16699 55 -21.5s22.5 -32.166 22.5 -53.499
c0 -35.333 -22.167 -65.833 -66.5 -91.5s-109.333 -38.5 -195 -38.5s-151.834 18 -198.501 54s-70 83 -70 141c0 40.667 13.833 77.334 41.5 110.001s60.5 57.667 98.5 75s79.667 30.666 125 39.999zM330.001 509.999c23.333 0 42.5 -7.5 57.5 -22.5
s22.5 -34.167 22.5 -57.5s-7.5 -42.5 -22.5 -57.5s-34.167 -22.5 -57.5 -22.5s-42.5 7.5 -57.5 22.5s-22.5 34.167 -22.5 57.5s7.5 42.5 22.5 57.5s34.167 22.5 57.5 22.5z" />
    <glyph glyph-name="Agrave" unicode="&#xc0;" horiz-adv-x="760" 
d="M-20 15l91.999 15l303 680h30l310 -685l65 -10v-15h-145c-63.333 0 -111.666 36.667 -144.999 110l-41 90h-266l-76 -170l98 -15v-15h-225v15zM314.999 497l-119 -267h240zM233.999 930h130l50 -170h-44z" />
    <glyph glyph-name="Aacute" unicode="&#xc1;" horiz-adv-x="760" 
d="M-20 15l91.999 15l303 680h30l310 -685l65 -10v-15h-145c-63.333 0 -111.666 36.667 -144.999 110l-41 90h-266l-76 -170l98 -15v-15h-225v15zM314.999 497l-119 -267h240zM419.999 930h130l-136 -170h-44z" />
    <glyph glyph-name="Acircumflex" unicode="&#xc2;" horiz-adv-x="760" 
d="M-20 15l91.999 15l303 680h30l310 -685l65 -10v-15h-145c-63.333 0 -111.666 36.667 -144.999 110l-41 90h-266l-76 -170l98 -15v-15h-225v15zM314.999 497l-119 -267h240zM364.999 900h50l130 -160h-44l-111 91l-111 -91h-44z" />
    <glyph glyph-name="Atilde" unicode="&#xc3;" horiz-adv-x="760" 
d="M-20 15l91.999 15l303 680h30l310 -685l65 -10v-15h-145c-63.333 0 -111.666 36.667 -144.999 110l-41 90h-266l-76 -170l98 -15v-15h-225v15zM314.999 497l-119 -267h240zM409.999 855c21.333 -16.667 38.666 -25 51.999 -25s25 3.66699 35 11s16.333 15 19 23l4 11h15
c0 -47.333 -15.667 -81.666 -47 -102.999c-12 -8 -27.667 -12 -47 -12s-39.666 8.33301 -60.999 25s-38.666 25 -51.999 25s-25 -3.66699 -35 -11s-16.333 -15 -19 -23l-4 -11h-15c0 47.333 15.667 81.666 47 102.999c12 8 27.667 12 47 12s39.666 -8.33301 60.999 -25z" />
    <glyph glyph-name="Adieresis" unicode="&#xc4;" horiz-adv-x="760" 
d="M-20 15l91.999 15l303 680h30l310 -685l65 -10v-15h-145c-63.333 0 -111.666 36.667 -144.999 110l-41 90h-266l-76 -170l98 -15v-15h-225v15zM314.999 497l-119 -267h240zM296.999 760c-17.333 0 -31.666 5.66699 -42.999 17s-17 25.666 -17 42.999
s5.66699 31.666 17 42.999s25.666 17 42.999 17s31.666 -5.66699 42.999 -17s17 -25.666 17 -42.999s-5.66699 -31.666 -17 -42.999s-25.666 -17 -42.999 -17zM525.499 777c-11 -11.333 -25.333 -17 -43 -17s-32.167 5.66699 -43.5 17s-17 25.666 -17 42.999
s5.66699 31.666 17 42.999s25.833 17 43.5 17s32 -5.66699 43 -17s16.5 -25.666 16.5 -42.999s-5.5 -31.666 -16.5 -42.999z" />
    <glyph glyph-name="Aring" unicode="&#xc5;" horiz-adv-x="760" 
d="M461 842c19.333 -18.667 29.001 -41.167 29.001 -67.5s-6.33301 -48.166 -19 -65.499s-29.334 -29 -50.001 -35l294 -649l65 -10v-15h-145c-63.333 0 -111.666 36.667 -144.999 110l-41 90h-266l-76 -170l98 -15v-15h-225v15l92 15l287 644
c-20.667 6 -37.334 17.667 -50.001 35s-19 39.166 -19 65.499s9.66699 48.833 29 67.5s43 28 71 28s51.667 -9.33301 71 -28zM315.001 497l-119 -267h240zM445.001 770c0 17.333 -5.33301 31.666 -16 42.999s-23.667 17 -39 17s-28.333 -5.66699 -39 -17
s-16 -25.666 -16 -42.999s5.33301 -31.666 16 -42.999s23.667 -17 39 -17s28.333 5.66699 39 17s16 25.666 16 42.999z" />
    <glyph glyph-name="AE" unicode="&#xc6;" horiz-adv-x="1075" 
d="M670 25l250.001 0.000976562c1.33301 28 7.5 55.833 18.5 83.5s21.5 48.167 31.5 61.5l15 20h30v-190h-595v15l80 10v230h-255l-147 -225l97 -15v-15h-225v15l93 15l437 670h515v-190h-30c-4.66699 5.33301 -10.334 12.666 -17.001 21.999s-16 28.5 -28 57.5
s-18.667 57.5 -20 85.5h-250v-305h135c2.66699 18.667 8.5 40.5 17.5 65.5s18.167 44.833 27.5 59.5h25v-275h-25c-9.33301 14.667 -18.5 34.5 -27.5 59.5s-14.833 46.833 -17.5 65.5h-135v-320zM264.001 285.001h236v362z" />
    <glyph glyph-name="Ccedilla" unicode="&#xc7;" horiz-adv-x="705" 
d="M268 694.5c35.333 13.667 67.167 20.501 95.5 20.501s52 -2.5 71 -7.5s34.833 -11.167 47.5 -18.5c24 -13.333 42.667 -27 56 -41l7 -8c8.66699 15.333 20.834 29.166 36.501 41.499s30.167 18.5 43.5 18.5h20v-190h-45c-20.667 48 -49.5 90 -86.5 126
s-76.667 54 -119 54s-79.5 -27.833 -111.5 -83.5s-48 -142 -48 -259s17.5 -202.5 52.5 -256.5s79.167 -81 132.5 -81c44 0 85.667 13.167 125 39.5s68.333 59.833 87 100.5l23 -15c-52.667 -100 -136 -150 -250 -150c-10.667 0 -18.334 0.333008 -23.001 1v-36
c32 0 57.5 -6.83301 76.5 -20.5s28.5 -31.834 28.5 -54.501s-9.5 -40.834 -28.5 -54.501s-44.5 -20.5 -76.5 -20.5h-45v20h20c15.333 0 28.333 5 39 15s16 23.333 16 40s-5.33301 30 -16 40s-23.667 15 -39 15h-5v59c-78 9.33301 -145 42 -201 98
c-28 28 -50.167 64.5 -66.5 109.5s-24.5 97.667 -24.5 158s9.83301 114.833 29.5 163.5s45.5 86.834 77.5 114.501s65.667 48.334 101 62.001z" />
    <glyph glyph-name="Egrave" unicode="&#xc8;" horiz-adv-x="705" 
d="M300 25l250.001 0.000976562c1.33301 28 7.5 55.833 18.5 83.5s21.5 48.167 31.5 61.5l15 20h30v-190h-595v15l80 10v650l-80 10v15h595v-190h-30c-4.66699 5.33301 -10.334 12.666 -17.001 21.999s-16 28.5 -28 57.5s-18.667 57.5 -20 85.5h-250v-305h135
c2.66699 18.667 8.5 40.5 17.5 65.5s18.167 44.833 27.5 59.5h25v-275h-25c-9.33301 14.667 -18.5 34.5 -27.5 59.5s-14.833 46.833 -17.5 65.5h-135v-320zM252.001 930.001h130l50 -170h-44z" />
    <glyph glyph-name="Eacute" unicode="&#xc9;" horiz-adv-x="705" 
d="M300 25l250.001 0.000976562c1.33301 28 7.5 55.833 18.5 83.5s21.5 48.167 31.5 61.5l15 20h30v-190h-595v15l80 10v650l-80 10v15h595v-190h-30c-4.66699 5.33301 -10.334 12.666 -17.001 21.999s-16 28.5 -28 57.5s-18.667 57.5 -20 85.5h-250v-305h135
c2.66699 18.667 8.5 40.5 17.5 65.5s18.167 44.833 27.5 59.5h25v-275h-25c-9.33301 14.667 -18.5 34.5 -27.5 59.5s-14.833 46.833 -17.5 65.5h-135v-320zM412.001 930.001h130l-136 -170h-44z" />
    <glyph glyph-name="Ecircumflex" unicode="&#xca;" horiz-adv-x="705" 
d="M300 25l250.001 0.000976562c1.33301 28 7.5 55.833 18.5 83.5s21.5 48.167 31.5 61.5l15 20h30v-190h-595v15l80 10v650l-80 10v15h595v-190h-30c-4.66699 5.33301 -10.334 12.666 -17.001 21.999s-16 28.5 -28 57.5s-18.667 57.5 -20 85.5h-250v-305h135
c2.66699 18.667 8.5 40.5 17.5 65.5s18.167 44.833 27.5 59.5h25v-275h-25c-9.33301 14.667 -18.5 34.5 -27.5 59.5s-14.833 46.833 -17.5 65.5h-135v-320zM357.001 920.001h50l130 -160h-44l-111 91l-111 -91h-44z" />
    <glyph glyph-name="Edieresis" unicode="&#xcb;" horiz-adv-x="705" 
d="M300 25l250.001 0.000976562c1.33301 28 7.5 55.833 18.5 83.5s21.5 48.167 31.5 61.5l15 20h30v-190h-595v15l80 10v650l-80 10v15h595v-190h-30c-4.66699 5.33301 -10.334 12.666 -17.001 21.999s-16 28.5 -28 57.5s-18.667 57.5 -20 85.5h-250v-305h135
c2.66699 18.667 8.5 40.5 17.5 65.5s18.167 44.833 27.5 59.5h25v-275h-25c-9.33301 14.667 -18.5 34.5 -27.5 59.5s-14.833 46.833 -17.5 65.5h-135v-320zM280.001 770.001c-17.333 0 -31.666 5.66699 -42.999 17s-17 25.666 -17 42.999s5.66699 31.666 17 42.999
s25.666 17 42.999 17s31.666 -5.66699 42.999 -17s17 -25.666 17 -42.999s-5.66699 -31.666 -17 -42.999s-25.666 -17 -42.999 -17zM508.501 787.001c-11 -11.333 -25.333 -17 -43 -17s-32.167 5.66699 -43.5 17s-17 25.666 -17 42.999s5.66699 31.666 17 42.999
s25.833 17 43.5 17s32 -5.66699 43 -17s16.5 -25.666 16.5 -42.999s-5.5 -31.666 -16.5 -42.999z" />
    <glyph glyph-name="Igrave" unicode="&#xcc;" horiz-adv-x="430" 
d="M300 675v-650l80 -10v-15h-330v15l80 10v650l-80 10v15h330v-15zM65 930h130l50 -170h-44z" />
    <glyph glyph-name="Iacute" unicode="&#xcd;" horiz-adv-x="430" 
d="M300 675v-650l80 -10v-15h-330v15l80 10v650l-80 10v15h330v-15zM235 930h130l-136 -170h-44z" />
    <glyph glyph-name="Icircumflex" unicode="&#xce;" horiz-adv-x="430" 
d="M300 675v-650l80 -10v-15h-330v15l80 10v650l-80 10v15h330v-15zM190 920h50l130 -160h-44l-111 91l-111 -91h-44z" />
    <glyph glyph-name="Idieresis" unicode="&#xcf;" horiz-adv-x="430" 
d="M300 675v-650l80 -10v-15h-330v15l80 10v650l-80 10v15h330v-15zM122 770c-17.333 0 -31.666 5.66699 -42.999 17s-17 25.666 -17 42.999s5.66699 31.666 17 42.999s25.666 17 42.999 17s31.666 -5.66699 42.999 -17s17 -25.666 17 -42.999s-5.66699 -31.666 -17 -42.999
s-25.666 -17 -42.999 -17zM350.5 787c-11 -11.333 -25.333 -17 -43 -17s-32.167 5.66699 -43.5 17s-17 25.666 -17 42.999s5.66699 31.666 17 42.999s25.833 17 43.5 17s32 -5.66699 43 -17s16.5 -25.666 16.5 -42.999s-5.5 -31.666 -16.5 -42.999z" />
    <glyph glyph-name="Eth" unicode="&#xd0;" horiz-adv-x="775" 
d="M140 25v319.998h-90v25h90v305l-80 10v15h280c104 0 192.333 -26.667 265 -80c36.667 -27.333 65.834 -64.166 87.501 -110.499s32.5 -99.5 32.5 -159.5s-10.833 -113.167 -32.5 -159.5s-50.834 -83.166 -87.501 -110.499c-72.667 -53.333 -161 -80 -265 -80h-280v15z
M335 674.998h-25v-305h90v-25h-90v-320h25c63.333 0 115 26 155 78s60 134.333 60 247s-20 195 -60 247s-91.667 78 -155 78z" />
    <glyph glyph-name="Ntilde" unicode="&#xd1;" horiz-adv-x="815" 
d="M695 -10h-35l-485 515v-475l100 -15v-15h-225v15l90 15v645l-80 10v15h105c30 0 55.5 -7.16699 76.5 -21.5s49.5 -40.5 85.5 -78.5l333 -355v425l-100 15v15h225v-15l-90 -15v-680zM435 850c21.333 -16.667 38.666 -25 51.999 -25s25 3.83301 35 11.5
s16.333 15.167 19 22.5l4 11h15c0 -47.333 -15.667 -81.333 -47 -102c-12 -8.66699 -27.667 -13 -47 -13s-39.666 8.33301 -60.999 25s-38.666 25 -51.999 25s-25 -3.83301 -35 -11.5s-16.333 -15.167 -19 -22.5l-4 -11h-15c0 47.333 15.667 81.333 47 102
c12 8.66699 27.667 13 47 13s39.666 -8.33301 60.999 -25z" />
    <glyph glyph-name="Ograve" unicode="&#xd2;" horiz-adv-x="780" 
d="M235 350c0 -118.667 15.5 -205.834 46.5 -261.501s67.167 -83.5 108.5 -83.5s77.5 27.833 108.5 83.5s46.5 142.834 46.5 261.501s-15.5 205.834 -46.5 261.501s-67.167 83.5 -108.5 83.5s-77.5 -27.833 -108.5 -83.5s-46.5 -142.834 -46.5 -261.501zM720 350
c0 -63.333 -9.83301 -119.333 -29.5 -168s-45.667 -86.834 -78 -114.501s-67.333 -48.334 -105 -62.001s-76.834 -20.5 -117.501 -20.5s-79.834 6.83301 -117.501 20.5s-72.667 34.334 -105 62.001s-58.333 65.834 -78 114.501s-29.5 104.667 -29.5 168
s9.83301 119.333 29.5 168s45.667 86.834 78 114.501s67.333 48.334 105 62.001s76.834 20.5 117.501 20.5s79.834 -6.83301 117.501 -20.5s72.667 -34.334 105 -62.001s58.333 -65.834 78 -114.501s29.5 -104.667 29.5 -168zM240 930h130l50 -170h-44z" />
    <glyph glyph-name="Oacute" unicode="&#xd3;" horiz-adv-x="780" 
d="M235 350c0 -118.667 15.5 -205.834 46.5 -261.501s67.167 -83.5 108.5 -83.5s77.5 27.833 108.5 83.5s46.5 142.834 46.5 261.501s-15.5 205.834 -46.5 261.501s-67.167 83.5 -108.5 83.5s-77.5 -27.833 -108.5 -83.5s-46.5 -142.834 -46.5 -261.501zM720 350
c0 -63.333 -9.83301 -119.333 -29.5 -168s-45.667 -86.834 -78 -114.501s-67.333 -48.334 -105 -62.001s-76.834 -20.5 -117.501 -20.5s-79.834 6.83301 -117.501 20.5s-72.667 34.334 -105 62.001s-58.333 65.834 -78 114.501s-29.5 104.667 -29.5 168
s9.83301 119.333 29.5 168s45.667 86.834 78 114.501s67.333 48.334 105 62.001s76.834 20.5 117.501 20.5s79.834 -6.83301 117.501 -20.5s72.667 -34.334 105 -62.001s58.333 -65.834 78 -114.501s29.5 -104.667 29.5 -168zM410 930h130l-136 -170h-44z" />
    <glyph glyph-name="Ocircumflex" unicode="&#xd4;" horiz-adv-x="780" 
d="M235 350c0 -118.667 15.5 -205.834 46.5 -261.501s67.167 -83.5 108.5 -83.5s77.5 27.833 108.5 83.5s46.5 142.834 46.5 261.501s-15.5 205.834 -46.5 261.501s-67.167 83.5 -108.5 83.5s-77.5 -27.833 -108.5 -83.5s-46.5 -142.834 -46.5 -261.501zM720 350
c0 -63.333 -9.83301 -119.333 -29.5 -168s-45.667 -86.834 -78 -114.501s-67.333 -48.334 -105 -62.001s-76.834 -20.5 -117.501 -20.5s-79.834 6.83301 -117.501 20.5s-72.667 34.334 -105 62.001s-58.333 65.834 -78 114.501s-29.5 104.667 -29.5 168
s9.83301 119.333 29.5 168s45.667 86.834 78 114.501s67.333 48.334 105 62.001s76.834 20.5 117.501 20.5s79.834 -6.83301 117.501 -20.5s72.667 -34.334 105 -62.001s58.333 -65.834 78 -114.501s29.5 -104.667 29.5 -168zM365 920h50l130 -160h-44l-111 91l-111 -91h-44
z" />
    <glyph glyph-name="Otilde" unicode="&#xd5;" horiz-adv-x="780" 
d="M235 350c0 -118.667 15.5 -205.834 46.5 -261.501s67.167 -83.5 108.5 -83.5s77.5 27.833 108.5 83.5s46.5 142.834 46.5 261.501s-15.5 205.834 -46.5 261.501s-67.167 83.5 -108.5 83.5s-77.5 -27.833 -108.5 -83.5s-46.5 -142.834 -46.5 -261.501zM720 350
c0 -63.333 -9.83301 -119.333 -29.5 -168s-45.667 -86.834 -78 -114.501s-67.333 -48.334 -105 -62.001s-76.834 -20.5 -117.501 -20.5s-79.834 6.83301 -117.501 20.5s-72.667 34.334 -105 62.001s-58.333 65.834 -78 114.501s-29.5 104.667 -29.5 168
s9.83301 119.333 29.5 168s45.667 86.834 78 114.501s67.333 48.334 105 62.001s76.834 20.5 117.501 20.5s79.834 -6.83301 117.501 -20.5s72.667 -34.334 105 -62.001s58.333 -65.834 78 -114.501s29.5 -104.667 29.5 -168zM405 865c22 -16.667 39.5 -25 52.5 -25
s24.5 3.66699 34.5 11s16.333 15 19 23l4 11h15c0 -47.333 -15.333 -81.666 -46 -102.999c-12.667 -8 -28.667 -12 -48 -12s-39.833 8.33301 -61.5 25s-39 25 -52 25s-24.5 -3.66699 -34.5 -11s-16.333 -15 -19 -23l-4 -11h-15c0 47.333 15.333 81.666 46 102.999
c12.667 8 28.5 12 47.5 12s39.5 -8.33301 61.5 -25z" />
    <glyph glyph-name="Odieresis" unicode="&#xd6;" horiz-adv-x="780" 
d="M235 350c0 -118.667 15.5 -205.834 46.5 -261.501s67.167 -83.5 108.5 -83.5s77.5 27.833 108.5 83.5s46.5 142.834 46.5 261.501s-15.5 205.834 -46.5 261.501s-67.167 83.5 -108.5 83.5s-77.5 -27.833 -108.5 -83.5s-46.5 -142.834 -46.5 -261.501zM720 350
c0 -63.333 -9.83301 -119.333 -29.5 -168s-45.667 -86.834 -78 -114.501s-67.333 -48.334 -105 -62.001s-76.834 -20.5 -117.501 -20.5s-79.834 6.83301 -117.501 20.5s-72.667 34.334 -105 62.001s-58.333 65.834 -78 114.501s-29.5 104.667 -29.5 168
s9.83301 119.333 29.5 168s45.667 86.834 78 114.501s67.333 48.334 105 62.001s76.834 20.5 117.501 20.5s79.834 -6.83301 117.501 -20.5s72.667 -34.334 105 -62.001s58.333 -65.834 78 -114.501s29.5 -104.667 29.5 -168zM297 760c-17.333 0 -31.666 5.66699 -42.999 17
s-17 25.666 -17 42.999s5.66699 31.666 17 42.999s25.666 17 42.999 17s31.666 -5.66699 42.999 -17s17 -25.666 17 -42.999s-5.66699 -31.666 -17 -42.999s-25.666 -17 -42.999 -17zM525.5 777c-11 -11.333 -25.333 -17 -43 -17s-32.167 5.66699 -43.5 17
s-17 25.666 -17 42.999s5.66699 31.666 17 42.999s25.833 17 43.5 17s32 -5.66699 43 -17s16.5 -25.666 16.5 -42.999s-5.5 -31.666 -16.5 -42.999z" />
    <glyph glyph-name="multiply" unicode="&#xd7;" horiz-adv-x="448" 
d="M408 188l-32 -32l-152 152l-145 -145l-32 32l145 145l-152 152l32 32l152 -152l145 145l32 -32l-145 -145z" />
    <glyph glyph-name="Oslash" unicode="&#xd8;" horiz-adv-x="780" 
d="M640 700h45l-60 -80c63.333 -65.333 95 -155.333 95 -270c0 -63.333 -9.83301 -119.333 -29.5 -168s-45.834 -86.667 -78.501 -114c-64 -55.333 -136.167 -83 -216.5 -83s-148.5 21 -204.5 63l-36 -48h-50l56 73c-67.333 66 -101 158.333 -101 277
c0 63.333 9.83301 119.333 29.5 168s45.834 86.667 78.501 114c64 55.333 137.167 83 219.5 83s152.5 -23.333 210.5 -70zM235 350c0 -62.667 4.66699 -116.666 14 -161.999l274 358c-14 50.667 -33 88.167 -57 112.5s-49.333 36.5 -76 36.5
c-41.333 0 -77.5 -27.833 -108.5 -83.5s-46.5 -142.834 -46.5 -261.501zM545 350.001c0 52.667 -3.99902 102.332 -11.999 148.999l-272 -359c14 -46 32.667 -80 56 -102s47.666 -33 72.999 -33c41.333 0 77.5 27.833 108.5 83.5s46.5 142.834 46.5 261.501z" />
    <glyph glyph-name="Ugrave" unicode="&#xd9;" horiz-adv-x="790" 
d="M645 265l-0.000976562 404.999l-100 15v15h225v-15l-90 -15v-405c0 -88 -21.833 -156.667 -65.5 -206s-100.167 -74 -169.5 -74c-105.333 0 -185.833 25 -241.5 75s-83.5 118.333 -83.5 205v410l-80 10v15h330v-15l-80 -10v-410c0 -88 14.833 -152.5 44.5 -193.5
s71.334 -61.5 125.001 -61.5s98 22.333 133 67s52.5 107.334 52.5 188.001zM294.999 909.999h130l50 -170h-44z" />
    <glyph glyph-name="Uacute" unicode="&#xda;" horiz-adv-x="790" 
d="M645 265l-0.000976562 404.999l-100 15v15h225v-15l-90 -15v-405c0 -88 -21.833 -156.667 -65.5 -206s-100.167 -74 -169.5 -74c-105.333 0 -185.833 25 -241.5 75s-83.5 118.333 -83.5 205v410l-80 10v15h330v-15l-80 -10v-410c0 -88 14.833 -152.5 44.5 -193.5
s71.334 -61.5 125.001 -61.5s98 22.333 133 67s52.5 107.334 52.5 188.001zM454.999 909.999h130l-136 -170h-44z" />
    <glyph glyph-name="Ucircumflex" unicode="&#xdb;" horiz-adv-x="790" 
d="M645 265l-0.000976562 404.999l-100 15v15h225v-15l-90 -15v-405c0 -88 -21.833 -156.667 -65.5 -206s-100.167 -74 -169.5 -74c-105.333 0 -185.833 25 -241.5 75s-83.5 118.333 -83.5 205v410l-80 10v15h330v-15l-80 -10v-410c0 -88 14.833 -152.5 44.5 -193.5
s71.334 -61.5 125.001 -61.5s98 22.333 133 67s52.5 107.334 52.5 188.001zM419.999 919.999h50l130 -160h-44l-111 91l-111 -91h-44z" />
    <glyph glyph-name="Udieresis" unicode="&#xdc;" horiz-adv-x="790" 
d="M645 265l-0.000976562 404.999l-100 15v15h225v-15l-90 -15v-405c0 -88 -21.833 -156.667 -65.5 -206s-100.167 -74 -169.5 -74c-105.333 0 -185.833 25 -241.5 75s-83.5 118.333 -83.5 205v410l-80 10v15h330v-15l-80 -10v-410c0 -88 14.833 -152.5 44.5 -193.5
s71.334 -61.5 125.001 -61.5s98 22.333 133 67s52.5 107.334 52.5 188.001zM351.999 759.999c-17.333 0 -31.666 5.66699 -42.999 17s-17 25.666 -17 42.999s5.66699 31.666 17 42.999s25.666 17 42.999 17s31.666 -5.66699 42.999 -17s17 -25.666 17 -42.999
s-5.66699 -31.666 -17 -42.999s-25.666 -17 -42.999 -17zM580.499 776.999c-11 -11.333 -25.333 -17 -43 -17s-32.167 5.66699 -43.5 17s-17 25.666 -17 42.999s5.66699 31.666 17 42.999s25.833 17 43.5 17s32 -5.66699 43 -17s16.5 -25.666 16.5 -42.999
s-5.5 -31.666 -16.5 -42.999z" />
    <glyph glyph-name="Yacute" unicode="&#xdd;" horiz-adv-x="675" 
d="M35 675l-55 10v15h140c33.333 0 60 -7.83301 80 -23.5s40 -41.167 60 -76.5l150 -270l167 340l-97 15v15h225v-15l-93 -15l-182 -375v-270l80 -10v-15h-330v15l80 10v240zM377 910h130l-136 -170h-44z" />
    <glyph glyph-name="Thorn" unicode="&#xde;" horiz-adv-x="730" 
d="M690 350c0 -166.667 -130 -250 -390 -250v-75l80 -10v-15h-330v15l80 10v650l-80 10v15h330v-15l-80 -10v-75c260 0 390 -83.333 390 -250zM515 350c0 81.333 -16.833 139.168 -50.5 173.501s-88.5 51.5 -164.5 51.5v-450c76 0 130.833 17.167 164.5 51.5
s50.5 92.166 50.5 173.499z" />
    <glyph glyph-name="germandbls" unicode="&#xdf;" horiz-adv-x="750" 
d="M625 576c0 -21.333 -6.16797 -40.167 -18.501 -56.5s-26.166 -29 -41.499 -38s-29.166 -21 -41.499 -36s-18.5 -31.833 -18.5 -50.5c0 -4.66699 0.5 -9.33398 1.5 -14.001l2.5 -12c0.666992 -3.33301 2.5 -7 5.5 -11s5.16699 -7 6.5 -9s4.33301 -5.16699 9 -9.5
s8 -7.33301 10 -9l12.5 -10c6.33301 -5 10.5 -8.5 12.5 -10.5l80 -65c43.333 -35.333 65 -78.666 65 -129.999c0 -38 -17 -69.167 -51 -93.5s-85.333 -36.5 -154 -36.5c-44.667 0 -83 15 -115 45c-7.33301 7.33301 -14 15.666 -20 24.999l20 15
c8 -14 21.833 -27.5 41.5 -40.5s37.5 -19.5 53.5 -19.5c40 0 60 21.667 60 65c0 37.333 -20 72.333 -60 105l-80 65c-43.333 34.667 -65 73 -65 115c0 40.667 14 73.334 42 98.001l36 31c28 24 42 53.667 42 89s-8.33301 62.833 -25 82.5s-36.667 29.5 -60 29.5
c-34.667 0 -60.834 -13.833 -78.501 -41.5s-26.5 -77.167 -26.5 -148.5v-475l80 -10v-15h-330v15l80 10v475c0 68.667 23.333 121.667 70 159s114.5 56 203.5 56s153.167 -13 192.5 -39s59 -59.333 59 -100z" />
    <glyph glyph-name="agrave" unicode="&#xe0;" 
d="M230 230c-6.66699 -33.333 -10.001 -60 -10.001 -80c0 -44.667 6 -77.5 18 -98.5s27.333 -31.5 46 -31.5s35.834 8 51.501 24s27.167 32 34.5 48l10 23v130c-45.333 0 -88 -3.66699 -128 -11zM89.999 405c0 73.333 73.002 110 219.002 110c72.667 0 131 -20.333 175 -61
s66 -95.334 66 -164.001v-265l80 -10v-15h-95c-21.333 0 -40.666 3.5 -57.999 10.5s-30.333 15.5 -39 25.5c-18.667 19.333 -30.334 37.333 -35.001 54l-3 10l-5 -12c-2 -5.33301 -7.5 -14.666 -16.5 -27.999s-18.833 -25 -29.5 -35s-25.334 -19.167 -44.001 -27.5
s-38.667 -12.5 -60 -12.5c-62.667 0 -110.834 14.333 -144.501 43s-50.5 69.334 -50.5 122.001c0 28.667 5 53.667 15 75c103.333 26.667 208.333 41.667 315 45v20c0 76 -9 128.333 -27 157s-45.667 43 -83 43l-50 -5v-150c-13.333 -3.33301 -30.833 -5 -52.5 -5
s-40 7.16699 -55 21.5s-22.5 32.166 -22.5 53.499zM170.001 741h130l50 -170h-44z" />
    <glyph glyph-name="aacute" unicode="&#xe1;" 
d="M230 230c-6.66699 -33.333 -10.001 -60 -10.001 -80c0 -44.667 6 -77.5 18 -98.5s27.333 -31.5 46 -31.5s35.834 8 51.501 24s27.167 32 34.5 48l10 23v130c-45.333 0 -88 -3.66699 -128 -11zM89.999 405c0 73.333 73.002 110 219.002 110c72.667 0 131 -20.333 175 -61
s66 -95.334 66 -164.001v-265l80 -10v-15h-95c-21.333 0 -40.666 3.5 -57.999 10.5s-30.333 15.5 -39 25.5c-18.667 19.333 -30.334 37.333 -35.001 54l-3 10l-5 -12c-2 -5.33301 -7.5 -14.666 -16.5 -27.999s-18.833 -25 -29.5 -35s-25.334 -19.167 -44.001 -27.5
s-38.667 -12.5 -60 -12.5c-62.667 0 -110.834 14.333 -144.501 43s-50.5 69.334 -50.5 122.001c0 28.667 5 53.667 15 75c103.333 26.667 208.333 41.667 315 45v20c0 76 -9 128.333 -27 157s-45.667 43 -83 43l-50 -5v-150c-13.333 -3.33301 -30.833 -5 -52.5 -5
s-40 7.16699 -55 21.5s-22.5 32.166 -22.5 53.499zM330.001 741h130l-136 -170h-44z" />
    <glyph glyph-name="acircumflex" unicode="&#xe2;" 
d="M230 230c-6.66699 -33.333 -10.001 -60 -10.001 -80c0 -44.667 6 -77.5 18 -98.5s27.333 -31.5 46 -31.5s35.834 8 51.501 24s27.167 32 34.5 48l10 23v130c-45.333 0 -88 -3.66699 -128 -11zM89.999 405c0 73.333 73.002 110 219.002 110c72.667 0 131 -20.333 175 -61
s66 -95.334 66 -164.001v-265l80 -10v-15h-95c-21.333 0 -40.666 3.5 -57.999 10.5s-30.333 15.5 -39 25.5c-18.667 19.333 -30.334 37.333 -35.001 54l-3 10l-5 -12c-2 -5.33301 -7.5 -14.666 -16.5 -27.999s-18.833 -25 -29.5 -35s-25.334 -19.167 -44.001 -27.5
s-38.667 -12.5 -60 -12.5c-62.667 0 -110.834 14.333 -144.501 43s-50.5 69.334 -50.5 122.001c0 28.667 5 53.667 15 75c103.333 26.667 208.333 41.667 315 45v20c0 76 -9 128.333 -27 157s-45.667 43 -83 43l-50 -5v-150c-13.333 -3.33301 -30.833 -5 -52.5 -5
s-40 7.16699 -55 21.5s-22.5 32.166 -22.5 53.499zM285.001 720h50l130 -160h-44l-111 91l-111 -91h-44z" />
    <glyph glyph-name="atilde" unicode="&#xe3;" 
d="M230 230c-6.66699 -33.333 -10.001 -60 -10.001 -80c0 -44.667 6 -77.5 18 -98.5s27.333 -31.5 46 -31.5s35.834 8 51.501 24s27.167 32 34.5 48l10 23v130c-45.333 0 -88 -3.66699 -128 -11zM89.999 405c0 73.333 73.002 110 219.002 110c72.667 0 131 -20.333 175 -61
s66 -95.334 66 -164.001v-265l80 -10v-15h-95c-21.333 0 -40.666 3.5 -57.999 10.5s-30.333 15.5 -39 25.5c-18.667 19.333 -30.334 37.333 -35.001 54l-3 10l-5 -12c-2 -5.33301 -7.5 -14.666 -16.5 -27.999s-18.833 -25 -29.5 -35s-25.334 -19.167 -44.001 -27.5
s-38.667 -12.5 -60 -12.5c-62.667 0 -110.834 14.333 -144.501 43s-50.5 69.334 -50.5 122.001c0 28.667 5 53.667 15 75c103.333 26.667 208.333 41.667 315 45v20c0 76 -9 128.333 -27 157s-45.667 43 -83 43l-50 -5v-150c-13.333 -3.33301 -30.833 -5 -52.5 -5
s-40 7.16699 -55 21.5s-22.5 32.166 -22.5 53.499zM325.001 667c22 -16.667 39.5 -25 52.5 -25s24.5 3.66699 34.5 11s16.333 15 19 23l4 11h15c0 -47.333 -15.333 -81.666 -46 -102.999c-12.667 -8 -28.5 -12 -47.5 -12s-39.5 8.33301 -61.5 25s-39.5 25 -52.5 25
s-24.5 -3.66699 -34.5 -11s-16.333 -15 -19 -23l-4 -11h-15c0 47.333 15.333 81.666 46 102.999c12.667 8 28.5 12 47.5 12s39.5 -8.33301 61.5 -25z" />
    <glyph glyph-name="adieresis" unicode="&#xe4;" 
d="M230 230c-6.66699 -33.333 -10.001 -60 -10.001 -80c0 -44.667 6 -77.5 18 -98.5s27.333 -31.5 46 -31.5s35.834 8 51.501 24s27.167 32 34.5 48l10 23v130c-45.333 0 -88 -3.66699 -128 -11zM89.999 405c0 73.333 73.002 110 219.002 110c72.667 0 131 -20.333 175 -61
s66 -95.334 66 -164.001v-265l80 -10v-15h-95c-21.333 0 -40.666 3.5 -57.999 10.5s-30.333 15.5 -39 25.5c-18.667 19.333 -30.334 37.333 -35.001 54l-3 10l-5 -12c-2 -5.33301 -7.5 -14.666 -16.5 -27.999s-18.833 -25 -29.5 -35s-25.334 -19.167 -44.001 -27.5
s-38.667 -12.5 -60 -12.5c-62.667 0 -110.834 14.333 -144.501 43s-50.5 69.334 -50.5 122.001c0 28.667 5 53.667 15 75c103.333 26.667 208.333 41.667 315 45v20c0 76 -9 128.333 -27 157s-45.667 43 -83 43l-50 -5v-150c-13.333 -3.33301 -30.833 -5 -52.5 -5
s-40 7.16699 -55 21.5s-22.5 32.166 -22.5 53.499zM217.001 571c-17.333 0 -31.666 5.66699 -42.999 17s-17 25.666 -17 42.999s5.66699 31.666 17 42.999s25.666 17 42.999 17s31.666 -5.66699 42.999 -17s17 -25.666 17 -42.999s-5.66699 -31.666 -17 -42.999
s-25.666 -17 -42.999 -17zM445.501 588c-11 -11.333 -25.333 -17 -43 -17s-32.167 5.66699 -43.5 17s-17 25.666 -17 42.999s5.66699 31.666 17 42.999s25.833 17 43.5 17s32 -5.66699 43 -17s16.5 -25.666 16.5 -42.999s-5.5 -31.666 -16.5 -42.999z" />
    <glyph glyph-name="aring" unicode="&#xe5;" 
d="M230 230c-6.66699 -33.333 -10.001 -60 -10.001 -80c0 -44.667 6 -77.5 18 -98.5s27.333 -31.5 46 -31.5s35.834 8 51.501 24s27.167 32 34.5 48l10 23v130c-45.333 0 -88 -3.66699 -128 -11zM89.999 405c0 73.333 73.002 110 219.002 110c72.667 0 131 -20.333 175 -61
s66 -95.334 66 -164.001v-265l80 -10v-15h-95c-21.333 0 -40.666 3.5 -57.999 10.5s-30.333 15.5 -39 25.5c-18.667 19.333 -30.334 37.333 -35.001 54l-3 10l-5 -12c-2 -5.33301 -7.5 -14.666 -16.5 -27.999s-18.833 -25 -29.5 -35s-25.334 -19.167 -44.001 -27.5
s-38.667 -12.5 -60 -12.5c-62.667 0 -110.834 14.333 -144.501 43s-50.5 69.334 -50.5 122.001c0 28.667 5 53.667 15 75c103.333 26.667 208.333 41.667 315 45v20c0 76 -9 128.333 -27 157s-45.667 43 -83 43l-50 -5v-150c-13.333 -3.33301 -30.833 -5 -52.5 -5
s-40 7.16699 -55 21.5s-22.5 32.166 -22.5 53.499zM365.001 661c0 17.333 -5.33301 31.666 -16 42.999s-23.667 17 -39 17s-28.333 -5.66699 -39 -17s-16 -25.666 -16 -42.999s5.33301 -31.666 16 -42.999s23.667 -17 39 -17s28.333 5.66699 39 17s16 25.666 16 42.999z
M410.001 661c0 -29.333 -9.66699 -53.333 -29 -72s-43 -28 -71 -28s-51.667 9.33301 -71 28s-29 42.667 -29 72s9.66699 53.333 29 72s43 28 71 28s51.667 -9.33301 71 -28s29 -42.667 29 -72z" />
    <glyph glyph-name="ae" unicode="&#xe6;" horiz-adv-x="920" 
d="M865 275c-103.333 -26.667 -208.331 -41.666 -314.998 -44.999c4.66699 -146.667 44.667 -220 120 -220c36.667 0 69.667 11 99 33s52 47.667 68 77l23 -15c-51.333 -80 -121.333 -120 -210 -120c-120 0 -201 44.333 -243 133c-29.333 -88.667 -83.333 -133 -162 -133
c-62 0 -110 13.833 -144 41.5s-51 65.5 -51 113.5c0 28.667 5 53.667 15 75c103.333 26.667 208.333 41.667 315 45v30c0 76 -9 128.333 -27 157s-45.667 43 -83 43l-50 -5v-150c-13.333 -3.33301 -30.833 -5 -52.5 -5s-40 7.16699 -55 21.5s-22.5 32.166 -22.5 53.499
c0 36 17.333 63.333 52 82s80.667 28 138 28c65.333 0 118.666 -19.333 159.999 -58c9.33301 -8.66699 16 -16.334 20 -23.001l5 -9c2 6.66699 8.66699 16.167 20 28.5s23.333 22.5 36 30.5s31 15.167 55 21.5s50.333 9.5 79 9.5c69.333 0 124.166 -16.167 164.499 -48.5
s60.5 -71.166 60.5 -116.499c0 -21.333 -4 -43 -12 -65zM550.002 300.001l-0.000976562 -44.999c44.667 0 87.334 3.66699 128.001 11l22 4c6.66699 33.333 10 67.666 10 102.999s-7.5 64.5 -22.5 87.5s-32.5 34.5 -52.5 34.5c-56.667 0 -85 -65 -85 -195zM230.001 220.002
c-6.66699 -33.333 -9.99902 -65 -9.99902 -95s6.16699 -55 18.5 -75s27.666 -30 45.999 -30s35.333 8 51 24s27.167 32 34.5 48l10 23v120c-45.333 0 -88 -3.66699 -128 -11z" />
    <glyph glyph-name="ccedilla" unicode="&#xe7;" horiz-adv-x="560" 
d="M350 490c-44.667 0 -77.498 -17.666 -98.498 -52.999s-31.5 -97.333 -31.5 -186s10 -151 30 -187s49.167 -54 87.5 -54s72.166 11 101.499 33s52 47.667 68 77l23 -15c-51.333 -80 -121.333 -120 -210 -120h-5v-35c32 0 57.5 -6.83301 76.5 -20.5
s28.5 -31.834 28.5 -54.501s-9.5 -40.834 -28.5 -54.501s-44.5 -20.5 -76.5 -20.5h-45v20h20c15.333 0 28.333 5 39 15s16 23.333 16 40s-5.33301 30 -16 40s-23.667 15 -39 15h-5v57c-69.333 6.66699 -125.833 32 -169.5 76s-65.5 108 -65.5 192s25.5 148.333 76.5 193
s112.833 67 185.5 67c145.333 0 218 -36.667 218 -110c0 -21.333 -7.5 -39.166 -22.5 -53.499s-35.833 -21.5 -62.5 -21.5l-45 5v150c-16.667 3.33301 -33.334 5 -50.001 5z" />
    <glyph glyph-name="egrave" unicode="&#xe8;" horiz-adv-x="600" 
d="M545 265c-110 -26.667 -218.332 -41.666 -324.999 -44.999c4.66699 -140 44.667 -210 120 -210c36.667 0 69.667 11 99 33s52 47.667 68 77l23 -15c-51.333 -80 -120.333 -120 -207 -120s-153.834 23.5 -201.501 70.5s-71.5 111.667 -71.5 194s23 147.166 69 194.499
s109.333 71 190 71s142.667 -16.5 186 -49.5s65 -74.833 65 -125.5c0 -21.333 -4 -43 -12 -65zM220.001 300.001l0.000976562 -55c45.333 0 90.666 3.66699 135.999 11l24 4c6.66699 33.333 10 63.333 10 90c0 49.333 -8 85.833 -24 109.5s-36.333 35.5 -61 35.5
c-56.667 0 -85 -65 -85 -195zM175.002 741.001h130l50 -170h-44z" />
    <glyph glyph-name="eacute" unicode="&#xe9;" horiz-adv-x="600" 
d="M545 265c-110 -26.667 -218.332 -41.666 -324.999 -44.999c4.66699 -140 44.667 -210 120 -210c36.667 0 69.667 11 99 33s52 47.667 68 77l23 -15c-51.333 -80 -120.333 -120 -207 -120s-153.834 23.5 -201.501 70.5s-71.5 111.667 -71.5 194s23 147.166 69 194.499
s109.333 71 190 71s142.667 -16.5 186 -49.5s65 -74.833 65 -125.5c0 -21.333 -4 -43 -12 -65zM220.001 300.001l0.000976562 -55c45.333 0 90.666 3.66699 135.999 11l24 4c6.66699 33.333 10 63.333 10 90c0 49.333 -8 85.833 -24 109.5s-36.333 35.5 -61 35.5
c-56.667 0 -85 -65 -85 -195zM315.002 741.001h130l-136 -170h-44z" />
    <glyph glyph-name="ecircumflex" unicode="&#xea;" horiz-adv-x="600" 
d="M545 265c-110 -26.667 -218.332 -41.666 -324.999 -44.999c4.66699 -140 44.667 -210 120 -210c36.667 0 69.667 11 99 33s52 47.667 68 77l23 -15c-51.333 -80 -120.333 -120 -207 -120s-153.834 23.5 -201.501 70.5s-71.5 111.667 -71.5 194s23 147.166 69 194.499
s109.333 71 190 71s142.667 -16.5 186 -49.5s65 -74.833 65 -125.5c0 -21.333 -4 -43 -12 -65zM220.001 300.001l0.000976562 -55c45.333 0 90.666 3.66699 135.999 11l24 4c6.66699 33.333 10 63.333 10 90c0 49.333 -8 85.833 -24 109.5s-36.333 35.5 -61 35.5
c-56.667 0 -85 -65 -85 -195zM290.002 720.001h50l130 -160h-44l-111 91l-111 -91h-44z" />
    <glyph glyph-name="edieresis" unicode="&#xeb;" horiz-adv-x="600" 
d="M545 265c-110 -26.667 -218.332 -41.666 -324.999 -44.999c4.66699 -140 44.667 -210 120 -210c36.667 0 69.667 11 99 33s52 47.667 68 77l23 -15c-51.333 -80 -120.333 -120 -207 -120s-153.834 23.5 -201.501 70.5s-71.5 111.667 -71.5 194s23 147.166 69 194.499
s109.333 71 190 71s142.667 -16.5 186 -49.5s65 -74.833 65 -125.5c0 -21.333 -4 -43 -12 -65zM220.001 300.001l0.000976562 -55c45.333 0 90.666 3.66699 135.999 11l24 4c6.66699 33.333 10 63.333 10 90c0 49.333 -8 85.833 -24 109.5s-36.333 35.5 -61 35.5
c-56.667 0 -85 -65 -85 -195zM212.002 571.001c-17.333 0 -31.666 5.66699 -42.999 17s-17 25.666 -17 42.999s5.66699 31.666 17 42.999s25.666 17 42.999 17s31.666 -5.66699 42.999 -17s17 -25.666 17 -42.999s-5.66699 -31.666 -17 -42.999s-25.666 -17 -42.999 -17z
M440.502 588.001c-11 -11.333 -25.333 -17 -43 -17s-32.167 5.66699 -43.5 17s-17 25.666 -17 42.999s5.66699 31.666 17 42.999s25.833 17 43.5 17s32 -5.66699 43 -17s16.5 -25.666 16.5 -42.999s-5.5 -31.666 -16.5 -42.999z" />
    <glyph glyph-name="igrave" unicode="&#xec;" horiz-adv-x="380" 
d="M120 25v450l-80 10v15h130c80 0 120 -40 120 -120v-355l80 -10v-15h-330v15zM45 730h130l50 -170h-44z" />
    <glyph glyph-name="iacute" unicode="&#xed;" horiz-adv-x="380" 
d="M120 25v450l-80 10v15h130c80 0 120 -40 120 -120v-355l80 -10v-15h-330v15zM205 730h130l-136 -170h-44z" />
    <glyph glyph-name="icircumflex" unicode="&#xee;" horiz-adv-x="380" 
d="M120 25v450l-80 10v15h130c80 0 120 -40 120 -120v-355l80 -10v-15h-330v15zM170 720h50l130 -160h-44l-111 91l-111 -91h-44z" />
    <glyph glyph-name="idieresis" unicode="&#xef;" horiz-adv-x="380" 
d="M120 25v450l-80 10v15h130c80 0 120 -40 120 -120v-355l80 -10v-15h-330v15zM102 580c-17.333 0 -31.666 5.66699 -42.999 17s-17 25.666 -17 42.999s5.66699 31.666 17 42.999s25.666 17 42.999 17s31.666 -5.66699 42.999 -17s17 -25.666 17 -42.999
s-5.66699 -31.666 -17 -42.999s-25.666 -17 -42.999 -17zM330.5 597c-11 -11.333 -25.333 -17 -43 -17s-32.167 5.66699 -43.5 17s-17 25.666 -17 42.999s5.66699 31.666 17 42.999s25.833 17 43.5 17s32 -5.66699 43 -17s16.5 -25.666 16.5 -42.999
s-5.5 -31.666 -16.5 -42.999z" />
    <glyph glyph-name="eth" unicode="&#xf0;" 
d="M414 729l-40 -70c144 -62 216 -191.667 216 -389c0 -96.667 -25.333 -168.334 -76 -215.001s-115 -70 -193 -70s-142.667 21.167 -194 63.5s-77 102.833 -77 181.5s23.667 139.167 71 181.5s107 63.5 179 63.5c28 0 52.833 -7.16699 74.5 -21.5s36.167 -28.5 43.5 -42.5
l12 -21c-4.66699 90.667 -34 162.334 -88 215.001l-43 -75l-22 13l46 80c-48 38 -105.667 57 -173 57v20c74 0 140.333 -10.333 199 -31l43 73zM220 230c0 -150 33.333 -225 100 -225s100 75 100 225v12c0 69.333 -11 122.166 -33 158.499s-47.333 54.5 -76 54.5
s-51 -16.667 -67 -50s-24 -91.666 -24 -174.999z" />
    <glyph glyph-name="ntilde" unicode="&#xf1;" horiz-adv-x="720" 
d="M290 25l79.9971 -9.99902v-15h-330v15l80 10v450l-80 10v15h95c21.333 0 40.666 -3.5 57.999 -10.5s30.333 -15.5 39 -25.5c18.667 -19.333 30.334 -37.333 35.001 -54l3 -10c10.667 27.333 29 52.333 55 75c11.333 10 26.833 19.167 46.5 27.5s40.834 12.5 63.501 12.5
c62.667 0 110.834 -14.333 144.501 -43s50.5 -69.334 50.5 -122.001v-325l80 -10v-15h-130c-80 0 -120 40 -120 120v230c0 44.667 -6 77.5 -18 98.5s-27.667 31.5 -47 31.5s-37.666 -8 -54.999 -24s-30 -32 -38 -48l-12 -23v-360zM394.997 665.001
c21.333 -16.667 38.666 -25 51.999 -25s25 3.83301 35 11.5s16.333 15.167 19 22.5l4 11h15c0 -47.333 -15.667 -81.333 -47 -102c-12 -8.66699 -27.667 -13 -47 -13s-39.666 8.33301 -60.999 25s-38.666 25 -51.999 25s-25 -3.83301 -35 -11.5s-16.333 -15.167 -19 -22.5
l-4 -11h-15c0 47.333 15.667 81.333 47 102c12 8.66699 27.667 13 47 13s39.666 -8.33301 60.999 -25z" />
    <glyph glyph-name="ograve" unicode="&#xf2;" 
d="M590 250c0 -87.333 -25.5 -153.333 -76.5 -198s-115.5 -67 -193.5 -67s-142.5 22.333 -193.5 67s-76.5 110.667 -76.5 198s25.5 153.333 76.5 198s115.5 67 193.5 67s142.5 -22.333 193.5 -67s76.5 -110.667 76.5 -198zM220 250c0 -163.333 33.333 -245 100 -245
s100 81.667 100 245s-33.333 245 -100 245s-100 -81.667 -100 -245zM180 741h130l50 -170h-44z" />
    <glyph glyph-name="oacute" unicode="&#xf3;" 
d="M590 250c0 -87.333 -25.5 -153.333 -76.5 -198s-115.5 -67 -193.5 -67s-142.5 22.333 -193.5 67s-76.5 110.667 -76.5 198s25.5 153.333 76.5 198s115.5 67 193.5 67s142.5 -22.333 193.5 -67s76.5 -110.667 76.5 -198zM220 250c0 -163.333 33.333 -245 100 -245
s100 81.667 100 245s-33.333 245 -100 245s-100 -81.667 -100 -245zM340 741h130l-136 -170h-44z" />
    <glyph glyph-name="ocircumflex" unicode="&#xf4;" 
d="M590 250c0 -87.333 -25.5 -153.333 -76.5 -198s-115.5 -67 -193.5 -67s-142.5 22.333 -193.5 67s-76.5 110.667 -76.5 198s25.5 153.333 76.5 198s115.5 67 193.5 67s142.5 -22.333 193.5 -67s76.5 -110.667 76.5 -198zM220 250c0 -163.333 33.333 -245 100 -245
s100 81.667 100 245s-33.333 245 -100 245s-100 -81.667 -100 -245zM295 720h50l130 -160h-44l-111 91l-111 -91h-44z" />
    <glyph glyph-name="otilde" unicode="&#xf5;" 
d="M590 250c0 -87.333 -25.5 -153.333 -76.5 -198s-115.5 -67 -193.5 -67s-142.5 22.333 -193.5 67s-76.5 110.667 -76.5 198s25.5 153.333 76.5 198s115.5 67 193.5 67s142.5 -22.333 193.5 -67s76.5 -110.667 76.5 -198zM220 250c0 -163.333 33.333 -245 100 -245
s100 81.667 100 245s-33.333 245 -100 245s-100 -81.667 -100 -245zM336 670c21.333 -16.667 38.666 -25 51.999 -25s25 3.83301 35 11.5s16.333 15.167 19 22.5l4 11h15c0 -47.333 -15.667 -81.333 -47 -102c-12 -8.66699 -27.667 -13 -47 -13s-39.666 8.33301 -60.999 25
s-38.666 25 -51.999 25s-25 -3.83301 -35 -11.5s-16.333 -15.167 -19 -22.5l-4 -11h-15c0 47.333 15.667 81.333 47 102c12 8.66699 27.667 13 47 13s39.666 -8.33301 60.999 -25z" />
    <glyph glyph-name="odieresis" unicode="&#xf6;" 
d="M590 250c0 -87.333 -25.5 -153.333 -76.5 -198s-115.5 -67 -193.5 -67s-142.5 22.333 -193.5 67s-76.5 110.667 -76.5 198s25.5 153.333 76.5 198s115.5 67 193.5 67s142.5 -22.333 193.5 -67s76.5 -110.667 76.5 -198zM220 250c0 -163.333 33.333 -245 100 -245
s100 81.667 100 245s-33.333 245 -100 245s-100 -81.667 -100 -245zM227 571c-17.333 0 -31.666 5.66699 -42.999 17s-17 25.666 -17 42.999s5.66699 31.666 17 42.999s25.666 17 42.999 17s31.666 -5.66699 42.999 -17s17 -25.666 17 -42.999s-5.66699 -31.666 -17 -42.999
s-25.666 -17 -42.999 -17zM455.5 588c-11 -11.333 -25.333 -17 -43 -17s-32.167 5.66699 -43.5 17s-17 25.666 -17 42.999s5.66699 31.666 17 42.999s25.833 17 43.5 17s32 -5.66699 43 -17s16.5 -25.666 16.5 -42.999s-5.5 -31.666 -16.5 -42.999z" />
    <glyph glyph-name="divide" unicode="&#xf7;" horiz-adv-x="530" 
d="M500 310h-470v45h470v-45zM265 105c-19.333 0 -35 6.16699 -47 18.5s-18 27.833 -18 46.5s6 34.167 18 46.5s27.667 18.5 47 18.5s35 -6.16699 47 -18.5s18 -27.833 18 -46.5s-6 -34.167 -18 -46.5s-27.667 -18.5 -47 -18.5zM265 430c-19.333 0 -35 6 -47 18
s-18 27.667 -18 47s6 35 18 47s27.667 18 47 18s35 -6 47 -18s18 -27.667 18 -47s-6 -35 -18 -47s-27.667 -18 -47 -18z" />
    <glyph glyph-name="oslash" unicode="&#xf8;" 
d="M495 500l45 0.00195312l-35 -45c56.667 -46.667 85 -114.334 85 -203.001s-25.5 -155.334 -76.5 -200.001s-115.5 -67 -193.5 -67c-58.667 0 -109.667 12.333 -153 37l-17 -22h-50l35 44c-56.667 46.667 -85 114.5 -85 203.5s25.5 155.833 76.5 200.5s115.5 67 193.5 67
c58.667 0 110.667 -13 156 -39zM220 250.002c0 -38 1.33203 -69 3.99902 -93l184 233c-15.333 70 -44.666 105 -87.999 105c-66.667 0 -100 -81.667 -100 -245zM419.999 250.002c0 25.333 -1.33301 55.333 -4 90l-183 -234c15.333 -67.333 44.333 -101 87 -101
c66.667 0 100 81.667 100 245z" />
    <glyph glyph-name="ugrave" unicode="&#xf9;" horiz-adv-x="720" 
d="M430 475l-79.9971 9.99902v15h330v-15l-80 -10v-450l80 -10v-15h-95c-21.333 0 -40.666 3.5 -57.999 10.5s-30.333 15.5 -39 25.5c-18.667 19.333 -30.334 37.333 -35.001 54l-3 10c-10.667 -27.333 -29 -52.333 -55 -75c-11.333 -10 -26.833 -19.167 -46.5 -27.5
s-40.834 -12.5 -63.501 -12.5c-62.667 0 -110.834 14.333 -144.501 43s-50.5 69.334 -50.5 122.001v325l-80 10v15h130c80 0 120 -40 120 -120v-230c0 -44.667 6 -77.5 18 -98.5s27.667 -31.5 47 -31.5s37.666 8 54.999 24s30 32 38 48l12 23v360zM185.003 729.999h130
l50 -170h-44z" />
    <glyph glyph-name="uacute" unicode="&#xfa;" horiz-adv-x="720" 
d="M430 475l-79.9971 9.99902v15h330v-15l-80 -10v-450l80 -10v-15h-95c-21.333 0 -40.666 3.5 -57.999 10.5s-30.333 15.5 -39 25.5c-18.667 19.333 -30.334 37.333 -35.001 54l-3 10c-10.667 -27.333 -29 -52.333 -55 -75c-11.333 -10 -26.833 -19.167 -46.5 -27.5
s-40.834 -12.5 -63.501 -12.5c-62.667 0 -110.834 14.333 -144.501 43s-50.5 69.334 -50.5 122.001v325l-80 10v15h130c80 0 120 -40 120 -120v-230c0 -44.667 6 -77.5 18 -98.5s27.667 -31.5 47 -31.5s37.666 8 54.999 24s30 32 38 48l12 23v360zM345.003 729.999h130
l-136 -170h-44z" />
    <glyph glyph-name="ucircumflex" unicode="&#xfb;" horiz-adv-x="720" 
d="M430 475l-79.9971 9.99902v15h330v-15l-80 -10v-450l80 -10v-15h-95c-21.333 0 -40.666 3.5 -57.999 10.5s-30.333 15.5 -39 25.5c-18.667 19.333 -30.334 37.333 -35.001 54l-3 10c-10.667 -27.333 -29 -52.333 -55 -75c-11.333 -10 -26.833 -19.167 -46.5 -27.5
s-40.834 -12.5 -63.501 -12.5c-62.667 0 -110.834 14.333 -144.501 43s-50.5 69.334 -50.5 122.001v325l-80 10v15h130c80 0 120 -40 120 -120v-230c0 -44.667 6 -77.5 18 -98.5s27.667 -31.5 47 -31.5s37.666 8 54.999 24s30 32 38 48l12 23v360zM320.003 719.999h50
l130 -160h-44l-111 91l-111 -91h-44z" />
    <glyph glyph-name="udieresis" unicode="&#xfc;" horiz-adv-x="720" 
d="M430 475l-79.9971 9.99902v15h330v-15l-80 -10v-450l80 -10v-15h-95c-21.333 0 -40.666 3.5 -57.999 10.5s-30.333 15.5 -39 25.5c-18.667 19.333 -30.334 37.333 -35.001 54l-3 10c-10.667 -27.333 -29 -52.333 -55 -75c-11.333 -10 -26.833 -19.167 -46.5 -27.5
s-40.834 -12.5 -63.501 -12.5c-62.667 0 -110.834 14.333 -144.501 43s-50.5 69.334 -50.5 122.001v325l-80 10v15h130c80 0 120 -40 120 -120v-230c0 -44.667 6 -77.5 18 -98.5s27.667 -31.5 47 -31.5s37.666 8 54.999 24s30 32 38 48l12 23v360zM242.003 579.999
c-17.333 0 -31.666 5.66699 -42.999 17s-17 25.666 -17 42.999s5.66699 31.666 17 42.999s25.666 17 42.999 17s31.666 -5.66699 42.999 -17s17 -25.666 17 -42.999s-5.66699 -31.666 -17 -42.999s-25.666 -17 -42.999 -17zM470.503 596.999
c-11 -11.333 -25.333 -17 -43 -17s-32.167 5.66699 -43.5 17s-17 25.666 -17 42.999s5.66699 31.666 17 42.999s25.833 17 43.5 17s32 -5.66699 43 -17s16.5 -25.666 16.5 -42.999s-5.5 -31.666 -16.5 -42.999z" />
    <glyph glyph-name="yacute" unicode="&#xfd;" horiz-adv-x="584" 
d="M533 470l-218 -530.001c-42.667 -104 -104.334 -156 -185.001 -156c-37.333 0 -66.666 8.33301 -87.999 25s-32 37.834 -32 63.501s7.66699 46.5 23 62.5s36 24 62 24l40 -5v-145c28 0 55 11.5 81 34.5s47.333 55.167 64 96.5l16 40l-261 495l-55 10v15h135
c33.333 0 60.5 -8 81.5 -24s40.5 -41.333 58.5 -76l120 -228l123 298l-98 15v15h224v-15zM332 729.999h130l-136 -170h-44z" />
    <glyph glyph-name="thorn" unicode="&#xfe;" horiz-adv-x="670" 
d="M30 -185l79.999 10.001v850l-80 10v15h130c80 0 120 -40 120 -120v-142c32 51.333 77 77 135 77c46.667 0 91.334 -21 134.001 -63c20.667 -20 37.667 -47.667 51 -83s20 -75 20 -119c0 -88.667 -19.167 -155 -57.5 -199s-89.166 -66 -152.499 -66
c-22 0 -43.833 3.66699 -65.5 11s-37.834 14.666 -48.501 21.999l-16 12v-205l80 -10v-15h-330v15zM279.999 385.001v-325l14 -11c8.66699 -7.33301 20.5 -14.833 35.5 -22.5s28.5 -11.5 40.5 -11.5c53.333 0 80 77.5 80 232.5s-25 232.5 -75 232.5
c-18 0 -34.833 -8 -50.5 -24s-27.167 -32 -34.5 -48z" />
    <glyph glyph-name="ydieresis" unicode="&#xff;" horiz-adv-x="584" 
d="M533 470l-218 -530.001c-42.667 -104 -104.334 -156 -185.001 -156c-37.333 0 -66.666 8.33301 -87.999 25s-32 37.834 -32 63.501s7.66699 46.5 23 62.5s36 24 62 24l40 -5v-145c28 0 55 11.5 81 34.5s47.333 55.167 64 96.5l16 40l-261 495l-55 10v15h135
c33.333 0 60.5 -8 81.5 -24s40.5 -41.333 58.5 -76l120 -228l123 298l-98 15v15h224v-15zM219 579.999c-17.333 0 -31.666 5.66699 -42.999 17s-17 25.666 -17 42.999s5.66699 31.666 17 42.999s25.666 17 42.999 17s31.666 -5.66699 42.999 -17s17 -25.666 17 -42.999
s-5.66699 -31.666 -17 -42.999s-25.666 -17 -42.999 -17zM447.5 596.999c-11 -11.333 -25.333 -17 -43 -17s-32.167 5.66699 -43.5 17s-17 25.666 -17 42.999s5.66699 31.666 17 42.999s25.833 17 43.5 17s32 -5.66699 43 -17s16.5 -25.666 16.5 -42.999
s-5.5 -31.666 -16.5 -42.999z" />
    <glyph glyph-name="hbar" unicode="&#x127;" horiz-adv-x="710" 
d="M280 520v-145.999c37.333 54 86.5 81 147.5 81s108.333 -14.333 142 -43s50.5 -69.334 50.5 -122.001v-265l80 -10v-15h-130c-80 0 -120 40 -120 120v170c0 44.667 -6 77.5 -18 98.5s-28 31.5 -48 31.5s-38.833 -8 -56.5 -24s-30.167 -32 -37.5 -48l-10 -23v-300l70 -10
v-15h-320v15l80 10v495l-80 10v20h80v125l-80 10v15h130c80 0 120 -40 120 -120v-30h180v-20z" />
    <glyph glyph-name="Itilde" unicode="&#x128;" horiz-adv-x="430" 
d="M300 675v-650l80 -10v-15h-330v15l80 10v650l-80 10v15h330v-15zM230 860c21.333 -16.667 38.666 -25 51.999 -25s25 3.83301 35 11.5s16.333 15.167 19 22.5l4 11h15c0 -47.333 -15.667 -81.333 -47 -102c-12 -8.66699 -27.667 -13 -47 -13s-39.666 8.33301 -60.999 25
s-38.666 25 -51.999 25s-25 -3.83301 -35 -11.5s-16.333 -15.167 -19 -22.5l-4 -11h-15c0 47.333 15.667 81.333 47 102c12 8.66699 27.667 13 47 13s39.666 -8.33301 60.999 -25z" />
    <glyph glyph-name="itilde" unicode="&#x129;" horiz-adv-x="380" 
d="M120 25v450l-80 10v15h130c80 0 120 -40 120 -120v-355l80 -10v-15h-330v15zM200.5 670c21.667 -16.667 38.998 -25 51.998 -25s24.5 3.83301 34.5 11.5s16.333 15.167 19 22.5l4 11h15c0 -47.333 -15.667 -81.333 -47 -102c-12 -8.66699 -27.667 -13 -47 -13
s-39.666 8.33301 -60.999 25s-38.666 25 -51.999 25s-25 -3.83301 -35 -11.5s-16.333 -15.167 -19 -22.5l-4 -11h-15c0 47.333 15.667 81.333 47 102c12 8.66699 27.667 13 47 13s39.833 -8.33301 61.5 -25z" />
    <glyph glyph-name="dotlessi" unicode="&#x131;" horiz-adv-x="380" 
d="M120 25v450l-80 10v15h130c80 0 120 -40 120 -120v-355l80 -10v-15h-330v15z" />
    <glyph glyph-name="ij" unicode="&#x133;" horiz-adv-x="750" 
d="M120 625c0 22.667 8.5 42.5 25.5 59.5s36.833 25.5 59.5 25.5s42.5 -8.5 59.5 -25.5s25.5 -36.833 25.5 -59.5s-8.5 -42.5 -25.5 -59.5s-36.833 -25.5 -59.5 -25.5s-42.5 8.5 -59.5 25.5s-25.5 36.833 -25.5 59.5zM120 25v450l-80 10v15h130c80 0 120 -40 120 -120v-355
l80 -10v-15h-330v15zM490 625c0 22.667 8.5 42.5 25.5 59.5s36.833 25.5 59.5 25.5s42.5 -8.5 59.5 -25.5s25.5 -36.833 25.5 -59.5s-8.5 -42.5 -25.5 -59.5s-36.833 -25.5 -59.5 -25.5s-42.5 8.5 -59.5 25.5s-25.5 36.833 -25.5 59.5zM490 0l-0.000976562 475.001l-80 10
v15h130c80 0 120 -40 120 -120v-380c0 -67.333 -20.667 -120 -62 -158s-94.333 -57 -159 -57c-132.667 0 -199 35 -199 105c0 21.333 7.5 39.166 22.5 53.499s35.833 21.5 62.5 21.5l40 -5v-145c13.333 -3.33301 25 -5 35 -5c28.667 0 50.834 13.167 66.501 39.5
s23.5 76.5 23.5 150.5z" />
    <glyph glyph-name="Jcircumflex" unicode="&#x134;" horiz-adv-x="630" 
d="M442.5 45.5c-45 -40.333 -106.667 -60.5 -185 -60.5s-139.166 13 -182.499 39s-65 56.333 -65 91c0 21.333 7.5 39.166 22.5 53.499s35.833 21.5 62.5 21.5l45 -5v-160c20 -10 49.167 -15 87.5 -15s66.666 14.167 84.999 42.5s27.5 80.833 27.5 157.5v465l-80 10v15h330
v-15l-80 -10v-465c0 -69.333 -22.5 -124.166 -67.5 -164.499zM400 920h50l130 -160h-44l-111 91l-111 -91h-44z" />
    <glyph glyph-name="jcircumflex" unicode="&#x135;" horiz-adv-x="380" 
d="M130 0l-0.000976562 475.001l-80 10v15h130c80 0 120 -40 120 -120v-380c0 -67.333 -20.667 -120 -62 -158s-94.333 -57 -159 -57c-132.667 0 -199 35 -199 105c0 21.333 7.5 39.166 22.5 53.499s35.833 21.5 62.5 21.5l40 -5v-145c13.333 -3.33301 25 -5 35 -5
c28.667 0 50.834 13.167 66.501 39.5s23.5 76.5 23.5 150.5zM169.999 720.001h50l130 -160h-44l-111 91l-111 -91h-44z" />
    <glyph glyph-name="kcedilla" unicode="&#x137;" horiz-adv-x="645" 
d="M321 -290l-9 15c2 0.666992 4.66699 1.5 8 2.5s9.5 4 18.5 9s16.833 10.833 23.5 17.5c18 18 28.333 41.333 31 70c-12.667 -9.33301 -27.167 -14 -43.5 -14s-30.333 6 -42 18s-17.5 27.5 -17.5 46.5s5.83301 34.667 17.5 47s27 18.5 46 18.5s34.833 -7 47.5 -21
s19 -33.833 19 -59.5s-3.33301 -48.167 -10 -67.5s-15 -34 -25 -44c-20.667 -20 -38.667 -32 -54 -36zM280 25l80 -10v-15h-330v15l80 10v650l-80 10v15h130c80 0 120 -40 120 -120v-320l205 210l-95 15v15h225v-15l-95 -15l-130 -133l210 -312l55 -10v-15h-145
c-29.333 0 -54 7 -74 21s-42 38.667 -66 74l-90 135v-205z" />
    <glyph glyph-name="kgreenlandic" unicode="&#x138;" horiz-adv-x="655" 
d="M290 25l80.001 -10v-15h-330v15l80 10v450l-80 10v15h130c80 0 120 -40 120 -120v-130l205 220l-95 15v15h225v-15l-95 -15l-135 -145l215 -300l55 -10v-15h-145c-28.667 0 -52.834 7.16699 -72.501 21.5s-42.167 38.833 -67.5 73.5l-90 125v-195z" />
    <glyph glyph-name="ldot" unicode="&#x140;" horiz-adv-x="550" 
d="M110 25v650l-80 10v15h130c80 0 120 -40 120 -120v-555l80 -10v-15h-330v15zM430 270c-23.333 0 -42.5 7.5 -57.5 22.5s-22.5 34.167 -22.5 57.5s7.5 42.5 22.5 57.5s34.167 22.5 57.5 22.5s42.5 -7.5 57.5 -22.5s22.5 -34.167 22.5 -57.5s-7.5 -42.5 -22.5 -57.5
s-34.167 -22.5 -57.5 -22.5z" />
    <glyph glyph-name="Lslash" unicode="&#x141;" horiz-adv-x="695" 
d="M400 465l-90 -52v-388h250c1.33301 28 7.5 55.833 18.5 83.5s21.5 48.167 31.5 61.5l15 20h30v-190h-595v15l80 10v291l-90 -51v35l90 51v324l-80 10v15h320v-15l-70 -10v-227l90 52v-35z" />
    <glyph glyph-name="lslash" unicode="&#x142;" horiz-adv-x="400" 
d="M380 465l-90 -52v-388l80 -10v-15h-330v15l80 10v291l-90 -51v35l90 51v324l-80 10v15h130c80 0 120 -40 120 -120v-132l90 52v-35z" />
    <glyph glyph-name="Nacute" unicode="&#x143;" horiz-adv-x="815" 
d="M695 -10h-35l-485 515v-475l100 -15v-15h-225v15l90 15v645l-80 10v15h105c30 0 55.5 -7.16699 76.5 -21.5s49.5 -40.5 85.5 -78.5l333 -355v425l-100 15v15h225v-15l-90 -15v-680zM447 910h130l-136 -170h-44z" />
    <glyph glyph-name="nacute" unicode="&#x144;" horiz-adv-x="720" 
d="M290 25l79.9971 -9.99902v-15h-330v15l80 10v450l-80 10v15h95c21.333 0 40.666 -3.5 57.999 -10.5s30.333 -15.5 39 -25.5c18.667 -19.333 30.334 -37.333 35.001 -54l3 -10c10.667 27.333 29 52.333 55 75c11.333 10 26.833 19.167 46.5 27.5s40.834 12.5 63.501 12.5
c62.667 0 110.834 -14.333 144.501 -43s50.5 -69.334 50.5 -122.001v-325l80 -10v-15h-130c-80 0 -120 40 -120 120v230c0 44.667 -6 77.5 -18 98.5s-27.667 31.5 -47 31.5s-37.666 -8 -54.999 -24s-30 -32 -38 -48l-12 -23v-360zM384.997 740.001h130l-136 -170h-44z" />
    <glyph glyph-name="OE" unicode="&#x152;" horiz-adv-x="1055" 
d="M650 25l250.001 0.00292969c1.33301 28 7.5 55.833 18.5 83.5s21.5 48.167 31.5 61.5l15 20h30v-190h-605c-84 0 -158 26.667 -222 80c-32.667 27.333 -58.834 64.166 -78.501 110.499s-29.5 99.5 -29.5 159.5s9.83301 113.167 29.5 159.5s45.834 83.166 78.501 110.499
c64 53.333 138 80 222 80h605v-190h-30c-4.66699 5.33301 -10.334 12.666 -17.001 21.999s-16 28.5 -28 57.5s-18.667 57.5 -20 85.5h-250v-305h135c2.66699 18.667 8.5 40.5 17.5 65.5s18.167 44.833 27.5 59.5h25v-275h-25c-9.33301 14.667 -18.5 34.5 -27.5 59.5
s-14.833 46.833 -17.5 65.5h-135v-320zM235.001 350.003c0 -112 15.5 -194.167 46.5 -246.5s67.167 -78.5 108.5 -78.5h90v650h-90c-41.333 0 -77.5 -26.167 -108.5 -78.5s-46.5 -134.5 -46.5 -246.5z" />
    <glyph glyph-name="oe" unicode="&#x153;" horiz-adv-x="980" 
d="M220 250c0 -163.333 33.333 -245 100 -245s100 81.667 100 245v12c-2 155.333 -35.333 233 -100 233c-66.667 0 -100 -81.667 -100 -245zM590 300v-54.999c46 0 93.667 3.66699 143 11l27 4c6.66699 33.333 10 63.333 10 90c0 49.333 -8 85.833 -24 109.5
s-37.333 35.5 -64 35.5s-48.667 -16.333 -66 -49s-26 -81.334 -26 -146.001zM710 -14.999c-62.667 0 -111.331 10.668 -145.998 32.001c-30 18.667 -48 35 -54 49l-5 9c-4 -8 -12.167 -17.833 -24.5 -29.5s-25.5 -21.5 -39.5 -29.5c-36 -20.667 -85.667 -31 -149 -31
s-119.5 22.5 -168.5 67.5s-73.5 110.833 -73.5 197.5s24.5 152.5 73.5 197.5s107.833 67.5 176.5 67.5c59.333 0 106.666 -10.667 141.999 -32c30.667 -18.667 50 -35 58 -49l5 -9c4 8 11.833 17.833 23.5 29.5s24.167 21.5 37.5 29.5c33.333 20.667 76.333 31 129 31
c78.667 0 139.167 -16.5 181.5 -49.5s63.5 -74.833 63.5 -125.5c0 -21.333 -4 -43 -12 -65l-3 -10c-116.667 -26.667 -228.334 -41.667 -335.001 -45c2.66699 -70.667 16.167 -123.334 40.5 -158.001s54.5 -52 90.5 -52s68.667 11 98 33s52 47.667 68 77l23 -15
c-51.333 -80 -118 -120 -200 -120z" />
    <glyph glyph-name="Racute" unicode="&#x154;" horiz-adv-x="745" 
d="M300 335h60c42.667 0 76.667 15.333 102 46s38 72 38 124s-12.667 93.333 -38 124s-59.333 46 -102 46h-60v-340zM335 310l-35.002 0.000976562v-285l80 -10v-15h-330v15l80 10v650l-80 10v15h330c92.667 0 164.167 -17.667 214.5 -53s75.5 -81.666 75.5 -138.999
s-19.667 -101.833 -59 -133.5s-96.333 -49.834 -171 -54.501c4.66699 0 14.334 -2.5 29.001 -7.5s27.334 -10.5 38.001 -16.5c27.333 -16.667 50 -40.334 68 -71.001l115 -200l55 -10v-15h-135c-34.667 -0 -64.167 7.83301 -88.5 23.5s-46.5 41.167 -66.5 76.5z
M381.998 920.001h130l-136 -170h-44z" />
    <glyph glyph-name="Rcommaaccent" unicode="&#x156;" horiz-adv-x="745" 
d="M381 -290l-9 15c2 0.666992 4.66699 1.5 8 2.5s9.5 4 18.5 9s16.833 10.833 23.5 17.5c18 18 28.333 41.333 31 70c-12.667 -9.33301 -27.167 -14 -43.5 -14s-30.333 6 -42 18s-17.5 27.5 -17.5 46.5s5.83301 34.667 17.5 47s27 18.5 46 18.5s34.833 -7 47.5 -21
s19 -33.833 19 -59.5s-3.33301 -48.167 -10 -67.5s-15 -34 -25 -44c-20.667 -20 -38.667 -32 -54 -36zM300 335h60c42.667 0 76.667 15.333 102 46s38 72 38 124s-12.667 93.333 -38 124s-59.333 46 -102 46h-60v-340zM335 310l-35.002 0.000976562v-285l80 -10v-15h-330v15
l80 10v650l-80 10v15h330c92.667 0 164.167 -17.667 214.5 -53s75.5 -81.666 75.5 -138.999s-19.667 -101.833 -59 -133.5s-96.333 -49.834 -171 -54.501c4.66699 0 14.334 -2.5 29.001 -7.5s27.334 -10.5 38.001 -16.5c27.333 -16.667 50 -40.334 68 -71.001l115 -200
l55 -10v-15h-135c-34.667 -0 -64.167 7.83301 -88.5 23.5s-46.5 41.167 -66.5 76.5z" />
    <glyph glyph-name="rcommaaccent" unicode="&#x157;" horiz-adv-x="580" 
d="M181 -300l-9 15c2 0.666992 4.66699 1.5 8 2.5s9.5 4 18.5 9s16.833 10.833 23.5 17.5c18 18 28.333 41.333 31 70c-12.667 -9.33301 -27.167 -14 -43.5 -14s-30.333 6 -42 18s-17.5 27.5 -17.5 46.5s5.83301 34.667 17.5 47s27 18.5 46 18.5s34.833 -7 47.5 -21
s19 -33.833 19 -59.5s-3.33301 -48.167 -10 -67.5s-15 -34 -25 -44c-20.667 -20 -38.667 -32 -54 -36zM290 25l80.002 -10.001v-15h-330v15l80 10v450l-80 10v15h95c21.333 0 40.666 -3.5 57.999 -10.5s30.333 -15.5 39 -25.5c18.667 -19.333 30.334 -37.333 35.001 -54
l3 -10l8 11c3.33301 4.66699 10.5 13.167 21.5 25.5s22.667 23 35 32s28.166 17.333 47.499 25s38.666 11.5 57.999 11.5c80 0 120 -31.667 120 -95c0 -21.333 -7.5 -39.166 -22.5 -53.499s-35.833 -21.5 -62.5 -21.5l-45 5v140c-22 0 -44.667 -8 -68 -24
s-41.333 -32 -54 -48l-18 -23v-360z" />
    <glyph glyph-name="Rcaron" unicode="&#x158;" horiz-adv-x="745" 
d="M300 335h60c42.667 0 76.667 15.333 102 46s38 72 38 124s-12.667 93.333 -38 124s-59.333 46 -102 46h-60v-340zM335 310l-35.002 0.000976562v-285l80 -10v-15h-330v15l80 10v650l-80 10v15h330c92.667 0 164.167 -17.667 214.5 -53s75.5 -81.666 75.5 -138.999
s-19.667 -101.833 -59 -133.5s-96.333 -49.834 -171 -54.501c4.66699 0 14.334 -2.5 29.001 -7.5s27.334 -10.5 38.001 -16.5c27.333 -16.667 50 -40.334 68 -71.001l115 -200l55 -10v-15h-135c-34.667 -0 -64.167 7.83301 -88.5 23.5s-46.5 41.167 -66.5 76.5z
M396.998 750.001h-50l-130 160h44l111 -91l111 91h44z" />
    <glyph glyph-name="rcaron" unicode="&#x159;" horiz-adv-x="580" 
d="M290 25l80.002 -10.001v-15h-330v15l80 10v450l-80 10v15h95c21.333 0 40.666 -3.5 57.999 -10.5s30.333 -15.5 39 -25.5c18.667 -19.333 30.334 -37.333 35.001 -54l3 -10l8 11c3.33301 4.66699 10.5 13.167 21.5 25.5s22.667 23 35 32s28.166 17.333 47.499 25
s38.666 11.5 57.999 11.5c80 0 120 -31.667 120 -95c0 -21.333 -7.5 -39.166 -22.5 -53.499s-35.833 -21.5 -62.5 -21.5l-45 5v140c-22 0 -44.667 -8 -68 -24s-41.333 -32 -54 -48l-18 -23v-360zM350.002 549.999h-50l-130 160h44l111 -91l111 91h44z" />
    <glyph glyph-name="Scaron" unicode="&#x160;" horiz-adv-x="675" 
d="M262.5 662.5c-18.333 -18.333 -27.502 -41.3301 -27.502 -68.9971s7.33301 -51.334 22 -71.001s37.334 -40.5 68.001 -62.5l160 -115c86.667 -61.333 130 -123 130 -185c0 -116.667 -88.333 -175 -265 -175c-55.333 0 -106 16.333 -152 49
c-11.333 7.33301 -19.666 13.333 -24.999 18l-8 8c-8.66699 -15.333 -20.834 -29.166 -36.501 -41.499s-30.167 -18.5 -43.5 -18.5h-20v190h45c20 -46 50.167 -87.5 90.5 -124.5s83.5 -55.5 129.5 -55.5c34.667 0 61.667 9.33301 81 28s29 42.5 29 71.5s-7 52.167 -21 69.5
s-37 37.666 -69 60.999l-160 115c-86.667 61.333 -130 124.666 -130 189.999c0 113.333 85 170 255 170c54 0 103.333 -16.333 148 -49c10.667 -7.33301 18.667 -13.333 24 -18l8 -8c8.66699 15.333 20.834 29.166 36.501 41.499s30.167 18.5 43.5 18.5h20v-190h-45
c-20 46 -49.833 87.5 -89.5 124.5s-81.5 55.5 -125.5 55.5c-30 0 -54.167 -9.16699 -72.5 -27.5zM351.998 760.003h-50l-130 160h44l111 -91l111 91h44z" />
    <glyph glyph-name="scaron" unicode="&#x161;" horiz-adv-x="580" 
d="M210 425c0 -30.667 23.3311 -59 69.998 -85l160 -90c25.333 -14 46.666 -32.167 63.999 -54.5s26 -47.5 26 -75.5c0 -40 -18 -72.5 -54 -97.5s-89.667 -37.5 -161 -37.5c-32.667 0 -63.5 5.83301 -92.5 17.5s-49.833 23.5 -62.5 35.5l-20 17c0 -4 -2 -9.83301 -6 -17.5
s-8 -13.834 -12 -18.501c-12 -12.667 -27.667 -19 -47 -19h-20v175h50c12 -48 36.5 -87.5 73.5 -118.5s74.167 -46.5 111.5 -46.5c24.667 0 44.167 6.5 58.5 19.5s21.5 29.833 21.5 50.5c0 27.333 -23.333 54 -70 80l-160 90c-25.333 14 -46.666 32.167 -63.999 54.5
s-26 47.5 -26 75.5c0 40 18 72.5 54 97.5s89.667 37.5 161 37.5c29.333 0 57.833 -5.83301 85.5 -17.5s47.834 -23.5 60.501 -35.5l19 -17c0 4 2 9.83301 6 17.5s8 13.834 12 18.501c12 12.667 27.667 19 47 19h20v-175h-50c-12 48 -36.167 87.5 -72.5 118.5
s-72.166 46.5 -107.499 46.5c-22 0 -40 -6.33301 -54 -19s-21 -28 -21 -46zM304.998 560h-50l-130 160h44l111 -91l111 91h44z" />
    <glyph glyph-name="Ydieresis" unicode="&#x178;" horiz-adv-x="675" 
d="M35 675l-55 10v15h140c33.333 0 60 -7.83301 80 -23.5s40 -41.167 60 -76.5l150 -270l167 340l-97 15v15h225v-15l-93 -15l-182 -375v-270l80 -10v-15h-330v15l80 10v240zM265 760c-17.333 0 -31.666 5.66699 -42.999 17s-17 25.666 -17 42.999s5.66699 31.666 17 42.999
s25.666 17 42.999 17s31.666 -5.66699 42.999 -17s17 -25.666 17 -42.999s-5.66699 -31.666 -17 -42.999s-25.666 -17 -42.999 -17zM493.5 777c-11 -11.333 -25.333 -17 -43 -17s-32.167 5.66699 -43.5 17s-17 25.666 -17 42.999s5.66699 31.666 17 42.999
s25.833 17 43.5 17s32 -5.66699 43 -17s16.5 -25.666 16.5 -42.999s-5.5 -31.666 -16.5 -42.999z" />
    <glyph glyph-name="Zcaron" unicode="&#x17d;" horiz-adv-x="670" 
d="M435 675h-280c-1.33301 -28 -7.5 -55.833 -18.5 -83.5s-21.5 -48.167 -31.5 -61.5l-15 -20h-30v190h570v-25l-395 -650h280c1.33301 28 7.5 55.833 18.5 83.5s21.5 48.167 31.5 61.5l15 20h30v-190h-570v25zM370 750h-50l-130 160h44l111 -91l111 91h44z" />
    <glyph glyph-name="zcaron" unicode="&#x17e;" horiz-adv-x="590" 
d="M355 475h-195c-1.33301 -28 -7.5 -55 -18.5 -81s-21.5 -44.667 -31.5 -56l-15 -18h-30v180h475v-25l-305 -450h195c1.33301 28 7.5 55 18.5 81s21.5 44.667 31.5 56l15 18h30v-180h-475v25zM330 570h-50l-130 160h44l111 -91l111 91h44z" />
    <glyph glyph-name="florin" unicode="&#x192;" horiz-adv-x="526" 
d="M86 -15l64 450.001l-79 10l3 20h80l5 35c9.33301 67.333 37.333 120 84 158s102.334 57 167.001 57c123.333 0 185 -30 185 -90c0 -28.667 -9.33301 -50.834 -28 -66.501s-41.334 -23.5 -68.001 -23.5l-40 5l21 145c-13.333 3.33301 -25 5 -35 5
c-28.667 0 -52.667 -13.167 -72 -39.5s-34 -76.5 -44 -150.5l-5 -35h180l-3 -20l-181 -10l-64 -450c-8 -59.333 -32.167 -106 -72.5 -140s-94.833 -51 -163.5 -51c-50 0 -84.833 10.667 -104.5 32s-31.5 56 -35.5 104l25 5c0 -36.667 7.16699 -65 21.5 -85s33 -30 56 -30
s44 13 63 39s32.5 68 40.5 126z" />
    <glyph glyph-name="circumflex" unicode="&#x2c6;" horiz-adv-x="310" 
d="M130 860h50l130 -160h-44l-111 91l-111 -91h-44z" />
    <glyph glyph-name="caron" unicode="&#x2c7;" horiz-adv-x="310" 
d="M180 700h-50l-130 160h44l111 -91l111 91h44z" />
    <glyph glyph-name="tilde" unicode="&#x2dc;" horiz-adv-x="290" 
d="M160 790c21.333 -16.667 38.666 -25 51.999 -25s25 3.83301 35 11.5s16.333 15.167 19 22.5l4 11h15c0 -47.333 -15.667 -81.333 -47 -102c-12 -8.66699 -27.667 -13 -47 -13s-39.666 8.33301 -60.999 25s-38.666 25 -51.999 25s-25 -3.83301 -35 -11.5
s-16.333 -15.167 -19 -22.5l-4 -11h-15c0 47.333 15.667 81.333 47 102c12 8.66699 27.667 13 47 13s39.666 -8.33301 60.999 -25z" />
    <glyph glyph-name="endash" unicode="&#x2013;" horiz-adv-x="565" 
d="M535 290h-505v45h505v-45z" />
    <glyph glyph-name="emdash" unicode="&#x2014;" horiz-adv-x="805" 
d="M775 290h-745v45h745v-45z" />
    <glyph glyph-name="quoteleft" unicode="&#x2018;" horiz-adv-x="280" 
d="M183 710l9 -19c-36.667 -9.33301 -64.667 -33 -84 -71c-8 -15.333 -13 -32.333 -15 -51c16 12 34 18 54 18s37.167 -7.5 51.5 -22.5s21.5 -34.167 21.5 -57.5s-7.16699 -42.5 -21.5 -57.5s-33 -22.5 -56 -22.5s-42.5 8.5 -58.5 25.5s-24 41.167 -24 72.5
s4.16699 59 12.5 83s18.833 42 31.5 54c24.667 25.333 46.667 40.333 66 45z" />
    <glyph glyph-name="quoteright" unicode="&#x2019;" horiz-adv-x="280" 
d="M97 427l-9 19c36.667 9.33301 64.667 33.333 84 72c8 14.667 13 31.334 15 50.001c-16 -12 -34 -18 -54 -18s-37.167 7.5 -51.5 22.5s-21.5 34.167 -21.5 57.5s7.16699 42.5 21.5 57.5s33 22.5 56 22.5s42.5 -8.5 58.5 -25.5s24 -41.167 24 -72.5s-4.16699 -59 -12.5 -83
s-18.833 -42.333 -31.5 -55c-24.667 -24.667 -46.667 -39.334 -66 -44.001z" />
    <glyph glyph-name="quotesinglbase" unicode="&#x201a;" horiz-adv-x="280" 
d="M97 -133l-9 19c36.667 9.33301 64.667 33.333 84 72c8 14.667 13 31.334 15 50.001c-16 -12 -34 -18 -54 -18s-37.167 7.5 -51.5 22.5s-21.5 34.167 -21.5 57.5s7.16699 42.5 21.5 57.5s33 22.5 56 22.5s42.5 -8.5 58.5 -25.5s24 -41.167 24 -72.5
s-4.16699 -59 -12.5 -83s-18.833 -42.333 -31.5 -55c-24.667 -24.667 -46.667 -39.334 -66 -44.001z" />
    <glyph glyph-name="quotedblleft" unicode="&#x201c;" horiz-adv-x="490" 
d="M393 710l9 -19c-36.667 -9.33301 -64.667 -33 -84 -71c-8 -15.333 -13 -32.333 -15 -51c16 12 34 18 54 18s37.167 -7.5 51.5 -22.5s21.5 -34.167 21.5 -57.5s-7.16699 -42.5 -21.5 -57.5s-33 -22.5 -56 -22.5s-42.5 8.5 -58.5 25.5s-24 41.167 -24 72.5
s4.16699 59 12.5 83s18.833 42 31.5 54c24.667 25.333 46.667 40.333 66 45zM183 710l9 -19c-36.667 -9.33301 -64.667 -33 -84 -71c-8 -15.333 -13 -32.333 -15 -51c16 12 34 18 54 18s37.167 -7.5 51.5 -22.5s21.5 -34.167 21.5 -57.5s-7.16699 -42.5 -21.5 -57.5
s-33 -22.5 -56 -22.5s-42.5 8.5 -58.5 25.5s-24 41.167 -24 72.5s4.16699 59 12.5 83s18.833 42 31.5 54c24.667 25.333 46.667 40.333 66 45z" />
    <glyph glyph-name="quotedblright" unicode="&#x201d;" horiz-adv-x="490" 
d="M97 427l-9 19c36.667 9.33301 64.667 33.333 84 72c8 14.667 13 31.334 15 50.001c-16 -12 -34 -18 -54 -18s-37.167 7.5 -51.5 22.5s-21.5 34.167 -21.5 57.5s7.16699 42.5 21.5 57.5s33 22.5 56 22.5s42.5 -8.5 58.5 -25.5s24 -41.167 24 -72.5s-4.16699 -59 -12.5 -83
s-18.833 -42.333 -31.5 -55c-24.667 -24.667 -46.667 -39.334 -66 -44.001zM307 427l-9 19c36.667 9.33301 64.667 33.333 84 72c8 14.667 13 31.334 15 50.001c-16 -12 -34 -18 -54 -18s-37.167 7.5 -51.5 22.5s-21.5 34.167 -21.5 57.5s7.16699 42.5 21.5 57.5
s33 22.5 56 22.5s42.5 -8.5 58.5 -25.5s24 -41.167 24 -72.5s-4.16699 -59 -12.5 -83s-18.833 -42.333 -31.5 -55c-24.667 -24.667 -46.667 -39.334 -66 -44.001z" />
    <glyph glyph-name="quotedblbase" unicode="&#x201e;" horiz-adv-x="490" 
d="M97 -133l-9 19c36.667 9.33301 64.667 33.333 84 72c8 14.667 13 31.334 15 50.001c-16 -12 -34 -18 -54 -18s-37.167 7.5 -51.5 22.5s-21.5 34.167 -21.5 57.5s7.16699 42.5 21.5 57.5s33 22.5 56 22.5s42.5 -8.5 58.5 -25.5s24 -41.167 24 -72.5
s-4.16699 -59 -12.5 -83s-18.833 -42.333 -31.5 -55c-24.667 -24.667 -46.667 -39.334 -66 -44.001zM307 -133l-9 19c36.667 9.33301 64.667 33.333 84 72c8 14.667 13 31.334 15 50.001c-16 -12 -34 -18 -54 -18s-37.167 7.5 -51.5 22.5s-21.5 34.167 -21.5 57.5
s7.16699 42.5 21.5 57.5s33 22.5 56 22.5s42.5 -8.5 58.5 -25.5s24 -41.167 24 -72.5s-4.16699 -59 -12.5 -83s-18.833 -42.333 -31.5 -55c-24.667 -24.667 -46.667 -39.334 -66 -44.001z" />
    <glyph glyph-name="dagger" unicode="&#x2020;" horiz-adv-x="530" 
d="M340 610l-50 -205l190 45v-125l-190 45l70 -390l-95 -190l-95 190l70 390l-190 -45v125l190 -45l-50 205l75 100z" />
    <glyph glyph-name="daggerdbl" unicode="&#x2021;" horiz-adv-x="530" 
d="M290 95l50 -205l-75 -100l-75 100l50 205l-190 -45v125l190 -45l-40 120l40 120l-190 -45v125l190 -45l-50 205l75 100l75 -100l-50 -205l190 45v-125l-190 45l40 -120l-40 -120l190 45v-125z" />
    <glyph glyph-name="bullet" unicode="&#x2022;" horiz-adv-x="365" 
d="M256.5 258.5c-19 -19 -43.667 -28.5 -74 -28.5s-55 9.5 -74 28.5s-28.5 43.667 -28.5 74s9.5 55 28.5 74s43.667 28.5 74 28.5s55 -9.5 74 -28.5s28.5 -43.667 28.5 -74s-9.5 -55 -28.5 -74z" />
    <glyph glyph-name="ellipsis" unicode="&#x2026;" horiz-adv-x="760" 
d="M140 -10c-23.333 0 -42.5 7.5 -57.5 22.5s-22.5 34.167 -22.5 57.5s7.5 42.5 22.5 57.5s34.167 22.5 57.5 22.5s42.5 -7.5 57.5 -22.5s22.5 -34.167 22.5 -57.5s-7.5 -42.5 -22.5 -57.5s-34.167 -22.5 -57.5 -22.5zM380 -10c-23.333 0 -42.5 7.5 -57.5 22.5
s-22.5 34.167 -22.5 57.5s7.5 42.5 22.5 57.5s34.167 22.5 57.5 22.5s42.5 -7.5 57.5 -22.5s22.5 -34.167 22.5 -57.5s-7.5 -42.5 -22.5 -57.5s-34.167 -22.5 -57.5 -22.5zM620 -10c-23.333 0 -42.5 7.5 -57.5 22.5s-22.5 34.167 -22.5 57.5s7.5 42.5 22.5 57.5
s34.167 22.5 57.5 22.5s42.5 -7.5 57.5 -22.5s22.5 -34.167 22.5 -57.5s-7.5 -42.5 -22.5 -57.5s-34.167 -22.5 -57.5 -22.5z" />
    <glyph glyph-name="perthousand" unicode="&#x2030;" horiz-adv-x="1125" 
d="M620 700h45l-530 -700h-50zM255 535c0 103.333 -18.333 155 -55 155s-55 -51.667 -55 -155s18.333 -155 55 -155s55 51.667 55 155zM370 535c0 -53.333 -14.833 -95.833 -44.5 -127.5s-71.5 -47.5 -125.5 -47.5s-95.833 15.833 -125.5 47.5s-44.5 74.167 -44.5 127.5
s14.833 95.833 44.5 127.5s71.5 47.5 125.5 47.5s95.833 -15.833 125.5 -47.5s44.5 -74.167 44.5 -127.5zM610 165c0 103.333 -18.333 155 -55 155s-55 -51.667 -55 -155s18.333 -155 55 -155s55 51.667 55 155zM725 165c0 -53.333 -14.833 -95.833 -44.5 -127.5
s-71.5 -47.5 -125.5 -47.5s-95.833 15.833 -125.5 47.5s-44.5 74.167 -44.5 127.5s14.833 95.833 44.5 127.5s71.5 47.5 125.5 47.5s95.833 -15.833 125.5 -47.5s44.5 -74.167 44.5 -127.5zM980 165c0 103.333 -18.333 155 -55 155s-55 -51.667 -55 -155
s18.333 -155 55 -155s55 51.667 55 155zM1095 165c0 -53.333 -14.833 -95.833 -44.5 -127.5s-71.5 -47.5 -125.5 -47.5s-95.833 15.833 -125.5 47.5s-44.5 74.167 -44.5 127.5s14.833 95.833 44.5 127.5s71.5 47.5 125.5 47.5s95.833 -15.833 125.5 -47.5
s44.5 -74.167 44.5 -127.5z" />
    <glyph glyph-name="guilsinglleft" unicode="&#x2039;" horiz-adv-x="410" 
d="M370 475l-255 -225l255 -225l-20 -25l-350 250l350 250z" />
    <glyph glyph-name="guilsinglright" unicode="&#x203a;" horiz-adv-x="410" 
d="M295 250l-255 225l20 25l350 -250l-350 -250l-20 25z" />
    <glyph glyph-name="Euro" unicode="&#x20ac;" horiz-adv-x="760" 
d="M115 350l1.00195 35.001h-76v35h79c6.66699 50.667 21 95.667 43 135s48 70.333 78 93c60.667 44.667 124 67 190 67c53.333 0 100.666 -16.333 141.999 -49c9.33301 -7.33301 16.333 -13.333 21 -18l7 -8c8.66699 15.333 20.834 29.166 36.501 41.499
s30.167 18.5 43.5 18.5h20v-190h-45c-20.667 48 -49.5 90 -86.5 126s-78.167 54 -123.5 54c-34.667 0 -67.167 -22 -97.5 -66s-48.833 -112 -55.5 -204h223v-35h-225v-35c0 -20.667 0.333008 -35.667 1 -45h214v-35h-212c8 -90.667 28.667 -156.667 62 -198
s72.666 -62 117.999 -62s87.666 13.167 126.999 39.5s68.333 59.833 87 100.5l23 -15c-52.667 -100 -136 -150 -250 -150s-204 40.333 -270 121c-36 44 -59 98.667 -69 164h-91v35h87c-1.33301 18.667 -2 33.667 -2 45z" />
    <glyph glyph-name="trademark" unicode="&#x2122;" horiz-adv-x="970" 
d="M415 700h90.001c22.667 0 39.667 -4.5 51 -13.5s22.666 -22.833 33.999 -41.5l95 -150l75 150c18.667 36.667 47 55 85 55h85v-15l-60 -5v-290l60 -5v-15h-235v15l60 5v190l-110 -220h-10l-135 220v-190l60 -5v-15h-145v15l60 5v290l-60 5v15zM385.001 700
l0.000976562 -125.001h-20c-26.667 26.667 -41.667 61.667 -45 105h-50v-290l60 -5v-15h-235v15l60 5v290h-50c-1.33301 -19.333 -5.83301 -37.666 -13.5 -54.999s-14.834 -30 -21.501 -38l-10 -12h-20v125h345z" />
    <glyph glyph-name=".null" horiz-adv-x="0" 
 />
    <glyph glyph-name="nonmarkingreturn" horiz-adv-x="333" 
 />
    <glyph glyph-name="foundryicon" horiz-adv-x="2405" 
d="M1385 160c0 -47.333 -16.5 -87.5 -49.5 -120.5s-73.167 -49.5 -120.5 -49.5s-87.5 16.5 -120.5 49.5s-49.5 73.167 -49.5 120.5s16.5 87.5 49.5 120.5s73.167 49.5 120.5 49.5s87.5 -16.5 120.5 -49.5s49.5 -73.167 49.5 -120.5zM370 0h-320v320zM2050 0h-320l160 320z
M2230 160c0 -47.333 -16.5 -87.5 -49.5 -120.5s-73.167 -49.5 -120.5 -49.5v340c47.333 0 87.5 -16.5 120.5 -49.5s49.5 -73.167 49.5 -120.5zM1720 320v-295l-285 295h285zM1410 0v295l285 -295h-285zM700 320l160 -320h-160v320zM1020 320v-320h-160zM370 0v160l320 -160
h-320zM370 320h320l-320 -160v160zM515 380h-320l320 320v-320zM880 540c0 -47.333 -16.5 -87.5 -49.5 -120.5s-73.167 -49.5 -120.5 -49.5s-87.5 16.5 -120.5 49.5s-49.5 73.167 -49.5 120.5s16.5 87.5 49.5 120.5s73.167 49.5 120.5 49.5s87.5 -16.5 120.5 -49.5
s49.5 -73.167 49.5 -120.5zM850 700h320l-160 -320zM1375 380h-320l160 320zM1695 700v-295l-285 295h285zM1385 380v295l285 -295h-285zM2045 700v-295l-285 295h285zM1735 380v295l285 -295h-285zM2055 700h320l-160 -320z" />
    </font>
</defs>
</svg>
